<svg width="48" height="48" viewBox="0 0 48 48" fill="none" xmlns="http://www.w3.org/2000/svg">
  <path d="M7.68031 23.9997C7.68031 14.9757 14.9763 7.67969 24.0003 7.67969C33.0243 7.67969 40.3203 14.9757 40.3203 23.9997C40.3203 33.0237 33.0243 40.3197 24.0003 40.3197C14.9763 40.3197 7.68031 33.0237 7.68031 23.9997ZM38.4003 23.9997C38.4003 16.0317 31.9683 9.59969 24.0003 9.59969C16.0323 9.59969 9.60031 16.0317 9.60031 23.9997C9.60031 31.9677 16.0323 38.3997 24.0003 38.3997C31.9683 38.3997 38.4003 31.9677 38.4003 23.9997Z" fill="currentColor"/>
  <path d="M14.9758 24.0005L24.2878 14.6885L25.6318 16.0325L17.6638 24.0005L25.6318 31.9685L24.2878 33.3125L14.9758 24.0005Z" fill="currentColor"/>
  <path d="M32.6401 23.04L32.6401 24.96L16.3201 24.96L16.3201 23.04L32.6401 23.04Z" fill="currentColor"/>
</svg>
