<svg width="48" height="48" viewBox="0 0 48 48" fill="none" xmlns="http://www.w3.org/2000/svg">
  <path d="M40.3202 24.0003C40.3202 33.0243 33.0242 40.3203 24.0002 40.3203C14.9762 40.3203 7.68018 33.0243 7.68018 24.0003C7.68018 14.9763 14.9762 7.68031 24.0002 7.68031C33.0242 7.68031 40.3202 14.9763 40.3202 24.0003ZM9.60018 24.0003C9.60018 31.9683 16.0322 38.4003 24.0002 38.4003C31.9682 38.4003 38.4002 31.9683 38.4002 24.0003C38.4002 16.0323 31.9682 9.60031 24.0002 9.60031C16.0322 9.60031 9.60018 16.0323 9.60018 24.0003Z" fill="currentColor"/>
  <path d="M33.0237 23.9995L23.7117 33.3115L22.3677 31.9675L30.3357 23.9995L22.3677 16.0315L23.7117 14.6875L33.0237 23.9995Z" fill="currentColor"/>
  <path d="M15.3599 24.96L15.3599 23.04L31.6799 23.04L31.6799 24.96L15.3599 24.96Z" fill="currentColor"/>
</svg>
