<svg width="40" height="40" viewBox="0 0 40 40" fill="none" xmlns="http://www.w3.org/2000/svg">
<g id="home mobile">
<g id="pain points">
<g id="Frame 17">
<g id="Frame 1984077984">
<g id="phone_14368492 1">
<rect width="40" height="40" rx="20" fill="#DECEC4"/>
<g id="LINE">
<path id="Vector" d="M11.4824 28.4116L28.4311 11.4629" stroke="white" stroke-width="1.21332" stroke-miterlimit="10" stroke-linecap="round" stroke-linejoin="round"/>
<g id="Group">
<g id="Group_2">
<path id="Vector_2" d="M17.2085 25.1364C21.6549 28.9487 25.074 28.628 25.2346 28.611C25.6166 28.5653 25.9828 28.4741 26.355 28.3295C26.7548 28.1733 27.1286 27.9613 27.4526 27.7077L27.4692 27.7223L28.237 26.9704C28.791 26.4153 28.807 25.5281 28.2729 24.9923L25.5837 22.3028C25.048 21.7692 24.1609 21.7854 23.6066 22.3399L22.2517 23.6945C22.1661 23.6473 22.0776 23.5981 21.9844 23.5458C21.4204 23.2333 20.7193 22.8444 19.9539 22.2624" stroke="white" stroke-width="1.21332" stroke-miterlimit="10" stroke-linecap="round" stroke-linejoin="round"/>
<path id="Vector_3" d="M17.6391 19.9429C17.0621 19.1815 16.6756 18.4848 16.3641 17.9239C16.3139 17.8333 16.2658 17.7458 16.2183 17.6628L17.1276 16.7549L17.5746 16.3072C18.1298 15.7519 18.1451 14.8652 17.6108 14.3301L14.9215 11.6402C14.3871 11.1059 13.4997 11.1221 12.9445 11.6775L12.1866 12.4397L12.2073 12.4603C11.9532 12.7846 11.7408 13.1586 11.5827 13.5619C11.4371 13.9459 11.3464 14.3122 11.305 14.6793C10.9877 17.3089 12.0273 19.7364 14.8551 22.8269" stroke="white" stroke-width="1.21332" stroke-miterlimit="10" stroke-linecap="round" stroke-linejoin="round"/>
</g>
</g>
</g>
</g>
</g>
</g>
</g>
</g>
</svg>
