<svg width="40" height="40" viewBox="0 0 40 40" fill="none" xmlns="http://www.w3.org/2000/svg">
<g id="home mobile">
<g id="pain points">
<g id="Frame 17">
<g id="Frame 1984077986">
<g id="phone_14368492 1">
<rect width="40" height="40" rx="20" fill="#DECEC4"/>
<g id="discount_14889220 1">
<path id="Vector" d="M19.9997 29.5081C18.7508 29.5094 17.514 29.2641 16.3601 28.7861C15.2063 28.3082 14.1582 27.6072 13.276 26.7232C11.7182 25.1667 10.7485 23.1181 10.532 20.9266C10.3155 18.735 10.8656 16.5363 12.0887 14.705C13.3118 12.8737 15.1321 11.5232 17.2394 10.8837C19.3467 10.2443 21.6105 10.3553 23.6451 11.198C25.6796 12.0407 27.359 13.5629 28.3969 15.5052C29.4349 17.4474 29.7672 19.6894 29.3372 21.8492C28.9072 24.009 27.7415 25.9529 26.0388 27.3494C24.3362 28.746 22.2019 29.5089 19.9997 29.5081ZM13.7933 26.206C15.3295 27.7382 17.38 28.6452 19.5471 28.7511C21.7143 28.857 23.8435 28.1541 25.5217 26.7789C27.1999 25.4037 28.3075 23.4542 28.6297 21.3085C28.9518 19.1629 28.4655 16.9741 27.2651 15.1667C26.0647 13.3593 24.2357 12.0622 22.133 11.527C20.0304 10.9919 17.8039 11.2568 15.8855 12.2704C13.9671 13.2839 12.4935 14.9739 11.7507 17.0125C11.0079 19.0511 11.0487 21.2929 11.8653 23.3031C12.3062 24.3905 12.9619 25.3779 13.7933 26.206Z" fill="white"/>
<path id="Vector_2" d="M19.9998 28.163C18.1087 28.164 16.2757 27.5091 14.8133 26.3099C13.3509 25.1107 12.3497 23.4415 11.9802 21.5868C11.6108 19.7321 11.896 17.8066 12.7872 16.1387C13.6784 14.4707 15.1206 13.1634 16.8678 12.4396C18.6149 11.7158 20.5591 11.6204 22.3687 12.1695C24.1784 12.7187 25.7417 13.8784 26.792 15.4511C27.8423 17.0238 28.3147 18.912 28.1287 20.794C27.9427 22.676 27.1098 24.4353 25.7719 25.7719C25.0148 26.5311 24.1151 27.1332 23.1245 27.5435C22.1339 27.9538 21.072 28.1644 19.9998 28.163ZM19.9998 12.568C18.2804 12.568 16.6143 13.1642 15.2852 14.255C13.9561 15.3458 13.0463 16.8636 12.7109 18.55C12.3755 20.2363 12.6351 21.9868 13.4457 23.5031C14.2562 25.0195 15.5674 26.2079 17.1559 26.8659C18.7444 27.5238 20.5119 27.6107 22.1573 27.1115C23.8026 26.6124 25.224 25.5582 26.1792 24.1286C27.1344 22.699 27.5644 20.9824 27.3959 19.2713C27.2273 17.5602 26.4707 15.9605 25.2549 14.7447C24.5664 14.0524 23.7474 13.5036 22.8454 13.13C21.9434 12.7563 20.9762 12.5653 19.9998 12.568Z" fill="white"/>
<path id="Vector_3" d="M15.6662 25.3712C15.4609 25.3712 15.2601 25.3103 15.0894 25.1962C14.9186 25.0822 14.7856 24.92 14.707 24.7303C14.6284 24.5406 14.6078 24.3318 14.6479 24.1304C14.688 23.929 14.7869 23.744 14.9321 23.5988L23.5988 14.9321C23.7936 14.7373 24.0577 14.6279 24.3331 14.6279C24.6085 14.6279 24.8726 14.7373 25.0674 14.9321C25.2621 15.1268 25.3715 15.391 25.3715 15.6664C25.3715 15.9418 25.2621 16.2059 25.0674 16.4007L16.4006 25.0674C16.3043 25.1639 16.1898 25.2404 16.0638 25.2926C15.9377 25.3447 15.8026 25.3714 15.6662 25.3712ZM24.3332 15.3597C24.2929 15.3597 24.2529 15.3676 24.2157 15.383C24.1784 15.3984 24.1446 15.421 24.1161 15.4496L15.4493 24.1161C15.3917 24.1737 15.3594 24.2518 15.3594 24.3332C15.3594 24.4147 15.3917 24.4928 15.4493 24.5504C15.5069 24.608 15.585 24.6403 15.6665 24.6403C15.7479 24.6403 15.826 24.608 15.8836 24.5504L24.5501 15.8834C24.5929 15.8405 24.622 15.7858 24.6338 15.7263C24.6456 15.6669 24.6395 15.6052 24.6163 15.5492C24.5931 15.4932 24.5538 15.4453 24.5035 15.4116C24.4531 15.3779 24.3938 15.3598 24.3332 15.3597Z" fill="white"/>
<path id="Vector_4" d="M16.4513 19.9241C15.8085 19.9241 15.2204 19.691 14.777 19.2478C14.1804 18.6512 13.9656 17.792 14.1852 16.8912C14.3347 16.2802 14.6881 15.6727 15.1802 15.1806C15.6723 14.6885 16.2799 14.3349 16.8908 14.1856C17.7921 13.965 18.6508 14.1808 19.2479 14.7774C19.8449 15.374 20.0602 16.2327 19.8399 17.134C19.6904 17.7449 19.337 18.3525 18.8449 18.8446C18.3528 19.3367 17.7452 19.6903 17.1343 19.8396C16.9108 19.895 16.6815 19.9234 16.4513 19.9241ZM17.5679 14.8341C17.3983 14.8348 17.2295 14.8559 17.065 14.8967C16.5823 15.0149 16.0968 15.2997 15.6979 15.6985C15.2991 16.0974 15.0143 16.5829 14.8961 17.0656C14.7379 17.7129 14.8831 18.32 15.2947 18.7317C15.7064 19.1433 16.313 19.2873 16.9599 19.1292C17.4428 19.011 17.9283 18.7262 18.3272 18.3273C18.726 17.9285 19.0108 17.443 19.129 16.96C19.2872 16.3129 19.142 15.7058 18.7304 15.2942C18.4282 14.9918 18.02 14.8341 17.5679 14.8341Z" fill="white"/>
<path id="Vector_5" d="M16.4569 18.5761C16.1732 18.5761 15.9179 18.4847 15.7291 18.2968C15.2352 17.8026 15.4123 16.8517 16.1323 16.1317C16.8523 15.4117 17.8032 15.2348 18.2974 15.7285C18.7915 16.2223 18.6142 17.1736 17.8942 17.8936C17.4482 18.3384 16.914 18.5761 16.4569 18.5761ZM17.5668 16.1791C17.3355 16.1791 16.981 16.3176 16.6496 16.649C16.1815 17.1171 16.098 17.6319 16.2464 17.7795C16.3947 17.9272 16.9092 17.8444 17.3769 17.3763C17.8446 16.9082 17.9282 16.3935 17.7801 16.2458C17.7369 16.2026 17.6612 16.1791 17.5659 16.1791H17.5668Z" fill="white"/>
<path id="Vector_6" d="M22.4265 25.8987C21.7835 25.8987 21.1954 25.6658 20.752 25.2224C20.1554 24.6258 19.9397 23.7666 20.1602 22.8653C20.3097 22.2544 20.6631 21.6468 21.1552 21.1547C21.6473 20.6626 22.2549 20.309 22.8658 20.1597C23.7671 19.9392 24.6258 20.1549 25.2229 20.7515C25.8199 21.3481 26.0343 22.2073 25.8146 23.1081C25.6651 23.7191 25.3118 24.3266 24.8197 24.8187C24.3275 25.3108 23.72 25.6644 23.109 25.8137C22.8858 25.8693 22.6566 25.8978 22.4265 25.8987ZM23.5429 20.8075C23.3733 20.8082 23.2045 20.8293 23.04 20.8701C22.557 20.9883 22.0715 21.2731 21.6727 21.672C21.2738 22.0708 20.9888 22.5563 20.8706 23.0395C20.7125 23.6866 20.8576 24.2937 21.2693 24.7053C21.6809 25.117 22.2882 25.2621 22.9353 25.104C23.4181 24.9858 23.9035 24.701 24.3024 24.3021C24.7013 23.9033 24.9861 23.4178 25.1042 22.9351C25.2624 22.2877 25.1173 21.6807 24.7056 21.269C24.4032 20.9664 23.995 20.8075 23.5429 20.8075Z" fill="white"/>
<path id="Vector_7" d="M22.4309 24.5508C22.1473 24.5508 21.892 24.4594 21.7032 24.2715C21.2094 23.7775 21.3864 22.8265 22.1064 22.1065C22.8264 21.3865 23.7772 21.2093 24.2714 21.7033C24.7656 22.1972 24.5882 23.1483 23.8682 23.8683C23.4232 24.3131 22.8899 24.5508 22.4309 24.5508ZM23.5409 22.1538C23.3096 22.1538 22.955 22.2923 22.6236 22.6237C22.1555 23.0918 22.0723 23.6066 22.2204 23.7542C22.3685 23.9019 22.8833 23.8191 23.3509 23.351C23.8186 22.8829 23.9025 22.3682 23.7541 22.2205C23.7107 22.1773 23.6364 22.1538 23.5409 22.1538Z" fill="white"/>
</g>
</g>
</g>
</g>
</g>
</g>
</svg>
