<svg width="40" height="40" viewBox="0 0 40 40" fill="none" xmlns="http://www.w3.org/2000/svg">
<g id="home mobile">
<g id="pain points">
<g id="Frame 17">
<g id="Frame 1984077987">
<g id="phone_14368492 1">
<rect width="40" height="40" rx="20" fill="#DECEC4"/>
<g id="hide_5073922 1">
<g id="Vector">
<path d="M19.9999 25.61C16.1349 25.61 12.5194 23.69 9.78066 20.2074C9.7382 20.1527 9.71515 20.0854 9.71515 20.0162C9.71515 19.947 9.7382 19.8797 9.78066 19.825C12.5027 16.3175 16.1349 14.3892 19.9999 14.3892C23.8648 14.3892 27.4804 16.3092 30.2191 19.7918C30.2616 19.8465 30.2846 19.9137 30.2846 19.983C30.2846 20.0522 30.2616 20.1195 30.2191 20.1741C27.497 23.6817 23.8648 25.61 19.9999 25.61ZM10.4248 19.9996C13.0098 23.2121 16.4009 24.9866 19.9833 24.9866C23.5656 24.9866 26.9734 23.2204 29.5417 19.9996C26.9568 16.7871 23.5656 15.0126 19.9833 15.0126C16.4009 15.0126 13.0098 16.7871 10.4248 19.9996Z" fill="white"/>
<path d="M30.0308 19.9832C30.0308 19.9704 30.0262 19.958 30.0184 19.9479C27.3196 16.5168 23.7737 14.6434 19.9998 14.6434C16.2254 14.6435 12.663 16.525 9.98115 19.9807C9.97332 19.9908 9.9694 20.0033 9.96937 20.0161C9.96937 20.0283 9.97328 20.0403 9.98053 20.0502L10.236 20.3676C12.9012 23.5976 16.3433 25.3558 19.9998 25.3558C23.7741 25.3558 27.3365 23.4742 30.0184 20.0185C30.0262 20.0085 30.0307 19.9959 30.0308 19.9832ZM19.983 14.7587C23.6548 14.7587 27.1146 16.5787 29.7393 19.8406L29.8671 19.9987L29.7406 20.158C27.1317 23.4297 23.654 25.2405 19.983 25.2405C16.3113 25.2404 12.8513 23.4205 10.2267 20.1587L10.099 19.9993L10.2267 19.8406C12.8513 16.5788 16.3113 14.7588 19.983 14.7587ZM19.983 15.2666C16.5495 15.2666 13.2814 16.9381 10.7537 19.9993C13.2814 23.0608 16.5494 24.7326 19.983 24.7327C23.4175 24.7327 26.7012 23.0679 29.2129 19.9999C26.6852 16.9384 23.4167 15.2666 19.983 15.2666ZM30.5386 19.9832C30.5385 20.1088 30.4965 20.2306 30.4195 20.3298C27.6573 23.889 23.9552 25.8637 19.9998 25.8637C16.0445 25.8636 12.3597 23.8976 9.58123 20.3645L9.57999 20.3633C9.50293 20.264 9.46094 20.1417 9.46094 20.0161C9.46097 19.8905 9.50303 19.7686 9.57999 19.6695C12.3422 16.1102 16.0443 14.135 19.9998 14.135C23.8314 14.135 27.4094 15.9806 30.1554 19.308L30.4189 19.6347L30.4195 19.636C30.4966 19.7352 30.5386 19.8576 30.5386 19.9832Z" fill="white"/>
<path d="M19.9999 24.2053C19.1681 24.2053 18.3549 23.9586 17.6633 23.4965C16.9717 23.0344 16.4326 22.3775 16.1143 21.609C15.796 20.8406 15.7127 19.9949 15.875 19.1791C16.0373 18.3633 16.4378 17.6139 17.026 17.0257C17.6142 16.4375 18.3636 16.037 19.1794 15.8747C19.9952 15.7124 20.8408 15.7957 21.6093 16.114C22.3778 16.4323 23.0347 16.9714 23.4968 17.663C23.9589 18.3546 24.2056 19.1678 24.2056 19.9996C24.2045 21.1147 23.761 22.1838 22.9726 22.9723C22.1841 23.7607 21.115 24.2042 19.9999 24.2053ZM19.9999 16.4173C19.2914 16.4173 18.5988 16.6274 18.0096 17.021C17.4205 17.4146 16.9614 17.9741 16.6902 18.6287C16.4191 19.2833 16.3482 20.0036 16.4864 20.6985C16.6246 21.3934 16.9658 22.0317 17.4668 22.5327C17.9678 23.0337 18.6061 23.3749 19.301 23.5131C19.9959 23.6513 20.7162 23.5804 21.3708 23.3092C22.0254 23.0381 22.5849 22.5789 22.9785 21.9898C23.3721 21.4007 23.5822 20.7081 23.5822 19.9996C23.5811 19.0498 23.2033 18.1393 22.5318 17.4677C21.8602 16.7961 20.9496 16.4183 19.9999 16.4173Z" fill="white"/>
<path d="M23.9514 19.9996C23.9514 19.218 23.7197 18.4539 23.2855 17.804C22.8513 17.1543 22.2342 16.6479 21.5122 16.3488C20.7902 16.0497 19.9957 15.9713 19.2292 16.1237C18.4626 16.2762 17.758 16.6524 17.2054 17.2051C16.6527 17.7577 16.2765 18.4623 16.124 19.2289C15.9716 19.9954 16.05 20.7899 16.3491 21.5119C16.6482 22.2339 17.1546 22.851 17.8043 23.2852C18.4542 23.7194 19.2183 23.9511 19.9999 23.9511C21.0476 23.95 22.0523 23.5337 22.7932 22.7929C23.534 22.052 23.9503 21.0473 23.9514 19.9996ZM23.3239 19.8347C23.2822 19.0124 22.9373 18.2321 22.3523 17.6472C21.7284 17.0232 20.8823 16.6723 19.9999 16.6712C19.3416 16.6712 18.6983 16.8667 18.1509 17.2324C17.6036 17.5981 17.177 18.1179 16.9251 18.726C16.6732 19.3342 16.607 20.0032 16.7354 20.6488C16.8638 21.2944 17.1807 21.8878 17.6462 22.3533C18.1117 22.8187 18.7051 23.1357 19.3507 23.2641C19.9963 23.3925 20.6653 23.3263 21.2735 23.0744C21.8816 22.8225 22.4014 22.3959 22.7671 21.8486C23.1328 21.3012 23.3283 20.6579 23.3283 19.9996L23.3239 19.8347ZM23.8361 19.9996C23.8361 20.7583 23.6109 21.4998 23.1894 22.1307C22.7679 22.7615 22.1691 23.2534 21.4682 23.5437C20.7672 23.8341 19.9957 23.91 19.2515 23.762C18.5073 23.614 17.8237 23.2488 17.2872 22.7123C16.7507 22.1758 16.3855 21.4922 16.2375 20.748C16.0895 20.0038 16.1654 19.2323 16.4557 18.5313C16.7461 17.8304 17.238 17.2316 17.8688 16.8101C18.4997 16.3886 19.2412 16.1634 19.9999 16.1634L20.1902 16.1684C21.138 16.2164 22.0371 16.614 22.7113 17.2882C23.4305 18.0073 23.8349 18.9826 23.8361 19.9996ZM24.4536 20.221C24.3979 21.3228 23.936 22.3681 23.1522 23.1519C22.3684 23.9357 21.3231 24.3976 20.2213 24.4533L19.9999 24.4595C19.1179 24.4595 18.2556 24.1975 17.5222 23.7074C16.7889 23.2174 16.2173 22.5208 15.8797 21.706C15.5423 20.8911 15.4541 19.9947 15.6261 19.1297C15.7982 18.2646 16.2227 17.4698 16.8464 16.8461C17.4701 16.2224 18.2649 15.7979 19.13 15.6258C19.995 15.4538 20.8914 15.542 21.7062 15.8794C22.5211 16.217 23.2177 16.7886 23.7077 17.5219C24.1978 18.2553 24.4598 19.1176 24.4598 19.9996L24.4536 20.221Z" fill="white"/>
<path d="M25.8846 26.8983C25.8406 26.8989 25.7969 26.8899 25.7568 26.872C25.7166 26.854 25.6808 26.8276 25.6518 26.7944L13.8825 13.6204C13.8552 13.5898 13.8342 13.5542 13.8207 13.5155C13.8072 13.4768 13.8014 13.4358 13.8037 13.3949C13.806 13.354 13.8164 13.314 13.8342 13.2771C13.852 13.2402 13.8769 13.2071 13.9074 13.1798C13.938 13.1526 13.9736 13.1316 14.0123 13.118C14.051 13.1045 14.0919 13.0988 14.1328 13.1011C14.1737 13.1034 14.2138 13.1137 14.2507 13.1315C14.2876 13.1493 14.3206 13.1742 14.3479 13.2048L26.1173 26.3788C26.1714 26.441 26.1992 26.5218 26.1945 26.6041C26.1898 26.6865 26.1532 26.7637 26.0924 26.8193C26.0356 26.871 25.9613 26.8992 25.8846 26.8983Z" fill="white"/>
<path d="M14.1473 12.8476C14.2215 12.8518 14.2943 12.8705 14.3613 12.9028C14.4281 12.935 14.4879 12.9801 14.5373 13.0355L26.3069 26.2095L26.3088 26.2119C26.4065 26.3241 26.4567 26.4702 26.4483 26.6187C26.4399 26.7671 26.3732 26.9065 26.2635 27.0068C26.1606 27.1005 26.0262 27.1522 25.8872 27.1519L25.8878 27.1525C25.8868 27.1526 25.8857 27.1519 25.8847 27.1519C25.8837 27.1519 25.8826 27.1526 25.8816 27.1525C25.803 27.1527 25.7252 27.1362 25.6534 27.1042C25.5797 27.0713 25.5137 27.0224 25.4606 26.9616L13.6928 13.7894C13.6434 13.734 13.6051 13.6692 13.5806 13.5991C13.5562 13.5291 13.5461 13.4549 13.5502 13.3808C13.5544 13.3067 13.5732 13.2338 13.6054 13.1669C13.6377 13.1 13.6827 13.0397 13.7381 12.9902C13.7936 12.9407 13.8583 12.9025 13.9285 12.878C13.9986 12.8535 14.0731 12.8434 14.1473 12.8476ZM14.0959 13.3579C14.0888 13.3604 14.0822 13.3641 14.0767 13.3691C14.071 13.3741 14.0663 13.3808 14.063 13.3877C14.0598 13.3945 14.0579 13.4018 14.0574 13.4094C14.057 13.417 14.058 13.4245 14.0605 13.4317C14.063 13.4386 14.0663 13.4454 14.0711 13.4509L25.8413 26.6249L25.8431 26.6274C25.8479 26.6328 25.854 26.6368 25.8605 26.6398C25.867 26.6427 25.8739 26.6442 25.881 26.6441H25.8878C25.9 26.6442 25.9115 26.6398 25.9207 26.6317C25.9326 26.6208 25.9402 26.6057 25.9411 26.5895C25.942 26.5735 25.9362 26.5576 25.9256 26.5455L14.1585 13.374C14.1535 13.3684 14.1473 13.3637 14.1405 13.3604C14.1337 13.3571 14.1258 13.3552 14.1182 13.3548C14.1107 13.3544 14.103 13.3554 14.0959 13.3579Z" fill="white"/>
</g>
</g>
</g>
</g>
</g>
</g>
</g>
</svg>
