<svg width="56" height="56" viewBox="0 0 56 56" fill="none" xmlns="http://www.w3.org/2000/svg">
<g id="immobilienbewertung">
<g id="Frame 1984077915">
<g id="Frame 1984077937">
<g id="Frame 1984077876">
<g id="unlock_12650014 1">
<rect width="56" height="56" rx="28" fill="#DECEC4"/>
<g id="Vector">
<path d="M20.0417 10C15.6078 10 12 13.6096 12 18.0464V24.013C12 24.3373 12.2626 24.6005 12.5875 24.6005H15.8534C16.1783 24.6005 16.4409 24.3373 16.4409 24.013V18.0464C16.4409 16.0606 18.0559 14.4456 20.0417 14.4456C22.0274 14.4456 23.6525 16.0612 23.6525 18.0464V25.3913H22.4839C21.1838 25.3913 20.1263 26.4488 20.1263 27.7484V33.463C20.1263 39.9625 25.4138 45.25 31.9133 45.25C38.4128 45.25 43.7003 39.9625 43.7003 33.463V27.7484C43.7003 26.4488 42.6428 25.3913 41.3427 25.3913H28.0916V18.0464C28.0916 13.6096 24.4803 10 20.0405 10H20.0417ZM20.0417 13.27C17.4085 13.27 15.2659 15.4126 15.2659 18.0458V23.425H13.175V18.0464C13.175 14.2576 16.2553 11.175 20.0417 11.175C23.8281 11.175 26.9178 14.2576 26.9178 18.0464V25.3913H24.8275V18.0464C24.8275 15.4132 22.6807 13.27 20.0417 13.27ZM42.5259 27.7484V33.463C42.5259 39.3145 37.7648 44.075 31.9139 44.075C26.063 44.075 21.3019 39.3145 21.3019 33.463V27.7484C21.3019 27.0968 21.8324 26.5663 22.4845 26.5663H41.3439C41.9954 26.5663 42.5259 27.0968 42.5259 27.7484Z" fill="white"/>
<path d="M27.6914 18.0469C27.6914 13.8314 24.2598 10.4007 20.041 10.4004C15.8286 10.4008 12.4004 13.831 12.4004 18.0469V24.0127C12.4004 24.1163 12.4842 24.2002 12.5879 24.2002H15.8535C15.9572 24.2001 16.041 24.1163 16.041 24.0127V18.0469C16.041 15.8402 17.8353 14.0459 20.042 14.0459C22.2471 14.0461 24.0527 15.8395 24.0527 18.0469V25.791H22.4844C21.4052 25.791 20.5265 26.6696 20.5264 27.748V33.4629C20.5264 39.7414 25.6346 44.8495 31.9131 44.8496C38.1917 44.8496 43.3008 39.7415 43.3008 33.4629V27.748C43.3006 26.6697 42.4219 25.7911 41.3428 25.791H27.6914V18.0469ZM42.126 27.748C42.1258 27.3176 41.7743 26.9668 41.3438 26.9668H22.4844C22.0532 26.9669 21.7023 27.3178 21.7021 27.748V33.4629C21.7021 39.0935 26.2841 43.6748 31.9141 43.6748C37.544 43.6747 42.126 39.0934 42.126 33.4629V27.748ZM14.8662 18.0459C14.8662 15.1918 17.1879 12.8701 20.042 12.8701C22.9011 12.8703 25.2275 15.1922 25.2275 18.0469V24.9912H26.5176V18.0469C26.5176 14.4795 23.6078 11.5754 20.042 11.5752C16.4767 11.5752 13.5752 14.4787 13.5752 18.0469V23.0254H14.8662V18.0459ZM42.9258 33.4629C42.9258 39.5353 37.9858 44.4745 31.9141 44.4746C25.8423 44.4746 20.9023 39.5353 20.9023 33.4629V27.748C20.9025 26.8757 21.6116 26.1661 22.4844 26.166H41.3438C42.2161 26.166 42.9256 26.8757 42.9258 27.748V33.4629ZM28.4912 24.9912H41.3428C42.8636 24.9913 44.1004 26.2277 44.1006 27.748V33.4629C44.1006 40.1833 38.6335 45.6504 31.9131 45.6504C25.1928 45.6503 19.7266 40.1832 19.7266 33.4629V27.748C19.7267 26.2277 20.9635 24.9912 22.4844 24.9912H23.2529V18.0469C23.2529 16.2841 21.8081 14.8459 20.042 14.8457C18.2772 14.8457 16.8408 16.282 16.8408 18.0469V24.0127C16.8408 24.5576 16.3995 25.0009 15.8535 25.001H12.5879C12.0418 25.001 11.5996 24.5576 11.5996 24.0127V18.0469C11.5996 13.3899 15.3858 9.60149 20.04 9.60059L20.042 9.59961C24.7018 9.6004 28.4912 13.3894 28.4912 18.0469V24.9912ZM15.666 23.8252H12.7754V18.0469C12.7754 14.0374 16.0344 10.7754 20.042 10.7754C24.0488 10.7755 27.3174 14.0368 27.3174 18.0469V25.791H24.4277V18.0469C24.4277 15.6354 22.4607 13.6701 20.042 13.6699C17.6297 13.6699 15.666 15.6336 15.666 18.0459V23.8252Z" fill="white"/>
<path d="M30.4326 35.283V38.395C30.4326 38.7193 30.6952 38.9825 31.0201 38.9825H32.809C33.1339 38.9825 33.3965 38.7193 33.3965 38.395V35.283C34.2537 34.7684 34.7895 33.839 34.7895 32.8191C34.7895 31.234 33.5 29.9438 31.9143 29.9438C30.3286 29.9438 29.0391 31.2334 29.0391 32.8191C29.0391 33.839 29.5755 34.7678 30.4326 35.283ZM31.9143 31.1194C32.8519 31.1194 33.6145 31.882 33.6145 32.8197C33.6145 33.5029 33.2086 34.1169 32.5788 34.3848C32.362 34.477 32.2215 34.6903 32.2215 34.9253V37.8081H31.6076V34.9253C31.6076 34.6897 31.4672 34.477 31.2504 34.3848C30.6212 34.1174 30.2146 33.5029 30.2146 32.8197C30.2146 31.882 30.9766 31.1194 31.9143 31.1194Z" fill="white"/>
<path d="M34.3896 32.8188C34.3895 31.4547 33.2787 30.3442 31.9141 30.3442C30.5495 30.3444 29.4396 31.4543 29.4395 32.8188C29.4395 33.6968 29.9007 34.4963 30.6387 34.9399L30.833 35.0571V38.395C30.833 38.4987 30.9168 38.5825 31.0205 38.5825H32.8086C32.9123 38.5825 32.9961 38.4987 32.9961 38.395V35.0571L33.1904 34.9399C33.9281 34.497 34.3896 33.6972 34.3896 32.8188ZM33.2148 32.8198C33.2148 32.1031 32.6308 31.519 31.9141 31.519C31.1976 31.5192 30.6143 32.103 30.6143 32.8198C30.6143 33.3425 30.9257 33.8125 31.4072 34.0171C31.6352 34.1142 31.813 34.2901 31.9141 34.5054C32.0151 34.2901 32.1938 34.1142 32.4219 34.0171C32.9041 33.8119 33.2148 33.3425 33.2148 32.8198ZM34.0146 32.8198C34.0146 33.6108 33.5734 34.3272 32.8779 34.686L32.7354 34.7524C32.6666 34.7817 32.6211 34.8502 32.6211 34.9253V38.2085H31.208V34.9253C31.208 34.8498 31.1627 34.7818 31.0938 34.7524C30.3171 34.4223 29.8145 33.6634 29.8145 32.8198C29.8145 31.6615 30.7554 30.7194 31.9141 30.7192C33.0726 30.7192 34.0146 31.6613 34.0146 32.8198ZM35.1895 32.8188C35.1895 33.901 34.6591 34.8937 33.7969 35.4985V38.395C33.7969 38.94 33.3547 39.3823 32.8086 39.3823H31.0205C30.4744 39.3823 30.0322 38.94 30.0322 38.395V35.4985C29.1702 34.8934 28.6387 33.9013 28.6387 32.8188C28.6388 31.0124 30.1077 29.5436 31.9141 29.5435C33.7206 29.5435 35.1893 31.013 35.1895 32.8188Z" fill="white"/>
<path d="M33.6432 42.5369C33.7243 42.7843 33.954 42.9417 34.2013 42.9417C34.2618 42.9417 34.3235 42.9323 34.3846 42.9123C36.7146 42.1498 38.5647 40.7374 39.8824 38.7152C40.0599 38.4438 39.9829 38.0796 39.7109 37.9021C39.4401 37.7247 39.0746 37.8017 38.8978 38.0737C37.7298 39.8656 36.0884 41.1181 34.018 41.7955C33.7102 41.896 33.5421 42.2285 33.6432 42.5369Z" fill="white"/>
<path d="M38.6221 37.7734C38.9361 37.3839 39.5019 37.2874 39.9297 37.5674L40.0107 37.627C40.3999 37.9411 40.4975 38.5051 40.2178 38.9336C38.8494 41.0334 36.9239 42.5025 34.5088 43.293C34.4071 43.3262 34.3033 43.3418 34.2012 43.3418C33.8223 43.3417 33.4706 43.1208 33.3076 42.7666L33.292 42.752L33.2627 42.6611C33.0929 42.1427 33.3757 41.5842 33.8936 41.415C35.8788 40.7655 37.4453 39.5694 38.5625 37.8555L38.6221 37.7734ZM39.4912 38.2363C39.4061 38.181 39.2897 38.2054 39.2334 38.292C38.0148 40.1615 36.2978 41.4706 34.1426 42.1758C34.0477 42.2067 33.9939 42.3074 34.0205 42.4033L34.0234 42.4121C34.0492 42.4906 34.122 42.5419 34.2012 42.542C34.2199 42.542 34.2395 42.5388 34.2598 42.5322L34.6758 42.3867C36.725 41.6252 38.3599 40.319 39.5479 38.4961C39.6036 38.4104 39.5796 38.2943 39.4922 38.2373L39.4912 38.2363Z" fill="white"/>
<path d="M40.3144 36.6737C40.3773 36.6954 40.4413 36.7054 40.5042 36.7054C40.7486 36.7054 40.9771 36.5515 41.0599 36.3076C41.2497 35.7519 41.3184 35.3894 41.3214 35.3747C41.3807 35.0563 41.171 34.7502 40.8525 34.6903C40.5335 34.6309 40.2269 34.8395 40.1663 35.1579C40.1663 35.1608 40.1076 35.4599 39.9478 35.9281C39.8426 36.2348 40.0077 36.5685 40.3144 36.6737Z" fill="white"/>
<path d="M39.7734 35.0835C39.8753 34.5474 40.3914 34.198 40.9258 34.2974C41.4605 34.3981 41.8145 34.9124 41.7148 35.4478L41.7139 35.4536C41.7134 35.4562 41.711 35.466 41.709 35.4761C41.7061 35.4903 41.7016 35.5103 41.6963 35.5347C41.6856 35.5834 41.6701 35.6516 41.6484 35.7368C41.6048 35.9078 41.5372 36.148 41.4385 36.437C41.2985 36.848 40.9137 37.105 40.5039 37.105C40.4867 37.105 40.4695 37.101 40.4521 37.1001L40.4199 37.1333L40.1836 37.0522C39.6693 36.8756 39.3922 36.3148 39.5693 35.7983C39.6456 35.5749 39.6971 35.3929 39.7295 35.2681C39.7457 35.2057 39.7576 35.1579 39.7646 35.1265C39.7682 35.1107 39.7701 35.099 39.7715 35.0923C39.7718 35.0907 39.7723 35.0893 39.7725 35.0884L39.7734 35.0835ZM40.7783 35.0825C40.6751 35.064 40.5786 35.1325 40.5596 35.2329C40.5593 35.2344 40.5588 35.2358 40.5586 35.2368C40.5577 35.2414 40.5568 35.2468 40.5557 35.2524C40.5532 35.2645 40.5494 35.2813 40.5449 35.3013C40.536 35.3413 40.5223 35.3982 40.5039 35.4692C40.467 35.6116 40.4095 35.8129 40.3262 36.0571C40.294 36.1514 40.3427 36.256 40.4365 36.2925L40.4453 36.2954C40.4642 36.3019 40.4837 36.3052 40.5039 36.3052C40.5827 36.3052 40.6557 36.2545 40.6816 36.1782C40.853 35.6764 40.9186 35.3419 40.9268 35.3003C40.9451 35.1993 40.8799 35.1016 40.7783 35.0825Z" fill="white"/>
</g>
</g>
</g>
</g>
</g>
</g>
</svg>
