<svg width="56" height="56" viewBox="0 0 56 56" fill="none" xmlns="http://www.w3.org/2000/svg">
<g id="immobilienbewertung">
<g id="Frame 1984077915">
<g id="Frame 1984077937">
<g id="Frame 1984077873">
<g id="money_15930979 1">
<rect width="56" height="56" rx="28" fill="#DECEC4"/>
<g id="Layer_x0020_1">
<path id="Vector" d="M13.0444 17.4993H37.7736C38.2134 17.4993 38.5699 17.852 38.5699 18.2872V32.3526C38.5699 32.7873 38.2134 33.1405 37.7736 33.1405H13.0444C12.6046 33.1405 12.248 32.7873 12.248 32.3526V18.2872C12.248 17.852 12.6046 17.4993 13.0444 17.4993ZM20.3701 27.4197C19.3217 27.4197 19.3217 25.8439 20.3701 25.8439H21.0392V24.7958H20.3701C19.3217 24.7958 19.3217 23.2196 20.3701 23.2196H21.4518C22.5165 20.794 25.2348 19.5054 27.8397 20.2527C28.8434 20.5406 28.4011 22.0488 27.3978 21.7609C25.8494 21.3165 24.1807 21.9065 23.2653 23.2196H25.1966C26.2454 23.2196 26.2454 24.7958 25.1966 24.7958H22.6429V25.8439H25.1966C26.2454 25.8439 26.2454 27.4197 25.1966 27.4197H23.2653C23.949 28.4006 25.0844 29.0232 26.349 29.0232L27.3978 28.8788C28.4011 28.5909 28.8434 30.0991 27.8397 30.3871C25.2319 31.1347 22.5144 29.8421 21.4518 27.4197H20.3701ZM42.1541 23.6455C42.1541 22.6079 43.7468 22.6079 43.7468 23.6455V37.7105C43.7468 38.1457 43.3903 38.4984 42.9505 38.4984H18.2213C17.1729 38.4984 17.1729 36.9227 18.2213 36.9227H42.1541V23.6455ZM39.6451 21.045C39.6451 20.0077 41.2382 20.0077 41.2382 21.045V35.1104C41.2382 35.5456 40.8813 35.8983 40.4415 35.8983H15.7123C14.6639 35.8983 14.6639 34.3225 15.7123 34.3225H39.6451V21.045ZM36.9772 19.075H13.8407V31.5643H36.9772V19.075Z" fill="white"/>
</g>
</g>
</g>
</g>
</g>
</g>
</svg>
