<svg width="56" height="56" viewBox="0 0 56 56" fill="none" xmlns="http://www.w3.org/2000/svg">
<g id="immobilienbewertung">
<g id="Frame 1984077915">
<g id="Frame 1984077937">
<g id="Frame 1984077875">
<g id="mobile_14081556 1">
<rect width="56" height="56" rx="28" fill="#DECEC4"/>
<g id="Group">
<g id="Group_2">
<g id="Group_3">
<path id="Vector" d="M43.4328 27.1985H28.1779C27.7061 27.1985 27.5488 26.884 27.5488 26.5695V24.525C27.5488 22.4805 29.1215 20.7506 31.166 20.7506H31.9523C32.5814 20.7506 33.0532 20.2788 33.0532 19.6497C32.2669 19.0206 31.795 18.077 31.795 17.1334V14.1453C31.795 12.4154 33.2105 11 34.9404 11H36.8276C38.5575 11 39.973 12.4154 39.973 14.1453V17.1334C39.973 18.077 39.5012 19.0206 38.7148 19.6497C38.7148 20.2788 39.3439 20.7506 39.973 20.7506H40.602C42.6465 20.7506 44.3764 22.4805 44.3764 24.525V26.5695C44.2192 26.884 43.9046 27.1985 43.4328 27.1985ZM28.807 25.7831H42.8038V24.3677C42.8038 23.1096 41.7029 22.0087 40.4448 22.0087H39.8157C38.4003 22.0087 37.2994 20.9078 37.2994 19.4924V19.3352C37.2994 19.0206 37.4567 18.8634 37.6139 18.7061C38.0857 18.3916 38.5575 17.7625 38.5575 17.1334V14.1453C38.5575 13.2017 37.7712 12.4154 36.8276 12.4154H34.9404C33.9968 12.4154 33.2105 13.2017 33.2105 14.1453V17.1334C33.2105 17.7625 33.525 18.3916 34.1541 18.7061C34.3113 18.8634 34.4686 19.0206 34.4686 19.3352V19.6497C34.4686 21.0651 33.3677 22.166 31.9523 22.166H31.166C29.9078 22.166 28.9642 23.2669 28.9642 24.525V25.7831H28.807Z" fill="white"/>
</g>
</g>
<g id="Group_4">
<path id="Vector_2" d="M36.6712 44.1833C36.514 44.1833 36.1994 44.1833 36.0422 44.1833C32.1105 44.0261 25.8198 40.4089 20.4727 34.9046C14.8111 29.4002 11.1939 23.1095 11.0367 19.1778C10.7221 16.0325 12.4521 12.8871 15.4401 11.629C16.2265 11.3145 16.8556 11.3145 17.3274 11.3145C19.8436 11.3145 20.9445 13.8307 22.0454 16.5043L22.3599 17.2906C22.989 19.0206 23.6181 20.436 23.6181 21.8514C23.6181 23.424 22.8317 24.6822 21.1018 25.4685C20.7872 25.4685 20.4727 25.6258 20.0009 25.7831C21.259 27.513 22.8317 29.2429 24.5617 30.8156C26.1343 32.3883 27.8643 33.961 29.5942 35.2191C29.5942 34.7473 29.7515 34.2755 29.9087 33.961C30.6951 32.231 31.796 31.4447 33.3686 31.4447C34.784 31.4447 36.1994 32.0737 37.9294 32.8601L38.7157 33.1746C40.4457 33.8037 41.8611 34.4328 42.9619 35.3764C44.0628 36.4772 44.3773 37.8926 43.591 39.7799C42.3329 42.4534 39.8166 44.1833 36.6712 44.1833ZM17.3274 12.5726C17.0128 12.5726 16.541 12.7299 16.0692 12.8871C13.5529 13.988 12.1375 16.347 12.4521 19.0206C12.6093 22.795 16.0692 28.6139 21.259 33.8037C26.4489 38.9935 32.425 42.6107 36.0422 42.7679H36.6712C39.1875 42.7679 41.232 41.3525 42.3329 39.1508C42.9619 37.5781 42.4901 36.7918 42.0183 36.32C41.232 35.5336 39.9739 35.0618 38.2439 34.4328L37.4576 34.1182C35.8849 33.4892 34.4695 32.8601 33.3686 32.8601C32.5823 32.8601 31.796 33.0174 31.1669 34.59C30.8524 35.2191 30.8524 35.8482 30.6951 36.6345C30.6951 36.949 30.5378 37.1063 30.2233 37.2636C30.066 37.4208 29.7515 37.4208 29.4369 37.2636C27.3925 35.8482 25.1907 33.961 23.3035 32.0737C21.259 30.0293 19.5291 27.9848 17.9564 25.7831C17.7992 25.6258 17.7992 25.3113 17.9564 24.9967C18.1137 24.8394 18.271 24.6822 18.5855 24.5249C19.3718 24.5249 20.0009 24.3676 20.63 24.0531C22.2026 23.424 22.5172 22.4804 22.3599 21.8514C22.3599 20.7505 21.7308 19.3351 21.1018 17.7624L20.7872 16.9761C19.6864 14.3025 18.9 12.5726 17.3274 12.5726Z" fill="white"/>
</g>
</g>
</g>
</g>
</g>
</g>
</g>
</svg>
