<svg width="56" height="56" viewBox="0 0 56 56" fill="none" xmlns="http://www.w3.org/2000/svg">
<g id="immobilienbewertung">
<g id="Frame 1984077915">
<g id="Frame 1984077937">
<g id="Frame 1984077874">
<g id="information-point_18615113 1">
<rect width="56" height="56" rx="28" fill="#DECEC4"/>
<path id="Vector" d="M45.2688 20.7987L28.2473 10.5686C28.1727 10.5237 28.0871 10.5 27.9999 10.5C27.9127 10.5 27.8272 10.5237 27.7525 10.5686L10.7312 20.7987C10.6606 20.8411 10.6023 20.9009 10.5618 20.9723C10.5213 21.0438 10.5 21.1244 10.5 21.2064V24.6242C10.5 24.7086 10.5225 24.7915 10.5652 24.8644C10.608 24.9374 10.6695 24.9977 10.7433 25.0392C10.8172 25.0807 10.9008 25.1019 10.9857 25.1006C11.0705 25.0994 11.1534 25.0757 11.226 25.032L14.6372 22.9819V40.3838C14.6372 40.5101 14.6876 40.6313 14.7773 40.7206C14.8671 40.8099 14.9888 40.8601 15.1157 40.8601H24.9443L27.618 44.4331C27.6625 44.4926 27.7204 44.541 27.7871 44.5743C27.8537 44.6076 27.9273 44.625 28.0019 44.625C28.0765 44.625 28.15 44.6076 28.2167 44.5743C28.2833 44.541 28.3412 44.4926 28.3858 44.4331L31.0586 40.8601H40.8842C41.0111 40.8601 41.1329 40.81 41.2226 40.7206C41.3123 40.6313 41.3628 40.5102 41.3628 40.3839V22.9819L44.7739 25.032C44.8465 25.0757 44.9295 25.0994 45.0143 25.1007C45.0991 25.1019 45.1828 25.0807 45.2567 25.0392C45.3305 24.9977 45.392 24.9374 45.4348 24.8645C45.4775 24.7915 45.5 24.7086 45.5 24.6242V21.2064C45.5 21.1244 45.4787 21.0438 45.4382 20.9723C45.3977 20.9009 45.3394 20.8411 45.2688 20.7987ZM28.0019 43.351L22.4931 35.9891C20.1114 32.8044 19.1736 28.1349 22.4466 24.8828C23.9231 23.4225 25.9201 22.6028 28.0017 22.6027C30.0832 22.6026 32.0803 23.4222 33.5569 24.8824C36.8249 28.1379 35.8885 32.8054 33.5108 35.9871L30.4495 40.0792C30.4386 40.0923 30.4285 40.1059 30.4192 40.1201L28.0019 43.351ZM40.4057 39.9074H31.7719L34.279 36.556C35.7194 34.6285 36.5485 32.3928 36.6136 30.2609C36.685 27.9231 35.8617 25.8302 34.2335 24.2084L34.2321 24.2069C32.576 22.5691 30.3361 21.6499 28.0015 21.6501C25.6668 21.6503 23.4271 22.5698 21.7712 24.208C20.1124 25.8562 19.2898 27.9836 19.3931 30.3605C19.4845 32.4682 20.3128 34.6692 21.7256 36.5583L24.2316 39.9074H15.5944V22.4066L28 14.9507L40.4057 22.4066V39.9074ZM44.543 23.7799L28.2474 13.9863C28.1727 13.9415 28.0872 13.9177 28 13.9177C27.9128 13.9177 27.8273 13.9415 27.7526 13.9863L11.457 23.78V21.4753L28 11.5329L44.543 21.4753V23.7799ZM27.5215 27.224V27.2048C27.5215 27.0785 27.5719 26.9573 27.6616 26.868C27.7514 26.7787 27.8731 26.7285 28 26.7285C28.1269 26.7285 28.2486 26.7787 28.3384 26.868C28.4281 26.9573 28.4785 27.0785 28.4785 27.2048V27.224C28.4785 27.3504 28.4281 27.4715 28.3384 27.5608C28.2486 27.6502 28.1269 27.7003 28 27.7003C27.8731 27.7003 27.7514 27.6502 27.6616 27.5608C27.5719 27.4715 27.5215 27.3504 27.5215 27.224ZM29.5115 33.2012C29.5115 33.3275 29.4611 33.4486 29.3713 33.538C29.2816 33.6273 29.1599 33.6775 29.033 33.6775H26.9692C26.8423 33.6775 26.7206 33.6273 26.6308 33.538C26.5411 33.4486 26.4907 33.3275 26.4907 33.2012C26.4907 33.0749 26.5411 32.9537 26.6308 32.8644C26.7206 32.7751 26.8423 32.7249 26.9692 32.7249H27.5215V29.093H26.9691C26.8422 29.093 26.7205 29.0428 26.6308 28.9535C26.541 28.8642 26.4906 28.743 26.4906 28.6167C26.4906 28.4904 26.541 28.3692 26.6308 28.2799C26.7205 28.1906 26.8422 28.1404 26.9691 28.1404H28C28.1269 28.1404 28.2486 28.1906 28.3384 28.2799C28.4281 28.3692 28.4785 28.4904 28.4785 28.6167V32.7248H29.0327C29.0956 32.7247 29.1578 32.737 29.2159 32.761C29.274 32.7849 29.3268 32.82 29.3712 32.8642C29.4157 32.9085 29.451 32.961 29.475 33.0188C29.4991 33.0766 29.5114 33.1386 29.5114 33.2012H29.5115ZM33.5925 30.202C33.5924 29.1012 33.2644 28.0252 32.6499 27.1101C32.0355 26.1949 31.1622 25.4816 30.1404 25.0604C29.1187 24.6392 27.9944 24.529 26.9098 24.7438C25.8251 24.9585 24.8288 25.4886 24.0468 26.2669C23.2648 27.0452 22.7323 28.0369 22.5165 29.1164C22.3007 30.196 22.4113 31.315 22.8344 32.332C23.2576 33.349 23.9742 34.2183 24.8936 34.8299C25.8131 35.4415 26.8941 35.7681 28 35.7682H28.0007C29.4824 35.7636 30.9021 35.1757 31.9498 34.1328C32.9974 33.0899 33.588 31.6768 33.5924 30.202H33.5925ZM27.9995 34.8156C27.083 34.8153 26.1873 34.5446 25.4255 34.0376C24.6636 33.5307 24.0699 32.8103 23.7193 31.9676C23.3688 31.1248 23.2771 30.1975 23.456 29.3029C23.6348 28.4083 24.0762 27.5866 24.7242 26.9416C25.3722 26.2966 26.1977 25.8573 27.0965 25.6793C27.9953 25.5013 28.9269 25.5925 29.7737 25.9414C30.6204 26.2903 31.3442 26.8812 31.8535 27.6395C32.3628 28.3978 32.6349 29.2894 32.6352 30.2015C32.6343 31.4249 32.1456 32.598 31.2764 33.4632C30.4072 34.3283 29.2286 34.8147 27.9995 34.8156Z" fill="white" stroke="white" stroke-width="0.7"/>
</g>
</g>
</g>
</g>
</g>
</svg>
