<svg width="56" height="56" viewBox="0 0 56 56" fill="none" xmlns="http://www.w3.org/2000/svg">
<g id="phone_14368492 1">
<rect width="56" height="56" rx="28" fill="#DECEC4"/>
<g id="LINE">
<path id="Vector" d="M16.0752 39.776L39.8034 16.0479" stroke="white" stroke-width="1.69865" stroke-miterlimit="10" stroke-linecap="round" stroke-linejoin="round"/>
<g id="Group">
<g id="Group_2">
<path id="Vector_2" d="M24.0918 35.1908C30.3168 40.5279 35.1035 40.079 35.3283 40.0552C35.8632 39.9912 36.3758 39.8635 36.8969 39.6611C37.4566 39.4424 37.9799 39.1456 38.4336 38.7905L38.4568 38.811L39.5316 37.7584C40.3073 36.9812 40.3297 35.7391 39.5819 34.989L35.817 31.2236C35.0671 30.4767 33.8252 30.4994 33.0491 31.2757L31.1523 33.1721C31.0325 33.106 30.9085 33.0371 30.7781 32.9639C29.9885 32.5264 29.0069 31.9819 27.9354 31.1671" stroke="white" stroke-width="1.69865" stroke-miterlimit="10" stroke-linecap="round" stroke-linejoin="round"/>
<path id="Vector_3" d="M24.6948 27.92C23.8869 26.8541 23.3458 25.8788 22.9098 25.0935C22.8395 24.9666 22.7721 24.8441 22.7057 24.7279L23.9786 23.4568L24.6045 22.8301C25.3817 22.0527 25.4032 20.8112 24.6551 20.0621L20.8901 16.2963C20.1419 15.5483 18.8996 15.571 18.1224 16.3485L17.0612 17.4156L17.0902 17.4445C16.7344 17.8984 16.4372 18.4221 16.2158 18.9867C16.0119 19.5242 15.885 20.037 15.827 20.551C15.3828 24.2325 16.8383 27.631 20.7972 31.9576" stroke="white" stroke-width="1.69865" stroke-miterlimit="10" stroke-linecap="round" stroke-linejoin="round"/>
</g>
</g>
</g>
</g>
</svg>
