<svg width="56" height="56" viewBox="0 0 56 56" fill="none" xmlns="http://www.w3.org/2000/svg">
<g id="money_14553876 1">
<rect width="56" height="56" rx="28" fill="#DECEC4"/>
<g id="Group">
<g id="Group_2">
<path id="Vector" d="M42.7496 23.8744C42.4077 23.8744 42.0861 23.664 41.9619 23.3238C41.7806 22.831 41.5697 22.3409 41.3341 21.8687C41.1277 21.4536 41.2967 20.9501 41.7112 20.7431C42.1258 20.5366 42.6298 20.7056 42.8368 21.1202C43.0998 21.6477 43.3353 22.1943 43.5373 22.7459C43.6967 23.1806 43.4735 23.6629 43.0383 23.8229C42.9431 23.8576 42.8458 23.8744 42.7496 23.8744Z" fill="white"/>
</g>
<g id="Group_3">
<path id="Vector_2" d="M30.0804 44.3331C29.6585 44.3331 29.2949 44.0159 29.2473 43.5863C29.1964 43.1258 29.5282 42.7113 29.9892 42.6598C31.0734 42.5395 32.1436 42.2956 33.1697 41.9348C33.6089 41.7815 34.0861 42.0108 34.2399 42.4478C34.3938 42.8853 34.1638 43.3642 33.7269 43.518C32.5806 43.9214 31.385 44.1938 30.1738 44.3281C30.1425 44.3315 30.1111 44.3331 30.0804 44.3331ZM26.6297 44.3259C26.5978 44.3259 26.5653 44.3242 26.5329 44.3203C25.3222 44.181 24.1272 43.904 22.982 43.4956C22.5456 43.3401 22.3174 42.8601 22.4729 42.4232C22.6284 41.9868 23.1085 41.7591 23.5454 41.9141C24.5709 42.2794 25.6405 42.5278 26.7242 42.652C27.1846 42.7051 27.5153 43.1208 27.4621 43.5812C27.4135 44.0103 27.0504 44.3259 26.6297 44.3259ZM36.5561 42.0567C36.278 42.0567 36.0067 41.9191 35.8467 41.6668C35.5983 41.2757 35.7146 40.7571 36.1057 40.5087C37.0249 39.9258 37.8803 39.2371 38.649 38.4617C38.9751 38.1321 39.5061 38.1293 39.8356 38.4561C40.1645 38.7822 40.1673 39.3137 39.8412 39.6427C38.9841 40.5076 38.0297 41.2757 37.0047 41.9258C36.8654 42.0142 36.7099 42.0567 36.5561 42.0567ZM20.1618 42.0237C20.0068 42.0237 19.8502 41.9812 19.7103 41.8917C18.6865 41.2366 17.7349 40.4639 16.8823 39.5962C16.5572 39.2656 16.5623 38.7341 16.8929 38.4096C17.223 38.0846 17.755 38.0891 18.0795 38.4203C18.8443 39.1985 19.6975 39.8905 20.615 40.4779C21.0055 40.728 21.119 41.2472 20.8695 41.6371C20.7095 41.8872 20.4387 42.0237 20.1618 42.0237ZM41.3853 37.1811C41.2342 37.1811 41.0809 37.1402 40.9433 37.0546C40.5494 36.8102 40.4286 36.2927 40.6736 35.8994C41.2499 34.9718 41.7204 33.9793 42.0717 32.9505C42.2217 32.5119 42.6972 32.2769 43.1369 32.4274C43.5755 32.5773 43.81 33.054 43.66 33.4926C43.2678 34.6423 42.7425 35.7505 42.0991 36.7855C41.9397 37.0406 41.6656 37.1811 41.3853 37.1811ZM15.3516 37.129C15.0702 37.129 14.795 36.9875 14.6361 36.7301C13.9972 35.6924 13.4763 34.5824 13.0886 33.4316C12.9404 32.9924 13.1765 32.5163 13.6156 32.3686C14.0548 32.2193 14.5309 32.4565 14.6786 32.8956C15.026 33.9262 15.4926 34.9203 16.0649 35.8501C16.3077 36.2451 16.1846 36.7615 15.7902 37.0048C15.6537 37.0888 15.5015 37.129 15.3516 37.129ZM43.6035 30.6847C43.575 30.6847 43.5464 30.6836 43.5179 30.6802C43.0569 30.6338 42.7207 30.222 42.7677 29.761C42.8164 29.276 42.8415 28.7814 42.8415 28.2913C42.8415 27.691 42.8041 27.0868 42.7308 26.496C42.6731 26.0362 42.9999 25.6166 43.4597 25.5595C43.9168 25.5013 44.3386 25.8281 44.3963 26.2885C44.4785 26.9481 44.5205 27.6222 44.5205 28.2919C44.5205 28.8379 44.493 29.389 44.4382 29.9305C44.3935 30.3624 44.0287 30.6847 43.6035 30.6847ZM13.1602 30.6254C12.7334 30.6254 12.368 30.3009 12.3261 29.8673C12.2757 29.3459 12.25 28.8161 12.25 28.2913C12.25 27.6004 12.2942 26.9056 12.3815 26.2264C12.4408 25.7665 12.8615 25.442 13.3208 25.5013C13.7807 25.5606 14.1052 25.9808 14.0458 26.4407C13.9675 27.0488 13.9278 27.672 13.9278 28.2913C13.9278 28.7618 13.9507 29.2374 13.9966 29.7051C14.0414 30.1666 13.704 30.5767 13.2425 30.6215C13.2151 30.6243 13.1876 30.6254 13.1602 30.6254ZM14.0397 23.8191C13.9423 23.8191 13.8439 23.8023 13.7477 23.7665C13.3135 23.6048 13.092 23.122 13.2531 22.6873C13.676 21.5482 14.231 20.4551 14.9013 19.4369C15.1564 19.0503 15.6772 18.9434 16.0638 19.198C16.4504 19.4531 16.5578 19.9734 16.3027 20.3605C15.7018 21.2719 15.2056 22.2515 14.8263 23.2714C14.701 23.6098 14.3804 23.8191 14.0397 23.8191ZM17.8143 18.0852C17.5933 18.0852 17.3729 17.9985 17.2084 17.8262C16.8879 17.4916 16.8996 16.9601 17.2342 16.6396C18.1136 15.7976 19.0877 15.0546 20.1299 14.432C20.5266 14.1942 21.0424 14.324 21.2807 14.7218C21.5185 15.1195 21.3887 15.6348 20.9909 15.8726C20.0566 16.4315 19.1833 17.0972 18.3945 17.8519C18.2317 18.008 18.023 18.0852 17.8143 18.0852ZM23.7054 14.5668C23.3507 14.5668 23.0212 14.3402 22.9071 13.9844C22.7649 13.543 23.0072 13.0703 23.4486 12.9282C24.6044 12.5556 25.8067 12.315 27.0213 12.2132C27.4873 12.1695 27.889 12.517 27.9282 12.9791C27.9673 13.4412 27.6244 13.8468 27.1623 13.8859C26.0741 13.9777 24.9977 14.1931 23.9633 14.5265C23.8777 14.5539 23.791 14.5668 23.7054 14.5668Z" fill="white"/>
</g>
<g id="Group_4">
<path id="Vector_3" d="M32.2383 14.3266C32.1684 14.3266 32.0973 14.3177 32.0268 14.2992C31.5166 14.1666 30.9935 14.0609 30.4727 13.9848C30.0139 13.9182 29.6961 13.4925 29.7627 13.0337C29.8293 12.575 30.2528 12.255 30.7138 12.3238C31.2956 12.4082 31.8791 12.5263 32.4492 12.6745C32.8979 12.7909 33.167 13.2497 33.0501 13.6978C32.9516 14.076 32.6115 14.3266 32.2383 14.3266Z" fill="white"/>
</g>
</g>
<g id="Group_5">
<path id="Vector_4" d="M28.3844 41.0697C21.3386 41.0697 15.6064 35.337 15.6064 28.2912C15.6064 21.2455 21.3386 15.5133 28.3844 15.5133C29.0479 15.5133 29.7142 15.5648 30.366 15.666C30.8242 15.7371 31.1375 16.1662 31.0659 16.6238C30.9948 17.082 30.5674 17.3948 30.1081 17.3237C29.5413 17.2359 28.9617 17.1911 28.3844 17.1911C22.264 17.1911 17.2848 22.1703 17.2848 28.2907C17.2848 34.4111 22.264 39.3908 28.3844 39.3908C34.5048 39.3908 39.484 34.4117 39.484 28.2907C39.484 27.1242 39.3038 25.9751 38.9491 24.8758C38.8065 24.4349 39.0487 23.9616 39.4896 23.8195C39.9298 23.6752 40.4031 23.9191 40.5458 24.36C40.9548 25.626 41.1623 26.9486 41.1623 28.2907C41.1623 35.337 35.4302 41.0697 28.3844 41.0697Z" fill="white"/>
</g>
<g id="Group_6">
<path id="Vector_5" d="M31.5698 32.6652C31.1312 32.9265 30.2579 33.1984 29.257 33.1984C28.0783 33.1984 26.9314 32.8028 26.1202 31.9815C25.5725 31.4322 25.1629 30.6696 24.9755 29.7706H23.8975V28.7188H24.8284C24.8189 28.5398 24.8099 28.4072 24.8099 28.3182C24.8099 28.1778 24.8138 27.963 24.8401 27.7711H23.9031V26.7243H24.9957C25.1943 25.8432 25.6223 25.098 26.1666 24.5453C27.027 23.6809 28.2148 23.2529 29.4596 23.2529C30.409 23.2529 31.1133 23.4873 31.5396 23.6859L31.1334 25.2155C30.7944 25.0561 30.2657 24.8837 29.5608 24.8837C28.8962 24.8837 28.2433 25.0907 27.7493 25.5713C27.4623 25.8544 27.2335 26.2505 27.1401 26.7238H30.8039V27.7705H26.9252C26.9028 27.9479 26.8945 28.1325 26.8945 28.2489C26.8945 28.3775 26.9001 28.523 26.9129 28.7182H30.8034V29.77H27.1378C27.2492 30.2109 27.4461 30.5745 27.7085 30.8324C28.2181 31.3348 28.8665 31.5368 29.5905 31.5368C30.2926 31.5368 30.9561 31.3454 31.3287 31.1524L31.5698 32.6652Z" fill="white"/>
</g>
<g id="Group_7">
<path id="Vector_6" d="M36.7198 23.5985C36.4653 23.5985 36.2247 23.4833 36.0658 23.2847L32.0892 18.3346C31.8873 18.0829 31.847 17.7377 31.9869 17.4462C32.1267 17.1547 32.4204 16.9695 32.7438 16.9695H34.5866V12.2142C34.5866 11.7504 34.962 11.375 35.4258 11.375H38.2231C38.6869 11.375 39.0623 11.7504 39.0623 12.2142V16.9695H40.697C41.0198 16.9695 41.3141 17.1547 41.4539 17.4462C41.5938 17.7377 41.5535 18.0829 41.3516 18.3346L37.375 23.2847C37.215 23.4833 36.9744 23.5985 36.7198 23.5985ZM34.4938 18.6485L36.7198 21.4194L38.9459 18.6485H38.2231C37.7593 18.6485 37.3839 18.2731 37.3839 17.8093V13.0539H36.265V17.8093C36.265 18.2731 35.8896 18.6485 35.4258 18.6485H34.4938Z" fill="white"/>
</g>
</g>
</svg>
