<svg width="56" height="56" viewBox="0 0 56 56" fill="none" xmlns="http://www.w3.org/2000/svg">
<g id="phone_14368492 1">
<rect width="56" height="56" rx="28" fill="#DECEC4"/>
<g id="hide_5073922 1">
<g id="Vector">
<path d="M27.9996 35.8546C22.5887 35.8546 17.5269 33.1666 13.6927 28.2909C13.6333 28.2144 13.601 28.1202 13.601 28.0233C13.601 27.9264 13.6333 27.8322 13.6927 27.7557C17.5036 22.8451 22.5887 20.1455 27.9996 20.1455C33.4106 20.1455 38.4724 22.8335 42.3066 27.7091C42.366 27.7857 42.3983 27.8798 42.3983 27.9768C42.3983 28.0737 42.366 28.1678 42.3066 28.2444C38.4956 33.1549 33.4106 35.8546 27.9996 35.8546ZM14.5946 28C18.2135 32.4975 22.9611 34.9818 27.9764 34.9818C32.9916 34.9818 37.7626 32.5091 41.3582 28C37.7393 23.5026 32.9916 21.0182 27.9764 21.0182C22.9611 21.0182 18.2135 23.5026 14.5946 28Z" fill="white"/>
<path d="M42.0429 27.9771C42.0429 27.9592 42.0364 27.9418 42.0255 27.9276C38.2473 23.1242 33.283 20.5014 27.9995 20.5014C22.7154 20.5015 17.7281 23.1356 13.9734 27.9736C13.9625 27.9877 13.957 28.0052 13.9569 28.0231C13.9569 28.0403 13.9624 28.057 13.9725 28.0708L14.3302 28.5153C18.0615 33.0372 22.8805 35.4987 27.9995 35.4988C33.2835 35.4988 38.2708 32.8645 42.0255 28.0266C42.0364 28.0125 42.0428 27.9949 42.0429 27.9771ZM27.976 20.6628C33.1165 20.6628 37.9603 23.2108 41.6349 27.7774L41.8137 27.9988L41.6366 28.2219C37.9841 32.8023 33.1155 35.3373 27.976 35.3373C22.8357 35.3372 17.9917 32.7893 14.3172 28.2227L14.1383 27.9997L14.3172 27.7774C17.9917 23.2109 22.8357 20.663 27.976 20.6628ZM27.976 21.3738C23.1692 21.3739 18.5937 23.7139 15.055 27.9997C18.5938 32.2857 23.169 34.6263 27.976 34.6264C32.7844 34.6264 37.3815 32.2957 40.8979 28.0005C37.359 23.7143 32.7832 21.3738 27.976 21.3738ZM42.7538 27.9771C42.7537 28.1529 42.6949 28.3235 42.5871 28.4623C38.72 33.4453 33.5371 36.2097 27.9995 36.2097C22.4621 36.2097 17.3034 33.4572 13.4135 28.5109L13.4118 28.5092C13.3039 28.3703 13.2451 28.199 13.2451 28.0231C13.2452 27.8474 13.3041 27.6767 13.4118 27.5378C17.2789 22.5549 22.4618 19.7896 27.9995 19.7896C33.3638 19.7896 38.373 22.3734 42.2173 27.0318L42.5863 27.4892L42.5871 27.491C42.695 27.6299 42.7538 27.8012 42.7538 27.9771Z" fill="white"/>
<path d="M27.9996 33.888C26.8351 33.888 25.6967 33.5427 24.7284 32.8957C23.7602 32.2487 23.0055 31.3292 22.5598 30.2533C22.1142 29.1774 21.9976 27.9935 22.2248 26.8513C22.452 25.7092 23.0127 24.66 23.8362 23.8366C24.6596 23.0131 25.7088 22.4524 26.8509 22.2252C27.9931 21.998 29.177 22.1146 30.2529 22.5602C31.3288 23.0059 32.2484 23.7606 32.8953 24.7288C33.5423 25.6971 33.8876 26.8355 33.8876 28C33.8861 29.5612 33.2653 31.0579 32.1614 32.1618C31.0575 33.2657 29.5608 33.8865 27.9996 33.888ZM27.9996 22.9848C27.0077 22.9848 26.0381 23.2789 25.2133 23.83C24.3885 24.3811 23.7457 25.1644 23.3661 26.0808C22.9865 26.9972 22.8872 28.0056 23.0807 28.9785C23.2743 29.9513 23.7519 30.845 24.4533 31.5464C25.1547 32.2478 26.0483 32.7254 27.0212 32.9189C27.9941 33.1125 29.0025 33.0131 29.9189 32.6335C30.8353 32.2539 31.6186 31.6111 32.1697 30.7864C32.7208 29.9616 33.0149 28.992 33.0149 28C33.0134 26.6704 32.4845 25.3956 31.5443 24.4554C30.6041 23.5152 29.3293 22.9863 27.9996 22.9848Z" fill="white"/>
<path d="M33.5318 28.0001C33.5318 26.9058 33.2074 25.8361 32.5995 24.9263C31.9916 24.0166 31.1277 23.3077 30.1168 22.8889C29.106 22.4702 27.9937 22.3605 26.9207 22.5738C25.8475 22.7873 24.8611 23.314 24.0873 24.0877C23.3136 24.8615 22.7869 25.8479 22.5734 26.9211C22.3601 27.9941 22.4699 29.1064 22.8885 30.1172C23.3073 31.1281 24.0162 31.992 24.9259 32.5999C25.8357 33.2078 26.9054 33.5322 27.9997 33.5322C29.4665 33.5306 30.8731 32.9478 31.9102 31.9106C32.9474 30.8734 33.5302 29.4669 33.5318 28.0001ZM32.6533 27.7691C32.5949 26.6179 32.112 25.5256 31.2931 24.7066C30.4195 23.8331 29.235 23.3419 27.9997 23.3403C27.0781 23.3403 26.1774 23.6139 25.4111 24.1259C24.6448 24.6379 24.0477 25.3656 23.695 26.2171C23.3423 27.0684 23.2496 28.0051 23.4293 28.9089C23.6091 29.8128 24.0528 30.6435 24.7045 31.2952C25.3562 31.9469 26.1869 32.3906 27.0908 32.5704C27.9946 32.7501 28.9313 32.6574 29.7826 32.3047C30.6341 31.9521 31.3618 31.3549 31.8738 30.5886C32.3858 29.8223 32.6594 28.9216 32.6594 28.0001L32.6533 27.7691ZM33.3703 28.0001C33.3703 29.0623 33.0551 30.1003 32.4649 30.9836C31.8748 31.8667 31.0365 32.5553 30.0552 32.9619C29.0738 33.3684 27.9937 33.4746 26.9519 33.2674C25.9101 33.0602 24.953 32.5489 24.2019 31.7978C23.4508 31.0467 22.9395 30.0896 22.7323 29.0478C22.5251 28.006 22.6313 26.9259 23.0379 25.9445C23.4444 24.9632 24.133 24.1249 25.0162 23.5348C25.8994 22.9447 26.9374 22.6294 27.9997 22.6294L28.2662 22.6363C29.593 22.7036 30.8518 23.2602 31.7957 24.204C32.8024 25.2108 33.3687 26.5762 33.3703 28.0001ZM34.2349 28.3099C34.1569 29.8525 33.5102 31.316 32.4129 32.4132C31.3156 33.5105 29.8521 34.1573 28.3096 34.2353L27.9997 34.244C26.7648 34.244 25.5577 33.8771 24.5309 33.191C23.5042 32.505 22.704 31.5297 22.2314 30.3889C21.759 29.2482 21.6355 27.9932 21.8764 26.7822C22.1173 25.571 22.7116 24.4583 23.5847 23.5851C24.4579 22.7119 25.5706 22.1177 26.7818 21.8768C27.9928 21.6359 29.2478 21.7594 30.3885 22.2318C31.5294 22.7044 32.5046 23.5046 33.1906 24.5313C33.8767 25.558 34.2436 26.7652 34.2436 28.0001L34.2349 28.3099Z" fill="white"/>
<path d="M36.2382 37.6582C36.1766 37.6591 36.1155 37.6465 36.0593 37.6214C36.003 37.5962 35.9529 37.5592 35.9124 37.5128L19.4353 19.0691C19.3971 19.0263 19.3677 18.9764 19.3488 18.9223C19.3298 18.8681 19.3218 18.8108 19.325 18.7535C19.3282 18.6963 19.3427 18.6402 19.3676 18.5885C19.3926 18.5369 19.4274 18.4906 19.4702 18.4524C19.513 18.4142 19.5629 18.3848 19.617 18.3659C19.6712 18.347 19.7285 18.3389 19.7858 18.3421C19.843 18.3454 19.8991 18.3599 19.9508 18.3848C20.0025 18.4097 20.0487 18.4445 20.0869 18.4873L36.564 36.9309C36.6398 37.018 36.6786 37.1312 36.6721 37.2464C36.6656 37.3616 36.6143 37.4698 36.5291 37.5477C36.4496 37.62 36.3457 37.6595 36.2382 37.6582Z" fill="white"/>
<path d="M19.8061 17.9873C19.9099 17.9932 20.0119 18.0194 20.1056 18.0645C20.1991 18.1097 20.2829 18.1728 20.3521 18.2503L36.8295 36.6939L36.8321 36.6973C36.9689 36.8543 37.0392 37.0589 37.0274 37.2668C37.0156 37.4746 36.9223 37.6697 36.7687 37.8102C36.6247 37.9413 36.4365 38.0137 36.2418 38.0133L36.2427 38.0142C36.2413 38.0142 36.2398 38.0133 36.2384 38.0133C36.2369 38.0133 36.2355 38.0142 36.234 38.0142C36.124 38.0144 36.0151 37.9913 35.9146 37.9465C35.8113 37.9004 35.719 37.832 35.6446 37.7468L19.1698 19.3058C19.1006 19.2283 19.047 19.1375 19.0127 19.0393C18.9785 18.9413 18.9643 18.8374 18.9701 18.7338C18.976 18.63 19.0023 18.528 19.0474 18.4343C19.0926 18.3406 19.1555 18.2562 19.2332 18.1869C19.3108 18.1176 19.4014 18.0641 19.4997 18.0298C19.5979 17.9955 19.7022 17.9814 19.8061 17.9873ZM19.734 18.7017C19.7242 18.7052 19.7149 18.7104 19.7071 18.7173C19.6992 18.7244 19.6927 18.7337 19.688 18.7433C19.6835 18.7529 19.6808 18.7632 19.6802 18.7737C19.6796 18.7843 19.681 18.7949 19.6845 18.805C19.6879 18.8147 19.6926 18.8241 19.6993 18.8319L36.1776 37.2755L36.1802 37.2789C36.1868 37.2865 36.1954 37.2922 36.2045 37.2963C36.2136 37.3003 36.2232 37.3025 36.2332 37.3024H36.2427C36.2598 37.3025 36.2759 37.2963 36.2887 37.285C36.3054 37.2697 36.3161 37.2485 36.3174 37.226C36.3185 37.2035 36.3104 37.1813 36.2957 37.1643L19.8217 18.7242C19.8146 18.7163 19.8061 18.7098 19.7965 18.7051C19.7869 18.7005 19.7759 18.6979 19.7653 18.6973C19.7548 18.6968 19.744 18.6982 19.734 18.7017Z" fill="white"/>
</g>
</g>
</g>
</svg>
