<svg width="64" height="64" viewBox="0 0 64 64" fill="none" xmlns="http://www.w3.org/2000/svg">
<g id="immobilie-vermieten">
<g id="Frame 1984077915">
<g id="Frame 1984077937">
<g id="Frame 1984077875">
<g id="people_13355315 1">
<rect width="64" height="64" rx="32" fill="#DECEC4"/>
<g id="Group">
<g id="Group_2">
<path id="Vector" d="M24.5162 20.0169C24.5162 20.0169 24.3308 19.1025 25.0599 18.5526C25.9682 17.8729 27.6487 18.2375 27.7291 19.64C27.7908 20.7027 27.3831 21.0426 26.6045 21.5739C25.7519 22.1609 25.8075 23.0568 25.8075 23.0568" stroke="white" stroke-width="2" stroke-miterlimit="10" stroke-linecap="round" stroke-linejoin="round"/>
<path id="Vector_2" d="M25.8389 25.2811L25.8512 25.5406" stroke="white" stroke-width="2" stroke-miterlimit="10" stroke-linecap="round" stroke-linejoin="round"/>
</g>
<path id="Vector_3" d="M31.5912 37.4717C25.2396 37.4717 20.0928 42.6185 20.0928 48.9701H43.0896C43.0896 42.6185 37.9428 37.4717 31.5912 37.4717Z" stroke="white" stroke-width="2" stroke-miterlimit="10" stroke-linecap="round" stroke-linejoin="round"/>
<path id="Vector_4" d="M31.5921 37.4652C34.612 37.4652 37.0602 35.0171 37.0602 31.9971C37.0602 28.9772 34.612 26.5291 31.5921 26.5291C28.5722 26.5291 26.124 28.9772 26.124 31.9971C26.124 35.0171 28.5722 37.4652 31.5921 37.4652Z" stroke="white" stroke-width="2" stroke-miterlimit="10" stroke-linecap="round" stroke-linejoin="round"/>
<path id="Vector_5" d="M26.8716 29.2355H21.4406C20.0936 29.2355 19 28.1419 19 26.795V17.4406C19 16.0936 20.0936 15 21.4406 15H43.2572C44.6042 15 45.6978 16.0936 45.6978 17.4406V28.2964C45.6978 28.9019 45.4754 29.4827 45.0676 29.9337L41.0206 34.407C40.7425 34.716 40.2359 34.475 40.2977 34.061L40.792 30.7925C40.9155 29.9708 40.2791 29.2355 39.4512 29.2355H36.3125" stroke="white" stroke-width="2" stroke-miterlimit="10" stroke-linecap="round" stroke-linejoin="round"/>
<g id="Group_3">
<path id="Vector_6" d="M30.7447 18.7813C30.7447 18.7813 30.5593 17.8669 31.2884 17.317C32.1967 16.6373 33.8773 17.0019 33.9576 18.4044C34.0194 19.4671 33.6116 19.807 32.8331 20.3383C31.9804 20.9253 32.036 21.8212 32.036 21.8212" stroke="white" stroke-width="2" stroke-miterlimit="10" stroke-linecap="round" stroke-linejoin="round"/>
<path id="Vector_7" d="M32.0664 24.0455L32.0726 24.305" stroke="white" stroke-width="2" stroke-miterlimit="10" stroke-linecap="round" stroke-linejoin="round"/>
</g>
<g id="Group_4">
<path id="Vector_8" d="M36.8365 19.9368C36.8365 19.9368 36.6511 19.0224 37.3802 18.4725C38.2885 17.7928 39.969 18.1574 40.0494 19.5599C40.1112 20.6227 39.7034 20.9625 38.9249 21.4938C38.0722 22.0808 38.1278 22.9767 38.1278 22.9767" stroke="white" stroke-width="2" stroke-miterlimit="10" stroke-linecap="round" stroke-linejoin="round"/>
<path id="Vector_9" d="M38.1582 25.2009L38.1644 25.4543" stroke="white" stroke-width="2" stroke-miterlimit="10" stroke-linecap="round" stroke-linejoin="round"/>
</g>
</g>
</g>
</g>
</g>
</g>
</g>
</svg>
