<svg width="56" height="56" viewBox="0 0 56 56" fill="none" xmlns="http://www.w3.org/2000/svg">
<g id="immobilie-vermieten">
<g id="Frame 1984077915">
<g id="Frame 1984077937">
<g id="Frame 1984077874">
<g id="rent_4407822 1">
<rect width="56" height="56" rx="28" fill="#DECEC4"/>
<g id="Layer 1">
<path id="Vector" d="M23.8769 31.5947C24.0102 31.6711 24.1683 31.6916 24.3167 31.6518C24.4651 31.6121 24.5917 31.5152 24.6689 31.3824L26.6978 27.8683L28.2036 28.7379L27.6239 29.7418L26.6202 29.1622C26.5268 29.1099 26.4208 29.0843 26.3138 29.0882C26.2067 29.0921 26.1029 29.1254 26.0135 29.1844C25.9241 29.2434 25.8527 29.3259 25.8071 29.4227C25.7614 29.5196 25.7433 29.6272 25.7547 29.7337L26.1011 32.6111C26.1222 32.7615 26.2015 32.8977 26.3218 32.9903C26.4422 33.0829 26.5941 33.1246 26.7449 33.1064C26.8957 33.0883 27.0333 33.0117 27.1283 32.8931C27.2232 32.7746 27.2678 32.6235 27.2526 32.4724L27.0443 30.7461L27.5464 31.0359C27.6798 31.1117 27.8377 31.132 27.9859 31.0922C28.1341 31.0525 28.2607 30.956 28.3384 30.8236L29.4977 28.8154C29.5358 28.7495 29.5605 28.6767 29.5705 28.6012C29.5804 28.5257 29.5754 28.449 29.5557 28.3754C29.536 28.3019 29.5019 28.2329 29.4556 28.1725C29.4092 28.1121 29.3514 28.0615 29.2854 28.0234L26.7754 26.5742C26.642 26.4983 26.484 26.4779 26.3358 26.5177C26.1875 26.5574 26.0609 26.654 25.9834 26.7865L23.6646 30.8027C23.6265 30.8686 23.6018 30.9414 23.5919 31.0169C23.5819 31.0924 23.587 31.1691 23.6067 31.2427C23.6264 31.3162 23.6604 31.3852 23.7068 31.4456C23.7531 31.506 23.811 31.5566 23.8769 31.5947Z" fill="white"/>
<path id="Vector_2" d="M28.3955 34.2033C28.5744 34.2724 30.5318 35.5261 30.6927 35.4403C30.819 35.4378 30.9411 35.3944 31.0407 35.3165C31.1402 35.2386 31.2117 35.1305 31.2445 35.0085C31.2772 34.8864 31.2694 34.757 31.2223 34.6398C31.1752 34.5225 31.0912 34.4238 30.9831 34.3584L29.4773 33.4889L30.0568 32.4852L31.0607 33.0649C31.1938 33.1416 31.352 33.1624 31.5005 33.1225C31.649 33.0827 31.7755 32.9855 31.8524 32.8524C31.9292 32.7193 31.9501 32.5611 31.9103 32.4126C31.8705 32.2641 31.7734 32.1375 31.6404 32.0606L30.6366 31.481L31.2163 30.477L32.7222 31.3465C32.8551 31.4197 33.0115 31.4379 33.1577 31.3971C33.3039 31.3563 33.4283 31.2599 33.5041 31.1284C33.58 30.997 33.6013 30.841 33.5635 30.694C33.5257 30.547 33.4317 30.4207 33.3018 30.3422L31.2939 29.1828C31.1605 29.1069 31.0026 29.0866 30.8543 29.1263C30.7061 29.1661 30.5794 29.2627 30.5019 29.3951L28.1832 33.4113C28.1451 33.4773 28.1204 33.5501 28.1104 33.6255C28.1005 33.701 28.1055 33.7777 28.1252 33.8513C28.1449 33.9248 28.179 33.9938 28.2253 34.0542C28.2717 34.1146 28.3295 34.1652 28.3955 34.2033Z" fill="white"/>
<path id="Vector_3" d="M32.4111 36.5221C32.5443 36.5987 32.7025 36.6193 32.8509 36.5796C32.9994 36.5398 33.126 36.4428 33.2031 36.3098L34.5113 34.044L34.6319 37.4896C34.6385 37.6141 34.685 37.7332 34.7643 37.8294C34.8437 37.9256 34.9519 37.9938 35.0729 38.024C35.1939 38.0542 35.3215 38.0447 35.4367 37.997C35.5519 37.9493 35.6488 37.8659 35.7132 37.759L38.0319 33.7428C38.1052 33.6099 38.1235 33.4534 38.0828 33.3071C38.042 33.1609 37.9455 33.0364 37.814 32.9605C37.6825 32.8846 37.5265 32.8633 37.3794 32.9012C37.2324 32.9391 37.1061 33.0331 37.0276 33.1632L35.7194 35.4289L35.5988 31.9834C35.592 31.8589 35.5455 31.7399 35.4661 31.6438C35.3867 31.5477 35.2786 31.4796 35.1577 31.4494C35.0367 31.4193 34.9093 31.4287 34.7941 31.4763C34.6788 31.5239 34.5819 31.6072 34.5175 31.7139L32.1988 35.7301C32.1607 35.796 32.136 35.8688 32.1261 35.9443C32.1161 36.0198 32.1211 36.0965 32.1409 36.1701C32.1606 36.2436 32.1946 36.3126 32.241 36.373C32.2873 36.4333 32.3451 36.484 32.4111 36.5221Z" fill="white"/>
<path id="Vector_4" d="M38.7466 34.8246L39.7503 35.4042L37.7214 38.9184C37.6832 38.9843 37.6585 39.0571 37.6485 39.1326C37.6386 39.2081 37.6436 39.2849 37.6633 39.3584C37.683 39.432 37.717 39.501 37.7634 39.5614C37.8097 39.6218 37.8675 39.6725 37.9335 39.7106C37.9995 39.7487 38.0723 39.7734 38.1478 39.7833C38.2233 39.7932 38.3 39.7882 38.3736 39.7684C38.4471 39.7487 38.5161 39.7147 38.5765 39.6683C38.6369 39.6219 38.6876 39.564 38.7256 39.4981L40.7544 35.9841C40.9565 36.073 41.8214 36.6781 42.0475 36.6412C42.1738 36.6388 42.2959 36.5953 42.3954 36.5175C42.4949 36.4396 42.5665 36.3315 42.5992 36.2094C42.632 36.0874 42.6242 35.958 42.5771 35.8408C42.5299 35.7236 42.446 35.6248 42.3379 35.5594L39.3263 33.8203C39.1933 33.747 39.0369 33.7287 38.8906 33.7694C38.7443 33.8101 38.6198 33.9066 38.5439 34.0382C38.4679 34.1697 38.4466 34.3257 38.4846 34.4728C38.5225 34.6198 38.6165 34.7462 38.7466 34.8246Z" fill="white"/>
<path id="Vector_5" d="M45.0041 34.421L26.4292 23.6968C26.1627 23.5438 25.8465 23.5026 25.5497 23.5821C25.2528 23.6616 24.9996 23.8554 24.8452 24.1211L20.7874 31.1495C20.6342 31.416 20.5928 31.7323 20.6724 32.0293C20.752 32.3262 20.946 32.5794 21.212 32.7335L28.2402 36.7911L23.777 44.5211C23.7261 44.6093 23.6994 44.7092 23.6994 44.811C23.6994 44.9128 23.7262 45.0127 23.7771 45.1009C23.8279 45.189 23.9011 45.2622 23.9893 45.313C24.0774 45.3639 24.1774 45.3907 24.2792 45.3907H28.9648C29.0666 45.3907 29.1665 45.3639 29.2547 45.313C29.3428 45.2622 29.416 45.189 29.4669 45.1008L32.7588 39.3998L39.7875 43.4577C40.0538 43.6111 40.3701 43.6526 40.667 43.573C40.9639 43.4934 41.217 43.2992 41.3709 43.0331L45.4287 36.0041C45.5819 35.7378 45.6232 35.4216 45.5436 35.1248C45.464 34.8281 45.27 34.575 45.0041 34.421ZM28.6302 44.2313H25.2834L29.2444 37.371L31.7545 38.8202L28.6302 44.2313ZM40.3666 42.4535C35.3855 39.5776 26.8037 34.6229 21.7917 31.7292L25.8489 24.7005L44.4244 35.425L40.3666 42.4535Z" fill="white"/>
<path id="Vector_6" d="M25.4677 39.5938C25.4677 39.5176 25.4528 39.4422 25.4236 39.3719C25.3945 39.3016 25.3518 39.2376 25.298 39.1838C25.2441 39.13 25.1802 39.0873 25.1099 39.0581C25.0395 39.029 24.9642 39.014 24.888 39.0141H12.8188V18.725H29.05V24.1972C29.05 24.351 29.1111 24.4984 29.2198 24.6071C29.3285 24.7158 29.4759 24.7769 29.6297 24.7769C29.7834 24.7769 29.9309 24.7158 30.0396 24.6071C30.1483 24.4984 30.2094 24.351 30.2094 24.1972V18.725C30.5168 18.7246 30.8114 18.6024 31.0288 18.385C31.2461 18.1677 31.3684 17.873 31.3688 17.5656V18.725C31.3691 19.0324 31.4914 19.3271 31.7087 19.5444C31.9261 19.7618 32.2208 19.884 32.5281 19.8844H34.2672C34.5746 19.884 34.8693 19.7618 35.0866 19.5444C35.304 19.3271 35.4262 19.0324 35.4266 18.725V16.9859C35.4262 16.6786 35.304 16.3839 35.0866 16.1665C34.8693 15.9492 34.5746 15.8269 34.2672 15.8266H32.5281C32.2208 15.8269 31.9261 15.9492 31.7087 16.1665C31.4914 16.3839 31.3691 16.6786 31.3688 16.9859V16.4063C31.3684 16.0989 31.2461 15.8042 31.0288 15.5868C30.8114 15.3695 30.5168 15.2472 30.2094 15.2469H20.9344V14.0875H37.1656V28.8811C37.1656 29.0349 37.2267 29.1823 37.3354 29.291C37.4441 29.3997 37.5916 29.4608 37.7453 29.4608C37.8991 29.4608 38.0465 29.3997 38.1552 29.291C38.2639 29.1823 38.325 29.0349 38.325 28.8811V14.0875C38.6324 14.0871 38.9271 13.9649 39.1444 13.7475C39.3618 13.5302 39.484 13.2355 39.4844 12.9281V11.7688C39.484 11.4614 39.3618 11.1667 39.1444 10.9493C38.9271 10.732 38.6324 10.6097 38.325 10.6094H19.775C19.4676 10.6097 19.1729 10.732 18.9556 10.9493C18.7382 11.1667 18.616 11.4614 18.6156 11.7688V12.9281C18.616 13.2355 18.7382 13.5302 18.9556 13.7475C19.1729 13.9649 19.4676 14.0871 19.775 14.0875V15.2469H11.6594C11.352 15.2472 11.0573 15.3695 10.84 15.5868C10.6226 15.8042 10.5004 16.0989 10.5 16.4063V17.5656C10.5004 17.873 10.6226 18.1677 10.84 18.385C11.0573 18.6024 11.352 18.7246 11.6594 18.725V39.0141C11.6597 39.3214 11.782 39.6161 11.9993 39.8335C12.2167 40.0508 12.5114 40.1731 12.8188 40.1734H24.888C24.9642 40.1735 25.0395 40.1585 25.1099 40.1294C25.1802 40.1002 25.2441 40.0575 25.298 40.0037C25.3518 39.9499 25.3945 39.886 25.4236 39.8156C25.4528 39.7453 25.4677 39.6699 25.4677 39.5938ZM32.5281 16.9859H34.2672L34.2678 18.725H32.5281V16.9859ZM19.775 11.7688H38.325L38.3256 12.9281H19.775V11.7688ZM11.6594 16.4063H30.2094L30.21 17.5656H11.6594V16.4063Z" fill="white"/>
<path id="Vector_7" d="M19.7752 21.6235C19.7748 21.3161 19.6526 21.0214 19.4352 20.8041C19.2179 20.5867 18.9232 20.4645 18.6158 20.4641H16.2971C15.9897 20.4645 15.695 20.5867 15.4777 20.8041C15.2603 21.0214 15.138 21.3161 15.1377 21.6235V23.3625C15.138 23.6699 15.2603 23.9646 15.4777 24.182C15.695 24.3993 15.9897 24.5216 16.2971 24.5219H18.6158C18.9232 24.5216 19.2179 24.3993 19.4352 24.182C19.6526 23.9646 19.7748 23.6699 19.7752 23.3625V21.6235ZM16.2971 23.3625V21.6235H18.6158L18.6164 23.3625H16.2971Z" fill="white"/>
<path id="Vector_8" d="M26.1513 22.8641C26.2275 22.8641 26.3029 22.8491 26.3732 22.82C26.4435 22.7909 26.5074 22.7482 26.5613 22.6944C26.6151 22.6405 26.6578 22.5766 26.6869 22.5063C26.7161 22.4359 26.731 22.3605 26.731 22.2844V21.6235C26.7307 21.3161 26.6084 21.0214 26.3911 20.8041C26.1737 20.5867 25.879 20.4645 25.5716 20.4641H23.2529C22.9455 20.4645 22.6508 20.5867 22.4335 20.8041C22.2161 21.0214 22.0939 21.3161 22.0935 21.6235V23.3625C21.9918 24.277 23.5879 25.1079 23.8038 23.9615C23.8073 23.8859 23.7958 23.8104 23.7699 23.7393C23.744 23.6682 23.7044 23.6029 23.6531 23.5472C23.6019 23.4915 23.5402 23.4465 23.4715 23.4148C23.4028 23.3832 23.3285 23.3654 23.2529 23.3625V21.6235H25.5716V22.2844C25.5716 22.3605 25.5866 22.4359 25.6157 22.5063C25.6449 22.5766 25.6876 22.6405 25.7414 22.6944C25.7952 22.7482 25.8591 22.7909 25.9295 22.82C25.9998 22.8491 26.0752 22.8641 26.1513 22.8641Z" fill="white"/>
<path id="Vector_9" d="M19.7752 26.8406C19.7748 26.5333 19.6526 26.2386 19.4352 26.0212C19.2179 25.8039 18.9232 25.6816 18.6158 25.6813H16.2971C15.9897 25.6816 15.695 25.8039 15.4777 26.0212C15.2603 26.2386 15.138 26.5333 15.1377 26.8406V28.5797C15.138 28.8871 15.2603 29.1818 15.4777 29.3991C15.695 29.6165 15.9897 29.7387 16.2971 29.7391H18.6158C18.9232 29.7387 19.2179 29.6165 19.4352 29.3991C19.6526 29.1818 19.7748 28.8871 19.7752 28.5797V26.8406ZM16.2971 28.5797V26.8406H18.6158L18.6164 28.5797H16.2971Z" fill="white"/>
<path id="Vector_10" d="M18.6158 30.8984H16.2971C15.9897 30.8988 15.695 31.0211 15.4777 31.2384C15.2603 31.4557 15.138 31.7504 15.1377 32.0578V33.7969C15.138 34.1043 15.2603 34.3989 15.4777 34.6163C15.695 34.8336 15.9897 34.9559 16.2971 34.9563H18.6158C18.9232 34.9559 19.2179 34.8336 19.4352 34.6163C19.6526 34.3989 19.7748 34.1043 19.7752 33.7969V32.0578C19.7748 31.7504 19.6526 31.4557 19.4352 31.2384C19.2179 31.0211 18.9232 30.8988 18.6158 30.8984ZM16.2971 33.7969V32.0578H18.6158L18.6164 33.7969H16.2971Z" fill="white"/>
<path id="Vector_11" d="M34.2676 21.0437H32.5285C32.2211 21.0441 31.9264 21.1663 31.7091 21.3837C31.4918 21.601 31.3695 21.8957 31.3691 22.2031V23.9421C31.3695 24.2495 31.4918 24.5442 31.7091 24.7616C31.9264 24.9789 32.2211 25.1012 32.5285 25.1015H34.2676C34.575 25.1012 34.8696 24.9789 35.087 24.7616C35.3043 24.5442 35.4266 24.2495 35.427 23.9421V22.2031C35.4266 21.8957 35.3043 21.601 35.087 21.3837C34.8696 21.1663 34.575 21.0441 34.2676 21.0437ZM32.5285 23.9421V22.2031H34.2676L34.2682 23.9421H32.5285Z" fill="white"/>
</g>
</g>
</g>
</g>
</g>
</g>
</svg>
