<svg width="56" height="56" viewBox="0 0 56 56" fill="none" xmlns="http://www.w3.org/2000/svg">
<g id="immobilie-vermieten">
<g id="Frame 1984077915">
<g id="Frame 1984077937">
<g id="Frame 1984077873">
<g id="charity_13548798 1">
<rect width="56" height="56" rx="28" fill="#DECEC4"/>
<g id="layer1">
<g id="Vector">
<path d="M15.5194 30.8978C14.6874 30.8978 14 31.5846 14 32.4166V34.8518C14 34.9244 14.0143 34.9962 14.042 35.0633C14.0698 35.1303 14.1105 35.1912 14.1618 35.2425C14.2131 35.2938 14.274 35.3345 14.341 35.3623C14.4081 35.3901 14.4799 35.4043 14.5525 35.4043C14.6251 35.4043 14.6969 35.3901 14.7639 35.3623C14.831 35.3345 14.8919 35.2938 14.9432 35.2425C14.9945 35.1912 15.0352 35.1303 15.063 35.0633C15.0907 34.9962 15.105 34.9244 15.105 34.8518V32.4166C15.105 32.1776 15.2803 32.0022 15.5194 32.0022H17.4525C17.6916 32.0022 17.8669 32.1776 17.8669 32.4166V43.7268C17.8669 43.9658 17.6776 44.1615 17.4525 44.1615H15.5194C15.2803 44.1615 15.105 43.9862 15.105 43.7472V41.0097C15.105 40.9372 15.0907 40.8653 15.063 40.7983C15.0352 40.7312 14.9945 40.6703 14.9432 40.619C14.8919 40.5677 14.831 40.527 14.7639 40.4993C14.6969 40.4715 14.6251 40.4572 14.5525 40.4572C14.4799 40.4572 14.4081 40.4715 14.341 40.4993C14.274 40.527 14.2131 40.5677 14.1618 40.619C14.1105 40.6703 14.0698 40.7312 14.042 40.7983C14.0143 40.8653 14 40.9372 14 41.0097V43.7472C14 44.5791 14.6874 45.266 15.5194 45.266H17.4525C18.2985 45.266 18.9714 44.5588 18.9714 43.7268V32.4166C18.9714 31.5846 18.2845 30.8978 17.4525 30.8978H15.5194Z" fill="white"/>
<path d="M18.7217 32.4163C18.7215 31.7226 18.1459 31.1478 17.4521 31.1478H15.5195C14.8256 31.1478 14.2502 31.7227 14.25 32.4163V34.8519L14.2559 34.9105C14.2597 34.93 14.2658 34.9496 14.2734 34.9681C14.2886 35.0046 14.3109 35.0378 14.3389 35.0657C14.3669 35.0937 14.4 35.116 14.4365 35.1312C14.4732 35.1464 14.513 35.1546 14.5527 35.1546C14.5923 35.1546 14.6314 35.1463 14.668 35.1312C14.7047 35.116 14.7385 35.0938 14.7666 35.0657C14.7945 35.0378 14.8169 35.0046 14.832 34.9681C14.8397 34.9496 14.8458 34.93 14.8496 34.9105L14.8555 34.8519V32.4163C14.8556 32.0393 15.1425 31.7523 15.5195 31.7523H17.4521C17.8292 31.7523 18.117 32.0393 18.1172 32.4163V43.7269C18.1171 44.0936 17.8253 44.4114 17.4521 44.4114H15.5195C15.1425 44.4114 14.8556 44.1244 14.8555 43.7474V41.0101C14.8555 40.9704 14.8472 40.9306 14.832 40.8939C14.8169 40.8573 14.7945 40.8242 14.7666 40.7962C14.7385 40.7681 14.7047 40.745 14.668 40.7298C14.6315 40.7147 14.5922 40.7074 14.5527 40.7073C14.513 40.7073 14.4732 40.7146 14.4365 40.7298C14.3998 40.745 14.367 40.7681 14.3389 40.7962C14.3109 40.8242 14.2886 40.8573 14.2734 40.8939C14.2582 40.9306 14.25 40.9704 14.25 41.0101V43.7474C14.2501 44.4411 14.8256 45.0159 15.5195 45.0159H17.4521C18.1543 45.0159 18.7216 44.4266 18.7217 43.7269V32.4163ZM19.2217 43.7269C19.2216 44.691 18.442 45.5159 17.4521 45.5159H15.5195C14.5497 45.5159 13.7501 44.7174 13.75 43.7474V41.0101C13.75 40.9047 13.7712 40.7998 13.8115 40.7025C13.8518 40.6052 13.9109 40.5171 13.9854 40.4427C14.0599 40.3682 14.1478 40.3082 14.2451 40.2679C14.3425 40.2276 14.4473 40.2073 14.5527 40.2073C14.6579 40.2074 14.7622 40.2277 14.8594 40.2679C14.9568 40.3082 15.0456 40.3682 15.1201 40.4427C15.1945 40.5171 15.2537 40.6053 15.2939 40.7025C15.3343 40.7998 15.3555 40.9047 15.3555 41.0101V43.7474C15.3556 43.8482 15.4186 43.9114 15.5195 43.9114H17.4521C17.529 43.9114 17.6172 43.8381 17.6172 43.7269V32.4163C17.6171 32.3155 17.553 32.2523 17.4521 32.2523H15.5195C15.4186 32.2523 15.3556 32.3155 15.3555 32.4163V34.8519C15.3555 34.9571 15.3342 35.0613 15.2939 35.1585C15.2536 35.2559 15.1946 35.3447 15.1201 35.4193C15.0456 35.4938 14.9568 35.5528 14.8594 35.5931C14.7621 35.6333 14.658 35.6546 14.5527 35.6546C14.4473 35.6546 14.3425 35.6334 14.2451 35.5931C14.1479 35.5528 14.0598 35.4936 13.9854 35.4193C13.9108 35.3447 13.8518 35.2559 13.8115 35.1585C13.7713 35.0612 13.75 34.9572 13.75 34.8519V32.4163C13.7502 31.4463 14.5497 30.6478 15.5195 30.6478H17.4521C18.4221 30.6478 19.2215 31.4464 19.2217 32.4163V43.7269Z" fill="white"/>
<path d="M22.3112 31.4115C22.2623 31.4112 22.2136 31.4174 22.1664 31.4299L18.3342 32.4492C18.2641 32.4679 18.1983 32.5001 18.1407 32.5442C18.083 32.5882 18.0346 32.6432 17.9982 32.7059C17.9618 32.7687 17.9381 32.838 17.9285 32.9099C17.9189 32.9818 17.9236 33.0549 17.9422 33.125C17.9609 33.1952 17.9931 33.2609 18.0372 33.3186C18.0812 33.3762 18.1362 33.4246 18.199 33.461C18.2617 33.4974 18.331 33.5211 18.4029 33.5307C18.4749 33.5403 18.5479 33.5356 18.6181 33.517L22.3152 32.5333L32.3803 34.9543C33.2846 35.1718 33.8132 36.1237 33.5663 37.0521C33.3196 37.98 32.4255 38.4545 31.4557 38.2559L22.1134 36.3431C21.9699 36.3138 21.8206 36.3426 21.6984 36.4233C21.5762 36.5039 21.491 36.6298 21.4615 36.7733C21.447 36.8444 21.4466 36.9176 21.4604 36.9889C21.4742 37.0601 21.5018 37.1279 21.5418 37.1885C21.5818 37.249 21.6334 37.3011 21.6935 37.3417C21.7536 37.3823 21.8211 37.4107 21.8922 37.4252L31.234 39.338C32.7072 39.6396 34.2357 38.8344 34.6341 37.336C35.0324 35.8381 34.159 34.2461 32.6387 33.8804L22.4376 31.4268C22.3962 31.4169 22.3537 31.4117 22.3112 31.4115Z" fill="white"/>
<path d="M22.3123 31.1615C22.3742 31.1618 22.4358 31.1695 22.4959 31.184L32.6971 33.6371C34.3632 34.0379 35.3074 35.7759 34.8758 37.3998C34.4391 39.0422 32.7695 39.9081 31.1834 39.5834L21.8416 37.6703C21.7386 37.6492 21.6407 37.608 21.5536 37.5492C21.4662 37.4902 21.391 37.4145 21.3329 37.3266C21.2748 37.2386 21.2347 37.1399 21.2147 37.0365C21.1947 36.933 21.1955 36.8263 21.2166 36.723C21.2594 36.5147 21.3829 36.3314 21.5604 36.2142C21.738 36.0971 21.9555 36.0554 22.1639 36.098L31.5057 38.0111C32.3664 38.1873 33.1176 37.7681 33.325 36.9877C33.5388 36.1834 33.0781 35.3797 32.3221 35.1976L22.3172 32.7904L18.6825 33.7582C18.5807 33.7853 18.4744 33.7926 18.37 33.7787C18.2655 33.7647 18.1643 33.73 18.0731 33.6771C17.9821 33.6243 17.9026 33.5537 17.8387 33.4701C17.7748 33.3864 17.7281 33.2907 17.701 33.1889C17.674 33.0871 17.6666 32.9807 17.6805 32.8764C17.6945 32.7721 17.7293 32.6715 17.7821 32.5805C17.8349 32.4893 17.9054 32.4091 17.9891 32.3451C18.0728 32.2813 18.1687 32.2344 18.2704 32.2074L22.1024 31.1879L22.2069 31.1683C22.2418 31.1639 22.277 31.1613 22.3123 31.1615ZM22.2303 31.6713L18.3983 32.6908C18.3601 32.701 18.3243 32.7186 18.2928 32.7426C18.2613 32.7667 18.2346 32.7971 18.2147 32.8314C18.1948 32.8657 18.1819 32.9035 18.1766 32.9428C18.1713 32.9821 18.1732 33.0225 18.1834 33.0609C18.1936 33.0993 18.2121 33.1349 18.2362 33.1664C18.2602 33.1978 18.2899 33.2246 18.3241 33.2445C18.3584 33.2644 18.397 33.2773 18.4364 33.2826C18.4755 33.2878 18.5154 33.2859 18.5536 33.2758L22.2508 32.2914L22.3123 32.2758L22.3739 32.2904L32.4383 34.7113C33.4907 34.9645 34.0873 36.0643 33.8075 37.1166C33.5214 38.1917 32.4837 38.7222 31.4051 38.5014L22.0633 36.5883C21.9848 36.5722 21.9027 36.5881 21.8358 36.6322C21.7691 36.6764 21.723 36.7452 21.7069 36.8236C21.6989 36.8625 21.6984 36.9028 21.7059 36.9418C21.7135 36.9806 21.7291 37.0172 21.7508 37.0502C21.7727 37.0833 21.8009 37.1119 21.8338 37.1342C21.8502 37.1452 21.8674 37.1549 21.8856 37.1625L21.9422 37.1801L31.284 39.0932C32.6442 39.3716 34.0322 38.6263 34.3924 37.2719C34.7572 35.9001 33.9542 34.454 32.5799 34.1234L22.3788 31.6703C22.3563 31.6649 22.3335 31.6617 22.3104 31.6615C22.2837 31.6614 22.2561 31.6645 22.2303 31.6713Z" fill="white"/>
<path d="M42.5215 33.3462C42.1569 33.3551 41.7882 33.4374 41.4364 33.6011L33.9829 37.0694C33.8502 37.1312 33.7475 37.2432 33.6974 37.3807C33.6472 37.5183 33.6537 37.6701 33.7153 37.8028C33.7771 37.9356 33.889 38.0384 34.0266 38.0887C34.1641 38.139 34.316 38.1326 34.4488 38.0709L41.9028 34.6026C42.7586 34.2043 43.7492 34.5871 44.1408 35.4629C44.532 36.338 44.1329 37.276 43.2554 37.7493L32.4345 43.5861C27.3712 43.7865 23.078 43.1575 18.6932 41.8038C18.6239 41.7823 18.551 41.7747 18.4788 41.7814C18.4065 41.7881 18.3363 41.809 18.2721 41.8428C18.208 41.8766 18.1511 41.9228 18.1047 41.9786C18.0584 42.0345 18.0235 42.0989 18.0021 42.1682C17.9806 42.2375 17.973 42.3104 17.9798 42.3827C17.9865 42.455 18.0074 42.5252 18.0413 42.5894C18.0752 42.6536 18.1214 42.7104 18.1773 42.7568C18.2332 42.8031 18.2976 42.8379 18.367 42.8593C22.8893 44.2555 27.3642 44.9104 32.5982 44.6901C32.6818 44.6865 32.7635 44.6641 32.8372 44.6243L43.7799 38.7218C45.1002 38.0096 45.7821 36.427 45.1494 35.0118C44.6751 33.9511 43.6154 33.3195 42.5215 33.3462Z" fill="white"/>
<path d="M42.5155 33.0964C43.7077 33.0673 44.8614 33.755 45.3778 34.9099C46.0715 36.4615 45.3166 38.1771 43.8983 38.9421L32.9559 44.8444C32.8489 44.9022 32.7297 44.935 32.6082 44.9401C27.3448 45.1617 22.8411 44.5025 18.2928 43.0983C18.1922 43.0673 18.0985 43.0161 18.0174 42.9489C17.9364 42.8817 17.8693 42.7989 17.8202 42.7058C17.771 42.6126 17.7411 42.5108 17.7313 42.406C17.7215 42.301 17.7324 42.1951 17.7635 42.0944C17.7946 41.9938 17.8447 41.9001 17.912 41.819C17.9792 41.738 18.062 41.6709 18.1551 41.6218C18.2483 41.5726 18.351 41.5426 18.4559 41.5329C18.5608 41.5232 18.6668 41.534 18.7674 41.5651C23.1093 42.9056 27.3582 43.5298 32.367 43.3376L43.1366 37.529C43.9198 37.1065 44.2413 36.3 43.9129 35.5651C43.5764 34.8125 42.7335 34.4918 42.0086 34.8288L34.5545 38.2976C34.3616 38.3871 34.1401 38.3969 33.9403 38.3239C33.7406 38.2509 33.5788 38.1007 33.4891 37.9079C33.3995 37.7151 33.3899 37.4944 33.4627 37.2946C33.5357 37.0951 33.6852 36.9322 33.8778 36.8425L41.3309 33.3747C41.7145 33.1962 42.1172 33.1061 42.5155 33.0964ZM42.5272 33.5964C42.1963 33.6045 41.8617 33.679 41.5418 33.8278L34.0887 37.2956C34.0161 37.3295 33.9599 37.3912 33.9325 37.4665C33.905 37.5417 33.9086 37.6244 33.9422 37.697L33.9725 37.7487C34.0075 37.7964 34.0558 37.8336 34.1122 37.8542C34.1874 37.8817 34.2709 37.8782 34.3436 37.8444L41.7977 34.3757C42.7843 33.9169 43.9225 34.3624 44.369 35.361C44.8228 36.3762 44.3454 37.4454 43.3739 37.9694L32.5536 43.8063L32.5018 43.8337L32.4442 43.8356C27.3517 44.0372 23.0298 43.4044 18.619 42.0427C18.5811 42.031 18.5413 42.0263 18.5018 42.03C18.4623 42.0336 18.4237 42.0456 18.3885 42.0642C18.3535 42.0827 18.322 42.1079 18.2967 42.1384C18.2715 42.1688 18.2528 42.2041 18.2411 42.2419C18.2294 42.2797 18.2248 42.3197 18.2284 42.3591C18.232 42.3986 18.244 42.4373 18.2625 42.4724C18.2811 42.5075 18.3062 42.5388 18.3368 42.5642C18.352 42.5768 18.3683 42.588 18.3856 42.5974L18.4403 42.6208L19.2831 42.8718C23.4955 44.0863 27.7085 44.6456 32.5877 44.4401C32.6335 44.4382 32.6783 44.4257 32.7186 44.404L43.661 38.5017C44.8832 37.8424 45.4925 36.3926 44.9207 35.114C44.4885 34.1474 43.5226 33.5721 42.5272 33.5964Z" fill="white"/>
<path d="M29.6932 11C24.3612 11 20.0272 15.3341 20.0272 20.666C20.0272 25.9979 24.3612 30.332 29.6932 30.332C35.0251 30.332 39.3591 25.9979 39.3591 20.666C39.3591 15.3341 35.0251 11 29.6932 11ZM29.6932 12.1045C34.4281 12.1045 38.2547 15.9311 38.2547 20.666C38.2547 25.4009 34.4281 29.2275 29.6932 29.2275C24.9582 29.2275 21.1316 25.4009 21.1316 20.666C21.1316 15.9311 24.9582 12.1045 29.6932 12.1045Z" fill="white"/>
<path d="M39.1092 20.666C39.1092 15.4722 34.887 11.25 29.6932 11.25C24.4993 11.25 20.2772 15.4722 20.2772 20.666C20.2772 25.8599 24.4993 30.082 29.6932 30.082C34.887 30.082 39.1092 25.8599 39.1092 20.666ZM38.0047 20.666C38.0047 16.0692 34.29 12.3545 29.6932 12.3545C25.0963 12.3545 21.3817 16.0692 21.3817 20.666C21.3817 25.2628 25.0963 28.9775 29.6932 28.9775C34.29 28.9775 38.0047 25.2628 38.0047 20.666ZM38.5047 20.666C38.5047 25.539 34.5661 29.4775 29.6932 29.4775C24.8202 29.4775 20.8817 25.539 20.8817 20.666C20.8817 15.793 24.8202 11.8545 29.6932 11.8545C34.5661 11.8545 38.5047 15.793 38.5047 20.666ZM39.6092 20.666C39.6092 26.136 35.1631 30.582 29.6932 30.582C24.2232 30.582 19.7772 26.136 19.7772 20.666C19.7772 15.196 24.2232 10.75 29.6932 10.75C35.1632 10.75 39.6092 15.196 39.6092 20.666Z" fill="white"/>
<path d="M29.6993 15.4077C29.588 15.4064 29.4789 15.4387 29.3863 15.5004L23.6474 19.3332C23.587 19.3734 23.5352 19.4252 23.4949 19.4855C23.4545 19.5458 23.4265 19.6134 23.4123 19.6845C23.3981 19.7557 23.398 19.8289 23.4121 19.9001C23.4262 19.9712 23.4542 20.0389 23.4945 20.0992C23.5758 20.221 23.7023 20.3055 23.8459 20.3341C23.9896 20.3626 24.1387 20.333 24.2605 20.2516L29.6931 16.6238L35.1258 20.2516C35.2476 20.333 35.3967 20.3626 35.5403 20.3341C35.684 20.3055 35.8104 20.221 35.8918 20.0992C35.9321 20.0389 35.9601 19.9712 35.9742 19.9001C35.9883 19.8289 35.9882 19.7557 35.974 19.6845C35.9598 19.6134 35.9317 19.5458 35.8914 19.4855C35.8511 19.4252 35.7992 19.3734 35.7389 19.3332L30 15.5004C29.9108 15.441 29.8064 15.4088 29.6993 15.4077Z" fill="white"/>
<path d="M29.7014 15.1586C29.857 15.1602 30.0094 15.2061 30.1389 15.2924L35.8781 19.1254C35.9655 19.1838 36.0404 19.2588 36.0988 19.3461C36.1574 19.4336 36.1983 19.532 36.219 19.6352C36.2396 19.7385 36.2394 19.8453 36.219 19.9487C36.1985 20.0519 36.1582 20.1501 36.0998 20.2377C35.9816 20.4146 35.7978 20.538 35.5891 20.5795C35.3804 20.621 35.1634 20.5776 34.9865 20.4594L29.6926 16.9242L24.3996 20.4594C24.2227 20.5776 24.0058 20.621 23.7971 20.5795C23.5884 20.538 23.4046 20.4146 23.2863 20.2377C23.228 20.1501 23.1877 20.0519 23.1672 19.9487C23.1467 19.8453 23.1466 19.7385 23.1672 19.6352C23.1878 19.532 23.2288 19.4336 23.2873 19.3461C23.3459 19.2587 23.4215 19.1838 23.509 19.1254L29.2473 15.2924L29.3527 15.2328C29.4613 15.1821 29.5805 15.1573 29.7014 15.1586ZM29.6066 15.6703C29.5779 15.6789 29.5498 15.6906 29.5246 15.7074L23.7863 19.5414C23.7533 19.5635 23.7244 19.5914 23.7024 19.6244C23.6803 19.6574 23.6652 19.6949 23.6574 19.7338C23.6497 19.7725 23.6498 19.8123 23.6574 19.851C23.6651 19.8899 23.6804 19.9274 23.7024 19.9604L23.7404 20.0063C23.7824 20.0481 23.8358 20.0776 23.8947 20.0893C23.9733 20.1049 24.0547 20.0879 24.1213 20.0434L29.5539 16.4154L29.6936 16.3227L35.2649 20.0434C35.3315 20.0879 35.4128 20.1048 35.4914 20.0893C35.57 20.0736 35.6392 20.027 35.6838 19.9604L35.7121 19.9086C35.7197 19.8903 35.7248 19.8706 35.7287 19.851C35.7363 19.8123 35.7364 19.7725 35.7287 19.7338C35.7209 19.6949 35.7059 19.6574 35.6838 19.6244C35.6617 19.5914 35.6328 19.5635 35.5998 19.5414L29.8615 15.7084C29.8127 15.6759 29.7551 15.6582 29.6965 15.6576L29.6066 15.6703Z" fill="white"/>
<path d="M25.8669 18.1243C25.7944 18.1243 25.7225 18.1385 25.6555 18.1663C25.5884 18.1941 25.5275 18.2348 25.4762 18.2861C25.4249 18.3374 25.3842 18.3983 25.3565 18.4653C25.3287 18.5324 25.3144 18.6042 25.3145 18.6768V24.2562C25.3145 25.1709 26.0685 25.9249 26.9831 25.9249H32.403C33.3177 25.9249 34.0717 25.1709 34.0717 24.2562V18.6768C34.0717 18.6042 34.0574 18.5324 34.0297 18.4653C34.0019 18.3983 33.9612 18.3374 33.9099 18.2861C33.8586 18.2347 33.7977 18.1941 33.7307 18.1663C33.6636 18.1385 33.5918 18.1243 33.5192 18.1243C33.4466 18.1243 33.3748 18.1385 33.3078 18.1663C33.2407 18.1941 33.1798 18.2347 33.1285 18.2861C33.0772 18.3374 33.0365 18.3983 33.0087 18.4653C32.981 18.5324 32.9667 18.6042 32.9667 18.6768V24.2562C32.9667 24.578 32.7248 24.8199 32.403 24.8199H26.9831C26.6613 24.8199 26.4194 24.578 26.4194 24.2562V18.6768C26.4194 18.6042 26.4052 18.5324 26.3774 18.4653C26.3496 18.3983 26.3089 18.3374 26.2576 18.2861C26.2063 18.2347 26.1454 18.1941 26.0784 18.1663C26.0113 18.1385 25.9395 18.1243 25.8669 18.1243Z" fill="white"/>
<path d="M26.169 24.2561V18.677C26.169 18.6373 26.1617 18.5975 26.1465 18.5608C26.1313 18.5243 26.109 18.4911 26.0811 18.4631C26.053 18.4351 26.0191 18.4129 25.9824 18.3977C25.9458 18.3826 25.9068 18.3743 25.8672 18.3743C25.8275 18.3743 25.7877 18.3825 25.751 18.3977C25.7144 18.4129 25.6813 18.4351 25.6533 18.4631C25.6253 18.4912 25.6031 18.5242 25.5879 18.5608C25.5727 18.5975 25.5645 18.6373 25.5645 18.677V24.2561C25.5645 25.0327 26.2068 25.6751 26.9834 25.6751H32.4033C33.1798 25.6749 33.8213 25.0326 33.8213 24.2561V18.677C33.8213 18.6373 33.814 18.5975 33.7988 18.5608C33.7837 18.5243 33.7613 18.4911 33.7334 18.4631C33.7053 18.4351 33.6715 18.4129 33.6348 18.3977C33.5982 18.3826 33.5591 18.3743 33.5195 18.3743C33.4798 18.3743 33.44 18.3825 33.4033 18.3977C33.3667 18.4129 33.3337 18.4351 33.3057 18.4631C33.2776 18.4912 33.2545 18.5241 33.2393 18.5608C33.2241 18.5975 33.2168 18.6373 33.2168 18.677V24.2561C33.2168 24.7159 32.863 25.0694 32.4033 25.0696H26.9834C26.5236 25.0696 26.169 24.716 26.169 24.2561ZM34.3213 24.2561C34.3213 25.3088 33.4559 26.1749 32.4033 26.1751H26.9834C25.9307 26.1751 25.0645 25.3089 25.0645 24.2561V18.677C25.0644 18.5716 25.0847 18.4668 25.125 18.3694C25.1653 18.272 25.2253 18.1841 25.2998 18.1096C25.3742 18.0352 25.4624 17.9761 25.5596 17.9358C25.657 17.8955 25.7618 17.8743 25.8672 17.8743C25.9725 17.8743 26.0766 17.8955 26.1738 17.9358C26.2712 17.9761 26.3601 18.0351 26.4346 18.1096C26.5089 18.184 26.5681 18.2722 26.6084 18.3694C26.6487 18.4668 26.669 18.5716 26.669 18.677V24.2561C26.669 24.4398 26.7997 24.5696 26.9834 24.5696H32.4033C32.5869 24.5694 32.7168 24.4397 32.7168 24.2561V18.677C32.7168 18.5716 32.737 18.4668 32.7774 18.3694C32.8177 18.272 32.8777 18.1841 32.9522 18.1096C33.0266 18.0352 33.1147 17.9761 33.2119 17.9358C33.3093 17.8955 33.4141 17.8742 33.5195 17.8743C33.6248 17.8743 33.7289 17.8955 33.8262 17.9358C33.9235 17.9761 34.0124 18.0351 34.0869 18.1096C34.1613 18.184 34.2205 18.2722 34.2607 18.3694C34.3011 18.4668 34.3213 18.5716 34.3213 18.677V24.2561Z" fill="white"/>
<path d="M28.0987 21.6313C28.0261 21.6313 27.9542 21.6456 27.8872 21.6734C27.8202 21.7011 27.7593 21.7418 27.708 21.7931C27.6567 21.8444 27.616 21.9054 27.5882 21.9724C27.5604 22.0394 27.5462 22.1113 27.5462 22.1838V25.3724C27.5462 25.4449 27.5604 25.5168 27.5882 25.5838C27.616 25.6508 27.6567 25.7118 27.708 25.7631C27.7593 25.8144 27.8202 25.8551 27.8872 25.8828C27.9542 25.9106 28.0261 25.9249 28.0987 25.9249H31.2872C31.3597 25.9249 31.4316 25.9106 31.4986 25.8828C31.5656 25.8551 31.6266 25.8144 31.6779 25.7631C31.7292 25.7118 31.7699 25.6508 31.7976 25.5838C31.8254 25.5168 31.8397 25.4449 31.8397 25.3724V22.1838C31.8397 22.1113 31.8254 22.0394 31.7976 21.9724C31.7699 21.9054 31.7292 21.8444 31.6779 21.7931C31.6266 21.7418 31.5656 21.7011 31.4986 21.6734C31.4316 21.6456 31.3597 21.6313 31.2872 21.6313H28.0987ZM28.6511 22.7363H30.7347V24.8199H28.6511V22.7363Z" fill="white"/>
<path d="M31.5901 22.1841C31.5901 22.1444 31.5819 22.1046 31.5667 22.0679C31.5515 22.0313 31.5292 21.9982 31.5012 21.9702C31.4732 21.9421 31.4393 21.92 31.4026 21.9048C31.366 21.8896 31.327 21.8814 31.2874 21.8813H28.0989C28.0592 21.8813 28.0194 21.8896 27.9827 21.9048C27.9461 21.92 27.913 21.9422 27.885 21.9702C27.857 21.9982 27.8348 22.0313 27.8196 22.0679C27.8044 22.1046 27.7962 22.1444 27.7962 22.1841V25.3726C27.7962 25.4122 27.8045 25.4512 27.8196 25.4878C27.8348 25.5245 27.8569 25.5583 27.885 25.5864C27.913 25.6144 27.9461 25.6367 27.9827 25.6519C28.0194 25.6671 28.0592 25.6753 28.0989 25.6753H31.2874C31.3269 25.6753 31.3661 25.6669 31.4026 25.6519C31.4393 25.6367 31.4732 25.6145 31.5012 25.5864C31.5293 25.5583 31.5515 25.5245 31.5667 25.4878C31.5818 25.4512 31.5901 25.4121 31.5901 25.3726V22.1841ZM30.9846 22.4858V25.0698H28.4016V22.4858H30.9846ZM28.9016 24.5698H30.4846V22.9858H28.9016V24.5698ZM32.0901 25.3726C32.0901 25.4778 32.0688 25.582 32.0286 25.6792C31.9883 25.7766 31.9293 25.8654 31.8548 25.9399C31.7802 26.0145 31.6914 26.0734 31.594 26.1138C31.4968 26.154 31.3926 26.1753 31.2874 26.1753H28.0989C27.9935 26.1753 27.8887 26.1541 27.7913 26.1138C27.6941 26.0735 27.6059 26.0143 27.5315 25.9399C27.457 25.8654 27.398 25.7766 27.3577 25.6792C27.3274 25.6061 27.3078 25.5292 27.3001 25.4507L27.2962 25.3726V22.1841C27.2961 22.0787 27.3174 21.9738 27.3577 21.8765C27.398 21.7793 27.4571 21.6911 27.5315 21.6167C27.6059 21.5423 27.6941 21.4832 27.7913 21.4429C27.8887 21.4025 27.9935 21.3813 28.0989 21.3813H31.2874L31.3655 21.3853C31.444 21.3929 31.5209 21.4126 31.594 21.4429C31.6914 21.4832 31.7802 21.5422 31.8548 21.6167C31.9291 21.6911 31.9883 21.7793 32.0286 21.8765C32.0689 21.9738 32.0901 22.0787 32.0901 22.1841V25.3726Z" fill="white"/>
<path d="M23.468 13.4857C23.3924 13.4889 23.3182 13.5076 23.25 13.5406C23.1819 13.5737 23.1213 13.6204 23.072 13.6779C22.9767 13.789 22.9294 13.9335 22.9406 14.0796C22.9517 14.2256 23.0205 14.3613 23.1316 14.4566L36.639 26.0563C36.7502 26.1517 36.8946 26.1991 37.0407 26.188C37.1867 26.1769 37.3224 26.1083 37.4178 25.9972C37.4652 25.9422 37.5012 25.8784 37.5238 25.8094C37.5464 25.7404 37.5553 25.6677 37.5498 25.5953C37.5443 25.5229 37.5246 25.4524 37.4918 25.3876C37.459 25.3228 37.4138 25.2652 37.3587 25.2179L23.8513 13.6187C23.745 13.5274 23.608 13.4798 23.468 13.4857Z" fill="white"/>
<path d="M23.4575 13.2362C23.6607 13.2277 23.8589 13.2971 24.0132 13.4296L24.0141 13.4286L37.522 25.0282C37.6018 25.0968 37.6677 25.1804 37.7153 25.2743C37.7629 25.3682 37.7913 25.471 37.7993 25.576C37.8073 25.6812 37.7941 25.7874 37.7612 25.8876C37.7284 25.9875 37.6764 26.0802 37.6079 26.16C37.4693 26.3213 37.272 26.4212 37.06 26.4374C36.8479 26.4535 36.6375 26.3846 36.4761 26.246L22.9692 14.6464C22.8077 14.5078 22.7071 14.3106 22.6909 14.0985C22.6747 13.8865 22.7439 13.6769 22.8823 13.5155C22.9539 13.432 23.0421 13.3633 23.1411 13.3153C23.24 13.2674 23.3477 13.2408 23.4575 13.2362ZM23.478 13.7352C23.4368 13.737 23.396 13.7475 23.3589 13.7655C23.3218 13.7835 23.2891 13.8094 23.2622 13.8407C23.21 13.9015 23.1838 13.9805 23.1899 14.0604C23.196 14.1403 23.2337 14.2143 23.2944 14.2665L36.8022 25.8671C36.863 25.9191 36.9422 25.9444 37.022 25.9383C37.1018 25.9322 37.1758 25.8946 37.228 25.8339C37.2539 25.8037 37.2742 25.769 37.2866 25.7313C37.2989 25.6936 37.3033 25.6537 37.3003 25.6141C37.2973 25.5747 37.2868 25.5362 37.269 25.5008C37.2511 25.4655 37.2259 25.4339 37.1958 25.4081L23.688 13.8085C23.6299 13.7586 23.5544 13.7321 23.478 13.7352Z" fill="white"/>
<path d="M15.0988 36.9077C15.0988 37.052 15.0415 37.1903 14.9396 37.2923C14.8376 37.3942 14.6993 37.4515 14.5551 37.4515C14.4837 37.4515 14.4129 37.4375 14.347 37.4101C14.281 37.3828 14.221 37.3428 14.1705 37.2923C14.12 37.2418 14.08 37.1818 14.0527 37.1159C14.0253 37.0499 14.0113 36.9792 14.0113 36.9077C14.0113 36.8363 14.0253 36.7656 14.0527 36.6996C14.08 36.6337 14.12 36.5737 14.1705 36.5232C14.221 36.4727 14.281 36.4327 14.347 36.4054C14.4129 36.378 14.4837 36.364 14.5551 36.364C14.6993 36.364 14.8376 36.4213 14.9396 36.5232C15.0415 36.6252 15.0988 36.7635 15.0988 36.9077Z" fill="white"/>
<path d="M14.8492 36.9079C14.8492 36.8301 14.8182 36.755 14.7632 36.6999C14.7082 36.6448 14.6331 36.614 14.5552 36.614C14.5167 36.614 14.4785 36.6217 14.4429 36.6364C14.4073 36.6512 14.3745 36.6726 14.3472 36.6999C14.3199 36.7272 14.2985 36.76 14.2837 36.7956C14.269 36.8312 14.2613 36.8694 14.2613 36.9079C14.2613 36.9464 14.269 36.9846 14.2837 37.0202C14.2985 37.0558 14.3199 37.0887 14.3472 37.1159C14.3744 37.1431 14.4073 37.1647 14.4429 37.1794C14.4785 37.1941 14.5167 37.2019 14.5552 37.2019C14.6331 37.2018 14.7082 37.171 14.7632 37.1159C14.8183 37.0609 14.8491 36.9858 14.8492 36.9079ZM15.3492 36.9079C15.3491 37.1184 15.2656 37.3206 15.1167 37.4694C14.9679 37.6183 14.7657 37.7018 14.5552 37.7019C14.4511 37.7019 14.3477 37.6811 14.2515 37.6413C14.1553 37.6015 14.0674 37.5431 13.9937 37.4694C13.92 37.3958 13.8617 37.3079 13.8218 37.2116C13.7819 37.1154 13.7613 37.0121 13.7613 36.9079C13.7613 36.8037 13.782 36.7005 13.8218 36.6042C13.8617 36.5079 13.92 36.4201 13.9937 36.3464C14.0674 36.2727 14.1552 36.2144 14.2515 36.1745C14.3478 36.1347 14.451 36.114 14.5552 36.114C14.7657 36.114 14.9679 36.1976 15.1167 36.3464C15.2655 36.4952 15.3492 36.6975 15.3492 36.9079Z" fill="white"/>
<path d="M15.0988 38.9464C15.0988 39.0906 15.0415 39.2289 14.9396 39.3309C14.8376 39.4329 14.6993 39.4901 14.5551 39.4901C14.4837 39.4902 14.4129 39.4761 14.347 39.4488C14.281 39.4214 14.221 39.3814 14.1705 39.3309C14.12 39.2804 14.08 39.2204 14.0527 39.1545C14.0253 39.0885 14.0113 39.0178 14.0113 38.9464C14.0113 38.875 14.0253 38.8042 14.0527 38.7383C14.08 38.6723 14.12 38.6123 14.1705 38.5618C14.221 38.5114 14.281 38.4713 14.347 38.444C14.4129 38.4166 14.4837 38.4026 14.5551 38.4026C14.6993 38.4026 14.8376 38.4599 14.9396 38.5619C15.0415 38.6638 15.0988 38.8021 15.0988 38.9464Z" fill="white"/>
<path d="M14.8492 38.9465C14.8492 38.8687 14.8182 38.7936 14.7632 38.7385C14.7082 38.6835 14.6331 38.6526 14.5552 38.6526C14.5167 38.6526 14.4785 38.6603 14.4429 38.6751C14.4073 38.6898 14.3745 38.7112 14.3472 38.7385C14.3199 38.7658 14.2985 38.7986 14.2837 38.8342C14.269 38.8698 14.2613 38.908 14.2613 38.9465C14.2613 38.9851 14.269 39.0232 14.2837 39.0588C14.2985 39.0945 14.3199 39.1273 14.3472 39.1545C14.3744 39.1817 14.4073 39.2033 14.4429 39.218C14.4785 39.2327 14.5167 39.2405 14.5552 39.2405C14.6331 39.2404 14.7082 39.2096 14.7632 39.1545C14.8183 39.0995 14.8491 39.0244 14.8492 38.9465ZM15.3492 38.9465C15.3491 39.157 15.2656 39.3592 15.1167 39.5081C14.9679 39.6569 14.7657 39.7404 14.5552 39.7405C14.4511 39.7405 14.3477 39.7198 14.2515 39.6799C14.1553 39.6401 14.0674 39.5817 13.9937 39.5081C13.92 39.4344 13.8617 39.3465 13.8218 39.2502C13.7819 39.154 13.7613 39.0507 13.7613 38.9465C13.7613 38.8423 13.782 38.7391 13.8218 38.6428C13.8617 38.5465 13.92 38.4587 13.9937 38.385C14.0674 38.3113 14.1552 38.253 14.2515 38.2131C14.3478 38.1733 14.451 38.1526 14.5552 38.1526C14.7657 38.1526 14.9679 38.2362 15.1167 38.385C15.2655 38.5339 15.3492 38.7361 15.3492 38.9465Z" fill="white"/>
</g>
</g>
</g>
</g>
</g>
</g>
</g>
</svg>
