<svg width="56" height="56" viewBox="0 0 56 56" fill="none" xmlns="http://www.w3.org/2000/svg">
<g id="immobilie-vermieten">
<g id="Frame 1984077915">
<g id="Frame 1984077937">
<g id="Frame 1984077876">
<g id="money_15930979 1">
<rect width="56" height="56" rx="28" fill="#DECEC4"/>
<g id="Layer_x0020_1">
<path id="Vector" d="M13.0434 17.4994H37.7726C38.2124 17.4994 38.5689 17.8521 38.5689 18.2873V32.3527C38.5689 32.7875 38.2124 33.1406 37.7726 33.1406H13.0434C12.6036 33.1406 12.2471 32.7875 12.2471 32.3527V18.2873C12.2471 17.8521 12.6036 17.4994 13.0434 17.4994ZM20.3691 27.4198C19.3207 27.4198 19.3207 25.844 20.3691 25.844H21.0382V24.7959H20.3691C19.3207 24.7959 19.3207 23.2197 20.3691 23.2197H21.4508C22.5155 20.7941 25.2338 19.5055 27.8387 20.2528C28.8424 20.5408 28.4001 22.049 27.3968 21.761C25.8485 21.3166 24.1797 21.9066 23.2643 23.2197H25.1956C26.2444 23.2197 26.2444 24.7959 25.1956 24.7959H22.6419V25.844H25.1956C26.2444 25.844 26.2444 27.4198 25.1956 27.4198H23.2643C23.948 28.4008 25.0834 29.0234 26.3481 29.0234L27.3968 28.879C28.4001 28.591 28.8424 30.0992 27.8387 30.3872C25.231 31.1349 22.5135 29.8422 21.4508 27.4198H20.3691ZM42.1531 23.6457C42.1531 22.608 43.7458 22.608 43.7458 23.6457V37.7107C43.7458 38.1458 43.3893 38.4986 42.9495 38.4986H18.2203C17.1719 38.4986 17.1719 36.9228 18.2203 36.9228H42.1531V23.6457ZM39.6442 21.0451C39.6442 20.0079 41.2373 20.0079 41.2373 21.0451V35.1105C41.2373 35.5457 40.8803 35.8984 40.4405 35.8984H15.7113C14.663 35.8984 14.663 34.3226 15.7113 34.3226H39.6442V21.0451ZM36.9762 19.0752H13.8398V31.5644H36.9762V19.0752Z" fill="white"/>
</g>
</g>
</g>
</g>
</g>
</g>
</svg>
