<svg width="40" height="40" viewBox="0 0 40 40" fill="none" xmlns="http://www.w3.org/2000/svg">
<g id="home mobile">
<g id="pain points">
<g id="Frame 17">
<g id="Frame 1984077985">
<g id="phone_14368492 1">
<rect width="40" height="40" rx="20" fill="#DECEC4"/>
<g id="Group">
<path id="Vector" d="M22.1587 23.644H26.9636V24.5154H22.1587V23.644Z" fill="white"/>
<path id="Vector (Stroke)" d="M27.1418 23.4658V24.6942H21.98V23.4658H27.1418ZM22.3371 24.3371H26.7847V23.823H22.3371V24.3371Z" fill="white"/>
<path id="Vector_2" d="M29.1324 14.0068C29.1324 12.585 27.9568 11.4287 26.51 11.4287H14.0538C12.6071 11.4287 11.4287 12.585 11.4287 14.0068V21.7356C11.4287 23.1574 12.6071 24.3137 14.0538 24.3137H14.3719L14.3996 28.1587C14.4024 28.344 14.5186 28.5072 14.6956 28.5681C14.7426 28.5847 14.7896 28.5902 14.8367 28.5902C14.9667 28.5902 15.0939 28.5321 15.1797 28.4242L18.3995 24.3164H20.1284C20.2529 26.6954 22.2197 28.593 24.6263 28.593C27.1131 28.593 29.1352 26.5709 29.1352 24.0813C29.1352 23.6055 29.0605 23.1491 28.9249 22.7176C29.0632 22.3995 29.1352 22.0703 29.1352 21.7383V14.0068H29.1324ZM24.6235 27.7189C22.6152 27.7189 20.9832 26.0868 20.9832 24.0785C20.9832 24.0398 20.9887 23.9983 20.9887 23.9596C20.9915 23.9402 21.0025 23.9209 21.0025 23.8987C21.0689 22.5654 21.8379 21.4341 22.9389 20.8532C22.9527 20.8449 22.9665 20.8393 22.9804 20.8338C23.0661 20.7895 23.1546 20.748 23.2432 20.7121L23.3344 20.6789C23.4119 20.6485 23.4866 20.6208 23.564 20.5959C23.6111 20.5821 23.6581 20.571 23.7079 20.5599C23.7743 20.5433 23.8379 20.524 23.9043 20.5101C23.9707 20.4963 24.0398 20.488 24.1062 20.4797C24.156 20.4714 24.2058 20.4631 24.2556 20.4576C24.3745 20.4465 24.4962 20.4382 24.6207 20.4382C24.7314 20.4382 24.842 20.4438 24.9499 20.4548C24.9942 20.4576 25.0356 20.4659 25.0799 20.4714C25.1408 20.4797 25.1989 20.488 25.2597 20.4991C25.3178 20.5101 25.3731 20.5212 25.4312 20.5323L25.5225 20.5572C26.6649 20.8559 27.6193 21.7051 28.0342 22.8586C28.0425 22.8835 28.0563 22.9029 28.0702 22.925C28.1919 23.2874 28.261 23.6774 28.261 24.0813C28.261 26.0868 26.629 27.7189 24.6235 27.7189ZM28.261 21.4258C27.7465 20.7204 27.0356 20.1727 26.2058 19.8601C26.1975 19.8573 26.1892 19.8546 26.1809 19.8518C26.037 19.7992 25.8904 19.7522 25.741 19.7135C25.7134 19.7052 25.6829 19.6969 25.6553 19.6913C25.5225 19.6609 25.387 19.636 25.2486 19.6167C25.2127 19.6111 25.1767 19.6028 25.138 19.6001C24.9693 19.5807 24.7978 19.5696 24.6263 19.5696C24.4769 19.5696 24.3303 19.5779 24.1864 19.5918C24.1366 19.5973 24.0868 19.6056 24.0371 19.6139C23.943 19.625 23.8517 19.6388 23.7604 19.6554C23.6996 19.6665 23.6415 19.6831 23.5806 19.6969C23.5032 19.7162 23.4257 19.7328 23.3483 19.7577C23.2819 19.7771 23.2183 19.7992 23.1546 19.8214C23.0882 19.8435 23.0219 19.8684 22.9582 19.8933C22.8891 19.9209 22.8199 19.9514 22.7508 19.9846C22.6954 20.0095 22.6429 20.0344 22.5876 20.062C22.5129 20.1007 22.4382 20.1395 22.3663 20.1837C22.3248 20.2086 22.286 20.2308 22.2446 20.2584C22.1616 20.3082 22.0813 20.3635 22.0039 20.4189C21.9818 20.4355 21.9596 20.4521 21.9375 20.4687C20.9942 21.1713 20.3386 22.2307 20.1644 23.4479H18.1865C18.0538 23.4479 17.9265 23.5087 17.8435 23.6138L15.2627 26.9084L15.2405 23.8794C15.2378 23.6415 15.0441 23.4479 14.8062 23.4479H14.0538C13.0884 23.4479 12.3001 22.6816 12.3001 21.7411V14.0068C12.3001 13.0663 13.0857 12.3001 14.0538 12.3001H26.51C27.4754 12.3001 28.261 13.0663 28.261 14.0068V21.4258Z" fill="white"/>
<path id="Vector (Stroke)_2" d="M11.25 21.7355V14.0067C11.25 12.4833 12.5113 11.2501 14.0534 11.25H26.5102C27.9918 11.2501 29.2108 12.3883 29.3045 13.8281H29.3136V21.7383C29.3136 22.0748 29.2439 22.4067 29.1134 22.7267C29.242 23.1564 29.3136 23.6096 29.3136 24.0813C29.3135 26.6694 27.2116 28.7716 24.6261 28.7716C22.1809 28.7716 20.1746 26.8878 19.963 24.495H18.4863L15.3202 28.5345L15.3195 28.5352C15.1991 28.6866 15.0198 28.7688 14.8368 28.7688C14.7759 28.7688 14.708 28.7609 14.6373 28.736C14.3882 28.6504 14.2247 28.4208 14.2208 28.1613V28.1599L14.1943 24.4922H14.0534C12.5113 24.492 11.25 23.2589 11.25 21.7355ZM20.8043 24.0785C20.8043 24.052 20.8065 24.0256 20.8078 24.0067C20.8092 23.9854 20.8098 23.9714 20.8098 23.9593V23.9467L20.8119 23.9342C20.8143 23.9177 20.8178 23.9038 20.8203 23.8951C20.8216 23.8906 20.8229 23.886 20.8238 23.8832C20.8242 23.8821 20.8243 23.8812 20.8245 23.8804C20.8972 22.4863 21.7027 21.3028 22.8551 20.6948C22.8797 20.6809 22.9025 20.672 22.9136 20.6676C22.9987 20.6241 23.0869 20.5823 23.1759 20.5462L23.1822 20.5441L23.2736 20.5106C23.3515 20.4801 23.4286 20.4514 23.5093 20.4255L23.5135 20.4241L23.8679 20.3355C23.9399 20.3205 24.0138 20.3112 24.0765 20.3034C24.1254 20.2953 24.1801 20.2859 24.2355 20.2797H24.239C24.3607 20.2684 24.4884 20.2595 24.6205 20.2595C24.7344 20.2595 24.8486 20.265 24.9602 20.2762C24.9612 20.2763 24.9628 20.2762 24.9637 20.2762C24.9651 20.2764 24.9665 20.2768 24.9679 20.2769C25.017 20.2805 25.0768 20.2912 25.1018 20.2944H25.1039L25.2916 20.323L25.293 20.3237C25.3225 20.3293 25.3512 20.3349 25.3795 20.3404L25.4646 20.3564L25.4715 20.3578L25.4778 20.3599L25.5671 20.3843C26.6908 20.6783 27.641 21.4796 28.1138 22.5753L28.2024 22.7979L28.2038 22.802L28.2045 22.8027C28.2059 22.8051 28.2078 22.8085 28.2108 22.8132C28.2131 22.8168 28.2176 22.8241 28.2213 22.8299L28.2324 22.8481L28.2394 22.8683C28.3669 23.2479 28.4396 23.6571 28.4396 24.0813C28.4395 26.1854 26.7274 27.8976 24.6233 27.8976C22.5165 27.8976 20.8043 26.1854 20.8043 24.0785ZM28.0825 14.0067C28.0825 13.1692 27.3811 12.4785 26.5102 12.4784H14.0534C13.1795 12.4785 12.4784 13.1693 12.4784 14.0067V21.7411C12.4784 22.5782 13.1821 23.2693 14.0534 23.2694H14.8061C15.1218 23.2694 15.3806 23.5094 15.415 23.8149L15.4192 23.877L15.4367 26.3958L17.703 23.5038C17.8201 23.3554 17.9994 23.2694 18.1864 23.2694H20.0133C20.2257 22.0684 20.8898 21.0257 21.8304 20.3251C21.8413 20.3169 21.8522 20.3088 21.8631 20.3006C21.8742 20.2923 21.8856 20.2838 21.8966 20.2755L21.9001 20.2734C21.9768 20.2187 22.0591 20.1618 22.1456 20.1095L22.274 20.0307C22.3519 19.9828 22.4316 19.941 22.5049 19.903L22.5077 19.9023C22.5652 19.8736 22.6197 19.8473 22.6772 19.8214C22.7485 19.7873 22.8204 19.7559 22.892 19.7273L22.8927 19.7266C22.9577 19.7011 23.0275 19.6754 23.0978 19.6519L23.298 19.5864C23.3816 19.5598 23.4686 19.5407 23.5372 19.5236L23.5407 19.5229C23.5877 19.5122 23.6638 19.4914 23.7284 19.4796C23.8231 19.4624 23.9179 19.4479 24.0158 19.4364C24.0626 19.4286 24.1141 19.4199 24.1664 19.4141H24.1692C24.3178 19.3998 24.4701 19.391 24.6261 19.391C24.8052 19.391 24.9837 19.4024 25.1583 19.4224C25.2045 19.4264 25.2579 19.4371 25.2755 19.4399C25.4162 19.4596 25.5536 19.485 25.6892 19.5159C25.7219 19.5224 25.7562 19.5319 25.7847 19.5403C25.9387 19.5802 26.0901 19.6285 26.2367 19.6819L26.2402 19.6833L26.2437 19.684L26.2479 19.6861H26.2493C26.2535 19.6875 26.2486 19.6861 26.2528 19.6875C26.2554 19.6884 26.2515 19.6873 26.2542 19.6882H26.2556L26.2591 19.6896C26.2657 19.6918 26.2555 19.6882 26.2619 19.6903L26.2688 19.6924C26.9692 19.9563 27.5883 20.3815 28.0825 20.9242V14.0067ZM21.1614 24.0785C21.1615 25.9881 22.7137 27.5404 24.6233 27.5405C26.5301 27.5405 28.0824 25.9881 28.0825 24.0813C28.0825 23.7046 28.0181 23.3401 27.906 23.0001C27.8942 22.9812 27.8777 22.9515 27.8662 22.9185C27.4715 21.8211 26.5633 21.0137 25.4771 20.7296H25.475L25.3864 20.7052C25.3609 20.7003 25.3358 20.6954 25.3111 20.6906C25.2827 20.685 25.2546 20.68 25.226 20.6745C25.1705 20.6645 25.1168 20.6561 25.0579 20.648C24.9955 20.6402 24.977 20.6351 24.9386 20.6327H24.9316C24.83 20.6222 24.7253 20.6166 24.6205 20.6166C24.5038 20.6166 24.3879 20.6247 24.2718 20.6355L24.2711 20.6348C24.2283 20.6397 24.1847 20.6475 24.1357 20.6557L24.1281 20.6571C24.0596 20.6656 23.9982 20.673 23.9404 20.685C23.8774 20.6981 23.8298 20.7133 23.7507 20.7331L23.7465 20.7345C23.6988 20.7451 23.6571 20.7542 23.6168 20.7659C23.5448 20.7891 23.4746 20.8154 23.3998 20.8447L23.3956 20.8468L23.3098 20.8768C23.2272 20.9104 23.144 20.9504 23.0622 20.9926L23.0469 20.9996C23.0395 21.0025 23.0358 21.0039 23.0329 21.0052C23.0321 21.0056 23.0312 21.0057 23.0308 21.0059L23.0225 21.0114L23.0218 21.0107C21.9749 21.5632 21.2441 22.6393 21.1809 23.9076L21.1795 23.9069C21.1783 23.9426 21.1707 23.9711 21.167 23.983L21.1663 23.9844C21.1656 24.0019 21.1651 24.0182 21.1642 24.0311C21.1627 24.0524 21.1614 24.0664 21.1614 24.0785ZM11.6071 21.7355C11.6072 23.0555 12.7024 24.1349 14.0534 24.135H14.5494L14.5501 24.3122L14.578 28.1557C14.5794 28.253 14.6325 28.3391 14.7161 28.3831L14.7538 28.3991L14.7552 28.3998C14.778 28.4078 14.8041 28.4117 14.8368 28.4117C14.9135 28.4116 14.9888 28.3774 15.0398 28.3133L18.2589 24.2062L18.3126 24.1378H20.2979L20.3069 24.3066C20.4265 26.5917 22.3156 28.4145 24.6261 28.4145C27.0142 28.4145 28.9564 26.4723 28.9565 24.0813C28.9565 23.6244 28.8845 23.1856 28.7542 22.7706L28.7347 22.7072L28.7612 22.6465C28.8904 22.3492 28.9565 22.0439 28.9565 21.7383V14.1853H28.9537V14.0067C28.9537 12.6864 27.861 11.6073 26.5102 11.6071H14.0534C12.7023 11.6073 11.6071 12.6867 11.6071 14.0067V21.7355ZM28.4396 21.9734L28.1166 21.5311C27.6532 20.8957 27.024 20.3934 26.2905 20.0858L26.1426 20.0272C26.1391 20.026 26.1437 20.0278 26.1398 20.0265C26.1386 20.0261 26.1394 20.0261 26.1384 20.0258C26.1375 20.0255 26.1388 20.026 26.1384 20.0258L26.137 20.0251C26.1329 20.0237 26.1376 20.0258 26.1335 20.0244C26.1308 20.0235 26.1347 20.0246 26.1321 20.0237L26.1307 20.023L26.1272 20.0223C26.1205 20.0201 26.1311 20.0231 26.1244 20.0209L26.1196 20.0195C25.9802 19.9686 25.839 19.9233 25.6961 19.8863L25.6899 19.8842C25.6646 19.8766 25.6399 19.87 25.6201 19.8661L25.6152 19.8654C25.4876 19.8361 25.3572 19.8122 25.2239 19.7935L25.2211 19.7928C25.1678 19.7846 25.1546 19.7803 25.1249 19.7782L25.1172 19.7775C24.9544 19.7588 24.7899 19.7482 24.6261 19.7482C24.4841 19.7482 24.3439 19.7552 24.2055 19.7684C24.1615 19.7733 24.1164 19.7816 24.066 19.79L24.0576 19.7914C23.9676 19.802 23.8802 19.8153 23.7926 19.8312C23.7362 19.8414 23.6958 19.8529 23.623 19.8696L23.6237 19.8703C23.5387 19.8915 23.4726 19.905 23.4026 19.9275L23.3984 19.9289C23.3371 19.9467 23.2771 19.9672 23.2129 19.9895L23.2108 19.9909C23.1488 20.0116 23.0857 20.0344 23.0239 20.0586C22.9587 20.0847 22.8934 20.1136 22.8278 20.1451L22.8237 20.1472C22.7705 20.1711 22.7204 20.1953 22.6674 20.2218L22.6667 20.2211C22.5921 20.2598 22.5242 20.2957 22.4595 20.3355L22.4581 20.3369C22.4129 20.3641 22.3804 20.3822 22.3438 20.4067L22.3361 20.4116C22.2593 20.4576 22.1834 20.51 22.1073 20.5643C22.0975 20.5717 22.0878 20.5793 22.078 20.5866C22.067 20.5949 22.0555 20.6028 22.0445 20.611L22.0438 20.6117C21.1377 21.2867 20.5084 22.3044 20.3411 23.4731L20.3188 23.6265H18.1864C18.1078 23.6265 18.0322 23.6624 17.9834 23.7242L15.0879 27.4212L15.0837 26.9099L15.0621 23.8811L15.0558 23.8295C15.0306 23.7132 14.9275 23.6265 14.8061 23.6265H14.0534C12.9942 23.6264 12.1213 22.7847 12.1212 21.7411V14.0067C12.1212 12.9632 12.9912 12.1214 14.0534 12.1212H26.5102C27.5698 12.1214 28.4396 12.9634 28.4396 14.0067V21.9734Z" fill="white"/>
</g>
</g>
</g>
</g>
</g>
</g>
</svg>
