<svg width="40" height="40" viewBox="0 0 40 40" fill="none" xmlns="http://www.w3.org/2000/svg">
<g id="home mobile">
<g id="pain points">
<g id="Frame 17">
<g id="Frame 1984077983">
<g id="money_14553876 1">
<rect width="40" height="40" rx="20" fill="#DECEC4"/>
<g id="Group">
<g id="Group_2">
<path id="Vector" d="M30.5358 17.0534C30.2917 17.0534 30.0619 16.9032 29.9732 16.6602C29.8437 16.3081 29.693 15.9581 29.5248 15.6208C29.3774 15.3243 29.498 14.9647 29.7941 14.8168C30.0903 14.6693 30.4503 14.79 30.5982 15.0861C30.786 15.463 30.9542 15.8534 31.0985 16.2474C31.2124 16.5579 31.0529 16.9024 30.742 17.0167C30.6741 17.0414 30.6046 17.0534 30.5358 17.0534Z" fill="white"/>
</g>
<g id="Group_3">
<path id="Vector_2" d="M21.486 31.6667C21.1847 31.6667 20.9249 31.4401 20.891 31.1332C20.8546 30.8043 21.0916 30.5082 21.4208 30.4714C22.1953 30.3855 22.9597 30.2113 23.6926 29.9535C24.0063 29.844 24.3472 30.0079 24.4571 30.32C24.567 30.6325 24.4027 30.9745 24.0906 31.0844C23.2718 31.3726 22.4179 31.5672 21.5527 31.6631C21.5303 31.6655 21.508 31.6667 21.486 31.6667ZM19.0212 31.6615C18.9984 31.6615 18.9752 31.6603 18.9521 31.6575C18.0873 31.558 17.2337 31.3602 16.4157 31.0684C16.104 30.9574 15.941 30.6145 16.0521 30.3024C16.1632 29.9907 16.506 29.8281 16.8181 29.9387C17.5506 30.1997 18.3147 30.3771 19.0887 30.4658C19.4176 30.5038 19.6538 30.8007 19.6158 31.1296C19.581 31.4361 19.3217 31.6615 19.0212 31.6615ZM26.1115 30.0406C25.9129 30.0406 25.7191 29.9423 25.6048 29.7621C25.4273 29.4828 25.5105 29.1124 25.7898 28.9349C26.4463 28.5185 27.0574 28.0266 27.6064 27.4728C27.8394 27.2374 28.2186 27.2354 28.454 27.4688C28.689 27.7017 28.691 28.0814 28.458 28.3163C27.8458 28.9341 27.164 29.4828 26.432 29.9471C26.3325 30.0103 26.2214 30.0406 26.1115 30.0406ZM14.4013 30.0171C14.2906 30.0171 14.1787 29.9867 14.0788 29.9228C13.3475 29.4548 12.6678 28.903 12.0588 28.2832C11.8266 28.047 11.8302 27.6674 12.0664 27.4356C12.3021 27.2034 12.6822 27.2066 12.9139 27.4432C13.4602 27.999 14.0696 28.4934 14.725 28.913C15.0039 29.0916 15.085 29.4624 14.9068 29.7409C14.7925 29.9196 14.5991 30.0171 14.4013 30.0171ZM29.5609 26.558C29.453 26.558 29.3435 26.5289 29.2452 26.4677C28.9639 26.2931 28.8776 25.9235 29.0526 25.6425C29.4642 24.98 29.8003 24.2711 30.0512 23.5362C30.1583 23.2229 30.498 23.0551 30.8121 23.1626C31.1254 23.2697 31.2928 23.6101 31.1857 23.9234C30.9056 24.7446 30.5304 25.5362 30.0708 26.2755C29.9569 26.4577 29.7611 26.558 29.5609 26.558ZM10.9654 26.5209C10.7644 26.5209 10.5678 26.4198 10.4543 26.236C9.99798 25.4947 9.62595 24.7019 9.34902 23.8799C9.24312 23.5662 9.41175 23.2261 9.72545 23.1206C10.0391 23.0139 10.3792 23.1833 10.4847 23.497C10.7329 24.2331 11.0661 24.9432 11.4749 25.6074C11.6484 25.8895 11.5605 26.2583 11.2787 26.4322C11.1812 26.4921 11.0725 26.5209 10.9654 26.5209ZM31.1454 21.9178C31.125 21.9178 31.1046 21.917 31.0842 21.9146C30.7549 21.8814 30.5148 21.5873 30.5483 21.258C30.5831 20.9116 30.6011 20.5583 30.6011 20.2082C30.6011 19.7795 30.5743 19.3479 30.522 18.9259C30.4808 18.5974 30.7142 18.2977 31.0427 18.2569C31.3691 18.2154 31.6705 18.4488 31.7116 18.7776C31.7704 19.2488 31.8003 19.7303 31.8003 20.2086C31.8003 20.5987 31.7807 20.9923 31.7416 21.3791C31.7096 21.6876 31.4491 21.9178 31.1454 21.9178ZM9.40017 21.8754C9.09526 21.8754 8.83432 21.6436 8.80435 21.3339C8.76838 20.9615 8.75 20.5831 8.75 20.2082C8.75 19.7147 8.78157 19.2184 8.84391 18.7333C8.88627 18.4048 9.18677 18.173 9.51485 18.2154C9.84333 18.2577 10.0751 18.5578 10.0327 18.8863C9.9768 19.3207 9.94843 19.7659 9.94843 20.2082C9.94843 20.5443 9.96482 20.884 9.99758 21.2181C10.0296 21.5477 9.78859 21.8406 9.45891 21.8726C9.43933 21.8746 9.41975 21.8754 9.40017 21.8754ZM10.0284 17.0138C9.95882 17.0138 9.88849 17.0018 9.81976 16.9762C9.50966 16.8607 9.35141 16.5158 9.4665 16.2053C9.76861 15.3917 10.165 14.6109 10.6438 13.8836C10.826 13.6075 11.198 13.5311 11.4741 13.713C11.7503 13.8952 11.827 14.2668 11.6448 14.5434C11.2156 15.1943 10.8611 15.894 10.5902 16.6225C10.5007 16.8643 10.2717 17.0138 10.0284 17.0138ZM12.7245 12.9181C12.5667 12.9181 12.4092 12.8562 12.2917 12.7331C12.0628 12.4942 12.0712 12.1145 12.3101 11.8856C12.9383 11.2841 13.634 10.7535 14.3785 10.3087C14.6618 10.1389 15.0303 10.2316 15.2005 10.5157C15.3703 10.7998 15.2776 11.1679 14.9935 11.3377C14.3262 11.7369 13.7024 12.2124 13.1389 12.7515C13.0226 12.863 12.8736 12.9181 12.7245 12.9181ZM16.9324 10.405C16.6791 10.405 16.4437 10.2432 16.3622 9.989C16.2607 9.67371 16.4337 9.33604 16.749 9.23454C17.5746 8.9684 18.4334 8.79656 19.3009 8.72384C19.6338 8.69267 19.9207 8.94082 19.9487 9.2709C19.9767 9.60098 19.7317 9.8907 19.4016 9.91867C18.6244 9.98421 17.8555 10.1381 17.1166 10.3762C17.0555 10.3958 16.9936 10.405 16.9324 10.405Z" fill="white"/>
</g>
<g id="Group_4">
<path id="Vector_3" d="M23.0275 10.2336C22.9776 10.2336 22.9268 10.2273 22.8764 10.2141C22.512 10.1194 22.1384 10.0438 21.7663 9.98948C21.4387 9.94193 21.2117 9.63783 21.2592 9.31015C21.3068 8.98246 21.6093 8.75389 21.9386 8.80304C22.3542 8.86338 22.771 8.9477 23.1782 9.0536C23.4986 9.13672 23.6909 9.4644 23.6073 9.78448C23.537 10.0546 23.294 10.2336 23.0275 10.2336Z" fill="white"/>
</g>
</g>
<g id="Group_5">
<path id="Vector_4" d="M20.2746 29.3357C15.2419 29.3357 11.1475 25.2408 11.1475 20.2082C11.1475 15.1755 15.2419 11.0811 20.2746 11.0811C20.7485 11.0811 21.2244 11.1178 21.69 11.1901C22.0173 11.2409 22.241 11.5474 22.1899 11.8743C22.1391 12.2016 21.8338 12.4249 21.5058 12.3742C21.101 12.3115 20.687 12.2795 20.2746 12.2795C15.9028 12.2795 12.3463 15.836 12.3463 20.2078C12.3463 24.5795 15.9028 28.1364 20.2746 28.1364C24.6463 28.1364 28.2028 24.5799 28.2028 20.2078C28.2028 19.3746 28.0742 18.5538 27.8208 17.7685C27.7189 17.4536 27.8919 17.1156 28.2068 17.0141C28.5213 16.911 28.8594 17.0852 28.9613 17.4001C29.2534 18.3044 29.4017 19.2491 29.4017 20.2078C29.4017 25.2409 25.3073 29.3357 20.2746 29.3357Z" fill="white"/>
</g>
<g id="Group_6">
<path id="Vector_5" d="M22.5496 23.3324C22.2363 23.519 21.6125 23.7132 20.8976 23.7132C20.0556 23.7132 19.2364 23.4307 18.657 22.8441C18.2658 22.4517 17.9733 21.907 17.8394 21.2648H17.0693V20.5136H17.7343C17.7275 20.3857 17.7211 20.291 17.7211 20.2274C17.7211 20.1271 17.7239 19.9737 17.7427 19.8366H17.0733V19.089H17.8538C17.9956 18.4596 18.3013 17.9273 18.6902 17.5325C19.3048 16.9151 20.1531 16.6094 21.0423 16.6094C21.7204 16.6094 22.2235 16.7768 22.528 16.9187L22.2379 18.0112C21.9957 17.8973 21.6181 17.7742 21.1146 17.7742C20.6399 17.7742 20.1735 17.9221 19.8207 18.2654C19.6157 18.4676 19.4522 18.7505 19.3855 19.0886H22.0025V19.8362H19.232C19.216 19.9629 19.21 20.0948 19.21 20.1779C19.21 20.2698 19.214 20.3737 19.2232 20.5132H22.0021V21.2644H19.3839C19.4634 21.5793 19.6041 21.8391 19.7915 22.0233C20.1555 22.3821 20.6187 22.5264 21.1358 22.5264C21.6373 22.5264 22.1112 22.3897 22.3774 22.2519L22.5496 23.3324Z" fill="white"/>
</g>
<g id="Group_7">
<path id="Vector_6" d="M26.2282 16.8561C26.0464 16.8561 25.8746 16.7738 25.7611 16.6319L22.9207 13.0962C22.7764 12.9163 22.7476 12.6698 22.8475 12.4616C22.9474 12.2534 23.1572 12.1211 23.3882 12.1211H24.7045V8.72442C24.7045 8.39314 24.9727 8.125 25.3039 8.125H27.302C27.6333 8.125 27.9014 8.39314 27.9014 8.72442V12.1211H29.0691C29.2997 12.1211 29.5098 12.2534 29.6098 12.4616C29.7097 12.6698 29.6809 12.9163 29.5366 13.0962L26.6962 16.6319C26.5819 16.7738 26.4101 16.8561 26.2282 16.8561ZM24.6382 13.3203L26.2282 15.2996L27.8183 13.3203H27.302C26.9707 13.3203 26.7026 13.0522 26.7026 12.7209V9.32423H25.9034V12.7209C25.9034 13.0522 25.6352 13.3203 25.3039 13.3203H24.6382Z" fill="white"/>
</g>
</g>
</g>
</g>
</g>
</g>
</svg>
