<svg viewBox="0 0 16 16" fill="none" xmlns="http://www.w3.org/2000/svg"><path d="M8 8C8.92826 8 9.8185 7.63125 10.4749 6.97487C11.1313 6.3185 11.5 5.42826 11.5 4.5C11.5 3.57174 11.1313 2.6815 10.4749 2.02513C9.8185 1.36875 8.92826 1 8 1C7.07174 1 6.1815 1.36875 5.52513 2.02513C4.86875 2.6815 4.5 3.57174 4.5 4.5C4.5 5.42826 4.86875 6.3185 5.52513 6.97487C6.1815 7.63125 7.07174 8 8 8ZM10.3333 4.5C10.3333 5.11884 10.0875 5.71233 9.64992 6.14992C9.21233 6.5875 8.61884 6.83333 8 6.83333C7.38116 6.83333 6.78767 6.5875 6.35008 6.14992C5.9125 5.71233 5.66667 5.11884 5.66667 4.5C5.66667 3.88116 5.9125 3.28767 6.35008 2.85008C6.78767 2.4125 7.38116 2.16667 8 2.16667C8.61884 2.16667 9.21233 2.4125 9.64992 2.85008C10.0875 3.28767 10.3333 3.88116 10.3333 4.5ZM15 13.8333C15 15 13.8333 15 13.8333 15H2.16667C2.16667 15 1 15 1 13.8333C1 12.6667 2.16667 9.16667 8 9.16667C13.8333 9.16667 15 12.6667 15 13.8333ZM13.8333 13.8287C13.8322 13.5417 13.6537 12.6783 12.8627 11.8873C12.102 11.1267 10.6705 10.3333 8 10.3333C5.3295 10.3333 3.898 11.1267 3.13733 11.8873C2.34633 12.6783 2.169 13.5417 2.16667 13.8287H13.8333Z" fill="currentColor"/></svg>