<svg viewBox="0 0 16 16" fill="none" xmlns="http://www.w3.org/2000/svg"><path d="M8.0013 13.9993C8.78923 13.9993 9.56945 13.8442 10.2974 13.5426C11.0254 13.2411 11.6868 12.7991 12.2439 12.242C12.8011 11.6848 13.2431 11.0234 13.5446 10.2954C13.8461 9.5675 14.0013 8.78728 14.0013 7.99935C14.0013 7.21142 13.8461 6.4312 13.5446 5.70325C13.2431 4.97529 12.8011 4.31386 12.2439 3.75671C11.6868 3.19956 11.0254 2.7576 10.2974 2.45607C9.56945 2.15454 8.78923 1.99935 8.0013 1.99935C6.41 1.99935 4.88388 2.63149 3.75866 3.75671C2.63344 4.88193 2.0013 6.40805 2.0013 7.99935C2.0013 9.59065 2.63344 11.1168 3.75866 12.242C4.88388 13.3672 6.41 13.9993 8.0013 13.9993ZM15.3346 7.99935C15.3346 12.0493 12.0513 15.3327 8.0013 15.3327C3.9513 15.3327 0.667969 12.0493 0.667969 7.99935C0.667969 3.94935 3.9513 0.666016 8.0013 0.666016C12.0513 0.666016 15.3346 3.94935 15.3346 7.99935ZM10.0013 10.942L7.33464 8.27535V3.66602H8.66797V7.72335L10.944 9.99935L10.0013 10.942Z" fill="currentColor"/></svg>