<svg viewBox="0 0 16 16" fill="none" xmlns="http://www.w3.org/2000/svg"><path d="M4.66667 7.33203H6V8.66536H4.66667V7.33203ZM14 3.9987V13.332C14 14.0654 13.4 14.6654 12.6667 14.6654H3.33333C2.97971 14.6654 2.64057 14.5249 2.39052 14.2748C2.14048 14.0248 2 13.6857 2 13.332L2.00667 3.9987C2.00667 3.26536 2.59333 2.66536 3.33333 2.66536H4V1.33203H5.33333V2.66536H10.6667V1.33203H12V2.66536H12.6667C13.4 2.66536 14 3.26536 14 3.9987ZM3.33333 5.33203H12.6667V3.9987H3.33333V5.33203ZM12.6667 13.332V6.66536H3.33333V13.332H12.6667ZM10 8.66536H11.3333V7.33203H10V8.66536ZM7.33333 8.66536H8.66667V7.33203H7.33333V8.66536Z" fill="currentColor"/></svg>