<svg xmlns="http://www.w3.org/2000/svg" width="406" height="372" viewBox="0 0 406 372" fill="none"><g clip-path="url(#clip0_22_827)"><path d="M321.572 182.404C320.544 182.093 318.077 182.124 317.507 183.284C317.5 184.672 321.62 196.072 322.368 198.228C319.056 198.599 315.75 199.011 312.448 199.466C310.784 198.054 308.879 196.127 306.871 195.279C305.913 194.875 304.318 195.576 304.719 196.72C305.572 199.151 307.132 201.348 307.288 204.025C307.467 205.991 305.911 209.493 307.107 211.041C309.386 212.624 312.232 207.407 313.355 205.845C316.524 205.652 320.345 205.124 323.547 204.762L322.993 212.252C322.914 214.678 322.412 217.245 322.625 219.614C322.777 221.3 326.624 220.636 327.2 219.459C327.996 217.833 328.622 216.183 329.3 214.502C330.662 211.067 332.055 207.644 333.478 204.234C336.467 203.818 349.354 202.322 349.389 198.791C348.354 195.34 335.615 196.585 332.422 196.8C329.556 193.051 326.796 189.197 323.948 185.432C323.162 184.393 322.447 183.375 321.572 182.404Z" fill="#242424"></path><path d="M253.152 205.008C252.141 204.587 246.183 204.331 244.759 204.385C244.183 204.407 244.058 204.649 243.767 205.026C243.611 205.655 243.739 205.886 243.941 206.482C245.308 206.873 250.416 207.198 252.024 207.041C252.582 206.987 252.941 206.82 253.274 206.36C253.468 205.76 253.359 205.581 253.152 205.008Z" fill="#242424"></path><path d="M282.863 205.762C282.554 205.571 282.077 205.267 281.709 205.294C279.86 205.431 274.689 204.729 273.363 205.835C273.087 206.347 273.167 206.608 273.212 207.193C273.906 207.596 274.462 207.732 275.274 207.679C276.776 207.581 281.655 208.073 282.651 207.178C282.957 206.674 282.889 206.341 282.863 205.762Z" fill="#242424"></path><path d="M169.294 166.844C168.562 166.176 168.061 165.986 167.148 166.57C166.268 167.957 168.131 169.033 169.107 169.834C170.209 170.738 171.311 171.609 172.405 172.528C172.885 172.939 173.044 173.128 173.683 173.246C174.204 173.191 174.275 173.104 174.683 172.759C175.225 171.418 173.617 170.361 172.7 169.589C171.59 168.655 170.428 167.752 169.294 166.844Z" fill="#242424"></path><path d="M268.128 205.783C267.893 205.617 267.379 205.281 267.098 205.287C265.254 205.323 259.988 204.55 258.647 205.534C258.344 206.054 258.397 206.242 258.407 206.841C259.493 207.707 266.996 208.006 267.873 207.128C268.188 206.616 268.131 206.386 268.128 205.783Z" fill="#242424"></path><path d="M223.89 201.87C222.61 201.376 217.144 200.034 215.62 200.028C215.146 200.027 214.957 200.307 214.694 200.617C214.528 201.214 214.658 201.398 214.897 201.95C216.444 202.576 218.318 202.972 219.947 203.402C221.215 203.736 223.015 204.317 224.001 203.235C224.193 202.673 224.062 202.424 223.89 201.87Z" fill="#242424"></path><path d="M238.612 204.136C237.313 203.28 232.397 203.167 230.64 202.858C229.987 202.743 229.717 202.944 229.244 203.327C228.97 203.856 229.032 204.07 229.061 204.664C230.308 205.45 237.319 206.48 238.482 205.544C238.774 205.004 238.688 204.732 238.612 204.136Z" fill="#242424"></path><path d="M126.05 203.243C125.165 202.631 119.548 201.955 118.014 201.377C117.506 201.185 117.208 201.405 116.838 201.646C116.516 202.197 116.564 202.418 116.59 203.037C118.149 204.106 124.231 205.894 125.823 204.611C126.165 204.082 126.1 203.853 126.05 203.243Z" fill="#242424"></path><path d="M106.981 193.151C106.731 192.916 106.634 192.894 106.331 192.731C105.747 192.726 105.573 192.691 105.067 192.97C104.094 194.806 108.654 198.36 110.015 199.561C110.838 200.129 111.193 200.389 112.105 199.872C113.161 198.368 108.225 194.676 106.981 193.151Z" fill="#242424"></path><path d="M122.115 101.304C121.567 101.491 121.354 101.521 121 101.988C120.943 102.229 120.835 102.503 120.927 102.698C121.654 104.213 126.845 106.941 128.24 107.683C128.786 107.467 129.014 107.423 129.35 106.92C129.638 105.407 127.463 104.421 126.347 103.736C124.99 102.901 123.532 102.029 122.115 101.304Z" fill="#242424"></path><path d="M109.708 152.395C109.475 152.237 108.846 151.877 108.593 151.953C106.519 152.584 102.59 157.584 102.899 159.62C103.306 159.866 104.245 160.354 104.641 159.799C106.132 157.723 107.609 155.712 109.393 153.87C109.844 153.406 109.739 153.002 109.708 152.395Z" fill="#242424"></path><path d="M139.969 199.404C138.344 198.669 137.04 200.224 135.381 200.81C134.548 201.104 131.574 202.204 131.199 202.679C130.959 203.23 131.058 203.478 131.174 204.051C131.257 204.094 131.34 204.136 131.424 204.178L131.536 204.229C133.044 204.916 138.928 202.198 139.936 200.772C140.23 200.354 140.051 199.853 139.969 199.404Z" fill="#242424"></path><path d="M155.985 160.667C153.994 159.432 153.713 161.498 153.833 163.01C154.003 165.18 154.087 167.371 154.321 169.535C154.711 169.809 154.784 169.827 155.238 169.993C155.604 169.939 155.983 169.929 156.195 169.542C156.989 168.097 156.265 162.186 155.985 160.667Z" fill="#242424"></path><path d="M142.486 118.574C141.869 118.464 141.638 118.393 141.082 118.687C140.652 119.258 140.597 119.627 140.939 120.293C142.053 122.452 143.85 124.785 145.249 126.765C146.124 127.037 146.526 126.973 146.968 126.199C147.153 124.598 143.533 120.052 142.486 118.574Z" fill="#242424"></path><path d="M102.326 164.938C101.829 164.635 101.763 164.597 101.183 164.568C100.774 164.746 100.605 164.755 100.35 165.16C99.3726 166.707 98.8124 172.136 99.0487 173.769C99.9645 174.322 100.265 174.398 101.065 173.718C101.309 172.98 102.431 165.47 102.326 164.938Z" fill="#242424"></path><path d="M101.564 179.651C101.011 179.325 100.838 179.179 100.204 179.23C99.9036 179.391 99.6032 179.519 99.5248 179.923C99.1309 181.918 100.764 186.558 101.476 188.253C101.736 188.506 102.123 188.603 102.475 188.728C103.032 188.638 102.824 188.739 103.247 188.324C103.75 187.168 101.936 181.462 101.564 179.651Z" fill="#242424"></path><path d="M123.2 147.02C122.489 146.498 121.997 146.427 120.963 146.594C119 146.911 115.353 147.395 113.877 148.766C113.595 149.028 113.69 149.646 113.729 149.986L114.49 150.402C114.951 150.439 122.505 148.73 122.927 148.49C123.271 148.01 123.204 147.603 123.2 147.02Z" fill="#242424"></path><path d="M133.545 109.14C132.937 109.081 132.705 109.088 132.196 109.396C131.82 110.126 131.906 110.503 132.462 111.143C134.04 112.959 136.183 114.699 137.985 116.292C138.656 116.471 138.991 116.381 139.494 115.894C139.97 114.478 138.119 113.152 137.168 112.28C136.008 111.215 134.77 110.127 133.545 109.14Z" fill="#242424"></path><path d="M149.799 130.176C149.267 129.952 149.075 129.823 148.496 129.957C147.19 130.925 148.308 133.069 148.74 134.35C149.252 135.874 149.847 137.474 150.458 138.963C151.048 139.183 151.169 139.258 151.776 139.114C153.028 138.099 151.894 135.879 151.452 134.586C150.952 133.118 150.359 131.624 149.799 130.176Z" fill="#242424"></path><path d="M191.327 185.252C190.559 184.844 190.24 185.023 189.645 185.503C189.073 187.022 191.119 188.203 192.163 189.001C193.334 189.897 194.534 190.765 195.711 191.655C196.458 191.983 196.679 191.894 197.322 191.504C198.315 189.665 192.887 186.471 191.327 185.252Z" fill="#242424"></path><path d="M180.075 175.887C179.876 175.748 179.639 175.703 179.395 175.627C178.835 175.711 178.772 175.734 178.328 176.087C177.764 177.422 179.566 178.643 180.471 179.414C181.655 180.425 182.896 181.406 184.105 182.39C184.774 182.9 185.154 182.811 185.818 182.381C186.654 180.993 184.534 179.621 183.587 178.799C182.447 177.81 181.24 176.851 180.075 175.887Z" fill="#242424"></path><path d="M155.769 175.861C154.987 175.239 154.747 175.105 153.88 175.523C153.362 176.167 150.899 183.159 150.951 184.037C151.299 184.316 151.414 184.363 151.819 184.562C152.299 184.521 152.543 184.55 152.919 184.121C153.991 182.899 155.777 177.248 155.769 175.861Z" fill="#242424"></path><path d="M137.616 148.096C136.14 147.358 129.617 145.645 128.379 147.022C128.111 147.603 128.193 147.787 128.329 148.39C129.004 148.774 135.523 149.792 136.736 150.043C137.04 150.106 137.409 149.702 137.62 149.463C137.822 148.897 137.727 148.684 137.616 148.096Z" fill="#242424"></path><path d="M154.384 144.168C153.857 143.847 153.753 143.752 153.143 143.777C152.351 144.19 152.206 144.712 152.285 145.585C152.503 147.946 153.009 150.576 153.402 152.903C153.895 153.28 154.141 153.433 154.728 153.382C156.07 152.556 155.44 150.356 155.245 149.008C155.016 147.408 154.714 145.749 154.384 144.168Z" fill="#242424"></path><path d="M210.107 197.79C209.493 197.278 203.814 194.056 202.713 193.8C202.193 193.679 201.962 193.857 201.597 194.118C201.288 194.626 201.329 194.78 201.36 195.383C202.414 196.323 206.999 199.008 208.493 199.388C209.131 199.55 209.35 199.415 209.816 199.117C210.158 198.579 210.124 198.416 210.107 197.79Z" fill="#242424"></path><path d="M162.997 161.903C161.55 160.825 157.242 157.147 155.616 157.573C154.84 158.296 154.945 158.832 155.609 159.6C157.089 160.575 161.392 164.264 162.89 163.867C163.621 163.208 163.575 162.642 162.997 161.903Z" fill="#242424"></path><path d="M151.226 154.119C149.925 153.1 144.057 149.605 142.635 150.622C142.27 151.065 142.309 151.357 142.282 151.919C142.863 152.452 148.876 155.546 150.05 155.84C150.297 155.902 150.691 155.667 150.914 155.488C151.254 154.959 151.216 154.728 151.226 154.119Z" fill="#242424"></path><path d="M149.699 188.49C149.15 188.195 148.231 187.858 147.817 188.536C146.446 190.78 144.872 192.891 143.459 195.097C143.264 195.403 143.401 195.9 143.451 196.247C143.752 196.375 144.331 196.685 144.589 196.565C146.49 195.681 150.069 190.426 149.699 188.49Z" fill="#242424"></path><path d="M296.047 205.285C294.992 204.725 289.016 204.846 288.124 205.606C287.837 206.124 287.943 206.506 288.011 207.086C289.237 207.768 295.001 207.791 296.004 206.63C296.261 206.112 296.154 205.841 296.047 205.285Z" fill="#242424"></path></g><defs><clipPath id="clip0_22_827"><rect width="345" height="214" fill="white" transform="matrix(-0.824748 -0.5655 -0.5655 0.824748 405.555 195.098)"></rect></clipPath></defs></svg>