<svg width="40" height="40" viewBox="0 0 40 40" fill="none" xmlns="http://www.w3.org/2000/svg">
<g id="single object">
<g id="Frame 2095585543">
<g id="Frame 1984077954">
<g id="Frame 1984077952">
<g id="Frame 10">
<g id="scale_5014598 1">
<g id="Group">
<g id="Group_2">
<g id="Group_3">
<g id="Group_4">
<g id="Group_5">
<path id="Vector" fill-rule="evenodd" clip-rule="evenodd" d="M35.7979 30.4535H10.0468C9.76236 30.4535 9.53125 30.2224 9.53125 29.938V4.19573C9.53125 3.91129 9.76236 3.68018 10.0468 3.68018H35.7979C36.0824 3.68018 36.3135 3.91129 36.3135 4.19573V29.9468C36.3135 30.2313 36.0824 30.4535 35.7979 30.4535ZM10.5624 29.4313H35.2913V4.7024H10.5624V29.4313Z" fill="#89919A" stroke="#89919A" stroke-width="0.4"/>
</g>
<g id="Group_6">
<path id="Vector_2" fill-rule="evenodd" clip-rule="evenodd" d="M18.6335 30.4537H10.0468C9.76236 30.4537 9.53125 30.2226 9.53125 29.9382V21.3515C9.53125 21.067 9.76236 20.8359 10.0468 20.8359H18.6335C18.9179 20.8359 19.149 21.067 19.149 21.3515V29.9382C19.149 30.2315 18.9179 30.4537 18.6335 30.4537ZM10.5624 29.4315H18.1179V21.8759H10.5624V29.4315Z" fill="#89919A" stroke="#89919A" stroke-width="0.4"/>
</g>
<g id="Group_7">
<path id="Vector_3" fill-rule="evenodd" clip-rule="evenodd" d="M27.2201 30.4534H10.0468C9.76236 30.4534 9.53125 30.2223 9.53125 29.9378V12.7734C9.53125 12.4889 9.76236 12.2578 10.0468 12.2578H27.2113C27.4957 12.2578 27.7268 12.4889 27.7268 12.7734V29.9378C27.7268 30.2311 27.4957 30.4534 27.2201 30.4534ZM10.5624 29.4311H26.7046V13.2889H10.5624V29.4311Z" fill="#89919A" stroke="#89919A" stroke-width="0.4"/>
</g>
</g>
<g id="Group_8">
<g id="Group_9">
<path id="Vector_4" fill-rule="evenodd" clip-rule="evenodd" d="M6.09759 30.4178C5.81314 30.4178 5.58203 30.1867 5.58203 29.9022V12.8178C5.58203 12.5334 5.81314 12.3022 6.09759 12.3022C6.38203 12.3022 6.61314 12.5334 6.61314 12.8178V29.9022C6.61314 30.1867 6.38203 30.4178 6.09759 30.4178Z" fill="#89919A" stroke="#89919A" stroke-width="0.4"/>
</g>
<g id="Group_10">
<path id="Vector_5" fill-rule="evenodd" clip-rule="evenodd" d="M7.9471 15.1557C7.81377 15.1557 7.68932 15.1024 7.58266 15.0046L6.08932 13.5113L4.59599 15.0046C4.39155 15.2002 4.07155 15.2002 3.87599 15.0046C3.67155 14.8002 3.67155 14.4802 3.87599 14.2846L5.72488 12.4357C5.92932 12.2402 6.24932 12.2402 6.44488 12.4357L8.29377 14.2846C8.49821 14.4891 8.49821 14.8091 8.29377 15.0046C8.21377 15.1024 8.08043 15.1557 7.9471 15.1557Z" fill="#89919A" stroke="#89919A" stroke-width="0.4"/>
</g>
</g>
<g id="Group_11">
<g id="Group_12">
<path id="Vector_6" fill-rule="evenodd" clip-rule="evenodd" d="M27.1313 34.5956H10.0468C9.76236 34.5956 9.53125 34.3645 9.53125 34.08C9.53125 33.7956 9.76236 33.5645 10.0468 33.5645H27.1313C27.4157 33.5645 27.6468 33.7956 27.6468 34.08C27.6468 34.3733 27.4157 34.5956 27.1313 34.5956Z" fill="#89919A" stroke="#89919A" stroke-width="0.4"/>
</g>
<g id="Group_13">
<path id="Vector_7" fill-rule="evenodd" clip-rule="evenodd" d="M25.308 36.4534C25.1747 36.4534 25.0502 36.4001 24.9435 36.3023C24.748 36.0979 24.748 35.7779 24.9435 35.5823L26.4369 34.089L24.9435 32.5957C24.748 32.3912 24.748 32.0712 24.9435 31.8757C25.148 31.6801 25.468 31.6801 25.6635 31.8757L27.5124 33.7246C27.708 33.929 27.708 34.249 27.5124 34.4446L25.6635 36.2934C25.5658 36.4001 25.4413 36.4534 25.308 36.4534Z" fill="#89919A" stroke="#89919A" stroke-width="0.4"/>
</g>
</g>
</g>
</g>
</g>
</g>
</g>
</g>
</g>
</g>
</g>
</svg>
