<svg width="40" height="40" viewBox="0 0 40 40" fill="none" xmlns="http://www.w3.org/2000/svg">
<g id="single object">
<g id="Frame 2095585543">
<g id="Frame 1984077954">
<g id="Frame 1984077952">
<g id="Frame 1984077885">
<g id="single-bed_4549301 1" clip-path="url(#clip0_142_3)">
<path id="Vector" d="M38.75 14.375H36.25C36.0842 14.375 35.9253 14.4408 35.8081 14.5581C35.6908 14.6753 35.625 14.8342 35.625 15V19.375H16.25C16.0842 19.375 15.9253 19.4408 15.8081 19.5581C15.6908 19.6753 15.625 19.8342 15.625 20V21.25H14.375V20.625C14.375 19.4647 13.9141 18.3519 13.0936 17.5314C12.2731 16.7109 11.1603 16.25 10 16.25H4.375V6.25C4.375 6.08424 4.30915 5.92527 4.19194 5.80806C4.07473 5.69085 3.91576 5.625 3.75 5.625H1.25C1.08424 5.625 0.925268 5.69085 0.808058 5.80806C0.690848 5.92527 0.625 6.08424 0.625 6.25V33.75C0.625 33.9158 0.690848 34.0747 0.808058 34.1919C0.925268 34.3092 1.08424 34.375 1.25 34.375H3.75C3.91576 34.375 4.07473 34.3092 4.19194 34.1919C4.30915 34.0747 4.375 33.9158 4.375 33.75V31.875H35.625V33.75C35.625 33.9158 35.6908 34.0747 35.8081 34.1919C35.9253 34.3092 36.0842 34.375 36.25 34.375H38.75C38.9158 34.375 39.0747 34.3092 39.1919 34.1919C39.3092 34.0747 39.375 33.9158 39.375 33.75V15C39.375 14.8342 39.3092 14.6753 39.1919 14.5581C39.0747 14.4408 38.9158 14.375 38.75 14.375ZM3.125 33.125H1.875V6.875H3.125V33.125ZM4.375 17.5H10C10.8288 17.5 11.6237 17.8292 12.2097 18.4153C12.7958 19.0013 13.125 19.7962 13.125 20.625V21.25H4.375V17.5ZM35.625 30.625H4.375V22.5H15.625V28.75C15.625 28.9158 15.6908 29.0747 15.8081 29.1919C15.9253 29.3092 16.0842 29.375 16.25 29.375H35.625V30.625ZM35.625 28.125H16.875V20.625H35.625V28.125ZM38.125 33.125H36.875V15.625H38.125V33.125Z" fill="#89919A"/>
</g>
</g>
</g>
</g>
</g>
</g>
<defs>
<clipPath id="clip0_142_3">
<rect width="40" height="40" fill="white"/>
</clipPath>
</defs>
</svg>
