<svg width="12" height="12" viewBox="0 0 12 12" fill="none" xmlns="http://www.w3.org/2000/svg">
<g id="single object">
<g id="Frame 2095585574">
<g id="Group 303341">
<g id="Frame 2095585575">
<g id="Frame 2095585581">
<g id="Frame 2095585581_2">
<g id="Frame 2095585577">
<rect x="-5.5" y="-5.5" width="23" height="23" rx="11.5" fill="white"/>
<rect x="-5.5" y="-5.5" width="23" height="23" rx="11.5" stroke="white"/>
<g id="garden:email-stroke-16" clip-path="url(#clip0_142_3)">
<path id="Vector" d="M11.25 1.5C11.4489 1.5 11.6397 1.57902 11.7803 1.71967C11.921 1.86032 12 2.05109 12 2.25V9.75C12 9.94891 11.921 10.1397 11.7803 10.2803C11.6397 10.421 11.4489 10.5 11.25 10.5H0.75C0.551088 10.5 0.360322 10.421 0.21967 10.2803C0.0790176 10.1397 0 9.94891 0 9.75V2.25C0 2.05109 0.0790176 1.86032 0.21967 1.71967C0.360322 1.57902 0.551088 1.5 0.75 1.5H11.25ZM11.25 2.78025L6.53625 7.5015C6.46664 7.57178 6.38381 7.6276 6.29254 7.66574C6.20127 7.70388 6.10336 7.72358 6.00444 7.72372C5.90552 7.72386 5.80755 7.70443 5.71617 7.66655C5.62479 7.62867 5.54181 7.57308 5.472 7.503L0.75 2.78025V9.219L3.1095 6.8595C3.14437 6.82463 3.18576 6.79698 3.23131 6.77811C3.27687 6.75924 3.32569 6.74953 3.375 6.74953C3.42431 6.74953 3.47313 6.75924 3.51869 6.77811C3.56424 6.79698 3.60563 6.82463 3.6405 6.8595C3.67537 6.89437 3.70302 6.93576 3.72189 6.98131C3.74076 7.02687 3.75047 7.07569 3.75047 7.125C3.75047 7.17431 3.74076 7.22313 3.72189 7.26869C3.70302 7.31424 3.67537 7.35563 3.6405 7.3905L1.2795 9.75H10.7198L8.3595 7.3905C8.28909 7.32009 8.24953 7.22458 8.24953 7.125C8.24953 7.02542 8.28909 6.92991 8.3595 6.8595C8.42991 6.78908 8.52542 6.74953 8.625 6.74953C8.72458 6.74953 8.82009 6.78908 8.8905 6.8595L11.25 9.21975V2.78025ZM10.719 2.25H1.28025L6.00375 6.9735L10.719 2.25Z" fill="#142335" stroke="#142335" stroke-width="0.2"/>
</g>
</g>
</g>
</g>
</g>
</g>
</g>
</g>
<defs>
<clipPath id="clip0_142_3">
<rect width="12" height="12" fill="white"/>
</clipPath>
</defs>
</svg>
