<svg width="40" height="40" viewBox="0 0 40 40" fill="none" xmlns="http://www.w3.org/2000/svg">
<g id="single object">
<g id="Frame 2095585543">
<g id="Frame 1984077954">
<g id="Frame 1984077953">
<g id="Frame 1984077884">
<g id="stairs_2649073 1">
<path id="Vector" d="M38.125 37.5H37.5V13.125C37.5 12.7799 37.2202 12.5 36.875 12.5H33.125V2.50003H35C35.3452 2.50003 35.625 2.22018 35.625 1.87503C35.625 1.52987 35.3452 1.25003 35 1.25003H32.5C32.4952 1.25003 32.2562 1.24393 32.0796 1.41276L4.75836 26.25H3.75C3.40484 26.25 3.125 26.5299 3.125 26.875C3.125 27.2202 3.40484 27.5 3.75 27.5H5C5.15547 27.5 5.30539 27.4421 5.42047 27.3375L8.125 24.8789V31.25H6.875C6.52984 31.25 6.25 31.5299 6.25 31.875V37.5H3.125C2.77984 37.5 2.5 37.7799 2.5 38.125C2.5 38.4702 2.77984 38.75 3.125 38.75H38.125C38.4702 38.75 38.75 38.4702 38.75 38.125C38.75 37.7799 38.4702 37.5 38.125 37.5ZM20.625 13.5152L31.875 3.28792V12.5H28.75C28.4048 12.5 28.125 12.7799 28.125 13.125V18.75H22.5C22.1548 18.75 21.875 19.0299 21.875 19.375V25H20.625V13.5152ZM19.375 14.6516V25H15C14.6548 25 14.375 25.2799 14.375 25.625V31.25H9.375V23.75H9.36672L19.375 14.6516ZM36.25 37.5H7.5V32.5H15C15.3452 32.5 15.625 32.2202 15.625 31.875V26.25H22.5C22.8452 26.25 23.125 25.9702 23.125 25.625V20H28.75C29.0952 20 29.375 19.7202 29.375 19.375V13.75H36.25V37.5Z" fill="#89919A"/>
</g>
</g>
</g>
</g>
</g>
</g>
</svg>
