<svg width="40" height="40" viewBox="0 0 40 40" fill="none" xmlns="http://www.w3.org/2000/svg">
<g id="single object">
<g id="Frame 2095585543">
<g id="Frame 1984077954">
<g id="Frame 1984077953">
<g id="Frame 10">
<g id="bathtub_10395361 1">
<g id="Layer_35">
<g id="Group">
<path id="Vector" d="M36.1219 17.7601H6.24188V7.40008C6.24188 5.08008 8.12188 3.24008 10.4019 3.24008C12.5219 3.24008 14.2819 4.84008 14.5219 6.88008C12.1219 7.20008 10.2819 9.24008 10.2819 11.7201C10.2819 12.0401 10.5619 12.3201 10.8819 12.3201H19.4419C19.7619 12.3201 20.0419 12.0401 20.0419 11.7201C20.0419 9.24008 18.1619 7.16008 15.7219 6.88008C15.4419 4.20008 13.1619 2.08008 10.3619 2.08008C7.40187 2.08008 5.00187 4.48008 5.00187 7.44008V17.8001H3.80187C2.76187 17.8001 1.92188 18.6401 1.92188 19.6801V21.1601C1.92188 22.2001 2.76187 23.0401 3.80187 23.0401H3.92188V27.6401C3.92188 31.2401 6.60188 34.2401 10.0819 34.7601L8.56187 37.1601C8.40187 37.4401 8.48187 37.8001 8.76187 38.0001C8.84187 38.0801 8.96188 38.0801 9.08188 38.0801C9.28188 38.0801 9.48188 38.0001 9.60188 37.8001L11.4819 34.8801H28.4819L30.3619 37.8001C30.4819 38.0001 30.6819 38.0801 30.8819 38.0801C31.0019 38.0801 31.1219 38.0401 31.2019 38.0001C31.4819 37.8401 31.5619 37.4401 31.4019 37.1601L29.8819 34.7601C33.3619 34.2401 36.0419 31.2801 36.0419 27.6401V22.9601H36.1619C37.2019 22.9601 38.0419 22.1201 38.0419 21.0801V19.6001C38.0019 18.6001 37.1619 17.7601 36.1219 17.7601ZM18.8419 11.0801H11.5619C11.8419 9.32008 13.3619 8.00008 15.2019 8.00008C17.0419 8.00008 18.5619 9.32008 18.8419 11.0801ZM26.8819 27.7601C26.8819 28.1601 26.5619 28.5201 26.1219 28.5201H19.1219C18.7219 28.5201 18.3619 28.2001 18.3619 27.7601V18.9601H26.8819V27.7601ZM3.20187 21.1201V19.6401C3.20187 19.2801 3.52187 18.9601 3.88187 18.9601H17.1619V21.7601H3.88187C3.52187 21.7601 3.20187 21.4801 3.20187 21.1201ZM34.8419 27.5601C34.8419 30.8801 32.1619 33.5601 28.8419 33.5601H11.1619C7.84187 33.5601 5.16187 30.8801 5.16187 27.5601V22.9601H17.1219V27.7201C17.1219 28.8001 18.0019 29.6801 19.0819 29.6801H26.0819C27.1619 29.6801 28.0419 28.8001 28.0419 27.7201V22.9601H34.7619V27.5601H34.8419ZM36.8019 21.1201C36.8019 21.4801 36.4819 21.8001 36.1219 21.8001H28.0819V19.0001H36.1219C36.4819 19.0001 36.8019 19.3201 36.8019 19.6801V21.1201Z" fill="#89919A"/>
</g>
</g>
</g>
</g>
</g>
</g>
</g>
</g>
</svg>
