<svg width="40" height="40" viewBox="0 0 40 40" fill="none" xmlns="http://www.w3.org/2000/svg">
<g id="single object">
<g id="Frame 2095585543">
<g id="Frame 1984077954">
<g id="Frame 1984077952">
<g id="Frame 1984077884">
<g id="map_13260651 1">
<path id="Vector" d="M35.9987 3.3335H3.9987C3.6307 3.3335 3.33203 3.63216 3.33203 4.00016V36.0002C3.33203 36.3682 3.6307 36.6668 3.9987 36.6668H35.9987C36.3667 36.6668 36.6654 36.3682 36.6654 36.0002V29.9348C36.6654 29.5668 36.3667 29.2682 35.9987 29.2682C35.6307 29.2682 35.332 29.5668 35.332 29.9348V35.3335H17.4994C17.53 35.2575 17.5487 35.1748 17.5487 35.0882V31.4968C17.5487 31.1288 17.25 30.8302 16.882 30.8302C16.514 30.8302 16.2154 31.1288 16.2154 31.4968V35.0882C16.2154 35.1755 16.2347 35.2575 16.2647 35.3335H4.66536V20.6668H16.216V21.9042C16.216 22.2722 16.5147 22.5708 16.8827 22.5708C17.2507 22.5708 17.5494 22.2722 17.5494 21.9042V18.0955C17.5494 17.7275 17.2507 17.4288 16.8827 17.4288C16.5147 17.4288 16.216 17.7275 16.216 18.0955V19.3335H4.66536V4.66683H16.216V7.80883C16.216 8.17683 16.5147 8.4755 16.8827 8.4755C17.2507 8.4755 17.5494 8.17683 17.5494 7.80883V4.66683H35.332V16.5128H24.4467V13.6728C24.4467 13.3048 24.148 13.0062 23.78 13.0062C23.412 13.0062 23.1134 13.3048 23.1134 13.6728V17.1795C23.1134 17.5475 23.412 17.8462 23.78 17.8462H35.332V21.6528C35.332 22.0208 35.6307 22.3195 35.9987 22.3195C36.3667 22.3195 36.6654 22.0208 36.6654 21.6528V4.00016C36.6654 3.63216 36.3667 3.3335 35.9987 3.3335Z" fill="#89919A"/>
<path id="Vector_2" d="M16.8854 10.3813C16.5174 10.3813 16.2188 10.68 16.2188 11.048V14.8567C16.2188 15.2247 16.5174 15.5233 16.8854 15.5233C17.2534 15.5233 17.5521 15.2247 17.5521 14.8567V11.048C17.5521 10.68 17.2534 10.3813 16.8854 10.3813Z" fill="#89919A"/>
<path id="Vector_3" d="M16.8854 24.1836C16.5174 24.1836 16.2188 24.4823 16.2188 24.8503V28.4416C16.2188 28.8096 16.5174 29.1083 16.8854 29.1083C17.2534 29.1083 17.5521 28.8096 17.5521 28.4416V24.8503C17.5521 24.4823 17.2534 24.1836 16.8854 24.1836Z" fill="#89919A"/>
<path id="Vector_4" d="M31.0956 28.2947C31.2256 28.4247 31.3963 28.49 31.567 28.49C31.7376 28.49 31.9083 28.4247 32.0383 28.2947L34.3983 25.9347C34.4596 25.8734 34.5083 25.7994 34.5423 25.718C34.6096 25.5547 34.6096 25.3714 34.5423 25.2087C34.5083 25.1274 34.4596 25.0534 34.3983 24.992L32.0383 22.632C31.7776 22.3714 31.3563 22.3714 31.0956 22.632C30.835 22.8927 30.835 23.314 31.0956 23.5747L32.3176 24.7967H27.2096C26.8416 24.7967 26.543 25.0954 26.543 25.4634C26.543 25.8314 26.8416 26.13 27.2096 26.13H32.3176L31.0956 27.352C30.835 27.6127 30.835 28.0347 31.0956 28.2947Z" fill="#89919A"/>
</g>
</g>
</g>
</g>
</g>
</g>
</svg>
