<svg width="40" height="40" viewBox="0 0 40 40" fill="none" xmlns="http://www.w3.org/2000/svg">
<g id="single object">
<g id="Frame 2095585543">
<g id="Frame 1984077954">
<g id="Frame 1984077953">
<g id="Frame 1984077885">
<g id="calendar_11419858 1">
<path id="Vector" d="M22.5938 33.3258H28.1367C28.4818 33.3258 28.7617 33.046 28.7617 32.7008V27.1582C28.7617 26.813 28.4818 26.5332 28.1367 26.5332H22.5938C22.2486 26.5332 21.9688 26.813 21.9688 27.1582V32.7008C21.9688 33.046 22.2486 33.3258 22.5938 33.3258ZM23.2188 27.7832H27.5117V32.0758H23.2188V27.7832Z" fill="#89919A"/>
<path id="Vector_2" d="M22.5938 23.5151H28.1367C28.4818 23.5151 28.7617 23.2352 28.7617 22.8901V17.3472C28.7617 17.002 28.4818 16.7222 28.1367 16.7222H22.5938C22.2486 16.7222 21.9688 17.002 21.9688 17.3472V22.8901C21.9688 23.2352 22.2486 23.5151 22.5938 23.5151ZM23.2188 17.9722H27.5117V22.2651H23.2188V17.9722Z" fill="#89919A"/>
<path id="Vector_3" d="M12.957 33.3258H18.4999C18.8451 33.3258 19.1249 33.046 19.1249 32.7008V27.1582C19.1249 26.813 18.8451 26.5332 18.4999 26.5332H12.957C12.6119 26.5332 12.332 26.813 12.332 27.1582V32.7008C12.332 33.046 12.6119 33.3258 12.957 33.3258ZM13.582 27.7832H17.8749V32.0758H13.582V27.7832Z" fill="#89919A"/>
<path id="Vector_4" d="M12.957 23.5151H18.4999C18.8451 23.5151 19.1249 23.2352 19.1249 22.8901V17.3472C19.1249 17.002 18.8451 16.7222 18.4999 16.7222H12.957C12.6119 16.7222 12.332 17.002 12.332 17.3472V22.8901C12.332 23.2352 12.6119 23.5151 12.957 23.5151ZM13.582 17.9722H17.8749V22.2651H13.582V17.9722Z" fill="#89919A"/>
<path id="Vector_5" d="M10.3358 1.25C9.9906 1.25 9.71075 1.52985 9.71075 1.875V4.21417H3.35547C3.01031 4.21417 2.73047 4.49402 2.73047 4.83917V38.125C2.73047 38.4702 3.01031 38.75 3.35547 38.75H33.3768C35.5216 38.75 37.2666 37.005 37.2666 34.8602V4.83917C37.2666 4.49402 36.9868 4.21417 36.6416 4.21417H30.2863V1.875C30.2863 1.52985 30.0065 1.25 29.6613 1.25C29.3162 1.25 29.0363 1.52985 29.0363 1.875V4.21417H20.6235V1.875C20.6235 1.52985 20.3437 1.25 19.9985 1.25C19.6534 1.25 19.3735 1.52985 19.3735 1.875V4.21417H10.9608V1.875C10.9608 1.52985 10.6809 1.25 10.3358 1.25ZM36.0166 34.8602C36.0166 36.3159 34.8325 37.5 33.3768 37.5H3.98047V13.2297H36.0166V34.8602ZM19.3735 5.46417V8.98865C19.3735 9.3338 19.6534 9.61365 19.9985 9.61365C20.3437 9.61365 20.6235 9.3338 20.6235 8.98865V5.46417H29.0363V8.98865C29.0363 9.3338 29.3162 9.61365 29.6613 9.61365C30.0065 9.61365 30.2863 9.3338 30.2863 8.98865V5.46417H36.0166V11.9797H3.98047V5.46417H9.71075V8.98865C9.71075 9.3338 9.9906 9.61365 10.3358 9.61365C10.6809 9.61365 10.9608 9.3338 10.9608 8.98865V5.46417H19.3735Z" fill="#89919A"/>
</g>
</g>
</g>
</g>
</g>
</g>
</svg>
