<svg xmlns="http://www.w3.org/2000/svg" width="24" height="24" viewBox="0 0 24 24" fill="currentColor"><path d="M13.293 15.2926C13.1108 15.4812 13.01 15.7338 13.0123 15.996C13.0146 16.2582 13.1197 16.509 13.3052 16.6944C13.4906 16.8798 13.7414 16.985 14.0036 16.9873C14.2658 16.9895 14.5184 16.8888 14.707 16.7066L18.707 12.7066C18.8944 12.5191 18.9998 12.2648 18.9998 11.9996C18.9998 11.7344 18.8944 11.4801 18.707 11.2926L14.707 7.29259C14.5184 7.11044 14.2658 7.00964 14.0036 7.01192C13.7414 7.0142 13.4906 7.11937 13.3052 7.30478C13.1197 7.49018 13.0146 7.741 13.0123 8.00319C13.01 8.26539 13.1108 8.51799 13.293 8.70659L15.586 10.9996L5.99997 10.9996C5.73475 10.9996 5.4804 11.105 5.29286 11.2925C5.10533 11.48 4.99997 11.7344 4.99997 11.9996C4.99997 12.2648 5.10533 12.5192 5.29286 12.7067C5.4804 12.8942 5.73475 12.9996 5.99997 12.9996L15.586 12.9996L13.293 15.2926Z" fill="currentColor"></path></svg>