<svg xmlns="http://www.w3.org/2000/svg" width="64" height="64" viewBox="0 0 64 64" fill="none"><rect width="64" height="64" rx="32" fill="#1476FF"></rect><path fill-rule="evenodd" clip-rule="evenodd" d="M31.9998 18.667C37.1598 18.667 41.3332 22.8403 41.3332 28.0003C41.3332 35.0003 31.9998 45.3337 31.9998 45.3337C31.9998 45.3337 22.6665 35.0003 22.6665 28.0003C22.6665 22.8403 26.8398 18.667 31.9998 18.667ZM25.333 27.9997C25.333 31.7997 29.2263 37.613 31.9997 41.173C34.8263 37.5863 38.6663 31.8397 38.6663 27.9997C38.6663 24.3197 35.6797 21.333 31.9997 21.333C28.3197 21.333 25.333 24.3197 25.333 27.9997ZM31.9998 31.3337C30.1589 31.3337 28.6665 29.8413 28.6665 28.0003C28.6665 26.1594 30.1589 24.667 31.9998 24.667C33.8408 24.667 35.3332 26.1594 35.3332 28.0003C35.3332 29.8413 33.8408 31.3337 31.9998 31.3337Z" fill="white"></path></svg>