<svg xmlns="http://www.w3.org/2000/svg" width="64" height="64" viewBox="0 0 64 64" fill="none"><rect width="64" height="64" rx="32" fill="#1476FF"></rect><g clip-path="url(#clip0_417_5160)"><path d="M41.6002 22.4004C41.8831 22.4004 42.1544 22.5128 42.3544 22.7128C42.5545 22.9128 42.6669 23.1842 42.6669 23.4671V40.5412C42.6649 40.8213 42.5528 41.0894 42.3548 41.2876C42.1569 41.4858 41.8889 41.5982 41.6087 41.6004H22.3917C22.1109 41.6001 21.8418 41.4884 21.6434 41.2898C21.445 41.0912 21.3335 40.8219 21.3335 40.5412V39.4671H40.5335V26.9871L32.0002 34.6671L21.3335 25.0671V23.4671C21.3335 23.1842 21.4459 22.9128 21.6459 22.7128C21.846 22.5128 22.1173 22.4004 22.4002 22.4004H41.6002ZM27.7335 35.2004V37.3337H19.2002V35.2004H27.7335ZM24.5335 29.8671V32.0004H19.2002V29.8671H24.5335ZM40.0706 24.5337H23.9298L32.0002 31.7977L40.0706 24.5337Z" fill="white"></path></g><defs><clipPath id="clip0_417_5160"><rect width="25.6" height="25.6" fill="white" transform="translate(19.2002 19.2002)"></rect></clipPath></defs></svg>