<svg xmlns="http://www.w3.org/2000/svg" width="64" height="64" viewBox="0 0 64 64" fill="none"><rect width="64" height="64" rx="32" fill="#1476FF"></rect><path d="M40.5337 35.7337C39.2004 35.7337 37.9204 35.5204 36.7257 35.1257C36.6191 35.0937 36.5017 35.0724 36.3951 35.0724C36.1177 35.0724 35.8511 35.2004 35.6377 35.3817L33.2911 37.7284C30.2657 36.1896 27.8051 33.7327 26.2617 30.7097L28.6084 28.3524C28.9071 28.0644 28.9924 27.6484 28.8751 27.2751C28.4711 26.0461 28.2659 24.7607 28.2671 23.4671C28.2671 22.8804 27.7871 22.4004 27.2004 22.4004H23.4671C22.8804 22.4004 22.4004 22.8804 22.4004 23.4671C22.4004 33.4831 30.5177 41.6004 40.5337 41.6004C41.1204 41.6004 41.6004 41.1204 41.6004 40.5337V36.8004C41.6004 36.2137 41.1204 35.7337 40.5337 35.7337ZM24.5657 24.5337H26.1657C26.2404 25.4724 26.4004 26.4004 26.6671 27.2964L25.3764 28.5871C24.9391 27.2964 24.6617 25.9417 24.5657 24.5337ZM39.4671 39.4351C38.0591 39.3391 36.6937 39.0617 35.4137 38.6244L36.6937 37.3337C37.6004 37.6004 38.5284 37.7604 39.4671 37.8244V39.4351ZM32.0004 22.4004V33.0671L35.2004 29.8671H41.6004V22.4004H32.0004ZM39.4671 27.7337H34.1337V24.5337H39.4671V27.7337Z" fill="white"></path></svg>