<svg xmlns="http://www.w3.org/2000/svg" width="204" height="179" viewBox="0 0 204 179" fill="none"><path d="M25.0908 104.721C25.3448 105.721 25.3487 106.724 25.1025 107.73C24.8564 108.736 24.2867 109.654 23.3934 110.484C22.4953 111.294 21.2355 111.906 19.6139 112.319L16.0503 113.226L18.0773 121.202L14.8531 122.023L9.8573 102.364L16.6452 100.637C18.1537 100.253 19.4935 100.193 20.6647 100.457C21.85 100.698 22.8098 101.196 23.5441 101.953C24.2973 102.705 24.8129 103.628 25.0908 104.721ZM18.9454 109.688C20.171 109.376 21.016 108.87 21.4804 108.17C21.94 107.451 22.0405 106.582 21.7817 105.564C21.2354 103.414 19.7461 102.648 17.3137 103.268L13.7501 104.174L15.3818 110.595L18.9454 109.688ZM45.0491 110.062L36.8187 112.156L36.4253 116.533L33.0596 117.389L35.0991 95.9104L38.8325 94.9603L50.8779 112.855L47.4839 113.718L45.0491 110.062ZM43.4755 107.662L37.9578 99.3388L37.0553 109.296L43.4755 107.662ZM64.1887 88.5374L64.8572 91.1679L59.6249 92.4995L63.9521 109.527L60.7279 110.348L56.4006 93.3201L51.14 94.6589L50.4715 92.0283L64.1887 88.5374ZM73.8851 88.8402L75.3515 94.6105L82.1394 92.883L82.8079 95.5135L76.02 97.241L77.5511 103.266L85.1875 101.322L85.856 103.953L74.9953 106.717L69.9924 87.0302L80.8531 84.2663L81.5216 86.8968L73.8851 88.8402ZM108.522 98.1845L105.298 99.005L91.8664 86.7937L95.5971 101.474L92.3728 102.294L87.3699 82.6078L90.5941 81.7872L104.019 93.9702L100.295 79.3183L103.519 78.4978L108.522 98.1845ZM123.005 73.5688L123.674 76.1994L118.441 77.531L122.769 94.5589L119.544 95.3794L115.217 78.3515L109.956 79.6904L109.288 77.0598L123.005 73.5688ZM132.04 71.2694L137.036 90.9279L133.812 91.7484L128.816 72.09L132.04 71.2694ZM142.705 71.326L144.171 77.0962L150.959 75.3688L151.627 77.9993L144.839 79.7268L146.371 85.7516L154.007 83.8082L154.675 86.4387L143.815 89.2027L138.812 69.516L149.672 66.752L150.341 69.3826L142.705 71.326ZM171.402 82.1818L164.879 75.4701L162.418 76.0963L164.416 83.9597L161.192 84.7802L156.196 65.1218L162.984 63.3943C164.493 63.0104 165.833 62.9505 167.004 63.2146C168.194 63.4739 169.156 63.9819 169.89 64.7386C170.644 65.4905 171.159 66.4133 171.437 67.507C171.763 68.7893 171.683 70.0544 171.197 71.3023C170.725 72.5266 169.764 73.5241 168.314 74.2947L175.249 81.2029L171.402 82.1818ZM161.764 73.5223L165.328 72.6154C166.534 72.3083 167.363 71.7762 167.813 71.0193C168.282 70.2575 168.387 69.3675 168.128 68.3492C167.869 67.3309 167.366 66.6157 166.619 66.2035C165.867 65.7725 164.878 65.713 163.653 66.0249L160.089 66.9318L161.764 73.5223ZM189.311 56.6943L189.98 59.3248L184.747 60.6564L189.075 77.6843L185.85 78.5048L181.523 61.477L176.262 62.8158L175.594 60.1852L189.311 56.6943Z" fill="#1476FF"></path><mask id="mask0_417_4850" style="mask-type:luminance" maskUnits="userSpaceOnUse" x="0" y="0" width="204" height="179"><path d="M172.021 42.6317L157.624 46.3076C140.961 24.5483 112.371 13.6194 84.1492 20.8214C55.9274 28.0197 36.0551 51.3121 31.8384 78.3971L17.4375 82.0729C19.1629 80.6274 20.7204 79.171 20.9466 77.6232C21.4791 73.9182 14.7201 68.6691 15.7232 65.0955C16.7372 61.5 25.2508 60.5582 26.7171 57.1416C28.1835 53.7176 23.0075 46.8953 24.9079 43.6903C26.8047 40.489 35.2709 41.7703 37.5725 38.8391C39.8669 35.9189 36.6205 27.9868 39.2906 25.3769C41.9424 22.7816 49.7848 26.2092 52.7795 23.9642C55.7378 21.7449 54.6581 13.2434 57.93 11.411C61.1472 9.60408 67.826 14.959 71.3241 13.5646C74.7383 12.2031 75.8946 3.71254 79.5532 2.77807C83.2081 1.8436 88.2893 8.74627 91.9369 8.30458C95.6758 7.8556 98.9769 -0.0472407 102.665 0.000212841C106.414 0.0403658 109.533 8.01986 113.195 8.5528C116.898 9.08574 122.143 2.32178 125.714 3.32561C129.307 4.34038 130.248 12.8601 133.662 14.3275C137.084 15.7949 143.901 10.6152 147.104 12.517C150.303 14.4151 149.023 22.8874 151.952 25.1907C154.87 27.4868 162.796 24.238 165.404 26.91C167.998 29.5638 164.572 37.4118 166.816 40.4087C167.753 41.6608 169.814 42.1901 172.021 42.6317ZM185.725 96.42L171.325 100.094C167.107 127.18 147.235 150.471 119.014 157.672C90.7927 164.872 62.2025 153.944 45.5408 132.185L31.141 135.859C33.3475 136.301 35.4106 136.833 36.3487 138.084C38.5902 141.08 35.1662 148.928 37.7585 151.581C40.367 154.254 48.2918 151.003 51.2103 153.301C54.1416 155.605 52.8612 164.075 56.0588 165.975C59.2607 167.877 66.0781 162.697 69.5025 164.165C72.916 165.633 73.8581 174.152 77.4492 175.164C81.0207 176.171 86.2641 169.406 89.9687 169.94C93.6291 170.471 96.7493 178.452 100.498 178.493C104.187 178.538 107.489 170.637 111.226 170.187C114.874 169.746 119.954 176.647 123.611 175.714C127.268 174.781 128.427 166.288 131.841 164.928C135.336 163.532 142.015 168.887 145.232 167.08C148.505 165.248 147.425 156.746 150.385 154.526C153.379 152.283 161.222 155.71 163.872 153.116C166.544 150.505 163.295 142.575 165.591 139.654C167.894 136.721 176.358 138.002 178.256 134.802C180.157 131.598 174.981 124.776 176.448 121.349C177.914 117.933 186.427 116.99 187.439 113.396C188.445 109.822 181.685 104.575 182.219 100.868C182.443 99.3201 183.999 97.8644 185.725 96.42ZM136.017 51.8187L138.753 51.1208C126.935 36.2051 107.037 28.7582 87.4449 33.7568C67.8523 38.7555 53.9464 54.8266 50.7069 73.5842L53.4427 72.8863C56.87 55.5825 69.8895 40.884 88.0785 36.2434C106.267 31.6028 124.73 38.2689 136.017 51.8187ZM67.1454 126.673L64.4097 127.371C76.228 142.287 96.1252 149.734 115.718 144.735C135.31 139.736 149.216 123.665 152.456 104.908L149.72 105.605C146.293 122.909 133.273 137.608 115.084 142.248C96.8952 146.889 78.433 140.223 67.1454 126.673ZM0 88.696L0.693781 91.4194L191.194 42.8172L190.501 40.0937L0 88.696ZM12.6621 138.398L203.163 89.7958L202.469 87.0723L11.9683 135.675L12.6621 138.398ZM86.7318 25.2732L84.6694 22.863L84.0121 25.9672L81.0841 27.1852L83.8312 28.7702L84.0839 31.9332L86.4392 29.8083L89.5233 30.5453L88.2317 27.6474L89.8851 24.9396L86.7318 25.2732ZM61.1997 37.4743L58.3152 36.1569L59.0247 39.2494L56.8809 41.5878L60.0394 41.8681L61.5992 44.6306L62.8415 41.7111L65.949 41.0804L63.5583 38.9957L63.9191 35.843L61.1997 37.4743ZM45.1275 64.0906L47.7046 65.9395L47.6035 62.7681L50.1569 60.8867L47.1115 60.003L46.1124 56.9915L44.3312 59.6168L41.1603 59.6369L43.1049 62.1432L42.1441 65.1671L45.1275 64.0906ZM112.817 28.9615L115.304 30.9293L115.352 27.7565L117.991 25.9971L114.99 24.9714L114.134 21.9161L112.232 24.4548L109.063 24.326L110.888 26.921L109.787 29.8967L112.817 28.9615ZM137.689 42.9818L139.067 40.124L142.2 39.64L139.91 37.4454L140.418 34.3131L137.625 35.8145L134.805 34.3628L135.369 37.4852L133.118 39.7203L136.26 40.1488L137.689 42.9818ZM116.431 153.218L118.493 155.628L119.151 152.524L122.078 151.306L119.331 149.721L119.079 146.558L116.723 148.683L113.639 147.946L114.931 150.844L113.277 153.552L116.431 153.218ZM90.3123 149.539L87.8246 147.571L87.7768 150.744L85.1381 152.503L88.1387 153.529L88.9951 156.584L90.8974 154.046L94.0657 154.175L92.2408 151.58L93.3424 148.604L90.3123 149.539ZM65.4314 135.521L64.0533 138.379L60.9196 138.863L63.21 141.057L62.7018 144.19L65.4952 142.688L68.3148 144.14L67.7509 141.018L70.0019 138.782L66.8601 138.354L65.4314 135.521ZM141.929 141.026L144.814 142.343L144.104 139.251L146.248 136.912L143.09 136.632L141.53 133.87L140.288 136.789L137.18 137.42L139.571 139.504L139.21 142.657L141.929 141.026ZM157.992 114.412L155.415 112.563L155.516 115.735L152.963 117.616L156.008 118.5L157.008 121.512L158.789 118.886L161.96 118.866L160.015 116.36L160.976 113.336L157.992 114.412Z" fill="white"></path></mask><g mask="url(#mask0_417_4850)"><path d="M24.9235 173.569C23.3001 172.274 25.5776 175.403 24.9235 173.569V173.569Z" fill="#1476FF"></path><path d="M-0.231934 128.859C0.333882 130.887 0.906629 132.938 1.44581 134.871C1.99995 136.795 2.49171 138.611 3.06446 140.092C2.59532 138.308 2.21738 136.477 1.80588 134.648C1.24882 132.48 0.488195 130.693 -0.231934 128.859Z" fill="#1476FF"></path><path d="M10.8193 162.292C10.7306 162.069 10.6391 161.84 10.5508 161.618C10.6664 161.93 10.7766 162.226 10.8908 162.534C10.8671 162.454 10.843 162.372 10.8193 162.292Z" fill="#1476FF"></path><path d="M-0.310157 130.016C-0.745007 128.864 -1.16964 127.739 -1.60449 126.585C-1.25938 128.004 -0.946381 129.443 -0.554578 130.861C-0.00299013 132.832 0.538383 134.682 1.08413 136.478C1.36102 137.373 1.63463 138.257 1.90714 139.139C2.19534 140.013 2.49995 140.876 2.80201 141.744C2.08298 139.12 1.50111 136.419 0.898083 133.703C0.550422 132.364 0.132718 131.167 -0.310157 130.016Z" fill="#1476FF"></path><path d="M3.27491 140.648C3.20852 140.472 3.13446 140.276 3.06405 140.089C3.67948 142.483 4.3095 144.855 4.94792 147.213C5.25727 148.397 5.60384 149.561 5.95588 150.721C6.30573 151.881 6.65485 153.04 7.00397 154.198L5.37401 149.39L3.79549 144.554C3.4595 143.603 3.13045 142.672 2.80176 141.743C3.3238 143.691 3.84401 145.633 4.36313 147.571L4.75968 149.019L5.18869 150.45L6.05 153.306L7.59678 157.933C8.11955 159.471 8.68755 160.987 9.23403 162.512L10.9038 167.068C11.4645 168.584 12.0927 170.064 12.6971 171.555C12.97 172.234 13.2319 172.911 13.4859 173.588C9.90053 162.019 6.7891 150.292 3.27491 140.648Z" fill="#1476FF"></path><path d="M7.64583 124.852C7.05302 123.005 6.42227 121.221 5.73242 119.684C6.19937 121.717 6.91768 123.295 7.64583 124.852Z" fill="#1476FF"></path><path d="M1.17196 44.207C1.15245 44.2387 1.1289 44.2538 1.10645 44.2766C1.14473 44.3068 1.18264 44.3366 1.22165 44.3756C1.20546 44.3204 1.18853 44.2633 1.17196 44.207Z" fill="#1476FF"></path><path d="M1.14338 45.9055C0.991253 45.3897 0.839129 44.8742 0.686639 44.3576C0.427991 44.3011 0.152197 44.1873 -0.0126953 44.4481C0.378742 45.173 0.701231 45.5743 1.14338 45.9055Z" fill="#1476FF"></path><path d="M33.2698 173.789C33.3274 173.765 33.3635 173.779 33.3387 174.089C33.3143 173.983 33.2924 173.887 33.2698 173.789C33.2154 173.807 33.1413 173.858 33.0775 173.736C33.4131 174.747 33.7819 175.938 34.072 177.124C34.2055 177.239 34.3386 177.347 34.4692 177.442C33.7663 174.501 33.1308 171.528 32.0918 169.321C32.4774 171.031 32.8882 172.145 33.2698 173.789Z" fill="#1476FF"></path><path d="M35.0825 177.435C35.1062 177.538 35.1285 177.634 35.1522 177.735C35.177 177.428 35.1409 177.413 35.0825 177.435Z" fill="#1476FF"></path><path d="M36.4556 175.682C36.4756 175.793 36.4946 175.897 36.5143 176.007C36.5501 175.681 36.5147 175.662 36.4556 175.682Z" fill="#1476FF"></path><path d="M11.9482 9.53662C11.9186 9.55304 11.8916 9.57639 11.8628 9.59645C11.977 9.80585 12.0795 9.99372 12.1762 10.1707C12.0587 9.84488 11.9482 9.53662 11.9482 9.53662Z" fill="#1476FF"></path><path d="M13.414 9.99023C13.3975 10.0267 13.3749 10.0431 13.3545 10.0694C13.3975 10.1066 13.4406 10.1427 13.4858 10.1901C13.4621 10.1241 13.438 10.0566 13.414 9.99023Z" fill="#1476FF"></path><path d="M11.8621 9.60078C11.548 9.83294 11.312 10.2797 10.8647 10.1418C10.7392 9.79169 10.4882 9.0923 10.3616 8.73968C10.0552 8.49037 10.0001 8.94118 9.81881 9.04193C9.69332 8.69187 9.56783 8.34217 9.47735 8.39255C9.15669 8.29581 9.13699 8.76268 9.32341 9.47193C10.8775 10.4122 12.6216 14.0629 11.8621 9.60078Z" fill="#1476FF"></path><path d="M12.9281 10.1518C12.6516 10.0748 12.3503 9.92928 12.2095 10.231C12.7052 11.1021 13.0898 11.5895 13.5917 11.9988L12.9281 10.1518Z" fill="#1476FF"></path><path d="M11.8369 37.7617C11.8091 37.7821 11.7854 37.8088 11.7588 37.8332C11.9135 38.0273 12.0521 38.2017 12.1827 38.3658C12.005 38.0554 11.8369 37.7617 11.8369 37.7617Z" fill="#1476FF"></path><path d="M13.4311 38.0181C13.4205 38.0567 13.4001 38.0764 13.3833 38.1053C13.4344 38.1366 13.4851 38.1669 13.5402 38.2089C13.5044 38.1461 13.4676 38.0815 13.4311 38.0181Z" fill="#1476FF"></path><path d="M11.7564 37.8317C11.4719 38.1059 11.3051 38.5844 10.8189 38.5059C10.6284 38.1727 10.2472 37.5069 10.0553 37.171C9.69525 36.9626 9.71677 37.4207 9.54677 37.5459C9.35635 37.2127 9.16555 36.8797 9.08128 36.9422C8.73253 36.8885 8.79418 37.3579 9.10937 38.042C10.8791 38.7739 13.3167 42.1931 11.7564 37.8317Z" fill="#1476FF"></path><path d="M12.9568 38.246C12.6573 38.2055 12.3206 38.1004 12.2275 38.4211C12.8915 39.2266 13.3741 39.6625 13.964 40.0055L12.9568 38.246Z" fill="#1476FF"></path><path d="M15.6043 67.2368C15.5747 67.2536 15.5477 67.2759 15.5186 67.2959C15.6247 67.4743 15.7199 67.6341 15.8093 67.7848C15.7042 67.5035 15.6043 67.2368 15.6043 67.2368Z" fill="#1476FF"></path><path d="M15.5157 67.2937C15.2009 67.5222 14.9565 67.9362 14.5216 67.8446C14.4081 67.5416 14.182 66.9367 14.0678 66.6316C13.7741 66.4304 13.7074 66.8356 13.5264 66.9378C13.413 66.6348 13.2999 66.3322 13.2098 66.383C12.8986 66.3187 12.8647 66.7356 13.0281 67.3543C14.5274 68.0862 16.1333 71.2108 15.5157 67.2937Z" fill="#1476FF"></path><path d="M16.5473 67.7132C16.2781 67.664 15.987 67.556 15.8403 67.8343C16.3014 68.5745 16.6648 68.9809 17.1449 69.3092L16.5473 67.7132Z" fill="#1476FF"></path><path d="M23.8903 29.0746C23.8731 28.9998 23.8567 28.9294 23.8396 28.855C23.7972 29.0881 23.8319 29.0965 23.8903 29.0746Z" fill="#1476FF"></path><path d="M53.9158 171.361C53.9108 171.352 53.9044 171.345 53.9006 171.335C53.8271 171.41 53.8578 171.395 53.9158 171.361Z" fill="#1476FF"></path><path d="M40.3054 3.70508C40.2752 3.71894 40.2471 3.74046 40.2168 3.75834C40.3109 3.99437 40.3981 4.20413 40.4827 4.4004C40.3915 4.04325 40.3054 3.70508 40.3054 3.70508Z" fill="#1476FF"></path><path d="M41.7141 4.34668C41.6951 4.38316 41.6718 4.39812 41.6499 4.42329C41.6897 4.46743 41.7291 4.51011 41.7699 4.56556C41.7513 4.4937 41.7327 4.41964 41.7141 4.34668Z" fill="#1476FF"></path><path d="M41.7403 6.48091C41.5684 5.80639 41.397 5.13222 41.2248 4.4566C40.9581 4.34388 40.6721 4.15564 40.5112 4.45806C40.9348 5.43465 41.277 5.99244 41.7403 6.48091Z" fill="#1476FF"></path><path d="M26.1524 18.6865C26.1228 18.7029 26.0962 18.727 26.0674 18.7474C26.1918 18.9827 26.3034 19.194 26.4085 19.3928C26.2768 19.0302 26.1524 18.6865 26.1524 18.6865Z" fill="#1476FF"></path><path d="M27.6064 19.3409C27.6517 19.3835 27.6969 19.4251 27.7447 19.4799C27.7181 19.4069 27.6911 19.3317 27.6641 19.2573C27.6488 19.2964 27.6265 19.3131 27.6064 19.3409Z" fill="#1476FF"></path><path d="M26.0645 18.754C25.7522 18.9912 25.5278 19.468 25.066 19.2924C24.9244 18.9018 24.6421 18.1221 24.4998 17.7286C24.1773 17.438 24.1379 17.9286 23.9566 18.029C23.8151 17.6384 23.6739 17.2482 23.5834 17.2979C23.2533 17.1738 23.2485 17.6833 23.4667 18.4722C25.0908 19.5935 27.0053 23.6804 26.0645 18.754Z" fill="#1476FF"></path><path d="M27.1737 19.4098C26.8888 19.311 26.5758 19.1362 26.4434 19.4587C26.9814 20.4386 27.3919 20.9916 27.9186 21.4648L27.1737 19.4098Z" fill="#1476FF"></path><path d="M25.1424 22.6339C24.8458 22.8996 24.6769 23.4563 24.1625 23.2212C23.9567 22.7478 23.546 21.8016 23.3388 21.3249C22.9557 20.961 22.9845 21.5443 22.8069 21.6542C22.6011 21.1807 22.3954 20.7073 22.3071 20.762C21.939 20.5963 22.0087 21.2041 22.352 22.1564C24.2314 23.5797 26.8464 28.5645 25.1424 22.6339Z" fill="#1476FF"></path><path d="M88.9771 119.324C89.0672 119.768 89.1533 120.19 89.2419 120.628C89.2248 120.516 89.2072 120.401 89.1901 120.288C89.1197 119.969 89.0471 119.641 88.9771 119.324Z" fill="#1476FF"></path><path d="M52.1212 -3.10176C51.8279 -2.8331 51.6626 -2.28702 51.1493 -2.49618C50.9418 -2.94772 50.527 -3.85006 50.3179 -4.30489C49.9345 -4.64363 49.9666 -4.07893 49.7908 -3.96541C49.5832 -4.41695 49.3756 -4.86812 49.2881 -4.81154C48.92 -4.95829 48.9944 -4.37132 49.341 -3.46131C51.219 -2.15269 53.8533 2.58792 52.1212 -3.10176Z" fill="#1476FF"></path><path d="M53.3906 -2.32128C53.0751 -2.43992 52.7186 -2.64652 52.6274 -2.27639C53.3425 -1.13787 53.8587 -0.493594 54.4861 0.0619774C54.121 -0.732322 53.7562 -1.52626 53.3906 -2.32128Z" fill="#1476FF"></path><path d="M57.0728 35.0342C57.0429 35.0495 57.0155 35.0728 56.9863 35.0922C57.1009 35.3348 57.2034 35.5526 57.3001 35.7572C57.1833 35.3859 57.0728 35.0342 57.0728 35.0342Z" fill="#1476FF"></path><path d="M58.0599 35.7998C57.7809 35.6885 57.4774 35.4992 57.334 35.8198C57.8309 36.8311 58.2168 37.406 58.7213 37.9055C58.501 37.2039 58.2807 36.5024 58.0599 35.7998Z" fill="#1476FF"></path><path d="M97.5602 146.594L98.0745 147.733C97.9647 147.323 97.7455 146.507 97.6349 146.095C97.512 145.873 97.3905 145.653 97.2676 145.43C97.3643 145.816 97.4624 146.206 97.5602 146.594Z" fill="#1476FF"></path><path d="M100.116 148.737C100.133 148.803 100.148 148.866 100.165 148.933C100.209 148.719 100.175 148.714 100.116 148.737Z" fill="#1476FF"></path><path d="M74.2683 -3.1348C74.2132 -3.10268 74.1753 -3.10743 74.1647 -3.37718C74.2012 -3.29213 74.2344 -3.21438 74.2683 -3.1348C74.3208 -3.16181 74.3894 -3.22058 74.4675 -3.12896C74.0155 -3.92399 73.5102 -4.86576 73.0841 -5.81921C72.9375 -5.88857 72.7916 -5.95318 72.6504 -6.00684C73.6846 -3.63708 74.6751 -1.24177 75.9482 0.448305C75.3886 -0.947559 74.8327 -1.80647 74.2683 -3.1348Z" fill="#1476FF"></path><path d="M73.1554 13.2458C72.4633 11.8205 74.7901 14.0695 73.1554 13.2458V13.2458Z" fill="#1476FF"></path><path d="M99.4848 172.242C99.4794 172.229 99.4726 172.219 99.4683 172.206C99.3938 172.286 99.4255 172.273 99.4848 172.242Z" fill="#1476FF"></path><path d="M76.5287 2.57931C76.3974 2.2167 76.273 1.87305 76.273 1.87305C76.2434 1.88946 76.2168 1.91354 76.188 1.93397C76.312 2.16963 76.4236 2.38086 76.5287 2.57931Z" fill="#1476FF"></path><path d="M77.7261 2.53276C77.7713 2.57544 77.8165 2.61739 77.8643 2.67175C77.8377 2.59879 77.8107 2.52364 77.7837 2.44922C77.7684 2.48825 77.7458 2.50503 77.7261 2.53276Z" fill="#1476FF"></path><path d="M78.0394 4.65112L77.2948 2.5958C77.0095 2.49694 76.6969 2.32219 76.5645 2.64505C77.1022 3.62492 77.5126 4.17797 78.0394 4.65112Z" fill="#1476FF"></path><path d="M130.747 161.357C130.774 161.49 130.8 161.615 130.828 161.747C130.843 161.361 130.805 161.337 130.747 161.357Z" fill="#1476FF"></path><path d="M137.416 167.112C137.582 167.561 137.739 167.989 137.902 168.431C137.866 168.318 137.829 168.201 137.793 168.086C137.668 167.764 137.54 167.433 137.416 167.112Z" fill="#1476FF"></path><path d="M132.077 159.243C132.101 159.387 132.124 159.522 132.148 159.665C132.173 159.252 132.136 159.225 132.077 159.243Z" fill="#1476FF"></path><path d="M141.412 109.707C141.27 109.028 141.129 108.351 140.989 107.68C141.057 108.16 141.125 108.633 141.193 109.108C141.306 109.65 141.417 110.182 141.528 110.714C141.489 110.377 141.45 110.04 141.412 109.707Z" fill="#1476FF"></path><path d="M147.68 129.786L148.194 130.925C148.084 130.515 147.865 129.699 147.754 129.287C147.631 129.064 147.51 128.844 147.387 128.622C147.484 129.007 147.582 129.397 147.68 129.786Z" fill="#1476FF"></path><path d="M163.242 182.355C163.224 182.208 163.208 182.074 163.192 181.936C163.137 181.949 163.061 181.998 163.005 181.819C163.275 183.254 163.568 184.94 163.783 186.599C163.908 186.785 164.034 186.963 164.157 187.121C163.634 183.011 163.203 178.866 162.286 175.67C162.587 178.047 162.909 179.644 163.192 181.936C163.25 181.918 163.285 181.946 163.242 182.355Z" fill="#1476FF"></path><path d="M150.236 131.917C150.253 131.984 150.268 132.047 150.285 132.113C150.328 131.899 150.294 131.894 150.236 131.917Z" fill="#1476FF"></path><path d="M158.529 176.466C158.538 176.561 158.547 176.65 158.556 176.743C158.621 176.468 158.588 176.451 158.529 176.466Z" fill="#1476FF"></path><path d="M147.748 125.549C148.682 128.436 149.555 131.44 150.378 133.607C150.101 132.28 149.761 130.975 149.465 129.642C149.022 128.081 148.381 126.823 147.748 125.549Z" fill="#1476FF"></path><path d="M147.915 127.067C147.463 126.017 146.943 125.067 146.426 124.075C146.741 125.068 147.059 126.067 147.347 127.089C147.787 128.493 148.225 129.811 148.669 131.091C148.894 131.729 149.116 132.36 149.337 132.989C149.553 133.621 149.767 134.251 149.983 134.885C149.762 133.872 149.524 132.862 149.284 131.85C149.403 131.907 149.522 131.961 149.639 132.007C149.142 130.091 148.708 128.145 147.842 126.781C147.866 126.88 147.891 126.973 147.915 127.067Z" fill="#1476FF"></path><path d="M176.286 174.786C176.317 174.784 176.349 174.774 176.381 174.768C176.386 174.495 176.39 174.25 176.394 174.019C176.339 174.413 176.286 174.786 176.286 174.786Z" fill="#1476FF"></path><path d="M175.413 173.547C175.396 173.488 175.378 173.43 175.364 173.36C175.353 173.438 175.342 173.519 175.331 173.599C175.36 173.57 175.385 173.564 175.413 173.547Z" fill="#1476FF"></path><path d="M176.384 174.772C176.739 174.692 177.13 174.346 177.42 174.717C177.36 175.146 177.238 176.002 177.177 176.434C177.305 176.854 177.554 176.416 177.743 176.406C177.682 176.837 177.621 177.268 177.715 177.264C177.919 177.53 178.154 177.067 178.33 176.22C177.539 174.393 177.815 169.775 176.384 174.772Z" fill="#1476FF"></path><path d="M176.394 173.95C176.393 172.806 176.326 172.115 176.089 171.459C176.009 172.196 175.888 172.937 175.788 173.678C175.973 173.892 176.146 174.191 176.394 173.95Z" fill="#1476FF"></path><path d="M182.589 176.888C182.62 176.876 182.649 176.858 182.68 176.843C182.612 176.666 182.548 176.508 182.486 176.361C182.539 176.632 182.589 176.888 182.589 176.888Z" fill="#1476FF"></path><path d="M181.29 176.467C181.312 176.437 181.336 176.424 181.36 176.403C181.326 176.371 181.291 176.34 181.257 176.299C181.268 176.355 181.279 176.411 181.29 176.467Z" fill="#1476FF"></path><path d="M182.681 176.838C183.017 176.659 183.318 176.301 183.714 176.431C183.771 176.722 183.885 177.304 183.942 177.598C184.187 177.813 184.317 177.446 184.506 177.37C184.562 177.662 184.619 177.953 184.713 177.915C184.997 178.007 185.099 177.625 185.047 177.037C183.749 176.206 182.749 173.158 182.681 176.838Z" fill="#1476FF"></path><path d="M181.475 174.815C181.575 175.327 181.675 175.837 181.775 176.349C182.021 176.422 182.279 176.551 182.464 176.309C182.151 175.579 181.875 175.167 181.475 174.815Z" fill="#1476FF"></path><path d="M172.849 166.85C172.874 166.833 172.898 166.823 172.924 166.81C172.896 166.801 172.867 166.792 172.84 166.778C172.843 166.802 172.846 166.826 172.849 166.85Z" fill="#1476FF"></path><path d="M156.694 169.777C156.706 169.811 156.716 169.843 156.716 169.843C156.747 169.827 156.776 169.81 156.807 169.794C156.769 169.787 156.732 169.781 156.694 169.777Z" fill="#1476FF"></path><path d="M156.682 169.773C156.496 169.756 156.3 169.789 155.982 169.888C156.004 169.951 156.025 170.015 156.046 170.078C156.261 169.986 156.48 169.903 156.682 169.773Z" fill="#1476FF"></path><path d="M149.605 155.424C149.6 155.411 149.593 155.401 149.588 155.388C149.513 155.468 149.545 155.455 149.605 155.424Z" fill="#1476FF"></path><path d="M148.465 172.962C148.496 172.951 148.527 172.939 148.559 172.928C148.522 172.893 148.486 172.863 148.449 172.835C148.457 172.9 148.465 172.962 148.465 172.962Z" fill="#1476FF"></path><path d="M147.299 173.127C147.324 173.114 147.349 173.105 147.375 173.094C147.348 173.092 147.32 173.091 147.294 173.087C147.296 173.101 147.297 173.114 147.299 173.127Z" fill="#1476FF"></path><path d="M148.56 172.918C148.906 172.792 149.247 172.623 149.602 172.571C149.611 172.64 149.627 172.779 149.636 172.849C149.834 172.855 150.015 172.722 150.206 172.659C150.214 172.728 150.223 172.798 150.317 172.766C150.572 172.728 150.728 172.597 150.77 172.443C149.67 172.5 149.197 171.863 148.56 172.918Z" fill="#1476FF"></path><path d="M171.584 168.111C171.619 168.249 171.654 168.378 171.688 168.516C171.681 168.113 171.642 168.089 171.584 168.111Z" fill="#1476FF"></path><path d="M180.868 144.54C180.895 144.673 180.921 144.798 180.948 144.93C180.964 144.544 180.926 144.52 180.868 144.54Z" fill="#1476FF"></path><path d="M182.197 142.426C182.221 142.57 182.243 142.705 182.268 142.848C182.292 142.435 182.256 142.408 182.197 142.426Z" fill="#1476FF"></path><path d="M189.217 85.6987C189.307 86.1427 189.393 86.5648 189.482 87.0026C189.465 86.8906 189.447 86.7764 189.43 86.6629C189.36 86.3444 189.287 86.0161 189.217 85.6987Z" fill="#1476FF"></path><path d="M200.28 69.39L200.741 70.4534C200.649 70.0707 200.466 69.3079 200.373 68.923C200.261 68.7151 200.15 68.5097 200.038 68.3018C200.118 68.6626 200.199 69.027 200.28 69.39Z" fill="#1476FF"></path><path d="M157.314 1.40332C157.285 1.41864 157.257 1.44199 157.228 1.46132C157.343 1.70392 157.445 1.92171 157.542 2.12637C157.425 1.75499 157.314 1.40332 157.314 1.40332Z" fill="#1476FF"></path><path d="M157.225 1.46108C156.907 1.68813 156.666 2.16048 156.215 1.96446C156.089 1.56475 155.839 0.766072 155.712 0.363447C155.404 0.0575539 155.346 0.55107 155.162 0.645247C155.037 0.245543 154.911 -0.154161 154.82 -0.107437C154.497 -0.245783 154.474 0.26854 154.66 1.07306C156.228 2.26852 157.973 6.47218 157.225 1.46108Z" fill="#1476FF"></path><path d="M158.301 2.17527C158.022 2.06401 157.718 1.87467 157.575 2.19534C158.072 3.20658 158.458 3.78152 158.962 4.28094C158.742 3.57941 158.521 2.87789 158.301 2.17527Z" fill="#1476FF"></path><path d="M197.8 112.969L198.314 114.108C198.204 113.698 197.985 112.882 197.875 112.47C197.752 112.248 197.63 112.028 197.507 111.805C197.604 112.19 197.702 112.58 197.8 112.969Z" fill="#1476FF"></path><path d="M200.356 115.1C200.373 115.167 200.388 115.23 200.405 115.296C200.448 115.082 200.414 115.077 200.356 115.1Z" fill="#1476FF"></path><path d="M197.869 108.735C198.803 111.622 199.676 114.626 200.499 116.793C200.222 115.466 199.883 114.161 199.586 112.828C199.143 111.267 198.502 110.009 197.869 108.735Z" fill="#1476FF"></path><path d="M203.175 68.4065C203.193 68.3752 203.216 68.3591 203.238 68.3355C203.198 68.3112 203.158 68.2876 203.117 68.2549L203.175 68.4065Z" fill="#1476FF"></path><path d="M192.955 6.60293C191.706 3.8572 190.555 0.973119 189.439 -1.02979C189.909 0.213862 190.355 1.47613 190.798 2.74861C191.404 4.23573 192.19 5.40418 192.955 6.60293Z" fill="#1476FF"></path><path d="M192.955 6.60205C193.65 8.16108 194.381 9.66098 195.158 10.9375C194.577 9.19301 193.769 7.88439 192.955 6.60205Z" fill="#1476FF"></path><path d="M189.676 -2.31641C190.392 -0.492 191.056 1.37256 191.714 3.25829C192.469 5.09438 193.478 6.45264 194.4 7.97371C194.008 7.00639 193.623 6.02921 193.214 5.05605C192.023 2.37565 190.91 0.0285287 189.676 -2.31641Z" fill="#1476FF"></path><path d="M97.6289 142.366C98.5603 145.254 99.4343 148.258 100.258 150.426C99.9808 149.098 99.6419 147.795 99.3442 146.461C98.9006 144.898 98.2615 143.64 97.6289 142.366Z" fill="#1476FF"></path><path d="M99.5202 148.82C99.023 146.906 98.5874 144.961 97.7217 143.595C97.7476 143.693 97.7699 143.788 97.7954 143.879C97.3427 142.831 96.8225 141.881 96.3052 140.889C96.6218 141.882 96.9385 142.882 97.2281 143.903C97.6688 145.307 98.1051 146.626 98.5506 147.905C98.7753 148.542 98.996 149.173 99.2171 149.804C99.4312 150.433 99.6486 151.065 99.8628 151.698C99.6428 150.686 99.4053 149.674 99.1645 148.663C99.2835 148.723 99.402 148.775 99.5202 148.82Z" fill="#1476FF"></path><path d="M18.3066 145.564L18.2945 145.449C18.0618 144.506 17.8287 143.545 17.5919 142.575C17.1596 141.283 16.7609 139.91 16.3516 138.513C16.9801 141.092 17.5707 143.66 18.3066 145.564Z" fill="#1476FF"></path><path d="M70.9514 14.3764C70.8576 14.1349 70.7708 13.9058 70.6807 13.6636L70.7358 13.8551C70.804 14.0298 70.8795 14.206 70.9514 14.3764Z" fill="#1476FF"></path><path d="M147.752 153.078C147.726 152.987 147.7 152.889 147.675 152.798C147.584 152.535 147.49 152.266 147.399 152.007C147.519 152.37 147.632 152.718 147.752 153.078Z" fill="#1476FF"></path><path d="M184.347 -1.06126C183.958 -2.03113 183.541 -2.9875 183.104 -3.91504C183.917 -1.95594 184.734 0.0163045 185.605 1.54978C185.515 1.30047 185.517 0.998958 185.427 0.749644C185.068 0.344464 184.618 -0.306744 184.347 -1.06126Z" fill="#1476FF"></path><path d="M209.43 89.0491C208.635 86.9195 207.79 84.8709 206.87 82.9673C206.502 82.2212 205.811 81.1758 205.532 80.3815C204.155 76.6516 202.527 73.2875 200.941 69.9209C201.652 71.5573 202.374 73.212 203.11 74.9017L203.171 75.0433C203.92 76.7228 204.604 78.4103 205.295 80.0723C205.982 81.735 206.676 83.3685 207.307 85.0232C207.949 86.6687 208.587 88.3011 209.222 89.924C209.823 91.5688 210.423 93.2063 211.019 94.8347L211.521 95.7126C210.87 93.4465 210.195 91.1958 209.43 89.0491Z" fill="#1476FF"></path><path d="M18.5192 170.396C18.6491 170.729 18.7786 171.056 18.9084 171.385C18.8566 171.169 18.8048 170.956 18.753 170.743C18.5907 170.324 18.4353 169.903 18.2729 169.49C18.3539 169.794 18.4349 170.097 18.5192 170.396Z" fill="#1476FF"></path><path d="M199.761 115.195C199.264 113.281 198.828 111.336 197.962 109.97C197.988 110.068 198.011 110.163 198.036 110.258C197.583 109.206 197.063 108.256 196.546 107.264C196.863 108.257 197.18 109.257 197.469 110.278C197.91 111.682 198.346 113.001 198.791 114.28C199.016 114.917 199.237 115.548 199.458 116.179C199.672 116.812 199.889 117.44 200.103 118.073C199.884 117.061 199.646 116.052 199.405 115.038C199.524 115.098 199.643 115.15 199.761 115.195Z" fill="#1476FF"></path><path d="M51.8262 168.879C51.9342 169.155 52.0389 169.418 52.1436 169.692C52.1217 169.621 52.0998 169.546 52.0779 169.475C51.9951 169.279 51.909 169.074 51.8262 168.879Z" fill="#1476FF"></path><path d="M55.5839 156.575C55.558 156.471 55.5288 156.363 55.5029 156.258C55.4048 155.963 55.303 155.658 55.2085 155.364C55.3358 155.775 55.4562 156.169 55.5839 156.575Z" fill="#1476FF"></path><path d="M47.0112 136.111C46.8886 135.589 46.7664 135.067 46.6475 134.551C46.7018 134.923 46.7558 135.291 46.8102 135.659C46.9101 136.075 47.0064 136.482 47.1027 136.892C47.0714 136.63 47.0429 136.37 47.0112 136.111Z" fill="#1476FF"></path><path d="M191.645 93.9024C191.609 93.5647 191.569 93.2274 191.529 92.8938C191.391 92.2127 191.248 91.5355 191.106 90.8657C191.176 91.3446 191.243 91.821 191.312 92.293C191.424 92.835 191.537 93.3702 191.645 93.9024Z" fill="#1476FF"></path><path d="M139.364 103.815C139.345 103.702 139.329 103.588 139.31 103.475C139.24 103.155 139.169 102.829 139.098 102.51C139.188 102.956 139.274 103.376 139.364 103.815Z" fill="#1476FF"></path><path d="M91.4055 127.531C91.369 127.193 91.3293 126.856 91.2895 126.526C91.1472 125.846 91.0086 125.168 90.8667 124.498C90.9364 124.976 91.0028 125.45 91.0724 125.925C91.1844 126.467 91.2968 126.998 91.4055 127.531Z" fill="#1476FF"></path><path d="M97.2814 168.82C97.3985 169.187 97.5134 169.532 97.6291 169.893L97.5572 169.61C97.4638 169.351 97.3712 169.081 97.2814 168.82ZM14.4705 131.82C14.5292 132.119 14.4964 132.458 14.5599 132.761C14.8703 133.286 15.2442 134.114 15.428 135.025C15.7107 136.204 16.0222 137.375 16.3531 138.516C15.757 136.132 15.1632 133.73 14.4705 131.82ZM181.184 -0.821922L180.734 -1.47021C180.824 -1.22199 181.002 -0.724094 181.089 -0.474781L181.416 -0.110485C181.339 -0.345927 181.261 -0.586479 181.184 -0.821922ZM123.276 -3.56802C122.584 -4.99382 124.911 -2.74416 123.276 -3.56802V-3.56802ZM97.6291 169.893L97.5572 169.61C97.4642 169.351 97.3715 169.081 97.2814 168.82C97.3985 169.187 97.5134 169.532 97.6291 169.893ZM14.5599 132.761C14.8703 133.286 15.2442 134.114 15.428 135.025C15.7107 136.204 16.0222 137.375 16.3531 138.516C15.757 136.132 15.1632 133.73 14.4705 131.82C14.5292 132.119 14.4964 132.458 14.5599 132.761ZM12.7324 165.067C12.8287 165.406 12.9217 165.745 13.0184 166.084C13.1647 166.459 13.308 166.835 13.4609 167.196C13.3967 166.957 13.3354 166.716 13.2694 166.484C13.0943 166.008 12.9126 165.535 12.7324 165.067Z" fill="#1476FF"></path><rect x="-0.000976562" y="-16.6753" width="203.224" height="211.835" fill="#1476FF"></rect><path d="M199.726 138.614C199.721 138.602 199.714 138.591 199.709 138.578C199.634 138.658 199.666 138.645 199.726 138.614Z" fill="#1476FF"></path><path d="M198.584 156.145C198.615 156.134 198.646 156.123 198.678 156.111C198.641 156.076 198.605 156.046 198.568 156.018C198.576 156.083 198.584 156.145 198.584 156.145Z" fill="#1476FF"></path><path d="M197.419 156.317C197.445 156.304 197.469 156.295 197.495 156.284C197.468 156.282 197.441 156.281 197.415 156.277C197.416 156.291 197.417 156.304 197.419 156.317Z" fill="#1476FF"></path><path d="M198.681 156.107C199.027 155.981 199.368 155.813 199.723 155.76C199.731 155.83 199.749 155.969 199.757 156.039C199.956 156.045 200.136 155.912 200.327 155.848C200.335 155.918 200.344 155.987 200.439 155.955C200.693 155.917 200.849 155.787 200.892 155.632C199.791 155.689 199.317 155.052 198.681 156.107Z" fill="#1476FF"></path></g></svg>