<svg xmlns="http://www.w3.org/2000/svg" width="255" height="48" viewBox="0 0 255 48" fill="none"><path d="M97.072 23.4648C97.072 25.4112 96.3739 26.9774 94.975 28.1615C93.6382 29.2653 91.9658 29.8171 89.9597 29.8171H74.1268V26.2345H89.9597C90.9538 26.2345 91.8138 26.0139 92.5434 25.5717C93.3737 25.0314 93.7902 24.2972 93.7902 23.3744C93.7902 22.4518 93.3647 21.7392 92.5137 21.2372C91.8039 20.8153 90.9538 20.605 89.9597 20.605H80.1748C78.3711 20.605 76.8621 20.1117 75.6463 19.129C74.3496 18.0661 73.7013 16.6605 73.7013 14.9142C73.7013 13.1886 74.3496 11.793 75.6463 10.7301C76.8621 9.74599 78.3711 9.25405 80.1748 9.25405H95.8251V12.8366H80.1748C79.4864 12.8366 78.8989 13.0277 78.4122 13.4079C77.9262 13.7902 77.683 14.3026 77.683 14.9435C77.683 15.6063 77.9262 16.1188 78.4122 16.4804C78.8989 16.8411 79.4864 17.0211 80.1748 17.0211H89.9597C91.9658 17.0211 93.6382 17.5934 94.975 18.7377C96.3739 19.9422 97.072 21.5188 97.072 23.4648Z" fill="white"></path><path d="M123.512 20.5748C123.512 23.8861 122.51 26.3052 120.501 27.8293C118.741 29.155 116.127 29.8175 112.661 29.8175H111.416C107.95 29.8175 105.337 29.155 103.574 27.8293C101.569 26.3052 100.567 23.8861 100.567 20.5748V9.25335H104.183V20.5748C104.183 23.0437 105.044 24.6802 106.766 25.4816C107.881 25.9839 109.845 26.2339 112.661 26.2339C115.012 26.2339 116.734 25.8833 117.828 25.1797C119.205 24.2976 119.896 22.763 119.896 20.5748V9.25335H123.512V20.5748Z" fill="white"></path><path d="M145.819 29.8175H127.889V9.25335H145.819V12.837H131.505V26.2349H145.819V29.8175ZM144.877 21.1763H133.024V17.5924H144.877V21.1763Z" fill="white"></path><path d="M172.044 23.4648C172.044 25.4112 171.345 26.9774 169.947 28.1615C168.611 29.2653 166.939 29.8171 164.934 29.8171H149.1V26.2345H164.934C165.925 26.2345 166.787 26.0139 167.516 25.5717C168.347 25.0314 168.762 24.2972 168.762 23.3744C168.762 22.4518 168.336 21.7392 167.486 21.2372C166.775 20.8153 165.925 20.605 164.934 20.605H155.147C153.344 20.605 151.836 20.1117 150.62 19.129C149.323 18.0661 148.675 16.6605 148.675 14.9142C148.675 13.1886 149.323 11.793 150.62 10.7301C151.836 9.74599 153.344 9.25405 155.147 9.25405H170.798V12.8366H155.147C154.459 12.8366 153.871 13.0277 153.384 13.4079C152.898 13.7902 152.656 14.3026 152.656 14.9435C152.656 15.6063 152.898 16.1188 153.384 16.4804C153.871 16.8411 154.459 17.0211 155.147 17.0211H164.934C166.939 17.0211 168.611 17.5934 169.947 18.7377C171.345 19.9422 172.044 21.5188 172.044 23.4648Z" fill="white"></path><path d="M197.391 23.4648C197.391 25.4112 196.692 26.9774 195.294 28.1615C193.957 29.2653 192.285 29.8171 190.279 29.8171H174.446V26.2345H190.279C191.272 26.2345 192.133 26.0139 192.862 25.5717C193.692 25.0314 194.108 24.2972 194.108 23.3744C194.108 22.4518 193.682 21.7392 192.832 21.2372C192.122 20.8153 191.272 20.605 190.279 20.605H180.493C178.691 20.605 177.181 20.1117 175.966 19.129C174.669 18.0661 174.021 16.6605 174.021 14.9142C174.021 13.1886 174.669 11.793 175.966 10.7301C177.181 9.74599 178.691 9.25405 180.493 9.25405H196.145V12.8366H180.493C179.804 12.8366 179.217 13.0277 178.73 13.4079C178.244 13.7902 178.002 14.3026 178.002 14.9435C178.002 15.6063 178.244 16.1188 178.73 16.4804C179.217 16.8411 179.804 17.0211 180.493 17.0211H190.279C192.285 17.0211 193.957 17.5934 195.294 18.7377C196.692 19.9422 197.391 21.5188 197.391 23.4648Z" fill="white"></path><path d="M222.219 29.8175H210.49C207.47 29.8175 204.974 28.825 203 26.8364C201.022 24.8497 200.035 22.3401 200.035 19.3104C200.035 16.2987 201.013 13.8709 202.967 12.0241C204.923 10.1773 207.43 9.25335 210.49 9.25335H222.219V12.8373H210.49C208.504 12.8373 206.867 13.4695 205.581 14.734C204.293 15.9969 203.652 17.6244 203.652 19.6111C203.652 21.5777 204.293 23.1735 205.581 24.3986C206.867 25.6233 208.504 26.2339 210.49 26.2339H222.219V29.8175Z" fill="white"></path><path d="M251.88 19.3107C251.88 22.3404 250.897 24.8487 248.933 26.8368C246.968 28.825 244.465 29.8177 241.426 29.8177H235.621C232.603 29.8177 230.105 28.825 228.131 26.8368C226.155 24.8487 225.167 22.3404 225.167 19.3107C225.167 16.298 226.144 13.8713 228.1 12.0244C230.054 10.1777 232.562 9.25368 235.621 9.25368H241.426C244.506 9.25368 247.019 10.1777 248.964 12.0244C250.908 13.8713 251.88 16.298 251.88 19.3107ZM248.294 19.6115C248.294 17.6233 247.651 15.9969 246.365 14.7339C245.078 13.4695 243.433 12.8376 241.426 12.8376H235.621C233.636 12.8376 232 13.4695 230.714 14.7339C229.426 15.9969 228.785 17.6233 228.785 19.6115C228.785 21.578 229.426 23.1739 230.714 24.3985C232 25.6232 233.636 26.2339 235.621 26.2339H241.426C243.433 26.2339 245.078 25.6232 246.365 24.3985C247.651 23.1739 248.294 21.578 248.294 19.6115Z" fill="white"></path><path d="M82.1087 39.5096C82.1087 40.17 81.8722 40.7002 81.3988 41.1002C80.9459 41.4751 80.3798 41.661 79.7005 41.661H74.3381V40.4464H79.7005C80.0361 40.4464 80.3285 40.3726 80.5755 40.2233C80.857 40.0398 80.9972 39.7926 80.9972 39.479C80.9972 39.1667 80.8532 38.9258 80.5649 38.7552C80.3246 38.6125 80.0361 38.5398 79.7005 38.5398H76.3864C75.7753 38.5398 75.2647 38.374 74.8528 38.0426C74.4143 37.6809 74.194 37.2054 74.194 36.6139C74.194 36.03 74.4143 35.5574 74.8528 35.1967C75.2647 34.8628 75.7753 34.6971 76.3864 34.6971H81.687V35.9104H76.3864C76.1534 35.9104 75.9542 35.9754 75.7893 36.1043C75.6249 36.2331 75.5423 36.406 75.5423 36.623C75.5423 36.8485 75.6249 37.0219 75.7893 37.144C75.9542 37.2652 76.1534 37.3275 76.3864 37.3275H79.7005C80.3798 37.3275 80.9459 37.5215 81.3988 37.909C81.8722 38.3155 82.1087 38.851 82.1087 39.5096Z" fill="white"></path><path d="M91.2993 41.6617H85.2274V34.6964H91.2993V35.9096H86.452V40.4467H91.2993V41.6617ZM90.9808 38.7339H86.9668V37.5218H90.9808V38.7339Z" fill="white"></path><path d="M101.736 41.0591C101.736 41.5078 101.582 41.7324 101.272 41.7324C101.046 41.7324 100.793 41.5931 100.511 41.3143L96.0033 36.828V41.662H94.7888V35.2984C94.7888 35.1354 94.8338 34.9951 94.922 34.8753C95.011 34.7566 95.1388 34.6968 95.3034 34.6968C95.5292 34.6968 95.7622 34.8165 96.0033 35.0535L100.511 39.5312V34.6968H101.736V41.0591Z" fill="white"></path><path d="M112.975 39.5096C112.975 40.17 112.737 40.7002 112.264 41.1002C111.812 41.4751 111.244 41.661 110.566 41.661H105.203V40.4464H110.566C110.902 40.4464 111.193 40.3726 111.441 40.2233C111.722 40.0398 111.863 39.7926 111.863 39.479C111.863 39.1667 111.717 38.9258 111.43 38.7552C111.19 38.6125 110.902 38.5398 110.566 38.5398H107.253C106.641 38.5398 106.13 38.374 105.719 38.0426C105.279 37.6809 105.06 37.2054 105.06 36.6139C105.06 36.03 105.279 35.5574 105.719 35.1967C106.13 34.8628 106.641 34.6971 107.253 34.6971H112.553V35.9104H107.253C107.018 35.9104 106.82 35.9754 106.655 36.1043C106.489 36.2331 106.408 36.406 106.408 36.623C106.408 36.8485 106.489 37.0219 106.655 37.144C106.82 37.2652 107.018 37.3275 107.253 37.3275H110.566C111.244 37.3275 111.812 37.5215 112.264 37.909C112.737 38.3155 112.975 38.851 112.975 39.5096Z" fill="white"></path><path d="M124.975 38.1021C124.975 39.1294 124.643 39.9795 123.977 40.6511C123.311 41.324 122.464 41.6617 121.435 41.6617H119.469C118.446 41.6617 117.601 41.324 116.932 40.6511C116.263 39.9795 115.928 39.1294 115.928 38.1021C115.928 37.0839 116.26 36.2605 116.923 35.6346C117.584 35.01 118.433 34.6964 119.469 34.6964H121.435C122.478 34.6964 123.329 35.01 123.989 35.6346C124.646 36.2605 124.975 37.0839 124.975 38.1021ZM123.76 38.2041C123.76 37.5326 123.544 36.9818 123.107 36.5536C122.671 36.124 122.115 35.91 121.435 35.91H119.469C118.797 35.91 118.243 36.124 117.807 36.5536C117.371 36.9818 117.153 37.5326 117.153 38.2041C117.153 38.8707 117.371 39.4111 117.807 39.8253C118.243 40.2406 118.797 40.4471 119.469 40.4471H121.435C122.115 40.4471 122.671 40.2406 123.107 39.8253C123.544 39.4111 123.76 38.8707 123.76 38.2041Z" fill="white"></path><path d="M136.286 41.6617H134.475L132.51 39.7028H129.864V38.5007H133.158C133.611 38.5007 133.991 38.4015 134.3 38.2037C134.652 37.9729 134.825 37.6443 134.825 37.2161C134.825 36.3455 134.269 35.9096 133.158 35.9096H129.144V41.6617H127.919V34.6964H132.962C133.868 34.6964 134.599 34.89 135.155 35.2788C135.792 35.7199 136.112 36.3698 136.112 37.2262C136.112 37.8114 135.927 38.3135 135.556 38.7339C135.212 39.1291 134.747 39.4044 134.156 39.5611L136.286 41.6617Z" fill="white"></path><path d="M147.001 39.5096C147.001 40.17 146.763 40.7002 146.29 41.1002C145.838 41.4751 145.271 41.661 144.592 41.661H139.231V40.4464H144.592C144.929 40.4464 145.219 40.3726 145.468 40.2233C145.748 40.0398 145.89 39.7926 145.89 39.479C145.89 39.1667 145.744 38.9258 145.457 38.7552C145.217 38.6125 144.929 38.5398 144.592 38.5398H141.278C140.667 38.5398 140.156 38.374 139.744 38.0426C139.306 37.6809 139.086 37.2054 139.086 36.6139C139.086 36.03 139.306 35.5574 139.744 35.1967C140.156 34.8628 140.667 34.6971 141.278 34.6971H146.579V35.9104H141.278C141.044 35.9104 140.846 35.9754 140.682 36.1043C140.517 36.2331 140.434 36.406 140.434 36.623C140.434 36.8485 140.517 37.0219 140.682 37.144C140.846 37.2652 141.044 37.3275 141.278 37.3275H144.592C145.271 37.3275 145.838 37.5215 146.29 37.909C146.763 38.3155 147.001 38.851 147.001 39.5096Z" fill="white"></path><path d="M35.0215 9.5886C33.9873 8.75835 32.8923 8.05199 31.7566 7.46335L15.251 23.812C14.7549 24.306 14.4684 24.864 14.3964 25.4888C14.3219 26.113 14.5197 26.6568 14.9889 27.1202C15.4735 27.6003 16.0223 27.7976 16.6367 27.7099C17.2526 27.6222 17.8103 27.3315 18.3089 26.8389L25.3866 19.8249C26.8376 18.3875 28.4635 17.6017 30.2669 17.4744C32.1579 17.3431 33.8133 17.9823 35.2351 19.3894C36.6568 20.7979 37.2954 22.4317 37.1492 24.2882C36.9872 26.0455 36.1801 27.6448 34.7302 29.0825L19.8583 43.8155C26.4651 44.7684 33.3952 42.3698 37.9033 36.8597C44.708 28.5405 43.4176 16.3286 35.0215 9.5886Z" fill="white"></path><path d="M15.698 42.7635L32.1097 26.506C32.8258 25.7931 33.2886 25.0175 33.4942 24.1761C33.6997 23.1863 33.4657 22.3603 32.791 21.6928C32.1174 21.0242 31.2884 20.8128 30.3063 21.0611C29.4864 21.2622 28.7165 21.7207 27.9989 22.4326L20.9206 29.4453C19.6144 30.7389 18.1659 31.4623 16.568 31.6228C14.8531 31.7833 13.3572 31.2319 12.0834 29.9671C10.8222 28.7194 10.2733 27.2447 10.4342 25.5487C10.5959 23.9644 11.3261 22.5281 12.6323 21.2355L28.0053 6.00604C20.7083 3.97197 12.5624 6.25424 7.48737 12.4575C0.682754 20.7753 1.9819 32.9763 10.3693 39.7296C12.7651 41.6585 15.698 42.7635 15.698 42.7635Z" fill="white"></path><path d="M58.4057 44.6998H57.7225V3.3018H58.4057V44.6998Z" fill="white"></path></svg>