<svg width="174" height="48" viewBox="0 0 174 48" fill="none" xmlns="http://www.w3.org/2000/svg">
<g clip-path="url(#clip0_2005_922)">
<g clip-path="url(#clip1_2005_922)">
<g clip-path="url(#clip2_2005_922)">
<path d="M17.1142 1.45661C12.3011 3.12452 8.15025 6.29027 5.27139 10.4889C2.39254 14.6874 0.937414 19.6976 1.11976 24.7832C1.3021 29.8691 3.1123 34.7623 6.28446 38.7445C9.45662 42.7265 13.8236 45.5877 18.7437 46.9072C22.7328 47.9355 26.912 47.9805 30.9223 47.0388C34.5553 46.2237 37.914 44.48 40.6696 41.9787C43.5378 39.2959 45.6195 35.8828 46.6911 32.1067C47.8556 28.0002 48.0629 23.6817 47.2971 19.4827H24.897V28.7646H37.8697C37.6104 30.2449 37.0547 31.658 36.2362 32.9187C35.4175 34.1797 34.3526 35.2626 33.1051 36.1029C31.5211 37.15 29.7354 37.8544 27.8627 38.1705C25.9845 38.5194 24.0579 38.5194 22.1799 38.1705C20.2762 37.7778 18.4752 36.9929 16.8922 35.8661C14.3487 34.0676 12.4388 31.5124 11.4352 28.5654C10.4149 25.563 10.4149 22.3083 11.4352 19.3061C12.1496 17.2016 13.3306 15.2856 14.89 13.7009C16.6746 11.8541 18.934 10.534 21.4202 9.8854C23.9063 9.23682 26.5234 9.28485 28.9841 10.0242C30.9065 10.6134 32.6645 11.6433 34.1175 13.0317C35.5803 11.5781 37.0404 10.1207 38.4981 8.65955C39.2508 7.87384 40.0713 7.12573 40.8127 6.32123C38.5942 4.25928 35.9904 2.65474 33.1503 1.59947C27.9782 -0.276484 22.3189 -0.326899 17.1142 1.45661Z" fill="#030C07"/>
<path d="M17.1148 1.45699C22.3192 -0.32775 27.9783 -0.278662 33.1508 1.59607C35.9914 2.65851 38.5942 4.27078 40.8094 6.34039C40.0567 7.1449 39.2627 7.89676 38.495 8.67871C37.0347 10.1348 35.5757 11.5859 34.118 13.0321C32.6649 11.6436 30.9071 10.6137 28.9847 10.0246C26.5248 9.28262 23.9078 9.23181 21.421 9.87773C18.9341 10.5236 16.6734 11.8413 14.8868 13.6862C13.3274 15.2709 12.1464 17.187 11.432 19.2913L3.63037 13.2576C6.42288 7.72594 11.2579 3.49464 17.1148 1.45699Z" fill="#E33629"/>
<path d="M1.56041 19.2352C1.97943 17.1592 2.67562 15.1487 3.6303 13.2578L11.4319 19.3066C10.4116 22.3088 10.4116 25.5636 11.4319 28.5659C8.83263 30.5709 6.23209 32.5859 3.6303 34.6109C1.24108 29.8603 0.51241 24.4475 1.56041 19.2352Z" fill="#F8BD00"/>
<path d="M24.8977 19.4795H47.2976C48.0636 23.6785 47.8563 27.997 46.6917 32.1036C45.62 35.8797 43.5383 39.2927 40.6702 41.9755C38.1525 40.0131 35.6235 38.0659 33.1058 36.1035C34.354 35.2624 35.4193 34.1782 36.238 32.9161C37.0568 31.6538 37.612 30.2393 37.8703 28.7576H24.8977C24.8939 25.6674 24.8977 22.5735 24.8977 19.4795Z" fill="#587DBD"/>
<path d="M3.62646 34.6106C6.22825 32.6054 8.8288 30.5904 11.4281 28.5654C12.4337 31.5135 14.3463 34.0687 16.8926 35.8662C18.4805 36.9877 20.2853 37.7663 22.1916 38.1518C24.0696 38.5007 25.9961 38.5007 27.8744 38.1518C29.7471 37.8356 31.533 37.1312 33.1168 36.0842C35.6346 38.0465 38.1637 39.9939 40.6814 41.9563C37.926 44.459 34.5673 46.2039 30.934 47.0201C26.9237 47.962 22.7445 47.9168 18.7554 46.8885C15.6006 46.0472 12.6537 44.5637 10.0996 42.5315C7.39642 40.3872 5.18842 37.6854 3.62646 34.6106Z" fill="#319F43"/>
<path fill-rule="evenodd" clip-rule="evenodd" d="M93.9631 28.9837C94.0616 28.6788 94.3451 28.4727 94.6644 28.4727C94.9836 28.4727 95.2661 28.6788 95.3648 28.9837L96.6011 32.8027C96.6376 32.9147 96.709 33.0126 96.8039 33.0823C96.8996 33.1518 97.0152 33.1896 97.1324 33.1896L101.138 33.1877C101.458 33.1877 101.74 33.3938 101.839 33.6987C101.937 34.0026 101.829 34.3358 101.571 34.524L98.3304 36.8836C98.2345 36.9531 98.1633 37.0511 98.1266 37.163C98.09 37.276 98.091 37.3974 98.1266 37.5093L99.3658 41.3275C99.4644 41.6324 99.3565 41.9656 99.0983 42.1538C98.8401 42.3421 98.49 42.3421 98.2318 42.1538L94.9929 39.7925C94.8972 39.723 94.7827 39.6852 94.6644 39.6852C94.5461 39.6852 94.4315 39.723 94.3358 39.7925L91.0959 42.1538C90.8377 42.3421 90.4885 42.3421 90.2303 42.1538C89.9712 41.9656 89.8633 41.6324 89.9628 41.3275L91.2011 37.5093C91.2377 37.3974 91.2377 37.276 91.2011 37.163C91.1654 37.0511 91.094 36.9531 90.9983 36.8836L87.7576 34.524C87.4994 34.3358 87.3905 34.0026 87.489 33.6987C87.5885 33.3938 87.8712 33.1877 88.1905 33.1877L92.1953 33.1896C92.3136 33.1896 92.4291 33.1518 92.5238 33.0823C92.6197 33.0126 92.6909 32.9147 92.7266 32.8027L93.9631 28.9837Z" fill="#FBBC05"/>
<path fill-rule="evenodd" clip-rule="evenodd" d="M111.695 28.9827C111.794 28.6778 112.077 28.4717 112.396 28.4717C112.715 28.4717 112.998 28.6778 113.097 28.9827L114.333 32.8019C114.37 32.9139 114.441 33.0117 114.536 33.0813C114.631 33.151 114.747 33.1886 114.864 33.1886L118.87 33.1867C119.189 33.1867 119.472 33.3928 119.571 33.6977C119.669 34.0018 119.561 34.335 119.303 34.5232L116.062 36.8826C115.967 36.9523 115.895 37.0501 115.859 37.1622C115.822 37.2752 115.823 37.3966 115.859 37.5085L117.098 41.3267C117.196 41.6316 117.088 41.9648 116.83 42.153C116.572 42.3412 116.222 42.3412 115.964 42.153L112.725 39.7917C112.629 39.722 112.515 39.6844 112.396 39.6844C112.278 39.6844 112.163 39.722 112.068 39.7917L108.828 42.153C108.57 42.3412 108.22 42.3412 107.962 42.153C107.703 41.9648 107.595 41.6316 107.695 41.3267L108.933 37.5085C108.97 37.3966 108.97 37.2752 108.933 37.1622C108.897 37.0501 108.826 36.9523 108.73 36.8826L105.49 34.5232C105.231 34.335 105.122 34.0018 105.221 33.6977C105.321 33.3928 105.603 33.1867 105.922 33.1867L109.927 33.1886C110.045 33.1886 110.161 33.151 110.256 33.0813C110.352 33.0117 110.423 32.9139 110.458 32.8019L111.695 28.9827Z" fill="#FBBC05"/>
<path fill-rule="evenodd" clip-rule="evenodd" d="M129.428 28.9827C129.527 28.6778 129.811 28.4717 130.13 28.4717C130.449 28.4717 130.731 28.6778 130.83 28.9827L132.066 32.8019C132.103 32.9139 132.174 33.0117 132.269 33.0813C132.365 33.151 132.48 33.1886 132.598 33.1886L136.604 33.1867C136.923 33.1867 137.205 33.3928 137.304 33.6977C137.403 34.0018 137.295 34.335 137.036 34.5232L133.796 36.8826C133.7 36.9523 133.629 37.0501 133.592 37.1622C133.555 37.2752 133.556 37.3966 133.592 37.5085L134.831 41.3267C134.93 41.6316 134.822 41.9648 134.564 42.153C134.305 42.3412 133.955 42.3412 133.697 42.153L130.458 39.7917C130.362 39.722 130.248 39.6844 130.13 39.6844C130.011 39.6844 129.897 39.722 129.801 39.7917L126.561 42.153C126.303 42.3412 125.954 42.3412 125.696 42.153C125.437 41.9648 125.329 41.6316 125.428 41.3267L126.666 37.5085C126.703 37.3966 126.703 37.2752 126.666 37.1622C126.631 37.0501 126.559 36.9523 126.464 36.8826L123.223 34.5232C122.965 34.335 122.856 34.0018 122.954 33.6977C123.054 33.3928 123.336 33.1867 123.656 33.1867L127.661 33.1886C127.779 33.1886 127.894 33.151 127.989 33.0813C128.085 33.0117 128.156 32.9139 128.192 32.8019L129.428 28.9827Z" fill="#FBBC05"/>
<path fill-rule="evenodd" clip-rule="evenodd" d="M147.161 28.9827C147.259 28.6778 147.543 28.4717 147.862 28.4717C148.181 28.4717 148.464 28.6778 148.562 28.9827L149.799 32.8019C149.835 32.9139 149.907 33.0117 150.002 33.0813C150.097 33.151 150.213 33.1886 150.33 33.1886L154.336 33.1867C154.655 33.1867 154.938 33.3928 155.036 33.6977C155.135 34.0018 155.027 34.335 154.769 34.5232L151.528 36.8826C151.432 36.9523 151.361 37.0501 151.324 37.1622C151.288 37.2752 151.289 37.3966 151.324 37.5085L152.564 41.3267C152.662 41.6316 152.554 41.9648 152.296 42.153C152.038 42.3412 151.688 42.3412 151.429 42.153L148.191 39.7917C148.095 39.722 147.98 39.6844 147.862 39.6844C147.744 39.6844 147.629 39.722 147.533 39.7917L144.294 42.153C144.036 42.3412 143.686 42.3412 143.428 42.153C143.169 41.9648 143.061 41.6316 143.16 41.3267L144.399 37.5085C144.435 37.3966 144.435 37.2752 144.399 37.1622C144.363 37.0501 144.292 36.9523 144.196 36.8826L140.955 34.5232C140.697 34.335 140.588 34.0018 140.687 33.6977C140.786 33.3928 141.069 33.1867 141.388 33.1867L145.393 33.1886C145.511 33.1886 145.627 33.151 145.722 33.0813C145.817 33.0117 145.889 32.9139 145.924 32.8019L147.161 28.9827Z" fill="#FBBC05"/>
<path d="M165.594 28.9717C165.696 28.9717 165.787 29.0374 165.819 29.1367L167.055 32.9561L167.056 32.957C167.126 33.1696 167.261 33.3538 167.438 33.4844L167.44 33.4854C167.621 33.6166 167.839 33.6885 168.063 33.6885L172.069 33.6865C172.17 33.6867 172.26 33.7523 172.292 33.8516H172.293C172.325 33.9508 172.289 34.0588 172.207 34.1191L168.966 36.4785C168.786 36.6095 168.651 36.7938 168.582 37.0068V37.0078C168.512 37.2227 168.514 37.4514 168.581 37.6602L168.582 37.6631L169.82 41.4805C169.852 41.5805 169.817 41.6886 169.734 41.749C169.651 41.8092 169.539 41.8091 169.457 41.749L166.217 39.3877V39.3867L166.076 39.2998C165.928 39.2243 165.763 39.1846 165.594 39.1846C165.426 39.1846 165.262 39.2252 165.114 39.3008L164.971 39.3877L161.732 41.749C161.649 41.8093 161.537 41.8093 161.455 41.749V41.748L161.401 41.6953C161.357 41.635 161.344 41.5557 161.369 41.4814V41.4805L162.606 37.6621C162.658 37.5024 162.672 37.3339 162.646 37.1699L162.607 37.0078C162.538 36.793 162.402 36.6087 162.223 36.4785L158.982 34.1191C158.898 34.0577 158.864 33.9496 158.895 33.8525C158.928 33.7518 159.02 33.6865 159.121 33.6865L163.125 33.6885C163.349 33.6885 163.568 33.6167 163.75 33.4834C163.928 33.3526 164.064 33.168 164.132 32.9531L165.369 29.1367C165.401 29.0378 165.492 28.9718 165.594 28.9717Z" stroke="#FBBC05"/>
<path d="M166 39V29.5L165.5 29L164 33.5H160L159 34L159.5 34.5L162.5 36.5V37.5L161.5 41L162 41.5L164.5 40L166 39Z" fill="#FBBC05"/>
<path d="M62.2649 9.834H66.0904V14.9767C65.5533 15.1542 64.9974 15.292 64.4229 15.3901C63.8482 15.4882 63.2037 15.5372 62.489 15.5372C61.4474 15.5372 60.5647 15.3317 59.8407 14.9207C59.1213 14.5049 58.5747 13.9047 58.2012 13.12C57.8274 12.3306 57.6406 11.3801 57.6406 10.2684C57.6406 9.19875 57.8485 8.27158 58.2643 7.48685C58.6799 6.69746 59.2848 6.08791 60.0789 5.65818C60.8729 5.22378 61.8351 5.00658 62.9655 5.00658C63.5214 5.00658 64.0585 5.06264 64.5769 5.17474C65.1002 5.28217 65.5788 5.43164 66.0133 5.62315L65.4248 7.01041C65.0792 6.84692 64.6914 6.70914 64.2616 6.59703C63.832 6.48494 63.3858 6.42889 62.9234 6.42889C62.1901 6.42889 61.5573 6.5877 61.0247 6.90532C60.4969 7.22295 60.0906 7.67136 59.8057 8.25055C59.5207 8.82507 59.3783 9.5047 59.3783 10.2894C59.3783 11.0508 59.4926 11.7187 59.7215 12.2933C59.9504 12.8678 60.3077 13.3162 60.7936 13.6385C61.2839 13.9561 61.9169 14.1149 62.6923 14.1149C63.0799 14.1149 63.4093 14.0939 63.6801 14.0519C63.951 14.0098 64.2009 13.9631 64.4298 13.9117V11.2703H62.2649V9.834ZM75.2407 11.5015C75.2407 12.1461 75.1567 12.7183 74.9885 13.2181C74.8204 13.7179 74.5751 14.1406 74.2528 14.4863C73.9306 14.8272 73.5429 15.0888 73.0898 15.271C72.6367 15.4485 72.1251 15.5372 71.5553 15.5372C71.0229 15.5372 70.5348 15.4485 70.091 15.271C69.6472 15.0888 69.2619 14.8272 68.9349 14.4863C68.6126 14.1406 68.3628 13.7179 68.1852 13.2181C68.0077 12.7183 67.9191 12.1461 67.9191 11.5015C67.9191 10.6467 68.0662 9.92275 68.3604 9.32954C68.6593 8.73166 69.0845 8.27623 69.6357 7.96328C70.1867 7.65033 70.843 7.49385 71.6045 7.49385C72.319 7.49385 72.9496 7.65033 73.4961 7.96328C74.0427 8.27623 74.4701 8.73166 74.7783 9.32954C75.0867 9.92743 75.2407 10.6514 75.2407 11.5015ZM69.6147 11.5015C69.6147 12.0667 69.6823 12.5502 69.8178 12.9519C69.9579 13.3536 70.1728 13.6618 70.4623 13.8767C70.7519 14.0869 71.1257 14.192 71.5834 14.192C72.0412 14.192 72.4149 14.0869 72.7045 13.8767C72.9941 13.6618 73.2065 13.3536 73.3419 12.9519C73.4775 12.5502 73.5451 12.0667 73.5451 11.5015C73.5451 10.9363 73.4775 10.4576 73.3419 10.0652C73.2065 9.66818 72.9941 9.36691 72.7045 9.16139C72.4149 8.95118 72.0387 8.8461 71.5763 8.8461C70.8944 8.8461 70.397 9.07497 70.0839 9.53272C69.7711 9.99048 69.6147 10.6467 69.6147 11.5015ZM83.9988 11.5015C83.9988 12.1461 83.9146 12.7183 83.7465 13.2181C83.5783 13.7179 83.3332 14.1406 83.0109 14.4863C82.6885 14.8272 82.3008 15.0888 81.8477 15.271C81.3946 15.4485 80.8833 15.5372 80.3134 15.5372C79.7808 15.5372 79.2927 15.4485 78.849 15.271C78.4054 15.0888 78.0199 14.8272 77.6931 14.4863C77.3707 14.1406 77.1208 13.7179 76.9433 13.2181C76.7658 12.7183 76.677 12.1461 76.677 11.5015C76.677 10.6467 76.8241 9.92275 77.1184 9.32954C77.4174 8.73166 77.8424 8.27623 78.3936 7.96328C78.9449 7.65033 79.6011 7.49385 80.3624 7.49385C81.0771 7.49385 81.7077 7.65033 82.2541 7.96328C82.8006 8.27623 83.228 8.73166 83.5364 9.32954C83.8446 9.92743 83.9988 10.6514 83.9988 11.5015ZM78.3726 11.5015C78.3726 12.0667 78.4404 12.5502 78.5758 12.9519C78.716 13.3536 78.9307 13.6618 79.2203 13.8767C79.51 14.0869 79.8836 14.192 80.3414 14.192C80.7991 14.192 81.1728 14.0869 81.4624 13.8767C81.752 13.6618 81.9645 13.3536 82.1001 12.9519C82.2354 12.5502 82.3032 12.0667 82.3032 11.5015C82.3032 10.9363 82.2354 10.4576 82.1001 10.0652C81.9645 9.66818 81.752 9.36691 81.4624 9.16139C81.1728 8.95118 80.7969 8.8461 80.3345 8.8461C79.6525 8.8461 79.1549 9.07497 78.8421 9.53272C78.529 9.99048 78.3726 10.6467 78.3726 11.5015ZM88.1045 18.8443C87.0536 18.8443 86.2478 18.6551 85.6873 18.2767C85.1268 17.8984 84.8465 17.3683 84.8465 16.6863C84.8465 16.2098 84.996 15.8058 85.2949 15.4742C85.5938 15.1472 86.0212 14.9207 86.5771 14.7945C86.367 14.7011 86.1847 14.5563 86.0307 14.3601C85.8812 14.1593 85.8065 13.9374 85.8065 13.6945C85.8065 13.4049 85.8882 13.1574 86.0515 12.9519C86.2151 12.7463 86.4603 12.5478 86.7873 12.3563C86.381 12.1835 86.054 11.9032 85.8065 11.5155C85.5635 11.1232 85.442 10.6631 85.442 10.1353C85.442 9.57475 85.5612 9.09832 85.7994 8.70596C86.0376 8.30893 86.3856 8.00766 86.8434 7.80214C87.3011 7.59195 87.8546 7.48685 88.5039 7.48685C88.644 7.48685 88.7957 7.49619 88.9593 7.51487C89.1274 7.5289 89.2816 7.54757 89.4217 7.57093C89.5665 7.58961 89.6762 7.61063 89.7511 7.63398H92.4344V8.55183L91.1172 8.79705C91.2433 8.97455 91.3439 9.17773 91.4185 9.40661C91.4932 9.63081 91.5306 9.87605 91.5306 10.1423C91.5306 10.9457 91.2528 11.5786 90.6969 12.041C90.1457 12.4988 89.3844 12.7276 88.4129 12.7276C88.1792 12.7183 87.9527 12.6996 87.7332 12.6716C87.565 12.7744 87.4365 12.8888 87.3479 13.0149C87.259 13.1363 87.2147 13.2742 87.2147 13.4283C87.2147 13.5544 87.259 13.6572 87.3479 13.7366C87.4365 13.8113 87.5674 13.8674 87.7402 13.9047C87.9177 13.9421 88.1326 13.9608 88.3848 13.9608H89.723C90.5731 13.9608 91.2224 14.1406 91.6709 14.5003C92.1191 14.8599 92.3433 15.3877 92.3433 16.0837C92.3433 16.9666 91.9791 17.6461 91.2504 18.1227C90.5217 18.6037 89.473 18.8443 88.1045 18.8443ZM88.1676 17.6882C88.7421 17.6882 89.2256 17.6322 89.6179 17.52C90.0103 17.4079 90.3068 17.2469 90.5077 17.0366C90.7086 16.8311 90.809 16.5859 90.809 16.3009C90.809 16.0487 90.7459 15.8548 90.6198 15.7194C90.4937 15.5839 90.3045 15.4905 90.0522 15.4391C89.8 15.3877 89.4872 15.3621 89.1134 15.3621H87.8942C87.5907 15.3621 87.3221 15.4088 87.0886 15.5022C86.8551 15.6003 86.6728 15.7404 86.5421 15.9226C86.416 16.1047 86.3529 16.3243 86.3529 16.5812C86.3529 16.9362 86.5095 17.2094 86.8223 17.4009C87.14 17.5925 87.5884 17.6882 88.1676 17.6882ZM88.4898 11.6487C88.971 11.6487 89.3283 11.5179 89.5619 11.2563C89.7954 10.9901 89.9122 10.6164 89.9122 10.1353C89.9122 9.61213 89.7907 9.21977 89.5479 8.9582C89.3095 8.69663 88.9546 8.56585 88.4829 8.56585C88.0205 8.56585 87.6678 8.69896 87.4249 8.96521C87.1866 9.23145 87.0676 9.62614 87.0676 10.1493C87.0676 10.6211 87.1866 10.9901 87.4249 11.2563C87.6678 11.5179 88.0227 11.6487 88.4898 11.6487ZM95.5033 15.3971H93.8497V4.49512H95.5033V15.3971ZM100.947 7.49385C101.639 7.49385 102.232 7.63633 102.727 7.92125C103.222 8.20617 103.603 8.61021 103.869 9.13337C104.135 9.65651 104.268 10.2824 104.268 11.0111V11.8939H99.0906C99.1092 12.6459 99.3101 13.2251 99.693 13.6315C100.081 14.0378 100.623 14.241 101.319 14.241C101.814 14.241 102.258 14.1943 102.65 14.1009C103.047 14.0028 103.455 13.8604 103.876 13.6735V15.0117C103.488 15.1939 103.093 15.327 102.692 15.4111C102.29 15.4952 101.809 15.5372 101.249 15.5372C100.487 15.5372 99.8169 15.3901 99.2377 15.0958C98.6632 14.7969 98.2124 14.3531 97.8855 13.7646C97.5632 13.1761 97.4021 12.445 97.4021 11.5716C97.4021 10.7028 97.5492 9.96478 97.8434 9.35756C98.1377 8.75034 98.5511 8.28791 99.0835 7.97028C99.6161 7.65266 100.237 7.49385 100.947 7.49385ZM100.947 8.73399C100.429 8.73399 100.008 8.90215 99.6861 9.23845C99.3684 9.57476 99.1817 10.0675 99.1256 10.7168H102.657C102.652 10.3291 102.587 9.98581 102.461 9.68686C102.339 9.38792 102.152 9.15437 101.9 8.98623C101.653 8.81807 101.335 8.73399 100.947 8.73399ZM111.499 4.49512V7.12252C111.499 7.42614 111.49 7.72506 111.471 8.01934C111.457 8.30893 111.443 8.53547 111.429 8.69896H111.499C111.709 8.36266 112.001 8.08006 112.375 7.85118C112.753 7.61763 113.237 7.50087 113.825 7.50087C114.745 7.50087 115.486 7.8395 116.046 8.5168C116.607 9.1894 116.887 10.1867 116.887 11.5085C116.887 12.3867 116.758 13.1247 116.501 13.7226C116.245 14.3204 115.883 14.7735 115.416 15.0818C114.953 15.3854 114.409 15.5372 113.783 15.5372C113.194 15.5372 112.718 15.4298 112.354 15.2149C111.994 14.9954 111.711 14.7408 111.506 14.4512H111.387L111.085 15.3971H109.852V4.49512H111.499ZM113.391 8.83909C112.924 8.83909 112.552 8.93251 112.277 9.11934C112.006 9.30618 111.81 9.58643 111.688 9.96011C111.567 10.3291 111.504 10.7985 111.499 11.3684V11.5155C111.499 12.3797 111.634 13.0406 111.905 13.4983C112.181 13.9561 112.681 14.185 113.405 14.185C113.979 14.185 114.421 13.9538 114.729 13.4913C115.037 13.0243 115.191 12.3563 115.191 11.4875C115.191 10.6094 115.037 9.94843 114.729 9.5047C114.425 9.06096 113.979 8.83909 113.391 8.83909ZM121.882 7.49385C122.574 7.49385 123.167 7.63633 123.662 7.92125C124.157 8.20617 124.538 8.61021 124.804 9.13337C125.07 9.65651 125.203 10.2824 125.203 11.0111V11.8939H120.026C120.044 12.6459 120.245 13.2251 120.628 13.6315C121.016 14.0378 121.558 14.241 122.254 14.241C122.749 14.241 123.193 14.1943 123.585 14.1009C123.982 14.0028 124.391 13.8604 124.811 13.6735V15.0117C124.423 15.1939 124.029 15.327 123.627 15.4111C123.225 15.4952 122.744 15.5372 122.184 15.5372C121.422 15.5372 120.752 15.3901 120.173 15.0958C119.598 14.7969 119.148 14.3531 118.821 13.7646C118.498 13.1761 118.337 12.445 118.337 11.5716C118.337 10.7028 118.484 9.96478 118.779 9.35756C119.073 8.75034 119.486 8.28791 120.019 7.97028C120.551 7.65266 121.172 7.49385 121.882 7.49385ZM121.882 8.73399C121.364 8.73399 120.944 8.90215 120.621 9.23845C120.304 9.57476 120.117 10.0675 120.061 10.7168H123.592C123.587 10.3291 123.522 9.98581 123.396 9.68686C123.274 9.38792 123.087 9.15437 122.835 8.98623C122.588 8.81807 122.27 8.73399 121.882 8.73399ZM133.401 15.3901L132.42 11.7818C132.373 11.6043 132.317 11.3894 132.252 11.1372C132.187 10.885 132.121 10.6257 132.056 10.3595C131.99 10.0886 131.93 9.83867 131.874 9.6098C131.822 9.38091 131.782 9.20342 131.755 9.07731H131.698C131.675 9.20342 131.638 9.38091 131.586 9.6098C131.535 9.83867 131.476 10.0886 131.411 10.3595C131.346 10.6304 131.28 10.8943 131.215 11.1512C131.154 11.4081 131.098 11.6276 131.047 11.8098L130.017 15.3901H128.209L126.037 7.63398H127.705L128.714 11.4875C128.779 11.7491 128.842 12.0317 128.903 12.3353C128.968 12.6389 129.024 12.9285 129.071 13.2041C129.118 13.4797 129.153 13.7062 129.176 13.8837H129.232C129.251 13.7576 129.277 13.5988 129.309 13.4073C129.342 13.2111 129.379 13.0079 129.421 12.7977C129.463 12.5829 129.505 12.382 129.547 12.1952C129.589 12.0037 129.629 11.8495 129.667 11.7327L130.858 7.63398H132.658L133.8 11.7327C133.852 11.9102 133.908 12.1344 133.969 12.4053C134.029 12.6716 134.083 12.9402 134.13 13.2111C134.181 13.4773 134.214 13.6992 134.228 13.8767H134.284C134.302 13.7179 134.335 13.503 134.382 13.2321C134.433 12.9565 134.492 12.6646 134.557 12.3563C134.622 12.0434 134.69 11.7538 134.76 11.4875L135.79 7.63398H137.43L135.244 15.3901H133.401ZM141.851 7.49385C142.542 7.49385 143.135 7.63633 143.63 7.92125C144.125 8.20617 144.506 8.61021 144.772 9.13337C145.039 9.65651 145.172 10.2824 145.172 11.0111V11.8939H139.994C140.013 12.6459 140.214 13.2251 140.597 13.6315C140.984 14.0378 141.526 14.241 142.222 14.241C142.717 14.241 143.161 14.1943 143.553 14.1009C143.95 14.0028 144.359 13.8604 144.779 13.6735V15.0117C144.392 15.1939 143.997 15.327 143.595 15.4111C143.194 15.4952 142.712 15.5372 142.152 15.5372C141.391 15.5372 140.72 15.3901 140.141 15.0958C139.567 14.7969 139.116 14.3531 138.789 13.7646C138.467 13.1761 138.305 12.445 138.305 11.5716C138.305 10.7028 138.453 9.96478 138.747 9.35756C139.041 8.75034 139.454 8.28791 139.987 7.97028C140.52 7.65266 141.141 7.49385 141.851 7.49385ZM141.851 8.73399C141.332 8.73399 140.912 8.90215 140.59 9.23845C140.272 9.57476 140.085 10.0675 140.029 10.7168H143.56C143.556 10.3291 143.49 9.98581 143.364 9.68686C143.243 9.38792 143.056 9.15437 142.804 8.98623C142.556 8.81807 142.238 8.73399 141.851 8.73399ZM150.959 7.49385C151.09 7.49385 151.232 7.50087 151.386 7.51487C151.541 7.5289 151.674 7.54757 151.786 7.57093L151.632 9.11234C151.534 9.08431 151.412 9.06329 151.267 9.04929C151.127 9.03526 151.001 9.02826 150.889 9.02826C150.595 9.02826 150.315 9.07731 150.048 9.1754C149.782 9.26881 149.546 9.41361 149.341 9.6098C149.135 9.8013 148.974 10.0419 148.857 10.3315C148.74 10.6211 148.682 10.9574 148.682 11.3404V15.3971H147.028V7.64099H148.318L148.542 9.00724H148.619C148.773 8.73166 148.965 8.47942 149.193 8.25055C149.422 8.02168 149.684 7.8395 149.978 7.70406C150.277 7.56392 150.604 7.49385 150.959 7.49385ZM156.109 14.206C156.324 14.206 156.536 14.1873 156.746 14.1499C156.957 14.1079 157.148 14.0589 157.321 14.0028V15.25C157.139 15.3294 156.903 15.3971 156.613 15.4531C156.324 15.5092 156.022 15.5372 155.709 15.5372C155.27 15.5372 154.876 15.4648 154.525 15.32C154.175 15.1705 153.897 14.916 153.692 14.5563C153.486 14.1967 153.383 13.6992 153.383 13.064V8.89515H152.325V8.15947L153.46 7.57793L154 5.91742H155.037V7.64099H157.258V8.89515H155.037V13.0429C155.037 13.4353 155.135 13.7272 155.331 13.9187C155.527 14.1102 155.787 14.206 156.109 14.206ZM161.987 7.49385C162.679 7.49385 163.272 7.63633 163.767 7.92125C164.262 8.20617 164.643 8.61021 164.909 9.13337C165.175 9.65651 165.308 10.2824 165.308 11.0111V11.8939H160.13C160.149 12.6459 160.35 13.2251 160.733 13.6315C161.121 14.0378 161.662 14.241 162.358 14.241C162.854 14.241 163.297 14.1943 163.69 14.1009C164.087 14.0028 164.496 13.8604 164.916 13.6735V15.0117C164.528 15.1939 164.133 15.327 163.732 15.4111C163.33 15.4952 162.849 15.5372 162.288 15.5372C161.527 15.5372 160.857 15.3901 160.278 15.0958C159.703 14.7969 159.252 14.3531 158.925 13.7646C158.603 13.1761 158.442 12.445 158.442 11.5716C158.442 10.7028 158.589 9.96478 158.883 9.35756C159.178 8.75034 159.591 8.28791 160.123 7.97028C160.656 7.65266 161.277 7.49385 161.987 7.49385ZM161.987 8.73399C161.469 8.73399 161.048 8.90215 160.726 9.23845C160.408 9.57476 160.221 10.0675 160.165 10.7168H163.697C163.692 10.3291 163.627 9.98581 163.501 9.68686C163.379 9.38792 163.192 9.15437 162.94 8.98623C162.692 8.81807 162.375 8.73399 161.987 8.73399ZM170.052 14.206C170.266 14.206 170.479 14.1873 170.689 14.1499C170.899 14.1079 171.091 14.0589 171.264 14.0028V15.25C171.081 15.3294 170.846 15.3971 170.556 15.4531C170.266 15.5092 169.965 15.5372 169.652 15.5372C169.213 15.5372 168.818 15.4648 168.468 15.32C168.118 15.1705 167.84 14.916 167.634 14.5563C167.429 14.1967 167.326 13.6992 167.326 13.064V8.89515H166.268V8.15947L167.403 7.57793L167.943 5.91742H168.98V7.64099H171.201V8.89515H168.98V13.0429C168.98 13.4353 169.078 13.7272 169.274 13.9187C169.47 14.1102 169.729 14.206 170.052 14.206Z" fill="#142335"/>
<path d="M62.1309 40V37.6797V37.3809V33.5957H62.0664L59.7812 36.8945H62.4941L62.9277 36.8711H64.6914V38.084H58.1875V37.0762L62.1719 31.4688H63.6367V40H62.1309ZM65.7168 39.209C65.7168 38.9551 65.8008 38.7383 65.9688 38.5586C66.1367 38.3789 66.377 38.2891 66.6895 38.2891C67.0098 38.2891 67.252 38.3789 67.416 38.5586C67.584 38.7383 67.668 38.9551 67.668 39.209C67.668 39.4629 67.584 39.6797 67.416 39.8594C67.252 40.0391 67.0098 40.1289 66.6895 40.1289C66.377 40.1289 66.1367 40.0391 65.9688 39.8594C65.8008 39.6797 65.7168 39.4629 65.7168 39.209ZM68.9805 37.7676V37.6738H70.5156V37.7676C70.5156 38.1504 70.6426 38.4512 70.8965 38.6699C71.1543 38.8848 71.5078 38.9922 71.957 38.9922C72.4102 38.9922 72.7676 38.8438 73.0293 38.5469C73.291 38.25 73.4219 37.8242 73.4219 37.2695C73.4219 36.7109 73.2891 36.291 73.0234 36.0098C72.7617 35.7285 72.4082 35.5879 71.9629 35.5879C71.6426 35.5879 71.3633 35.6504 71.125 35.7754C70.8906 35.9004 70.6777 36.0684 70.4863 36.2793L69.2969 35.7402L69.7305 31.4688H74.5293V32.7402H70.9785L70.7559 34.8262C70.9355 34.709 71.1504 34.6094 71.4004 34.5273C71.6504 34.4453 71.9355 34.4043 72.2559 34.4043C73.0293 34.4043 73.6758 34.6543 74.1953 35.1543C74.7188 35.6504 74.9805 36.3418 74.9805 37.2285C74.9805 38.1348 74.7031 38.8535 74.1484 39.3848C73.5977 39.9121 72.8691 40.1758 71.9629 40.1758C71.0098 40.1758 70.2734 39.9492 69.7539 39.4961C69.2383 39.0391 68.9805 38.4629 68.9805 37.7676ZM75.8535 36.7305V35.3711L81.6191 35.377V36.7305H75.8535ZM77.9688 39.0508V33.0508H79.498V39.0508H77.9688Z" fill="#142335"/>
</g>
</g>
</g>
<defs>
<clipPath id="clip0_2005_922">
<rect width="173.023" height="48" fill="white"/>
</clipPath>
<clipPath id="clip1_2005_922">
<rect width="201.792" height="48.2921" fill="white" transform="translate(-14.3267 -0.297852)"/>
</clipPath>
<clipPath id="clip2_2005_922">
<rect width="172.472" height="48.2921" fill="white" transform="translate(0.333496 -0.297852)"/>
</clipPath>
</defs>
</svg>
