<svg width="64" height="64" viewBox="0 0 64 64" fill="none" xmlns="http://www.w3.org/2000/svg">
<g id="thank you ">
<g id="Hero">
<g id="Frame 1984077873">
<g id="email_3624711 1">
<path id="Vector" d="M31.7764 4.57129C31.8922 4.48855 32.0378 4.47799 32.1611 4.54004L32.2129 4.57129L41.8066 11.3945L41.9434 11.5312H53.9844C54.1896 11.5312 54.3594 11.7013 54.3594 11.9062V20.3438L54.5693 20.4932L59.3379 23.8828V23.8838L59.3467 23.8887C59.445 23.9557 59.5 24.0607 59.5 24.1865V59.125C59.5 59.3299 59.3302 59.5 59.125 59.5H4.875C4.6698 59.5 4.5 59.3299 4.5 59.125V24.1865C4.50004 24.1003 4.53229 24.0144 4.59277 23.9453L4.66211 23.8828L9.43066 20.4824L9.64062 20.333V11.9062C9.64064 11.7013 9.81043 11.5312 10.0156 11.5312H22.1279L22.2773 11.3516C22.3148 11.3066 22.3347 11.2906 22.3457 11.2832L22.3525 11.2793L22.3584 11.2744L31.7764 4.57129ZM37.4961 40.0508L32.1807 43.835L32.1729 43.8398L32.165 43.8457C32.1213 43.8792 32.0462 43.9062 31.9668 43.9062C31.8834 43.9062 31.8108 43.8825 31.7441 43.835L26.4941 40.085L26.1602 39.8457L25.8604 40.127L6.96094 57.8857L6.04102 58.75H57.9463L57.0283 57.8867L38.1289 40.0947L37.8301 39.8135L37.4961 40.0508ZM57.96 25.4961L38.9512 39.0234L38.4541 39.377L38.8984 39.7949L57.9072 57.6738L58.75 58.4668V24.9336L57.96 25.4961ZM5.25 58.4658L6.09277 57.6748L25.0908 39.8281L25.5352 39.4111L25.0391 39.0566L6.04102 25.4854L5.25 24.9209V58.4658ZM10.3906 27.6592L10.5996 27.8086L31.6768 42.8662L31.9668 43.0742L32.2568 42.8672L53.3994 27.8203L53.6094 27.6709V12.2812H10.3906V27.6592ZM29.832 17.626C32.8143 16.8288 35.939 17.6157 38.1973 19.749C39.4846 20.9679 40.2989 22.3997 40.5967 23.9043L40.6494 24.207C40.8819 25.787 40.5059 27.2623 39.6162 28.3906C39.3279 28.751 38.712 29.3233 37.9619 29.8037C37.2044 30.2888 36.3859 30.6309 35.6855 30.6309C35.4646 30.6308 35.2734 30.6025 35.1016 30.54C34.7648 30.4165 34.3963 30.1694 34.1729 29.5938L33.9707 29.0732L33.4756 29.3311C33.2252 29.4612 32.978 29.5646 32.7207 29.6289L32.7139 29.6309C31.7588 29.8855 30.7698 29.7744 29.8955 29.3262L29.7227 29.2314C28.8083 28.6954 28.161 27.8525 27.8896 26.835C27.6182 25.8167 27.7624 24.7609 28.2881 23.8457C28.8124 22.9331 29.6545 22.2846 30.6738 22.0127L30.6758 22.0117C31.6057 21.7599 32.5662 21.8657 33.4033 22.2646L33.9482 22.5244L34.1025 21.9414C34.1441 21.785 34.2874 21.6689 34.4609 21.6689H34.4717C34.671 21.6689 34.8405 21.841 34.8359 22.043V22.0469L34.7373 28.2783C34.7313 28.5959 34.757 28.895 34.8223 29.1396C34.8547 29.2614 34.9023 29.3896 34.9746 29.5039C35.0448 29.6148 35.164 29.7498 35.3516 29.8174V29.8184C35.6713 29.9341 36.0358 29.8663 36.3232 29.7773C36.635 29.6808 36.9713 29.5214 37.2959 29.334C37.9393 28.9625 38.613 28.4326 39.0195 27.9199L39.0205 27.9189C40.7376 25.7386 40.033 22.5274 37.6699 20.291L37.4736 20.1123C35.4291 18.3026 32.6641 17.6451 30.0215 18.3564C27.935 18.916 26.197 20.2577 25.1143 22.1201L25.1123 22.123C24.0416 23.9965 23.7499 26.1662 24.3096 28.2529C24.8692 30.3393 26.2113 32.0766 28.0742 33.1592L28.0771 33.1611C29.9509 34.2316 32.121 34.5244 34.208 33.9648L34.207 33.9639C35.6875 33.5676 37.0165 32.764 38.0537 31.6455L38.0576 31.6416C38.1971 31.4886 38.4271 31.4759 38.5869 31.6211C38.7397 31.76 38.7531 31.9887 38.6094 32.1484C37.4824 33.3786 36.0353 34.2574 34.4111 34.6924C33.6518 34.89 32.874 34.9941 32.1094 34.9941C30.5792 34.9941 29.0688 34.5908 27.7119 33.8037L27.71 33.8027C25.6601 32.6226 24.2019 30.7201 23.5908 28.4316L23.4873 28.0029C23.0223 25.8571 23.3645 23.6476 24.4707 21.7363C25.6512 19.6968 27.5545 18.2379 29.833 17.627L29.832 17.626ZM31.6826 22.6152C31.4257 22.6152 31.1384 22.639 30.8525 22.7197C30.0354 22.9402 29.3491 23.4721 28.9229 24.2061C28.4934 24.9347 28.376 25.806 28.5967 26.624V26.623C28.8173 27.4527 29.3503 28.141 30.0869 28.5674C30.8237 28.9938 31.6808 29.1099 32.5088 28.8906L32.5098 28.8916C33.0068 28.7608 33.4488 28.5126 33.8213 28.1787L33.9844 28.0322L33.9873 27.8135L34.042 23.877L34.0449 23.6621L33.8916 23.5117C33.2928 22.9262 32.499 22.6152 31.6826 22.6152ZM54.3594 27.1348L55.1494 26.5732L57.916 24.6055L58.4893 24.1973L57.916 23.79L55.1494 21.8223L54.3594 21.2598V27.1348ZM8.85156 21.8213L6.09473 23.7793L5.52246 24.1855L6.09375 24.5938L8.84961 26.5615L9.64062 27.127V21.2607L8.85156 21.8213ZM31.71 5.5498L24.5791 10.624L23.3037 11.5312H40.6963L39.4209 10.624L32.29 5.5498L32 5.34375L31.71 5.5498Z" fill="#142335" stroke="#142335"/>
</g>
</g>
</g>
</g>
</svg>
