<svg width="64" height="64" viewBox="0 0 64 64" fill="none" xmlns="http://www.w3.org/2000/svg">
<g id="thank you ">
<g id="Hero">
<g id="Frame 1984077874">
<g id="mail_7557997 1">
<g id="Vector">
<mask id="path-2-inside-1_142_3" fill="white">
<path d="M54.3655 4H12.8777C11.3627 4.00163 9.91009 4.60419 8.83871 5.67547C7.76734 6.74675 7.16466 8.19927 7.1629 9.71436V12.2963L6.95782 12.4097C5.85086 13.0222 4.9711 13.9756 4.44934 15.1281C3.92758 16.2806 3.79167 17.5707 4.06182 18.8067C5.21905 23.9233 8.71026 34.022 19.0955 44.1685C20.7165 46.0276 32.8125 60.01 48.9607 59.9995C49.9849 59.9969 50.9912 59.7309 51.8829 59.227C52.7745 58.723 53.5215 57.9982 54.0521 57.1221L56.0121 53.8242C56.7593 52.5529 57.0036 51.0481 56.6971 49.6057C56.3906 48.1633 55.5554 46.8878 54.3558 46.0303L48.1073 41.6069C46.8942 40.756 45.4054 40.3927 43.9368 40.5892C42.4681 40.7857 41.1272 41.5276 40.1805 42.6675L39.4271 43.5825C38.8428 44.2983 38.021 44.7805 37.1112 44.9415C36.2013 45.1024 35.2639 44.9314 34.4696 44.4595C31.5231 42.6576 28.8156 40.4912 26.4113 38.0117H54.3655C55.8806 38.0101 57.3332 37.4076 58.4046 36.3363C59.4759 35.265 60.0786 33.8125 60.0804 32.2974V9.71436C60.0786 8.19927 59.4759 6.74675 58.4046 5.67547C57.3332 4.60418 55.8806 4.00163 54.3655 4ZM33.4265 46.166C36.3808 47.9588 39.8684 46.7383 41.7243 43.9388C42.3486 43.187 43.2329 42.6977 44.2015 42.5681C45.1702 42.4386 46.152 42.6783 46.9519 43.2397L53.2005 47.6631C53.9915 48.2286 54.5423 49.0697 54.7443 50.0209C54.9464 50.9721 54.7851 51.9645 54.2923 52.8027L52.3328 56.1006C51.9675 56.6979 51.4509 57.1881 50.8353 57.5217C50.2196 57.8552 49.5268 58.0202 48.827 58C33.3352 57.8362 22.284 44.6562 20.4909 42.7358C10.4759 32.9507 7.12086 23.2671 6.01299 18.3652C5.83668 17.5518 5.92758 16.7031 6.27216 15.9454C6.61674 15.1877 7.19661 14.5615 7.92559 14.1597L12.3416 11.7178C13.1837 11.2488 14.1709 11.1119 15.1088 11.3339C16.0468 11.5559 16.8678 12.1208 17.4104 12.9175L18.6224 14.6857L21.7083 19.1875C22.2748 20.0106 22.5004 21.0211 22.338 22.007C22.1756 22.9929 21.6377 23.8776 20.8372 24.4756C19.6526 25.3535 18.844 26.6472 18.574 28.0968C18.3039 29.5463 18.5923 31.0444 19.3812 32.29C22.93 37.9368 27.7371 42.686 33.4265 46.166ZM58.0804 32.2974C58.0792 33.2822 57.6875 34.2264 56.991 34.9227C56.2946 35.6191 55.3504 36.0107 54.3655 36.0117H24.5873C22.2017 32.9357 18.2986 29.2539 22.0373 26.0751C23.172 25.2245 23.9583 23.99 24.2496 22.6022C24.5408 21.2143 24.3171 19.7679 23.6202 18.5329L30.1941 23.4619C31.1864 24.1962 32.3882 24.5924 33.6225 24.5922C34.8569 24.592 36.0585 24.1954 37.0506 23.4609L52.9481 11.5425C53.1595 11.3831 53.2991 11.1464 53.3362 10.8842C53.3734 10.6221 53.305 10.3559 53.1463 10.144C52.9875 9.93216 52.7511 9.79191 52.4891 9.75402C52.227 9.71613 51.9607 9.78369 51.7484 9.94189L35.8519 21.8594C35.2097 22.3441 34.4271 22.6064 33.6225 22.6066C32.818 22.6068 32.0352 22.3448 31.3929 21.8604L20.2255 13.4871L19.0599 11.7866C18.2374 10.5782 16.9925 9.72137 15.5701 9.38476C14.1476 9.04814 12.6507 9.25612 11.3739 9.96777L9.16294 11.1904V9.71437C9.16408 8.72953 9.55584 7.78537 10.2523 7.08902C10.9487 6.39268 11.8929 6.00103 12.8777 6H54.3655C55.3504 6.00101 56.2946 6.39266 56.991 7.089C57.6875 7.78534 58.0792 8.72952 58.0804 9.71436V32.2974Z"/>
</mask>
<path d="M54.3655 4H12.8777C11.3627 4.00163 9.91009 4.60419 8.83871 5.67547C7.76734 6.74675 7.16466 8.19927 7.1629 9.71436V12.2963L6.95782 12.4097C5.85086 13.0222 4.9711 13.9756 4.44934 15.1281C3.92758 16.2806 3.79167 17.5707 4.06182 18.8067C5.21905 23.9233 8.71026 34.022 19.0955 44.1685C20.7165 46.0276 32.8125 60.01 48.9607 59.9995C49.9849 59.9969 50.9912 59.7309 51.8829 59.227C52.7745 58.723 53.5215 57.9982 54.0521 57.1221L56.0121 53.8242C56.7593 52.5529 57.0036 51.0481 56.6971 49.6057C56.3906 48.1633 55.5554 46.8878 54.3558 46.0303L48.1073 41.6069C46.8942 40.756 45.4054 40.3927 43.9368 40.5892C42.4681 40.7857 41.1272 41.5276 40.1805 42.6675L39.4271 43.5825C38.8428 44.2983 38.021 44.7805 37.1112 44.9415C36.2013 45.1024 35.2639 44.9314 34.4696 44.4595C31.5231 42.6576 28.8156 40.4912 26.4113 38.0117H54.3655C55.8806 38.0101 57.3332 37.4076 58.4046 36.3363C59.4759 35.265 60.0786 33.8125 60.0804 32.2974V9.71436C60.0786 8.19927 59.4759 6.74675 58.4046 5.67547C57.3332 4.60418 55.8806 4.00163 54.3655 4ZM33.4265 46.166C36.3808 47.9588 39.8684 46.7383 41.7243 43.9388C42.3486 43.187 43.2329 42.6977 44.2015 42.5681C45.1702 42.4386 46.152 42.6783 46.9519 43.2397L53.2005 47.6631C53.9915 48.2286 54.5423 49.0697 54.7443 50.0209C54.9464 50.9721 54.7851 51.9645 54.2923 52.8027L52.3328 56.1006C51.9675 56.6979 51.4509 57.1881 50.8353 57.5217C50.2196 57.8552 49.5268 58.0202 48.827 58C33.3352 57.8362 22.284 44.6562 20.4909 42.7358C10.4759 32.9507 7.12086 23.2671 6.01299 18.3652C5.83668 17.5518 5.92758 16.7031 6.27216 15.9454C6.61674 15.1877 7.19661 14.5615 7.92559 14.1597L12.3416 11.7178C13.1837 11.2488 14.1709 11.1119 15.1088 11.3339C16.0468 11.5559 16.8678 12.1208 17.4104 12.9175L18.6224 14.6857L21.7083 19.1875C22.2748 20.0106 22.5004 21.0211 22.338 22.007C22.1756 22.9929 21.6377 23.8776 20.8372 24.4756C19.6526 25.3535 18.844 26.6472 18.574 28.0968C18.3039 29.5463 18.5923 31.0444 19.3812 32.29C22.93 37.9368 27.7371 42.686 33.4265 46.166ZM58.0804 32.2974C58.0792 33.2822 57.6875 34.2264 56.991 34.9227C56.2946 35.6191 55.3504 36.0107 54.3655 36.0117H24.5873C22.2017 32.9357 18.2986 29.2539 22.0373 26.0751C23.172 25.2245 23.9583 23.99 24.2496 22.6022C24.5408 21.2143 24.3171 19.7679 23.6202 18.5329L30.1941 23.4619C31.1864 24.1962 32.3882 24.5924 33.6225 24.5922C34.8569 24.592 36.0585 24.1954 37.0506 23.4609L52.9481 11.5425C53.1595 11.3831 53.2991 11.1464 53.3362 10.8842C53.3734 10.6221 53.305 10.3559 53.1463 10.144C52.9875 9.93216 52.7511 9.79191 52.4891 9.75402C52.227 9.71613 51.9607 9.78369 51.7484 9.94189L35.8519 21.8594C35.2097 22.3441 34.4271 22.6064 33.6225 22.6066C32.818 22.6068 32.0352 22.3448 31.3929 21.8604L20.2255 13.4871L19.0599 11.7866C18.2374 10.5782 16.9925 9.72137 15.5701 9.38476C14.1476 9.04814 12.6507 9.25612 11.3739 9.96777L9.16294 11.1904V9.71437C9.16408 8.72953 9.55584 7.78537 10.2523 7.08902C10.9487 6.39268 11.8929 6.00103 12.8777 6H54.3655C55.3504 6.00101 56.2946 6.39266 56.991 7.089C57.6875 7.78534 58.0792 8.72952 58.0804 9.71436V32.2974Z" fill="#142335"/>
<path d="M54.3655 4L54.3741 -4H54.3655V4ZM12.8777 4V-4L12.8691 -4L12.8777 4ZM7.1629 9.71436L-0.837096 9.70508V9.71436H7.1629ZM7.1629 12.2963L11.0344 19.2971L15.1629 17.014V12.2963H7.1629ZM6.95782 12.4097L3.08634 5.40884L3.08466 5.40977L6.95782 12.4097ZM4.06182 18.8067L-3.75365 20.515L-3.74748 20.5432L-3.7411 20.5714L4.06182 18.8067ZM19.0955 44.1685L25.1254 38.911L24.9151 38.6698L24.6862 38.4462L19.0955 44.1685ZM48.9607 59.9995L48.9658 67.9995L48.9733 67.9995L48.9807 67.9995L48.9607 59.9995ZM54.0521 57.1221L60.8952 61.2659L60.9123 61.2377L60.9292 61.2093L54.0521 57.1221ZM56.0121 53.8242L62.8892 57.9115L62.8991 57.8947L62.909 57.8779L56.0121 53.8242ZM54.3558 46.0303L59.0084 39.5223L58.9932 39.5115L58.9781 39.5007L54.3558 46.0303ZM48.1073 41.6069L52.7295 35.0774L52.7155 35.0675L52.7015 35.0576L48.1073 41.6069ZM40.1805 42.6675L34.0262 37.5562L34.0154 37.5693L34.0047 37.5823L40.1805 42.6675ZM39.4271 43.5825L33.2513 38.4973L33.2404 38.5106L33.2295 38.5238L39.4271 43.5825ZM34.4696 44.4595L30.2958 51.2844L30.3395 51.3111L30.3836 51.3373L34.4696 44.4595ZM26.4113 38.0117V30.0117H7.51023L20.6681 43.5809L26.4113 38.0117ZM54.3655 38.0117V46.0117L54.3741 46.0117L54.3655 38.0117ZM60.0804 32.2974L68.0804 32.3067V32.2974H60.0804ZM60.0804 9.71436H68.0804L68.0804 9.70508L60.0804 9.71436ZM33.4265 46.166L29.2522 52.9906L29.2642 52.9979L29.2762 53.0052L33.4265 46.166ZM41.7243 43.9388L35.5694 38.8283L35.2944 39.1596L35.0565 39.5184L41.7243 43.9388ZM46.9519 43.2397L51.5742 36.7102L51.5609 36.7008L51.5476 36.6915L46.9519 43.2397ZM53.2005 47.6631L57.8529 41.1551L57.8379 41.1443L57.8227 41.1335L53.2005 47.6631ZM54.2923 52.8027L61.1699 56.8891L61.1793 56.8733L61.1886 56.8574L54.2923 52.8027ZM52.3328 56.1006L59.1576 60.2746L59.1843 60.231L59.2104 60.1869L52.3328 56.1006ZM48.827 58L49.0578 50.0033L48.9847 50.0012L48.9115 50.0004L48.827 58ZM20.4909 42.7358L26.3381 37.276L26.2129 37.1419L26.0817 37.0136L20.4909 42.7358ZM6.01299 18.3652L-1.80548 20.0598L-1.79799 20.0943L-1.79019 20.1288L6.01299 18.3652ZM7.92559 14.1597L11.7871 21.166L11.7969 21.1606L7.92559 14.1597ZM12.3416 11.7178L16.2129 18.7187L16.2232 18.713L16.2336 18.7072L12.3416 11.7178ZM17.4104 12.9175L10.7983 17.4208L10.805 17.4307L10.8118 17.4405L17.4104 12.9175ZM18.6224 14.6857L12.0238 19.2087L12.0239 19.2088L18.6224 14.6857ZM21.7083 19.1875L15.1097 23.7106L15.1139 23.7167L15.118 23.7227L21.7083 19.1875ZM20.8372 24.4756L25.6006 30.9029L25.6127 30.894L25.6246 30.885L20.8372 24.4756ZM19.3812 32.29L26.1546 28.0332L26.1472 28.0213L26.1397 28.0095L19.3812 32.29ZM58.0804 32.2974L66.0804 32.3066V32.2974H58.0804ZM54.3655 36.0117V44.0117L54.3738 44.0117L54.3655 36.0117ZM24.5873 36.0117L18.2657 40.9145L20.6678 44.0117H24.5873V36.0117ZM22.0373 26.0751L17.2386 19.6742L17.0423 19.8214L16.8553 19.9803L22.0373 26.0751ZM23.6202 18.5329L28.4193 12.1322L16.653 22.4646L23.6202 18.5329ZM30.1941 23.4619L25.395 29.8626L25.4152 29.8777L25.4354 29.8926L30.1941 23.4619ZM37.0506 23.4609L41.8112 29.8902L41.8303 29.8761L41.8494 29.8618L37.0506 23.4609ZM52.9481 11.5425L57.7468 17.9434L57.7555 17.9369L57.7641 17.9304L52.9481 11.5425ZM51.7484 9.94189L46.9683 3.52699L46.9589 3.53396L46.9496 3.54095L51.7484 9.94189ZM35.8519 21.8594L31.0531 15.4584L31.0426 15.4663L31.0321 15.4742L35.8519 21.8594ZM31.3929 21.8604L36.2097 15.4731L36.2009 15.4664L36.192 15.4598L31.3929 21.8604ZM20.2255 13.4871L13.6269 18.0102L14.3719 19.0971L15.4263 19.8877L20.2255 13.4871ZM19.0599 11.7866L12.4463 16.2877L12.4537 16.2987L12.4613 16.3097L19.0599 11.7866ZM11.3739 9.96777L15.2452 16.9687L15.257 16.9622L15.2687 16.9557L11.3739 9.96777ZM9.16294 11.1904H1.16294V24.7559L13.0343 18.1913L9.16294 11.1904ZM9.16294 9.71437L1.16294 9.7051V9.71437H9.16294ZM12.8777 6V-2L12.8694 -2L12.8777 6ZM54.3655 6L54.3738 -2H54.3655V6ZM58.0804 9.71436H66.0804L66.0804 9.70507L58.0804 9.71436ZM54.3655 4V-4H12.8777V4V12H54.3655V4ZM12.8777 4L12.8691 -4C9.23542 -3.99609 5.75163 -2.55094 3.18209 0.0183773L8.83871 5.67547L14.4953 11.3326C14.0685 11.7593 13.4899 11.9993 12.8864 12L12.8777 4ZM8.83871 5.67547L3.18209 0.0183773C0.612558 2.5877 -0.832875 6.07136 -0.83709 9.70508L7.1629 9.71436L15.1629 9.72364C15.1622 10.3272 14.9221 10.9058 14.4953 11.3326L8.83871 5.67547ZM7.1629 9.71436H-0.837096V12.2963H7.1629H15.1629V9.71436H7.1629ZM7.1629 12.2963L3.29142 5.29543L3.08634 5.40884L6.95782 12.4097L10.8293 19.4105L11.0344 19.2971L7.1629 12.2963ZM6.95782 12.4097L3.08466 5.40977C0.470781 6.85607 -1.60659 9.10728 -2.83862 11.8287L4.44934 15.1281L11.7373 18.4274C11.5488 18.8438 11.2309 19.1883 10.831 19.4096L6.95782 12.4097ZM4.44934 15.1281L-2.83862 11.8287C-4.07065 14.5502 -4.39157 17.5965 -3.75365 20.515L4.06182 18.8067L11.8773 17.0984C11.9749 17.5449 11.9258 18.011 11.7373 18.4274L4.44934 15.1281ZM4.06182 18.8067L-3.7411 20.5714C-2.31629 26.8712 1.80154 38.4565 13.5048 49.8907L19.0955 44.1685L24.6862 38.4462C15.619 29.5875 12.7544 20.9755 11.8647 17.0419L4.06182 18.8067ZM19.0955 44.1685L13.0656 49.4259C13.9935 50.49 17.9181 55.0232 23.9469 59.3066C29.9105 63.5438 38.5897 68.0062 48.9658 67.9995L48.9607 59.9995L48.9555 51.9995C43.1834 52.0033 37.7406 49.4798 33.214 46.2636C28.7524 43.0936 25.8186 39.706 25.1254 38.911L19.0955 44.1685ZM48.9607 59.9995L48.9807 67.9995C51.3775 67.9935 53.7324 67.3709 55.819 66.1917L51.8829 59.227L47.9467 52.2623C48.25 52.0909 48.5922 52.0004 48.9406 51.9995L48.9607 59.9995ZM51.8829 59.227L55.819 66.1917C57.9056 65.0124 59.6537 63.3161 60.8952 61.2659L54.0521 57.1221L47.2089 52.9782C47.3894 52.6802 47.6434 52.4337 47.9467 52.2623L51.8829 59.227ZM54.0521 57.1221L60.9292 61.2093L62.8892 57.9115L56.0121 53.8242L49.135 49.737L47.175 53.0348L54.0521 57.1221ZM56.0121 53.8242L62.909 57.8779C64.6687 54.8839 65.2443 51.3398 64.5224 47.9428L56.6971 49.6057L48.8719 51.2686C48.763 50.7564 48.8498 50.222 49.1151 49.7706L56.0121 53.8242ZM56.6971 49.6057L64.5224 47.9428C63.8005 44.5458 61.8335 41.542 59.0084 39.5223L54.3558 46.0303L49.7033 52.5382C49.2773 52.2337 48.9807 51.7808 48.8719 51.2686L56.6971 49.6057ZM54.3558 46.0303L58.9781 39.5007L52.7295 35.0774L48.1073 41.6069L43.485 48.1365L49.7336 52.5598L54.3558 46.0303ZM48.1073 41.6069L52.7015 35.0576C49.8436 33.0529 46.336 32.1969 42.8759 32.6598L43.9368 40.5892L44.9977 48.5185C44.4749 48.5885 43.9449 48.4591 43.5131 48.1562L48.1073 41.6069ZM43.9368 40.5892L42.8759 32.6598C39.4158 33.1228 36.2566 34.8707 34.0262 37.5562L40.1805 42.6675L46.3348 47.7787C45.9978 48.1845 45.5205 48.4486 44.9977 48.5185L43.9368 40.5892ZM40.1805 42.6675L34.0047 37.5823L33.2513 38.4973L39.4271 43.5825L45.603 48.6676L46.3564 47.7526L40.1805 42.6675ZM39.4271 43.5825L33.2295 38.5238C33.8572 37.7548 34.7401 37.2367 35.7176 37.0638L37.1112 44.9415L38.5048 52.8192C41.3019 52.3243 43.8285 50.8417 45.6247 48.6411L39.4271 43.5825ZM37.1112 44.9415L35.7176 37.0638C36.6951 36.8909 37.7022 37.0746 38.5556 37.5816L34.4696 44.4595L30.3836 51.3373C32.8257 52.7882 35.7076 53.314 38.5048 52.8192L37.1112 44.9415ZM34.4696 44.4595L38.6433 37.6345C36.2707 36.1836 34.0906 34.4392 32.1545 32.4426L26.4113 38.0117L20.6681 43.5809C23.5407 46.5433 26.7755 49.1316 30.2958 51.2844L34.4696 44.4595ZM26.4113 38.0117V46.0117H54.3655V38.0117V30.0117H26.4113V38.0117ZM54.3655 38.0117L54.3741 46.0117C58.0078 46.0078 61.4916 44.5627 64.0612 41.9934L58.4046 36.3363L52.748 30.6792C53.1748 30.2524 53.7534 30.0124 54.3569 30.0117L54.3655 38.0117ZM58.4046 36.3363L64.0612 41.9934C66.6307 39.424 68.0762 35.9404 68.0804 32.3067L60.0804 32.2974L52.0804 32.2881C52.0811 31.6845 52.3212 31.1059 52.748 30.6792L58.4046 36.3363ZM60.0804 32.2974H68.0804V9.71436H60.0804H52.0804V32.2974H60.0804ZM60.0804 9.71436L68.0804 9.70508C68.0762 6.07136 66.6307 2.58769 64.0612 0.0183687L58.4046 5.67547L52.748 11.3326C52.3212 10.9058 52.0811 10.3272 52.0804 9.72364L60.0804 9.71436ZM58.4046 5.67547L64.0612 0.0183687C61.4916 -2.55095 58.0078 -3.99609 54.3741 -4L54.3655 4L54.3569 12C53.7534 11.9993 53.1748 11.7593 52.748 11.3326L58.4046 5.67547ZM33.4265 46.166L29.2762 53.0052C36.6906 57.5046 44.7093 53.9145 48.3921 48.3592L41.7243 43.9388L35.0565 39.5184C35.0885 39.4701 35.2626 39.2363 35.7412 39.0963C35.9925 39.0228 36.3144 38.9827 36.6756 39.0267C37.0458 39.0718 37.3571 39.1934 37.5769 39.3268L33.4265 46.166ZM41.7243 43.9388L47.8792 49.0494C47.2196 49.8437 46.2853 50.3607 45.262 50.4975L44.2015 42.5681L43.1411 34.6387C40.1806 35.0346 37.4775 36.5303 35.5694 38.8283L41.7243 43.9388ZM44.2015 42.5681L45.262 50.4975C44.2386 50.6344 43.2013 50.3811 42.3562 49.788L46.9519 43.2397L51.5476 36.6915C49.1028 34.9756 46.1017 34.2428 43.1411 34.6387L44.2015 42.5681ZM46.9519 43.2397L42.3297 49.7693L48.5782 54.1926L53.2005 47.6631L57.8227 41.1335L51.5742 36.7102L46.9519 43.2397ZM53.2005 47.6631L48.548 54.1711C47.7133 53.5744 47.1321 52.6869 46.9189 51.6832L54.7443 50.0209L62.5697 48.3586C61.9524 45.4525 60.2698 42.8828 57.8529 41.1551L53.2005 47.6631ZM54.7443 50.0209L46.9189 51.6832C46.7057 50.6796 46.8759 49.6325 47.3959 48.748L54.2923 52.8027L61.1886 56.8574C62.6943 54.2964 63.187 51.2646 62.5697 48.3586L54.7443 50.0209ZM54.2923 52.8027L47.4146 48.7164L45.4552 52.0142L52.3328 56.1006L59.2104 60.1869L61.1699 56.8891L54.2923 52.8027ZM52.3328 56.1006L45.5081 51.9265C45.8779 51.3218 46.401 50.8254 47.0244 50.4877L50.8353 57.5217L54.6462 64.5557C56.5008 63.5509 58.057 62.0741 59.1576 60.2746L52.3328 56.1006ZM50.8353 57.5217L47.0244 50.4877C47.6477 50.15 48.3492 49.9829 49.0578 50.0033L48.827 58L48.5961 65.9967C50.7045 66.0575 52.7916 65.5604 54.6462 64.5557L50.8353 57.5217ZM48.827 58L48.9115 50.0004C43.4283 49.9425 38.3875 47.5611 34.2056 44.541C30.0474 41.5381 27.4034 38.4169 26.3381 37.276L20.4909 42.7358L14.6436 48.1956C15.3714 48.975 19.1497 53.4041 24.8382 57.5122C30.5031 61.6032 38.7338 65.8937 48.7424 65.9996L48.827 58ZM20.4909 42.7358L26.0817 37.0136C17.3772 28.509 14.6537 20.3074 13.8162 16.6016L6.01299 18.3652L-1.79019 20.1288C-0.411986 26.2268 3.57449 37.3923 14.9001 48.4579L20.4909 42.7358ZM6.01299 18.3652L13.8315 16.6707C14.0199 17.5402 13.9228 18.4474 13.5544 19.2572L6.27216 15.9454L-1.01013 12.6336C-2.06762 14.9589 -2.34656 17.5633 -1.80548 20.0598L6.01299 18.3652ZM6.27216 15.9454L13.5544 19.2572C13.1861 20.0671 12.5663 20.7366 11.7871 21.166L7.92559 14.1597L4.0641 7.15334C1.82693 8.38634 0.0473516 10.3083 -1.01013 12.6336L6.27216 15.9454ZM7.92559 14.1597L11.7969 21.1606L16.2129 18.7187L12.3416 11.7178L8.47031 4.71684L4.05431 7.15874L7.92559 14.1597ZM12.3416 11.7178L16.2336 18.7072C15.3305 19.2101 14.2721 19.3569 13.2663 19.1188L15.1088 11.3339L16.9514 3.54901C14.0696 2.86694 11.0369 3.28761 8.44962 4.72832L12.3416 11.7178ZM15.1088 11.3339L13.2663 19.1188C12.2605 18.8808 11.3801 18.2751 10.7983 17.4208L17.4104 12.9175L24.0226 8.41417C22.3555 5.96654 19.8332 4.23107 16.9514 3.54901L15.1088 11.3339ZM17.4104 12.9175L10.8118 17.4405L12.0238 19.2087L18.6224 14.6857L25.2211 10.1627L24.0091 8.39446L17.4104 12.9175ZM18.6224 14.6857L12.0239 19.2088L15.1097 23.7106L21.7083 19.1875L28.3069 14.6644L25.221 10.1625L18.6224 14.6857ZM21.7083 19.1875L15.118 23.7227C14.5121 22.8422 14.2707 21.7613 14.4444 20.7067L22.338 22.007L30.2316 23.3073C30.7302 20.2809 30.0374 17.179 28.2986 14.6523L21.7083 19.1875ZM22.338 22.007L14.4444 20.7067C14.6181 19.6521 15.1935 18.7058 16.0498 18.0662L20.8372 24.4756L25.6246 30.885C28.082 29.0495 29.7331 26.3337 30.2316 23.3073L22.338 22.007ZM20.8372 24.4756L16.0738 18.0483C13.2659 20.1293 11.3495 23.1956 10.7093 26.6314L18.574 28.0968L26.4386 29.5621C26.3386 30.0988 26.0392 30.5778 25.6006 30.9029L20.8372 24.4756ZM18.574 28.0968L10.7093 26.6314C10.0691 30.0672 10.7527 33.618 12.6227 36.5705L19.3812 32.29L26.1397 28.0095C26.4318 28.4708 26.5386 29.0254 26.4386 29.5621L18.574 28.0968ZM19.3812 32.29L12.6078 36.5469C16.8133 43.2386 22.5099 48.8665 29.2522 52.9906L33.4265 46.166L37.6009 39.3414C32.9643 36.5054 29.0468 32.635 26.1546 28.0332L19.3812 32.29ZM58.0804 32.2974L50.0804 32.2881C50.0817 31.1542 50.5328 30.0672 51.3346 29.2655L56.991 34.9227L62.6475 40.5799C64.8422 38.3856 66.0768 35.4102 66.0804 32.3066L58.0804 32.2974ZM56.991 34.9227L51.3346 29.2655C52.1364 28.4638 53.2234 28.0129 54.3573 28.0117L54.3655 36.0117L54.3738 44.0117C57.4773 44.0085 60.4528 42.7743 62.6475 40.5799L56.991 34.9227ZM54.3655 36.0117V28.0117H24.5873V36.0117V44.0117H54.3655V36.0117ZM24.5873 36.0117L30.909 31.1089C30.5375 30.6301 30.1491 30.1553 29.8355 29.7714C29.4985 29.3589 29.226 29.0244 28.9736 28.6996C28.7251 28.3798 28.546 28.1326 28.4154 27.9356C28.2832 27.736 28.2415 27.6485 28.2451 27.6563C28.2483 27.6629 28.3363 27.8465 28.4057 28.1816C28.4787 28.5339 28.5315 29.0584 28.4393 29.6909C28.3445 30.3408 28.1218 30.9273 27.8365 31.4031C27.5639 31.8575 27.3018 32.0998 27.2194 32.1699L22.0373 26.0751L16.8553 19.9803C14.7543 21.7667 13.0645 24.2436 12.6068 27.3815C12.1755 30.3385 12.9965 32.8408 13.7863 34.5076C14.5695 36.1605 15.5945 37.5582 16.3398 38.5173C16.7304 39.02 17.125 39.5026 17.4435 39.8926C17.7854 40.3112 18.0407 40.6244 18.2657 40.9145L24.5873 36.0117ZM22.0373 26.0751L26.8361 32.4761C29.5251 30.4601 31.3887 27.5345 32.079 24.2453L24.2496 22.6022L16.4201 20.959C16.5279 20.4456 16.8188 19.9889 17.2386 19.6742L22.0373 26.0751ZM24.2496 22.6022L32.079 24.2453C32.7693 20.9562 32.2391 17.5282 30.5874 14.6012L23.6202 18.5329L16.653 22.4646C16.3952 22.0076 16.3124 21.4725 16.4201 20.959L24.2496 22.6022ZM23.6202 18.5329L18.8211 24.9336L25.395 29.8626L30.1941 23.4619L34.9932 17.0612L28.4193 12.1322L23.6202 18.5329ZM30.1941 23.4619L25.4354 29.8926C27.8052 31.6463 30.6756 32.5926 33.6237 32.5922L33.6225 24.5922L33.6213 16.5922C34.1007 16.5921 34.5675 16.746 34.9529 17.0312L30.1941 23.4619ZM33.6225 24.5922L33.6237 32.5922C36.5718 32.5918 39.4419 31.6446 41.8112 29.8902L37.0506 23.4609L32.2899 17.0316C32.6752 16.7463 33.1419 16.5923 33.6213 16.5922L33.6225 24.5922ZM37.0506 23.4609L41.8494 29.8618L57.7468 17.9434L52.9481 11.5425L48.1493 5.14157L32.2518 17.06L37.0506 23.4609ZM52.9481 11.5425L57.7641 17.9304C59.6666 16.4961 60.9227 14.3659 61.2571 12.0068L53.3362 10.8842L45.4154 9.76163C45.6754 7.92684 46.6524 6.2701 48.132 5.15458L52.9481 11.5425ZM53.3362 10.8842L61.2571 12.0068C61.5914 9.64776 60.9767 7.25242 59.5477 5.34592L53.1463 10.144L46.7448 14.9421C45.6334 13.4593 45.1553 11.5964 45.4154 9.76163L53.3362 10.8842ZM53.1463 10.144L59.5477 5.34592C58.1187 3.43941 55.992 2.17733 53.6339 1.83636L52.4891 9.75402L51.3442 17.6717C49.5102 17.4065 47.8562 16.4249 46.7448 14.9421L53.1463 10.144ZM52.4891 9.75402L53.6339 1.83636C51.2759 1.4954 48.8788 2.10335 46.9683 3.52699L51.7484 9.94189L56.5284 16.3568C55.0425 17.464 53.1782 17.9369 51.3442 17.6717L52.4891 9.75402ZM51.7484 9.94189L46.9496 3.54095L31.0531 15.4584L35.8519 21.8594L40.6506 28.2603L56.5471 16.3428L51.7484 9.94189ZM35.8519 21.8594L31.0321 15.4742C31.7778 14.9114 32.6865 14.6068 33.6207 14.6066L33.6225 22.6066L33.6243 30.6066C36.1677 30.606 38.6416 29.7768 40.6716 28.2445L35.8519 21.8594ZM33.6225 22.6066L33.6207 14.6066C34.555 14.6064 35.4638 14.9106 36.2097 15.4731L31.3929 21.8604L26.576 28.2477C28.6067 29.7791 31.081 30.6072 33.6243 30.6066L33.6225 22.6066ZM31.3929 21.8604L36.192 15.4598L25.0246 7.08645L20.2255 13.4871L15.4263 19.8877L26.5937 28.261L31.3929 21.8604ZM20.2255 13.4871L26.8241 8.96395L25.6585 7.26351L19.0599 11.7866L12.4613 16.3097L13.6269 18.0102L20.2255 13.4871ZM19.0599 11.7866L25.6735 7.2855C23.7266 4.42491 20.7796 2.39661 17.4123 1.59977L15.5701 9.38476L13.7278 17.1697C13.2054 17.0461 12.7483 16.7315 12.4463 16.2877L19.0599 11.7866ZM15.5701 9.38476L17.4123 1.59977C14.0451 0.802931 10.5015 1.29527 7.47907 2.97989L11.3739 9.96777L15.2687 16.9557C14.7998 17.217 14.2501 17.2934 13.7278 17.1697L15.5701 9.38476ZM11.3739 9.96777L7.50252 2.96687L5.29159 4.18947L9.16294 11.1904L13.0343 18.1913L15.2452 16.9687L11.3739 9.96777ZM9.16294 11.1904H17.1629V9.71437H9.16294H1.16294V11.1904H9.16294ZM9.16294 9.71437L17.1629 9.72364C17.1616 10.8575 16.7106 11.9445 15.9088 12.7462L10.2523 7.08902L4.59574 1.43184C2.4011 3.62623 1.16654 6.60158 1.16295 9.7051L9.16294 9.71437ZM10.2523 7.08902L15.9088 12.7462C15.107 13.5479 14.0199 13.9988 12.8861 14L12.8777 6L12.8694 -2C9.76588 -1.99676 6.79039 -0.76255 4.59574 1.43184L10.2523 7.08902ZM12.8777 6V14H54.3655V6V-2H12.8777V6ZM54.3655 6L54.3573 14C53.2234 13.9988 52.1364 13.5479 51.3346 12.7462L56.991 7.089L62.6475 1.43177C60.4528 -0.762617 57.4773 -1.9968 54.3738 -2L54.3655 6ZM56.991 7.089L51.3346 12.7462C50.5327 11.9445 50.0817 10.8575 50.0804 9.72365L58.0804 9.71436L66.0804 9.70507C66.0768 6.60153 64.8422 3.62616 62.6475 1.43177L56.991 7.089ZM58.0804 9.71436H50.0804V32.2974H58.0804H66.0804V9.71436H58.0804Z" fill="#142335" mask="url(#path-2-inside-1_142_3)"/>
</g>
</g>
</g>
</g>
</g>
</svg>
