<svg width="64" height="64" viewBox="0 0 64 64" fill="none" xmlns="http://www.w3.org/2000/svg">
<g id="thank you ">
<g id="Hero">
<g id="Frame 1984077875">
<g id="evaluation_14362773 1 [Vectorized]">
<path id="Vector" d="M30.4507 1.88283C30.6027 1.882 30.8219 1.90476 30.9429 1.99633C31.5879 2.48444 32.2514 3.09437 32.8629 3.62254L37.3651 7.51048L38.7698 8.7291C39.0501 8.97185 39.4289 9.31626 39.7279 9.51723L39.7251 9.47304C39.6773 8.70567 39.7314 7.78635 39.7117 6.99673C39.6964 6.37398 39.7039 5.65067 39.7286 5.02863C39.7342 4.88851 39.8292 4.56138 39.9317 4.46123C40.0851 4.31154 40.3457 4.2757 40.5526 4.2707C41.1807 4.25551 41.817 4.26179 42.4458 4.26213L45.9383 4.26426L48.2611 4.26029C48.7108 4.25963 49.1908 4.24095 49.6276 4.2857C50.0842 4.33251 50.2901 4.58604 50.3101 5.01917C50.3336 5.53301 50.3251 6.05167 50.3248 6.5626L50.3242 9.39379L50.3264 18.7164C52.3067 20.4943 54.4036 22.1826 56.3914 23.9554C56.5954 24.1376 56.9592 24.4383 57.0901 24.6778C57.5314 25.484 57.2779 26.4659 56.4986 26.9519C56.3045 27.0741 56.087 27.1543 55.8598 27.1873C55.4767 27.2455 51.5173 27.2576 51.2592 27.1937C51.2329 28.1817 51.2489 29.2151 51.2489 30.2084L51.2486 35.4997C51.2486 39.2184 51.207 43.0259 51.2548 46.7381C51.3933 46.9184 51.7933 47.299 51.9689 47.474L53.2832 48.7865L57.7242 53.2259C58.3448 53.8425 59.2676 54.6606 59.7101 55.3431C60.5548 56.6462 60.227 58.4397 59.1032 59.47C58.7323 59.8103 58.3207 60.2465 57.9742 60.6C57.1314 61.4815 56.4139 62.1112 55.1401 62.1275C53.4548 62.1487 52.6217 61.0015 51.5223 59.9012L49.3498 57.7275L44.4548 52.8353C43.9182 52.7694 42.4473 52.8097 41.8232 52.8097H36.547L18.9234 52.8094L14.5788 52.8109C13.7641 52.8112 12.9187 52.8444 12.1119 52.7575C11.0471 52.6556 10.0183 51.6753 9.91688 50.6003C9.84428 49.8309 9.87575 48.9528 9.87603 48.1659L9.87794 43.5944L9.87406 27.2177C9.09947 27.2631 8.196 27.2146 7.40994 27.2198C6.6575 27.2248 5.32978 27.3367 4.67647 26.9883C4.29997 26.7921 4.01869 26.4522 3.89641 26.0457C3.75319 25.5719 3.78669 25.1282 4.03138 24.6951C4.10975 24.5561 4.20622 24.4282 4.31828 24.3146C4.74463 23.8837 5.60388 23.1866 6.09078 22.7665L9.50688 19.8146L22.3501 8.71845L27.5989 4.17938C28.4266 3.46576 29.2563 2.73527 30.0943 2.03277C30.1915 1.95133 30.3288 1.91749 30.4507 1.88283ZM43.1814 51.2981C42.8476 50.4622 42.8214 49.824 43.0204 48.9431C42.1926 48.104 41.3608 47.2694 40.5245 46.4387C40.2601 46.1744 39.4814 45.3662 39.2183 45.1787C38.5079 45.6343 37.9426 45.9859 37.1804 46.355C34.1226 47.8412 30.6531 48.2525 27.3328 47.5222C23.368 46.6553 19.9075 44.2544 17.7073 40.844C15.6067 37.5725 14.9024 33.825 15.5082 30.0053C16.2836 25.9012 18.4653 22.349 21.9388 19.9783C25.2925 17.7043 29.4083 16.8458 33.3914 17.5895C37.3736 18.3501 40.8939 20.6539 43.1848 23.9987C45.4545 27.3446 46.3089 31.4522 45.5623 35.4256C45.2783 36.9131 44.7751 38.3503 44.0692 39.6903C43.9064 40.0003 43.7332 40.3047 43.5495 40.6028C43.4595 40.75 43.2283 41.039 43.2514 41.2009C43.9426 41.9597 44.8201 42.7625 45.5476 43.5115C45.8617 43.8353 46.7086 44.7081 47.0179 44.9569C48.1554 44.7365 48.7051 44.7944 49.7486 45.3328L49.7501 32.5744L49.7473 28.5501C49.7467 27.8587 49.7361 27.1551 49.7576 26.4635C49.7692 26.0905 49.9626 25.7691 50.3586 25.7185C50.8339 25.6577 51.3386 25.6809 51.8232 25.6818L54.5317 25.6878C54.8117 25.6883 55.6451 25.7519 55.7998 25.5615C55.7889 25.412 55.4239 25.1054 55.3032 25.0009L51.0545 21.334C50.5145 20.8681 49.357 19.9261 48.9007 19.433C48.7648 18.8671 48.8129 18.0049 48.8136 17.395L48.8161 14.6007L48.8148 8.80451C48.8148 7.81563 48.7961 6.76763 48.8182 5.78285C47.0867 5.7711 45.3554 5.76842 43.6239 5.77482C43.0014 5.77513 41.7867 5.8126 41.2086 5.76613L41.2129 9.38238C41.2129 10.0387 41.2389 10.7179 41.1695 11.3601C41.1367 11.6613 40.6864 11.9963 40.4292 11.9468C39.9792 11.8603 39.2379 11.1247 38.907 10.8374L37.2882 9.43554L31.8495 4.73954C31.6533 4.5731 30.6892 3.68604 30.5351 3.63885C28.6059 5.3496 26.5717 7.06279 24.6189 8.75254L11.5363 20.0598L7.2571 23.7569C6.91541 24.0517 5.53944 25.1993 5.3235 25.4935L5.32869 25.5786C5.51838 25.7452 6.6006 25.6888 6.91506 25.6879L9.39335 25.6819C9.83719 25.6812 10.3494 25.651 10.7893 25.7311C11.2194 25.8094 11.358 26.1237 11.3685 26.5344C11.386 27.2215 11.3796 27.9156 11.3791 28.6068L11.3777 32.4962L11.378 44.6606L11.3782 48.4381C11.3779 49.039 11.3521 49.6662 11.3898 50.2637C11.4295 50.89 11.8882 51.2593 12.4979 51.2759C13.3222 51.2981 14.1523 51.2894 14.9802 51.2894L19.8495 51.289L35.4761 51.2884L40.5189 51.2881C41.3136 51.2881 42.4126 51.2556 43.1814 51.2981ZM42.2664 42.3944C41.7348 43.0003 41.0711 43.7194 40.4392 44.2265C40.8001 44.5884 43.7114 47.5659 43.8686 47.5862C44.4289 47.0265 45.1045 46.3137 45.6792 45.7903C45.4161 45.49 42.4273 42.475 42.2664 42.3944ZM31.0777 46.3462C38.6754 46.0587 44.6004 39.665 44.3101 32.0675C44.0195 24.4699 37.6233 18.5473 30.0259 18.8409C22.4327 19.1343 16.5142 25.526 16.8046 33.1194C17.0949 40.7125 23.4843 46.6337 31.0777 46.3462ZM47.5642 46.3865C46.6932 46.6394 45.9832 47.6597 45.3158 48.2612C43.3398 50.0409 44.8836 51.1365 46.1829 52.4328L48.6123 54.8615L52.0045 58.2537C52.1611 58.4106 52.3342 58.6078 52.4992 58.7497C53.4198 59.5422 54.0957 60.8697 55.4954 60.569C56.3611 60.3309 57.0892 59.2797 57.7501 58.6919C59.7436 56.9178 58.1658 55.7934 56.8561 54.4853L54.3539 51.9859L51.0208 48.6522C50.622 48.2528 50.1939 47.83 49.8011 47.4303C48.9911 46.6062 48.7676 46.2981 47.5642 46.3865Z" fill="#142335" stroke="#142335" stroke-width="0.5"/>
<path id="Vector_2" d="M30.1294 21.2349C36.3974 20.9976 41.6724 25.8825 41.9167 32.1502C42.1608 38.4177 37.2817 43.6983 31.0145 43.9495C24.7374 44.2008 19.4467 39.3124 19.2021 33.0352C18.9575 26.7578 23.8518 21.4725 30.1294 21.2349ZM31.2339 42.4274C36.6592 42.0558 40.7589 37.3605 40.3961 31.9345C40.033 26.5084 35.3449 22.4011 29.918 22.7551C24.4788 23.11 20.3599 27.8116 20.7237 33.2502C21.0874 38.6889 25.7958 42.8002 31.2339 42.4274Z" fill="#142335" stroke="#142335" stroke-width="0.5"/>
<path id="Vector_3" d="M36.4532 27.9824C36.7354 27.9345 36.9926 27.9798 37.2095 28.1799C37.5213 28.4674 37.462 28.9586 37.1826 29.2472C36.6366 29.8111 36.077 30.3626 35.5216 30.9174L32.3635 34.0734L30.4054 36.0352C30.0567 36.3843 29.6995 36.7621 29.332 37.0777C29.0477 37.3218 28.6891 37.2899 28.423 37.0574C27.9821 36.6721 27.5531 36.2212 27.1409 35.8087L24.5721 33.2365C24.1652 32.8327 23.2995 32.1868 23.8887 31.5446C24.0219 31.4009 24.2065 31.3159 24.4022 31.308C24.5486 31.3015 24.7577 31.3537 24.8671 31.4496C26.2668 32.6762 27.5336 34.1921 28.915 35.4271C29.1039 35.1768 29.6026 34.7005 29.839 34.464L31.5132 32.7893L34.4335 29.8669C34.7645 29.5357 36.0907 28.129 36.4532 27.9824Z" fill="#142335" stroke="#142335" stroke-width="0.5"/>
</g>
</g>
</g>
</g>
</svg>
