<svg viewBox="0 0 256 256" xmlns="http://www.w3.org/2000/svg">
<style>
  path { fill: #142335; }
  @media (prefers-color-scheme: dark) { path { fill: #DECEC4; } }
</style>
<g transform="translate(81.2,28) scale(0.78)">
<path d="M59.9759 207.985C40.5825 207.985 25.7381 202.455 15.4429 191.397C5.14762 180.338 0 164.712 0 144.518V63.467C0 43.273 5.14762 27.6466 15.4429 16.588C25.7381 5.52914 40.5825 0 59.9759 0C79.3692 0 94.2134 5.52914 104.509 16.588C114.804 27.6466 119.951 43.273 119.951 63.467V144.518C119.951 164.712 114.804 180.338 104.509 191.397C94.2134 202.455 79.3692 207.985 59.9759 207.985ZM59.9759 171.924C73.6231 171.924 80.4466 163.63 80.4466 147.042V60.9426C80.4466 44.3548 73.6231 36.0608 59.9759 36.0608C46.3286 36.0608 39.5051 44.3548 39.5051 60.9426V147.042C39.5051 163.63 46.3286 171.924 59.9759 171.924Z"/>
<path d="M13.376 216.361L13.376 256H106.575V216.361H13.376Z"/>
</g>
</svg>
