<svg viewBox="0 0 48 48" xmlns="http://www.w3.org/2000/svg">
<style>
  path { fill: #142335; }
  @media (prefers-color-scheme: dark) { path { fill: #ffffff; } }
</style>
<g transform="translate(3.95,-3.82)">
<path d="M2.09092 10.1836H10.4036C13.2935 10.1836 15.4014 10.8651 16.7273 12.2283C18.0533 13.5573 18.7163 15.6191 18.7163 18.4135V20.6116C18.7163 24.3262 17.4923 26.6776 15.0444 27.6659V27.7681C16.4044 28.1771 17.3563 29.012 17.9003 30.2729C18.4783 31.5338 18.7673 33.2207 18.7673 35.3336V41.6209C18.7673 42.6435 18.8013 43.4782 18.8693 44.1258C18.9373 44.7393 19.1073 45.3527 19.3793 45.9661H13.6675C13.4635 45.3868 13.3275 44.8414 13.2595 44.3304C13.1915 43.8191 13.1575 42.899 13.1575 41.57V35.0269C13.1575 33.3911 12.8855 32.2495 12.3415 31.602C11.8316 30.9545 10.9306 30.6307 9.63864 30.6307H7.7007V45.9661H2.09092V10.1836ZM9.74062 25.5189C10.8626 25.5189 11.6956 25.2292 12.2395 24.6499C12.8175 24.0706 13.1065 23.0994 13.1065 21.7362V18.9758C13.1065 17.6808 12.8685 16.7437 12.3925 16.1644C11.9505 15.585 11.2366 15.2954 10.2506 15.2954H7.7007V25.5189H9.74062Z"/>
<path d="M29.5039 39.1596C26.75 39.1596 24.642 38.3758 23.1801 36.8082C21.7181 35.2405 20.9872 33.0254 20.9872 30.1628V18.6735C20.9872 15.8109 21.7181 13.5958 23.1801 12.0281C24.642 10.4605 26.75 9.67672 29.5039 9.67672C32.2578 9.67672 34.3656 10.4605 35.8276 12.0281C37.2895 13.5958 38.0205 15.8109 38.0205 18.6735V30.1628C38.0205 33.0254 37.2895 35.2405 35.8276 36.8082C34.3656 38.3758 32.2578 39.1596 29.5039 39.1596ZM29.5039 34.0478C31.4418 34.0478 32.4107 32.8721 32.4107 30.5206V18.3156C32.4107 15.9642 31.4418 14.7885 29.5039 14.7885C27.5659 14.7885 26.597 15.9642 26.597 18.3156V30.5206C26.597 32.8721 27.5659 34.0478 29.5039 34.0478Z"/>
<path d="M22.8863 40.347V45.9661H36.1208V40.347H22.8863Z"/>
</g>
</svg>
