<svg preserveAspectRatio="none" width="100%" height="100%" overflow="visible" style="display: block;" viewBox="0 0 76 161" fill="none" xmlns="http://www.w3.org/2000/svg">
<g id="Group 42">
<path id="Vector" d="M38.0001 130.803C25.7127 130.803 16.3074 127.326 9.78445 120.371C3.26149 113.416 7.62939e-06 103.588 7.62939e-06 90.8882V39.9148C7.62939e-06 27.2147 3.26149 17.3871 9.78445 10.4323C16.3074 3.47731 25.7127 0 38.0001 0C50.2875 0 59.6926 3.47731 66.2156 10.4323C72.7385 17.3871 76 27.2147 76 39.9148V90.8882C76 103.588 72.7385 113.416 66.2156 120.371C59.6926 127.326 50.2875 130.803 38.0001 130.803ZM38.0001 108.124C46.6469 108.124 50.9702 102.908 50.9702 92.4757V38.3272C50.9702 27.895 46.6469 22.6789 38.0001 22.6789C29.3533 22.6789 25.03 27.895 25.03 38.3272V92.4757C25.03 102.908 29.3533 108.124 38.0001 108.124Z" fill="var(--fill-0, #142335)"/>
<path id="Vector_2" d="M8.47456 136.071L8.47456 161H67.5247V136.071H8.47456Z" fill="var(--fill-0, #142335)"/>
</g>
</svg>
