<svg preserveAspectRatio="none" width="100%" height="100%" overflow="visible" style="display: block;" viewBox="0 0 209 72" fill="none" xmlns="http://www.w3.org/2000/svg">
<g id="Group 40 1">
<path id="Vector" opacity="0.6" d="M45.3396 54.9559H47.2145V66.9153H45.3396V54.9559ZM55.0956 54.9559H57.7717L58.9648 63.5154H58.9989L60.192 54.9559H62.868V66.9153H61.0954V57.8603H61.0613L59.6977 66.9153H58.1296L56.766 57.8603H56.7319V66.9153H55.0956V54.9559ZM70.7443 54.9559H73.4203L74.6134 63.5154H74.6475L75.8406 54.9559H78.5166V66.9153H76.744V57.8603H76.7099L75.3463 66.9153H73.7782L72.4146 57.8603H72.3806V66.9153H70.7443V54.9559ZM89.1026 67.0861C88.1822 67.0861 87.4777 66.8241 86.989 66.3002C86.5004 65.7763 86.2561 65.0359 86.2561 64.0792V57.792C86.2561 56.8353 86.5004 56.0949 86.989 55.571C87.4777 55.0471 88.1822 54.7851 89.1026 54.7851C90.023 54.7851 90.7275 55.0471 91.2161 55.571C91.7047 56.0949 91.949 56.8353 91.949 57.792V64.0792C91.949 65.0359 91.7047 65.7763 91.2161 66.3002C90.7275 66.8241 90.023 67.0861 89.1026 67.0861ZM89.1026 65.3776C89.7503 65.3776 90.0741 64.9847 90.0741 64.1988V57.6724C90.0741 56.8865 89.7503 56.4936 89.1026 56.4936C88.4549 56.4936 88.131 56.8865 88.131 57.6724V64.1988C88.131 64.9847 88.4549 65.3776 89.1026 65.3776ZM99.6942 54.9559H102.524C103.489 54.9559 104.194 55.1837 104.637 55.6393C105.08 56.0835 105.302 56.7726 105.302 57.7066V58.185C105.302 58.8 105.2 59.3012 104.995 59.6884C104.802 60.0757 104.501 60.3547 104.092 60.5256V60.5597C105.024 60.8787 105.489 61.7101 105.489 63.0541V64.0792C105.489 65.0018 105.245 65.7079 104.756 66.1977C104.279 66.6761 103.575 66.9153 102.643 66.9153H99.6942V54.9559ZM102.302 59.8251C102.677 59.8251 102.955 59.7283 103.137 59.5347C103.33 59.341 103.427 59.0164 103.427 58.5608V57.8945C103.427 57.4617 103.347 57.1485 103.188 56.9549C103.041 56.7612 102.802 56.6644 102.472 56.6644H101.569V59.8251H102.302ZM102.643 65.2068C102.972 65.2068 103.217 65.1214 103.376 64.9505C103.535 64.7683 103.614 64.4607 103.614 64.0279V62.9858C103.614 62.4391 103.518 62.0632 103.325 61.8582C103.143 61.6418 102.836 61.5336 102.404 61.5336H101.569V65.2068H102.643ZM113.062 54.9559H114.937V66.9153H113.062V54.9559ZM122.818 54.9559H124.693V65.2068H127.778V66.9153H122.818V54.9559ZM135.154 54.9559H137.029V66.9153H135.154V54.9559ZM144.91 54.9559H150.024V56.6644H146.785V59.8251H149.359V61.5336H146.785V65.2068H150.024V66.9153H144.91V54.9559ZM157.58 54.9559H159.932L161.755 62.1144H161.79V54.9559H163.46V66.9153H161.534L159.284 58.185H159.25V66.9153H157.58V54.9559Z" fill="var(--fill-0, #142335)"/>
<path id="Vector_2" d="M48.3427 46.4774C45.6229 46.4774 43.5662 45.7106 42.1721 44.1771C40.7781 42.6094 40.0812 40.3772 40.0812 37.4805V35.4358H45.3851V37.8895C45.3851 40.2068 46.3538 41.3654 48.292 41.3654C49.2436 41.3654 49.9579 41.0929 50.4339 40.5476C50.9436 39.9683 51.1989 39.0481 51.1989 37.7872C51.1989 36.2878 50.8588 34.9757 50.1787 33.8511C49.4989 32.6925 48.2409 31.3123 46.4049 29.7106C44.0929 27.6659 42.4781 25.8256 41.5602 24.1898C40.6422 22.52 40.1832 20.6457 40.1832 18.5669C40.1832 15.7383 40.897 13.5573 42.3251 12.0238C43.7532 10.4562 45.827 9.67237 48.5468 9.67237C51.2326 9.67237 53.2556 10.4562 54.6156 12.0238C56.0096 13.5573 56.7064 15.7724 56.7064 18.6691V20.1515H51.4026V18.3113C51.4026 17.0845 51.1648 16.1984 50.6888 15.6532C50.2128 15.0738 49.516 14.7842 48.598 14.7842C46.7279 14.7842 45.7929 15.9258 45.7929 18.209C45.7929 19.5041 46.133 20.7138 46.8128 21.8385C47.527 22.963 48.8017 24.3262 50.6377 25.9279C52.9837 27.9726 54.5985 29.8299 55.4824 31.4997C56.3667 33.1696 56.8086 35.1291 56.8086 37.3783C56.8086 40.3091 56.0777 42.5581 54.6156 44.1258C53.1879 45.6936 51.0966 46.4774 48.3427 46.4774ZM59.005 10.1836H74.3046V15.2954H64.6147V24.7522H72.3156V29.864H64.6147V40.8545H74.3046V45.9661H59.005V10.1836ZM76.5119 10.1836H83.5493L89.006 31.602H89.1083V10.1836H94.106V45.9661H88.3433L81.6115 19.8448H81.5096V45.9661H76.5119V10.1836ZM97.2556 10.1836H105.721C108.611 10.1836 110.719 10.8651 112.045 12.2283C113.371 13.5573 114.034 15.6191 114.034 18.4135V19.8448C114.034 21.6851 113.728 23.1845 113.116 24.3432C112.538 25.5019 111.637 26.3368 110.413 26.848V26.9503C113.201 27.9044 114.595 30.3922 114.595 34.4134V37.4805C114.595 40.2409 113.864 42.3539 112.402 43.8191C110.974 45.2506 108.866 45.9661 106.078 45.9661H97.2556V10.1836ZM105.058 24.7522C106.18 24.7522 107.013 24.4625 107.557 23.8832C108.135 23.3038 108.424 22.3326 108.424 20.9695V18.9758C108.424 17.6808 108.186 16.7437 107.71 16.1644C107.268 15.585 106.554 15.2954 105.568 15.2954H102.865V24.7522H105.058ZM106.078 40.8545C107.064 40.8545 107.795 40.5987 108.271 40.0875C108.747 39.5423 108.985 38.6221 108.985 37.3272V34.209C108.985 32.5732 108.696 31.4486 108.118 30.8352C107.574 30.1877 106.656 29.864 105.364 29.864H102.865V40.8545H106.078ZM116.854 10.1836H132.153V15.2954H122.464V24.7522H130.164V29.864H122.464V40.8545H132.153V45.9661H116.854V10.1836ZM134.361 10.1836H142.673C145.563 10.1836 147.671 10.8651 148.997 12.2283C150.323 13.5573 150.986 15.6191 150.986 18.4135V20.6116C150.986 24.3262 149.762 26.6776 147.314 27.6659V27.7681C148.674 28.1771 149.626 29.012 150.17 30.2729C150.748 31.5338 151.037 33.2207 151.037 35.3336V41.6209C151.037 42.6435 151.071 43.4782 151.139 44.1258C151.207 44.7393 151.377 45.3527 151.649 45.9661H145.937C145.733 45.3868 145.597 44.8414 145.529 44.3304C145.461 43.8191 145.427 42.899 145.427 41.57V35.0269C145.427 33.3911 145.155 32.2495 144.611 31.602C144.101 30.9545 143.2 30.6307 141.908 30.6307H139.97V45.9661H134.361V10.1836ZM142.01 25.5189C143.132 25.5189 143.965 25.2292 144.509 24.6499C145.087 24.0706 145.376 23.0994 145.376 21.7362V18.9758C145.376 17.6808 145.138 16.7437 144.662 16.1644C144.22 15.585 143.506 15.2954 142.52 15.2954H139.97V25.5189H142.01ZM161.865 46.4774C159.145 46.4774 157.071 45.7106 155.643 44.1771C154.215 42.6094 153.501 40.3772 153.501 37.4805V18.6691C153.501 15.7724 154.215 13.5573 155.643 12.0238C157.071 10.4562 159.145 9.67237 161.865 9.67237C164.585 9.67237 166.659 10.4562 168.087 12.0238C169.514 13.5573 170.228 15.7724 170.228 18.6691V21.7362H164.925V18.3113C164.925 15.9599 163.956 14.7842 162.018 14.7842C160.08 14.7842 159.111 15.9599 159.111 18.3113V37.8895C159.111 40.2068 160.08 41.3654 162.018 41.3654C163.956 41.3654 164.925 40.2068 164.925 37.8895V30.8863H162.12V25.7745H170.228V37.4805C170.228 40.3772 169.514 42.6094 168.087 44.1771C166.659 45.7106 164.585 46.4774 161.865 46.4774ZM172.81 10.1836H188.11V15.2954H178.42V24.7522H186.121V29.864H178.42V40.8545H188.11V45.9661H172.81V10.1836ZM190.317 10.1836H198.63C201.519 10.1836 203.627 10.8651 204.953 12.2283C206.279 13.5573 206.942 15.6191 206.942 18.4135V20.6116C206.942 24.3262 205.718 26.6776 203.271 27.6659V27.7681C204.63 28.1771 205.582 29.012 206.126 30.2729C206.704 31.5338 206.993 33.2207 206.993 35.3336V41.6209C206.993 42.6435 207.027 43.4782 207.095 44.1258C207.163 44.7393 207.333 45.3527 207.605 45.9661H201.894C201.689 45.3868 201.554 44.8414 201.485 44.3304C201.418 43.8191 201.383 42.899 201.383 41.57V35.0269C201.383 33.3911 201.112 32.2495 200.567 31.602C200.058 30.9545 199.157 30.6307 197.865 30.6307H195.927V45.9661H190.317V10.1836ZM197.966 25.5189C199.089 25.5189 199.922 25.2292 200.465 24.6499C201.043 24.0706 201.332 23.0994 201.332 21.7362V18.9758C201.332 17.6808 201.095 16.7437 200.618 16.1644C200.177 15.585 199.463 15.2954 198.477 15.2954H195.927V25.5189H197.966Z" fill="var(--fill-0, #142335)"/>
<path id="Vector_3" d="M48.3427 46.4774C45.6229 46.4774 43.5662 45.7106 42.1721 44.1771C40.7781 42.6094 40.0812 40.3772 40.0812 37.4805V35.4358H45.3851V37.8895C45.3851 40.2068 46.3538 41.3654 48.292 41.3654C49.2436 41.3654 49.9579 41.0929 50.4339 40.5476C50.9436 39.9683 51.1989 39.0481 51.1989 37.7872C51.1989 36.2878 50.8588 34.9757 50.1787 33.8511C49.4989 32.6925 48.2409 31.3123 46.4049 29.7106C44.0929 27.6659 42.4781 25.8256 41.5602 24.1898C40.6422 22.52 40.1832 20.6457 40.1832 18.5669C40.1832 15.7383 40.897 13.5573 42.3251 12.0238C43.7532 10.4562 45.827 9.67237 48.5468 9.67237C51.2326 9.67237 53.2556 10.4562 54.6156 12.0238C56.0096 13.5573 56.7064 15.7724 56.7064 18.6691V20.1515H51.4026V18.3113C51.4026 17.0845 51.1648 16.1984 50.6888 15.6532C50.2128 15.0738 49.516 14.7842 48.598 14.7842C46.7279 14.7842 45.7929 15.9258 45.7929 18.209C45.7929 19.5041 46.133 20.7138 46.8128 21.8385C47.527 22.963 48.8017 24.3262 50.6377 25.9279C52.9837 27.9726 54.5985 29.8299 55.4824 31.4997C56.3667 33.1696 56.8086 35.1291 56.8086 37.3783C56.8086 40.3091 56.0777 42.5581 54.6156 44.1258C53.1879 45.6936 51.0966 46.4774 48.3427 46.4774ZM59.005 10.1836H74.3046V15.2954H64.6147V24.7522H72.3156V29.864H64.6147V40.8545H74.3046V45.9661H59.005V10.1836ZM76.5119 10.1836H83.5493L89.006 31.602H89.1083V10.1836H94.106V45.9661H88.3433L81.6115 19.8448H81.5096V45.9661H76.5119V10.1836ZM97.2556 10.1836H105.721C108.611 10.1836 110.719 10.8651 112.045 12.2283C113.371 13.5573 114.034 15.6191 114.034 18.4135V19.8448C114.034 21.6851 113.728 23.1845 113.116 24.3432C112.538 25.5019 111.637 26.3368 110.413 26.848V26.9503C113.201 27.9044 114.595 30.3922 114.595 34.4134V37.4805C114.595 40.2409 113.864 42.3539 112.402 43.8191C110.974 45.2506 108.866 45.9661 106.078 45.9661H97.2556V10.1836ZM105.058 24.7522C106.18 24.7522 107.013 24.4625 107.557 23.8832C108.135 23.3038 108.424 22.3326 108.424 20.9695V18.9758C108.424 17.6808 108.186 16.7437 107.71 16.1644C107.268 15.585 106.554 15.2954 105.568 15.2954H102.865V24.7522H105.058ZM106.078 40.8545C107.064 40.8545 107.795 40.5987 108.271 40.0875C108.747 39.5423 108.985 38.6221 108.985 37.3272V34.209C108.985 32.5732 108.696 31.4486 108.118 30.8352C107.574 30.1877 106.656 29.864 105.364 29.864H102.865V40.8545H106.078ZM116.854 10.1836H132.153V15.2954H122.464V24.7522H130.164V29.864H122.464V40.8545H132.153V45.9661H116.854V10.1836ZM134.361 10.1836H142.673C145.563 10.1836 147.671 10.8651 148.997 12.2283C150.323 13.5573 150.986 15.6191 150.986 18.4135V20.6116C150.986 24.3262 149.762 26.6776 147.314 27.6659V27.7681C148.674 28.1771 149.626 29.012 150.17 30.2729C150.748 31.5338 151.037 33.2207 151.037 35.3336V41.6209C151.037 42.6435 151.071 43.4782 151.139 44.1258C151.207 44.7393 151.377 45.3527 151.649 45.9661H145.937C145.733 45.3868 145.597 44.8414 145.529 44.3304C145.461 43.8191 145.427 42.899 145.427 41.57V35.0269C145.427 33.3911 145.155 32.2495 144.611 31.602C144.101 30.9545 143.2 30.6307 141.908 30.6307H139.97V45.9661H134.361V10.1836ZM142.01 25.5189C143.132 25.5189 143.965 25.2292 144.509 24.6499C145.087 24.0706 145.376 23.0994 145.376 21.7362V18.9758C145.376 17.6808 145.138 16.7437 144.662 16.1644C144.22 15.585 143.506 15.2954 142.52 15.2954H139.97V25.5189H142.01ZM161.865 46.4774C159.145 46.4774 157.071 45.7106 155.643 44.1771C154.215 42.6094 153.501 40.3772 153.501 37.4805V18.6691C153.501 15.7724 154.215 13.5573 155.643 12.0238C157.071 10.4562 159.145 9.67237 161.865 9.67237C164.585 9.67237 166.659 10.4562 168.087 12.0238C169.514 13.5573 170.228 15.7724 170.228 18.6691V21.7362H164.925V18.3113C164.925 15.9599 163.956 14.7842 162.018 14.7842C160.08 14.7842 159.111 15.9599 159.111 18.3113V37.8895C159.111 40.2068 160.08 41.3654 162.018 41.3654C163.956 41.3654 164.925 40.2068 164.925 37.8895V30.8863H162.12V25.7745H170.228V37.4805C170.228 40.3772 169.514 42.6094 168.087 44.1771C166.659 45.7106 164.585 46.4774 161.865 46.4774ZM172.81 10.1836H188.11V15.2954H178.42V24.7522H186.121V29.864H178.42V40.8545H188.11V45.9661H172.81V10.1836ZM190.317 10.1836H198.63C201.519 10.1836 203.627 10.8651 204.953 12.2283C206.279 13.5573 206.942 15.6191 206.942 18.4135V20.6116C206.942 24.3262 205.718 26.6776 203.271 27.6659V27.7681C204.63 28.1771 205.582 29.012 206.126 30.2729C206.704 31.5338 206.993 33.2207 206.993 35.3336V41.6209C206.993 42.6435 207.027 43.4782 207.095 44.1258C207.163 44.7393 207.333 45.3527 207.605 45.9661H201.894C201.689 45.3868 201.554 44.8414 201.485 44.3304C201.418 43.8191 201.383 42.899 201.383 41.57V35.0269C201.383 33.3911 201.112 32.2495 200.567 31.602C200.058 30.9545 199.157 30.6307 197.865 30.6307H195.927V45.9661H190.317V10.1836ZM197.966 25.5189C199.089 25.5189 199.922 25.2292 200.465 24.6499C201.043 24.0706 201.332 23.0994 201.332 21.7362V18.9758C201.332 17.6808 201.095 16.7437 200.618 16.1644C200.177 15.585 199.463 15.2954 198.477 15.2954H195.927V25.5189H197.966Z" fill="var(--fill-0, #142335)"/>
<path id="Vector_4" d="M2.09092 10.1836H10.4036C13.2935 10.1836 15.4014 10.8651 16.7273 12.2283C18.0533 13.5573 18.7163 15.6191 18.7163 18.4135V20.6116C18.7163 24.3262 17.4923 26.6776 15.0444 27.6659V27.7681C16.4044 28.1771 17.3563 29.012 17.9003 30.2729C18.4783 31.5338 18.7673 33.2207 18.7673 35.3336V41.6209C18.7673 42.6435 18.8013 43.4782 18.8693 44.1258C18.9373 44.7393 19.1073 45.3527 19.3793 45.9661H13.6675C13.4635 45.3868 13.3275 44.8414 13.2595 44.3304C13.1915 43.8191 13.1575 42.899 13.1575 41.57V35.0269C13.1575 33.3911 12.8855 32.2495 12.3415 31.602C11.8316 30.9545 10.9306 30.6307 9.63864 30.6307H7.7007V45.9661H2.09092V10.1836ZM9.74062 25.5189C10.8626 25.5189 11.6956 25.2292 12.2395 24.6499C12.8175 24.0706 13.1065 23.0994 13.1065 21.7362V18.9758C13.1065 17.6808 12.8685 16.7437 12.3925 16.1644C11.9505 15.585 11.2366 15.2954 10.2506 15.2954H7.7007V25.5189H9.74062Z" fill="var(--fill-0, #142335)"/>
<path id="Vector_5" d="M2.09092 10.1836H10.4036C13.2935 10.1836 15.4014 10.8651 16.7273 12.2283C18.0533 13.5573 18.7163 15.6191 18.7163 18.4135V20.6116C18.7163 24.3262 17.4923 26.6776 15.0444 27.6659V27.7681C16.4044 28.1771 17.3563 29.012 17.9003 30.2729C18.4783 31.5338 18.7673 33.2207 18.7673 35.3336V41.6209C18.7673 42.6435 18.8013 43.4782 18.8693 44.1258C18.9373 44.7393 19.1073 45.3527 19.3793 45.9661H13.6675C13.4635 45.3868 13.3275 44.8414 13.2595 44.3304C13.1915 43.8191 13.1575 42.899 13.1575 41.57V35.0269C13.1575 33.3911 12.8855 32.2495 12.3415 31.602C11.8316 30.9545 10.9306 30.6307 9.63864 30.6307H7.7007V45.9661H2.09092V10.1836ZM9.74062 25.5189C10.8626 25.5189 11.6956 25.2292 12.2395 24.6499C12.8175 24.0706 13.1065 23.0994 13.1065 21.7362V18.9758C13.1065 17.6808 12.8685 16.7437 12.3925 16.1644C11.9505 15.585 11.2366 15.2954 10.2506 15.2954H7.7007V25.5189H9.74062Z" fill="var(--fill-0, #142335)"/>
<path id="Vector_6" d="M29.5039 39.1596C26.75 39.1596 24.642 38.3758 23.1801 36.8082C21.7181 35.2405 20.9872 33.0254 20.9872 30.1628V18.6735C20.9872 15.8109 21.7181 13.5958 23.1801 12.0281C24.642 10.4605 26.75 9.67672 29.5039 9.67672C32.2578 9.67672 34.3656 10.4605 35.8276 12.0281C37.2895 13.5958 38.0205 15.8109 38.0205 18.6735V30.1628C38.0205 33.0254 37.2895 35.2405 35.8276 36.8082C34.3656 38.3758 32.2578 39.1596 29.5039 39.1596ZM29.5039 34.0478C31.4418 34.0478 32.4107 32.8721 32.4107 30.5206V18.3156C32.4107 15.9642 31.4418 14.7885 29.5039 14.7885C27.5659 14.7885 26.597 15.9642 26.597 18.3156V30.5206C26.597 32.8721 27.5659 34.0478 29.5039 34.0478Z" fill="var(--fill-0, #142335)"/>
<path id="Vector_7" d="M29.5039 39.1596C26.75 39.1596 24.642 38.3758 23.1801 36.8082C21.7181 35.2405 20.9872 33.0254 20.9872 30.1628V18.6735C20.9872 15.8109 21.7181 13.5958 23.1801 12.0281C24.642 10.4605 26.75 9.67672 29.5039 9.67672C32.2578 9.67672 34.3656 10.4605 35.8276 12.0281C37.2895 13.5958 38.0205 15.8109 38.0205 18.6735V30.1628C38.0205 33.0254 37.2895 35.2405 35.8276 36.8082C34.3656 38.3758 32.2578 39.1596 29.5039 39.1596ZM29.5039 34.0478C31.4418 34.0478 32.4107 32.8721 32.4107 30.5206V18.3156C32.4107 15.9642 31.4418 14.7885 29.5039 14.7885C27.5659 14.7885 26.597 15.9642 26.597 18.3156V30.5206C26.597 32.8721 27.5659 34.0478 29.5039 34.0478Z" fill="var(--fill-0, #142335)"/>
<path id="Vector_8" d="M22.8863 40.347V45.9661H36.1208V40.347H22.8863Z" fill="var(--fill-0, #142335)"/>
</g>
</svg>
