<?xml version="1.0" encoding="UTF-8"?> <svg xmlns="http://www.w3.org/2000/svg" width="88" height="88" viewBox="0 0 88 88" fill="none"><rect width="88" height="88" rx="44" fill="#1476FF"></rect><path d="M55.714 58.2435L46.319 48.2672L48.3043 46.1595L57.7012 56.1318C57.9669 56.4152 58.0997 56.7675 58.0997 57.1887C58.0997 57.6098 57.9669 57.9607 57.7012 58.2415C57.4355 58.5223 57.1043 58.664 56.7076 58.6666C56.3109 58.6693 55.9797 58.5296 55.714 58.2435ZM29.3121 57.1887C29.3121 56.7675 29.4456 56.4159 29.7125 56.1338L41.7384 43.3664L36.1811 37.5061C35.9104 37.7935 35.5698 37.9372 35.1594 37.9372C34.749 37.9372 34.4085 37.7935 34.1378 37.5061L33.3856 36.6698V40.4899C33.3856 40.8514 33.2284 41.0958 32.9141 41.2229C32.5997 41.3501 32.3228 41.2865 32.0833 41.0322L27.7403 36.4215C27.4996 36.1659 27.4397 35.8719 27.5607 35.5395C27.6805 35.2044 27.9106 35.0369 28.2512 35.0369H31.8494L31.144 34.288C30.8421 33.9675 30.6911 33.5874 30.6911 33.1477C30.6911 32.708 30.8421 32.3273 31.144 32.0054L34.1022 28.8628C34.5339 28.4032 35.006 28.0628 35.5187 27.8417C36.0314 27.6205 36.5784 27.5106 37.1597 27.5119C37.5926 27.5119 38.0042 27.5728 38.3947 27.6947C38.7851 27.8165 39.1606 28.0258 39.5211 28.3224C39.6982 28.4615 39.8005 28.6482 39.828 28.8826C39.8554 29.117 39.7843 29.325 39.6146 29.5064L37.1391 32.1346L38.1682 33.2272C38.4389 33.5145 38.5743 33.8761 38.5743 34.3118C38.5743 34.7475 38.4389 35.1091 38.1682 35.3964L43.7256 41.2567L48.5101 36.1772C48.2169 35.7361 48.0136 35.2852 47.9001 34.8243C47.7866 34.3635 47.7298 33.8575 47.7298 33.3066C47.7298 31.6843 48.2593 30.3109 49.3184 29.1866C50.3775 28.0622 51.6711 27.5 53.1992 27.5C53.3763 27.5 53.5322 27.502 53.667 27.506C53.8017 27.5099 53.9539 27.5324 54.1235 27.5735C54.3081 27.6477 54.4335 27.7907 54.4996 28.0026C54.5657 28.2145 54.5258 28.3986 54.3799 28.5548L51.6966 31.4015C51.5332 31.5737 51.4515 31.7671 51.4515 31.9816C51.4515 32.1962 51.5326 32.3895 51.6948 32.5617L53.899 34.8998C54.0611 35.0733 54.2433 35.16 54.4454 35.16C54.6474 35.16 54.8296 35.074 54.9917 34.9018L57.6731 32.0551C57.819 31.8988 57.9924 31.8538 58.1933 31.92C58.3929 31.9862 58.5276 32.1213 58.5974 32.3253C58.6361 32.5067 58.6573 32.6683 58.6611 32.81C58.6648 32.953 58.6667 33.1186 58.6667 33.3066C58.6667 34.9289 58.1365 36.3023 57.0762 37.4267C56.0184 38.5524 54.7254 39.1152 53.1973 39.1152C52.6784 39.1152 52.2019 39.0563 51.7677 38.9384C51.3336 38.8206 50.9095 38.6027 50.4954 38.2849L31.6959 58.2415C31.4302 58.5249 31.0997 58.6666 30.7042 58.6666C30.3088 58.6666 29.9776 58.5249 29.7107 58.2415C29.4437 57.9581 29.3121 57.6071 29.3121 57.1887Z" fill="white" stroke="white" stroke-width="1.83333"></path></svg> 