<svg xmlns="http://www.w3.org/2000/svg" width="128" height="127" viewBox="0 0 128 127" fill="none"><path d="M104.299 14.0352C100.918 11.3293 97.3375 9.02723 93.6238 7.10881L39.6536 60.3903C38.0314 62.0003 37.0948 63.819 36.8592 65.8554C36.6156 67.8897 37.2625 69.662 38.7965 71.1721C40.3811 72.7367 42.1757 73.3798 44.1845 73.094C46.1985 72.8082 48.022 71.8607 49.6525 70.2554L72.7952 47.3962C77.5396 42.7115 82.8561 40.1506 88.7529 39.7356C94.936 39.3077 100.349 41.3908 104.998 45.9767C109.647 50.5673 111.735 55.8918 111.257 61.9424C110.727 67.6695 108.088 72.8819 103.347 77.5675L54.7186 125.584C76.3218 128.689 98.9818 120.872 113.723 102.914C135.973 75.801 131.753 36.0015 104.299 14.0352Z" fill="#1476FF"></path><path d="M41.1153 122.156L94.7787 69.1714C97.1204 66.8478 98.6335 64.32 99.3057 61.5778C99.9778 58.3521 99.2127 55.6599 97.0066 53.4848C94.804 51.3055 92.0933 50.6166 88.8818 51.4258C86.2009 52.0813 83.6835 53.5757 81.3371 55.8958L58.1923 78.7507C53.9212 82.9665 49.1851 85.3244 43.9603 85.8472C38.3529 86.3703 33.4614 84.5733 29.2962 80.4512C25.1725 76.385 23.3776 71.5789 23.9038 66.0514C24.4324 60.888 26.8201 56.2069 31.0912 51.9942L81.358 2.36017C57.4981 -4.26904 30.8626 3.16907 14.2682 23.3861C-7.98171 50.4943 -3.73373 90.2586 23.6915 112.268C31.5253 118.555 41.1153 122.156 41.1153 122.156Z" fill="#1476FF"></path></svg>