<svg xmlns="http://www.w3.org/2000/svg" width="88" height="88" viewBox="0 0 88 88" fill="none"><rect width="88" height="88" rx="44" fill="#1476FF"></rect><g clip-path="url(#clip0_412_4619)"><path d="M38.917 16.0106C39.9544 15.9659 43.5018 16.0454 44.2689 16.5931C44.4527 16.7245 44.5563 16.936 44.6273 17.1456C44.788 17.6209 44.8314 18.1746 44.9115 18.6716L45.3592 21.4698C45.712 21.6746 46.8825 22.1022 47.3837 22.3472C48.9564 23.1159 49.8605 23.8249 51.2102 24.8619C52.0289 24.6154 53.1654 24.1415 53.9701 23.8267C55.9837 23.0388 56.0254 23.0375 57.3201 24.7662C58.4482 26.2697 59.3814 27.9101 60.0968 29.6483C60.8452 31.452 60.6835 31.4386 59.2414 32.6337C58.4976 33.2503 57.5161 33.9768 56.8248 34.6287C57.2246 36.9635 57.2795 39.0024 56.8122 41.3454C57.548 41.9138 58.2568 42.5229 58.9771 43.1109C59.3576 43.4212 59.7934 43.7153 60.1388 44.0611C60.2704 44.1927 60.4146 44.354 60.4759 44.5336C60.7559 45.3523 59.4314 47.7748 59.0331 48.5476L61.1829 48.7993C63.3349 49.0524 64.8799 49.3716 66.4115 51.1126C66.7808 51.5326 67.0937 51.9992 67.3426 52.4997C67.6013 53.0237 67.8291 53.6789 68.037 54.2334L68.9656 56.7021L69.9047 59.1939C70.1473 59.8365 70.4301 60.5376 70.5901 61.1988C70.7584 61.882 70.8211 62.5866 70.7756 63.2888C70.6548 65.1845 69.7784 66.9524 68.343 68.196C67.8914 68.5877 67.3905 68.9185 66.8536 69.1803C65.9737 69.6196 64.3968 70.1558 63.428 70.5219C62.4073 70.908 60.8007 71.5692 59.8112 71.796C59.0597 71.9693 58.2872 72.0326 57.5175 71.9843C55.9876 71.8811 54.514 71.3658 53.2532 70.4936C52.0261 69.6434 50.7292 67.9776 49.7247 66.8152L45.8079 62.2786C45.5531 61.9888 45.1688 61.6157 45.0424 61.2544C44.8083 60.5845 45.2518 60.1687 45.6462 59.7189C46.3197 58.951 47.0005 58.3731 47.9854 58.0602C49.3613 57.623 50.5276 57.8053 51.7919 58.4515C51.5444 57.8701 51.2851 57.1249 51.0579 56.5208L49.4954 52.3832C48.5514 52.9856 47.6256 53.54 46.5867 53.966C46.2318 54.1116 45.6819 54.2911 45.3771 54.4924C45.1454 55.4182 44.8608 58.5939 44.4723 59.1613C44.2759 59.4476 43.8453 59.5883 43.517 59.651C41.3647 60.0602 39.113 60.0542 36.9451 59.7864C36.3818 59.7171 35.6843 59.6786 35.2097 59.3391C35.07 59.2394 34.9926 59.1463 34.9301 58.9853C34.721 58.4473 34.6773 57.7903 34.5859 57.2198L34.1378 54.4462C32.5195 53.833 31.2285 53.2477 29.7915 52.2369C29.2666 51.8676 28.8054 51.4528 28.3114 51.1014C27.3903 51.344 24.456 52.6852 23.8155 52.6842C22.5729 52.6824 19.8533 47.437 19.438 46.3768C18.6291 44.312 18.9367 44.3863 20.4509 43.1547L22.6836 41.3336C22.211 38.8023 22.3026 37.096 22.6794 34.6007C22.0418 34.093 19.3777 32.0329 19.0692 31.5205C18.9052 31.2481 18.9847 30.8589 19.0682 30.5693C19.6153 28.6742 21.1507 26.1234 22.3473 24.5487C22.6485 24.1523 22.9931 23.6322 23.442 23.3963C23.6457 23.2893 23.8359 23.2926 24.0594 23.3294C24.564 23.4124 25.0707 23.653 25.5467 23.834C26.4717 24.1857 27.3943 24.5592 28.333 24.8728C29.4501 23.7853 31.2302 22.7402 32.6489 22.1022C33.1225 21.8893 33.6183 21.7331 34.0643 21.5297L34.0986 21.5138C34.4844 20.4326 34.5377 17.3446 35.1386 16.6864C35.267 16.5458 35.4293 16.454 35.6089 16.3941C36.353 16.1459 38.0877 16.0604 38.917 16.0106ZM36.937 18.4455L36.9227 18.4997C36.6701 19.4743 36.6064 20.6282 36.4018 21.5921C36.3064 22.0701 36.2639 23.1209 35.7006 23.325C33.7373 24.0366 31.5916 24.9288 30.0262 26.3734C28.4466 27.831 28.3646 27.2478 26.476 26.5913C25.7498 26.3389 24.9704 26.0397 24.2452 25.7581C22.8512 27.6178 22.3329 28.5652 21.4107 30.6723L23.5513 32.4159C25.3638 33.8893 25.1503 33.5656 24.7534 35.8657C24.5335 37.4667 24.5573 39.1025 24.855 40.6941C25.054 41.7583 25.3096 42.064 24.3761 42.8621C23.4225 43.6771 22.3331 44.4629 21.4101 45.2984C21.6139 45.7219 21.7836 46.1609 21.9915 46.5823C22.5963 47.8088 23.3797 49.1325 24.2549 50.1871C25.1916 49.8903 26.0995 49.4829 27.0294 49.1518C27.557 48.9638 28.5202 48.4535 29.0576 48.7934C29.5307 49.0926 29.968 49.5771 30.4277 49.9096C31.7227 50.9201 33.1875 51.7388 34.7449 52.2673C35.3355 52.4675 36.0344 52.5893 36.2035 53.3044C36.5244 54.6615 36.609 56.1441 36.9146 57.497C38.8909 57.7885 40.603 57.7749 42.5838 57.5075C42.8821 56.2386 43.0215 54.6331 43.295 53.3125C43.6369 52.3524 44.3368 52.4777 45.1727 52.1238C46.3134 51.6415 47.711 50.9869 48.6788 50.2151L47.8447 47.9883C47.5724 47.2697 47.1223 46.2263 47.0467 45.5C46.9854 44.8724 47.0901 44.2399 47.3501 43.6656C47.7362 42.8056 48.4527 42.1377 49.3379 41.8131C50.2381 41.4751 51.2375 41.5186 52.1048 41.9337C52.6515 42.1893 53.1237 42.5811 53.4755 43.0713C53.8787 43.64 54.2161 44.6722 54.472 45.353L55.5081 48.1056C55.8861 48.1689 56.2393 48.2256 56.6232 48.2578C56.7835 47.9197 56.9967 47.5816 57.1752 47.2477C57.5172 46.6127 57.822 45.9585 58.0891 45.2883C57.3597 44.6817 56.6257 44.0803 55.8875 43.4842C53.9834 41.9326 54.4401 42.405 54.7485 40.1527C54.9813 38.5385 54.9484 36.8972 54.6519 35.2936C54.5479 34.7236 54.2718 33.904 54.745 33.449C55.6057 32.6218 56.6001 31.9146 57.5098 31.1387C57.7002 30.9763 57.9011 30.8216 58.1007 30.6744C57.3495 29.0144 56.4577 27.1438 55.241 25.76C54.3915 26.076 53.5441 26.3966 52.6981 26.7219C50.4293 27.5904 50.8899 27.5416 49.0449 26.0125C48.0208 25.1637 46.1751 24.1663 44.9136 23.7437C43.2549 23.1881 43.3752 23.2684 43.0981 21.5405L42.7642 19.4461C42.7368 19.2731 42.6666 18.5054 42.5165 18.4762C41.3265 18.2446 39.8127 18.203 38.6096 18.2841C38.0517 18.3344 37.4942 18.3882 36.937 18.4455ZM56.4027 50.499C56.7377 51.2624 56.9774 52.1217 57.3128 52.8858C57.6222 53.5918 57.7307 54.4854 56.8633 54.8435C56.6012 54.9541 56.3058 54.9541 56.0436 54.8438C55.6145 54.6632 55.4475 54.3461 55.2917 53.9404L52.8297 47.3684L52.1864 45.6582C51.8055 44.6449 51.6918 43.8196 50.3911 43.8745C49.7086 43.9522 49.1251 44.639 49.2966 45.3114C49.5549 46.324 50.018 47.3803 50.3904 48.3705L53.8924 57.6779L54.836 60.1732C55.0086 60.63 55.2133 61.1106 55.3201 61.5856C55.45 62.162 54.9596 62.8064 54.3859 62.8813C53.8528 62.9513 53.3904 62.5338 53.0019 62.2236L51.7082 61.1914C51.3715 60.9233 50.9749 60.5596 50.5945 60.3748C49.4664 59.8274 48.4681 60.0962 47.6112 60.9034C47.9018 61.2999 48.3435 61.7837 48.6729 62.1645L50.5073 64.2846L52.4632 66.5527C53.0548 67.2394 53.6375 67.9822 54.3603 68.5254C55.1528 69.1239 56.0821 69.5149 57.0639 69.663C58.8374 69.9339 59.981 69.4295 61.5788 68.81C62.3342 68.5566 63.1213 68.2226 63.8735 67.9503C65.6761 67.2975 67.0958 66.8495 68.0388 65.0042C68.6307 63.8453 68.707 62.4064 68.2526 61.1935C67.721 59.7732 67.1655 58.2492 66.6174 56.8424C66.2533 55.9086 65.5659 53.8043 65.0636 53.0458C64.6488 52.4147 64.0717 51.9068 63.3926 51.576C62.5799 51.1829 61.6919 51.1252 60.8046 51.0205L57.9018 50.6831C57.5042 50.6376 56.7629 50.575 56.4027 50.499Z" fill="white" stroke="white"></path><path d="M39.5693 30.5435C43.6672 30.4429 47.0737 33.6774 47.1857 37.775C47.2973 41.8727 44.072 45.2879 39.9747 45.4107C35.8617 45.5339 32.4304 42.2938 32.3182 38.1804C32.2061 34.0671 35.4557 30.6446 39.5693 30.5435ZM39.7299 43.1687C42.5867 43.1807 44.9161 40.8818 44.9417 38.0251C44.9673 35.1684 42.6796 32.828 39.823 32.7888C36.9471 32.7492 34.5874 35.0559 34.5616 37.932C34.5358 40.808 36.8537 43.1567 39.7299 43.1687Z" fill="white"></path></g><defs><clipPath id="clip0_412_4619"><rect width="56" height="56" fill="white" transform="translate(16 16)"></rect></clipPath></defs></svg>