<svg xmlns="http://www.w3.org/2000/svg" width="88" height="88" viewBox="0 0 88 88" fill="none"><rect width="88" height="88" rx="44" fill="#1476FF"></rect><path d="M42.6813 21H45.2526C45.5529 21.0878 46.1684 21.0942 46.5035 21.129C47.1409 21.1999 47.7752 21.2969 48.4046 21.4199C51.1455 21.963 53.7355 22.9534 56.1107 24.4409C56.5945 24.7439 57.1309 25.0279 57.4155 25.529C57.6688 25.975 57.7358 26.495 57.6041 26.9899C57.4683 27.4872 57.1392 27.9094 56.69 28.1624C56.2509 28.4186 55.7253 28.4821 55.2377 28.3379C54.8028 28.2138 53.9875 27.6274 53.523 27.362C52.7923 26.9392 52.0332 26.568 51.2508 26.2511C45.9202 24.0937 39.9045 24.4291 34.8466 27.1658C30.3789 29.6021 27.0592 33.7101 25.6148 38.5895C24.177 43.4726 24.7437 48.7274 27.1895 53.1917C29.6535 57.6812 33.8054 61.0034 38.726 62.4225C43.5865 63.8168 48.8015 63.2272 53.2279 60.783C57.7027 58.3123 61.0119 54.1645 62.4267 49.2527C63.2297 46.4377 63.3773 43.4762 62.8584 40.5955C62.7928 40.2306 62.7163 39.8679 62.6287 39.5077C62.4964 38.9657 62.2942 38.444 62.3508 37.8869C62.4094 37.3099 62.787 36.7417 63.2892 36.4582C63.7463 36.2044 64.2856 36.1433 64.7878 36.2883C65.7945 36.5853 66.0295 37.3212 66.2655 38.2309C66.5438 39.3047 66.7435 40.3974 66.8628 41.5002C66.892 41.7646 66.9454 42.6404 67 42.8213V45.2452C66.9423 45.4353 66.9283 45.7396 66.9104 45.9433C66.8812 46.3013 66.8459 46.6589 66.8046 47.0158C66.6939 47.9127 66.4726 48.9872 66.2428 49.8551C64.6515 55.8304 60.7334 60.9196 55.3637 63.986C53.0646 65.3049 50.5532 66.2139 47.9423 66.6721C47.6391 66.7251 47.295 66.7749 47.0042 66.8169C46.687 66.8628 45.5626 66.9189 45.34 67H42.688C42.4901 66.9292 41.9239 66.9052 41.6951 66.8837C38.8683 66.6159 36.0835 65.7797 33.5598 64.492C27.8504 61.5662 23.6115 56.4018 21.8551 50.2316C21.5761 49.2399 21.3641 48.2305 21.2205 47.2103C21.1784 46.906 21.1439 46.6008 21.1168 46.2946C21.0974 46.0745 21.0715 45.5361 21 45.3407V42.6412C21.0701 42.463 21.1285 41.5377 21.1591 41.2726C21.2099 40.8461 21.2726 40.4211 21.3473 39.9982C21.794 37.4614 22.6669 35.0185 23.9289 32.773C26.9533 27.3737 32.0215 23.4172 37.9933 21.7934C39.0234 21.5171 40.0708 21.3096 41.1285 21.1722C41.5171 21.1204 42.3622 21.1022 42.6813 21Z" fill="white"></path><path d="M44.0159 45.1122C44.2876 44.7998 44.689 44.4195 44.9891 44.119L46.6948 42.4135L51.9599 37.1486L59.7421 29.3668L62.3094 26.7982C62.7485 26.3591 63.8161 25.1883 64.328 24.9825C64.816 24.7821 65.3645 24.7874 65.8488 24.9971C66.2605 25.1777 66.6082 25.499 66.8052 25.906C66.8717 26.043 66.9386 26.2833 66.9999 26.4435V27.0581C66.8827 27.3238 66.8166 27.6688 66.6057 27.9104C66.2951 28.2662 65.9301 28.6143 65.5945 28.9496L63.6885 30.854L57.4542 37.0882L49.2387 45.3047L46.6308 47.9131C46.1741 48.3699 45.7157 48.847 45.2427 49.2843C44.813 49.6816 44.1976 49.8216 43.63 49.7158C42.9752 49.5936 42.5814 49.1412 42.1394 48.6891C41.9099 48.4571 41.6766 48.2237 41.445 47.9919L38.7284 45.2764L36.1089 42.6582C35.9399 42.4892 35.7676 42.3219 35.6011 42.1505C35.0412 41.5739 34.5069 41.2061 34.4268 40.3499C34.3774 39.8371 34.5357 39.3258 34.8662 38.9305C35.1914 38.5369 35.664 38.2943 36.1734 38.2594C37.1317 38.1857 37.588 38.703 38.2066 39.325L39.0633 40.1836L42.2764 43.3957C42.7804 43.9 43.5002 44.6663 44.0159 45.1122Z" fill="white"></path></svg>