<svg xmlns="http://www.w3.org/2000/svg" width="88" height="88" viewBox="0 0 88 88" fill="none"><rect width="88" height="88" rx="44" fill="#1476FF"></rect><path d="M34.4942 45.3753C34.5182 45.3731 34.5422 45.3718 34.5662 45.371C34.9233 45.3567 35.2883 45.3655 35.6457 45.3611C36.403 45.3485 37.0681 45.3387 37.6601 45.8858C38.3712 46.5429 38.2507 47.4349 38.2491 48.3164L38.2463 50.3248L38.247 55.9475C38.2466 56.9882 38.2393 58.0369 38.2523 59.0773C38.2729 60.7217 38.9432 62.2322 40.1442 63.3637C41.2494 64.4069 42.7259 64.9644 44.2447 64.9124C46.7772 64.8219 48.9604 63.1039 49.6437 60.6638C49.9076 59.7024 49.8559 58.8648 49.8551 57.8851L49.854 55.7878L49.8545 49.5901C49.854 48.7856 49.7763 47.5571 49.9141 46.8287C50.19 45.3696 51.6778 45.29 52.8563 45.3608C53.6003 45.3502 54.2005 45.368 54.7695 45.9121C55.5302 46.6397 55.3353 47.8529 55.335 48.8521L55.3342 52.5996L55.3353 57.1867C55.335 58.0746 55.3607 59.1363 55.2945 60.0078C55.1395 62.0154 54.4444 63.9434 53.2829 65.5878C51.5621 68.0381 48.9434 69.7099 45.9963 70.2393C43.0533 70.749 40.0282 70.0714 37.584 68.3547C35.1212 66.6302 33.4485 63.994 32.9371 61.0313C32.7156 59.7357 32.7717 58.3622 32.7719 57.0459L32.7722 52.1708L32.7717 48.8808C32.7685 47.3285 32.5033 45.6933 34.4942 45.3753ZM36.6017 53.3728L35.2024 53.3797C34.977 53.3813 34.6374 53.4021 34.4262 53.3676C34.4054 53.8549 34.3943 54.4193 34.4115 54.9065C34.4703 56.5647 34.3125 58.3647 34.4618 60.0089C34.6527 62.0993 35.5253 64.0694 36.9451 65.6157C38.6855 67.5227 41.1191 68.6501 43.6992 68.7449C46.2254 68.839 48.6867 67.9301 50.5458 66.2162C52.4606 64.4304 53.6189 62.0547 53.6804 59.4188C53.7105 58.1287 53.6862 56.8173 53.6859 55.5253C53.6895 54.8081 53.687 54.0912 53.6785 53.3739C53.0808 53.3906 52.4822 53.3679 51.8845 53.381C51.7609 53.3838 51.6392 53.3802 51.5167 53.3627C51.4891 53.9181 51.5011 54.5295 51.5014 55.0906L51.5031 57.7708C51.5031 58.4219 51.5249 59.2228 51.4623 59.8612C51.2816 61.6998 50.4192 63.4042 49.0451 64.639C45.9312 67.4464 41.2997 67.1601 38.513 64.044C38.0339 63.507 37.635 62.9032 37.3288 62.2522C36.4806 60.4612 36.6013 59.0797 36.6016 57.1826L36.6017 53.3728ZM34.4115 51.6846C34.9802 51.7027 35.5492 51.7084 36.1181 51.7024C36.2731 51.7043 36.4494 51.7029 36.6027 51.7109L36.6042 48.8338C36.6044 48.6202 36.6373 47.122 36.5265 47.092C36.1465 46.9883 35.2154 47.0258 34.8017 47.0501C34.6925 47.0515 34.5898 47.0403 34.4971 47.0936C34.4476 47.1464 34.4306 47.2033 34.4284 47.2749C34.3849 48.7383 34.431 50.2217 34.4115 51.6846ZM51.5003 51.6898C52.0855 51.7029 52.6706 51.7071 53.2558 51.7019L53.687 51.7054L53.6876 48.8154C53.6878 48.4991 53.7329 47.2388 53.597 47.0775C53.3572 47.0006 52.2047 47.0324 51.9023 47.0499C51.7852 47.0507 51.6827 47.0376 51.5824 47.0903C51.5156 47.1756 51.5074 47.3465 51.5052 47.4565C51.4763 48.8638 51.5271 50.2835 51.5003 51.6898Z" fill="white" stroke="white"></path><path d="M43.8446 17.5985C46.4972 17.5539 49.081 18.4447 51.1427 20.1145C53.4661 21.99 54.9492 24.7115 55.2664 27.6804C55.3667 28.6677 55.3345 29.8041 55.3345 30.8102V35.4074L55.3358 39.042C55.3358 39.5225 55.3618 40.5662 55.3071 41.0071C55.2675 41.3487 55.1286 41.6713 54.9076 41.9347C54.5945 42.314 54.011 42.6463 53.524 42.6411C52.5345 42.6305 51.3179 42.8578 50.5119 42.1746C50.1996 41.9124 49.9871 41.5507 49.91 41.1502C49.8318 40.7566 49.8512 40.1998 49.8526 39.7851L49.8559 38.1075L49.8551 31.7557L49.8559 29.7488C49.8562 29.2775 49.8665 28.7659 49.8225 28.3004C49.6724 26.7787 48.9235 25.3792 47.7408 24.4102C46.5454 23.42 44.9994 22.9567 43.4563 23.1261C40.8904 23.406 38.8141 25.3402 38.3534 27.88C38.2764 28.2908 38.2634 28.7073 38.2561 29.1237C38.251 29.4198 38.2426 29.7337 38.0405 29.9714C37.8894 30.1479 37.6704 30.2518 37.4382 30.2574C36.8537 30.2727 36.6098 29.8069 36.5983 29.2888C36.5513 27.1645 37.3146 25.143 38.8107 23.6218C40.2009 22.2227 42.09 21.4332 44.0623 21.4271C46.0414 21.433 47.9366 22.2262 49.3298 23.6317C50.5671 24.8599 51.3259 26.4889 51.47 28.2262C51.5304 28.9273 51.5036 29.939 51.5025 30.67L51.4995 34.6331C52.2263 34.6581 52.9583 34.6382 53.687 34.6506C53.6717 33.2563 53.696 31.8535 53.687 30.459C53.6818 29.6702 53.7168 28.7544 53.6435 27.977C53.4387 25.7815 52.4828 23.7238 50.9373 22.1512C47.2136 18.3464 41.0972 18.2834 37.3003 22.0146C35.658 23.6208 34.6486 25.7643 34.4565 28.0533C34.3875 28.8144 34.4122 29.7622 34.4126 30.5397L34.4122 34.6287C35.144 34.6599 35.8709 34.6346 36.6025 34.6528C36.598 34.1107 36.5007 32.6804 36.7526 32.2615C36.8673 32.0707 37.0425 31.9622 37.2593 31.9186C37.4841 31.873 37.7177 31.9251 37.9019 32.0619C38.0162 32.1458 38.1999 32.3531 38.2159 32.495C38.2222 32.556 38.2279 32.617 38.2328 32.6781C38.272 33.193 38.2493 33.9576 38.2492 34.4938L38.2477 37.7335L38.2482 39.8391C38.2482 40.1485 38.2625 40.8143 38.2122 41.091C38.1506 41.4238 37.9999 41.7337 37.7762 41.9877C37.1229 42.7382 36.2984 42.6525 35.3995 42.6574C34.6429 42.6616 33.987 42.6812 33.3845 42.1423C32.9831 41.7832 32.7939 41.2917 32.7746 40.757C32.7641 39.9957 32.7725 39.2181 32.7725 38.4543L32.7718 33.899L32.7719 30.475C32.772 29.7262 32.7471 28.8051 32.8043 28.0751C32.9875 25.5108 34.0421 23.0862 35.7931 21.2039C37.9333 18.8821 40.7184 17.7241 43.8446 17.5985ZM36.6022 36.3185L35.2429 36.3228C35.0126 36.3254 34.6386 36.3495 34.4236 36.314C34.3845 37.5828 34.428 38.8688 34.4131 40.1393C34.4112 40.3038 34.4025 40.7786 34.4888 40.9006C34.7378 41.0273 36.2802 41.0191 36.55 40.9302C36.634 40.6111 36.6049 39.5328 36.6047 39.1458L36.6022 36.3185ZM53.6247 40.9462C53.7567 40.5825 53.6919 36.9704 53.6783 36.3199C53.2419 36.3235 52.8054 36.3243 52.369 36.3224C52.1142 36.3234 51.7557 36.3479 51.5151 36.3025C51.5001 36.684 51.4478 40.4632 51.5747 40.8998C51.6174 41.0467 53.1639 40.9706 53.3829 40.9772C53.4551 40.9802 53.6088 40.9497 53.6247 40.9462Z" fill="white" stroke="white"></path><path d="M42.9742 38.8127C43.4785 38.7717 44.035 38.8022 44.5441 38.7984C46.555 38.7836 46.4029 40.1266 46.3906 41.6177C46.8284 41.6243 47.2667 41.6213 47.7037 41.6307C48.3933 41.6456 49.008 42.0752 49.1578 42.7697C49.2369 43.1355 49.2032 43.5056 49.2101 43.8769C49.1978 44.6581 49.3481 45.5003 48.6624 46.0606C48.1899 46.4467 47.7116 46.4142 47.1421 46.4207C46.8858 46.424 46.6436 46.4289 46.3901 46.4051C46.4169 47.561 46.5708 48.9569 45.0729 49.218C44.5277 49.2481 43.9696 49.23 43.4274 49.2366C41.4614 49.2609 41.5685 47.8587 41.6187 46.427C40.838 46.4215 39.7665 46.5468 39.2051 45.9499C38.6121 45.298 38.801 44.26 38.7849 43.4323C38.7459 41.417 40.2384 41.6107 41.6109 41.6328C41.5494 40.421 41.4505 39.0591 42.9742 38.8127ZM40.4407 43.2879C40.427 43.7618 40.4473 44.2912 40.4243 44.744C41.1072 44.7558 41.8986 44.7262 42.5698 44.7908C43.328 44.8635 43.2569 45.7259 43.2543 46.3004L43.2466 47.567C43.6858 47.5574 44.2937 47.5607 44.738 47.576C44.8876 44.5622 44.149 44.7426 47.5544 44.7599C47.561 44.2707 47.5607 43.7812 47.5536 43.292C46.8429 43.2926 46.091 43.3221 45.3899 43.2447C45.111 43.214 44.8184 42.9386 44.7861 42.6559C44.7044 41.9399 44.7697 41.2014 44.7448 40.4782C44.4607 40.4809 43.498 40.5161 43.2615 40.4568C43.2478 40.8147 43.2448 41.2624 43.2526 41.6182C43.2733 42.5655 43.3163 43.3443 42.0838 43.291C41.6003 43.27 40.9885 43.3288 40.4936 43.2922L40.4407 43.2879Z" fill="white" stroke="white"></path><path d="M27.9687 36.1363C28.3708 36.1178 28.776 36.078 29.0742 36.4043C29.3168 36.6699 29.3235 36.9969 29.1852 37.3161C29.1191 37.4577 28.9789 37.6009 28.8346 37.6636C28.4759 37.8196 27.9967 37.7945 27.6135 37.841C26.5289 37.9724 25.4779 38.4219 24.6281 39.0915C23.3124 40.1097 22.4637 41.6162 22.2747 43.2691C22.0762 44.9248 22.5528 46.5906 23.5969 47.8908C24.5612 49.095 25.9367 49.8998 27.4588 50.1505C27.7753 50.206 28.149 50.2139 28.4738 50.2443C29.327 50.3236 29.5623 51.2492 28.8819 51.7619C28.5284 51.9697 27.7084 51.8611 27.3174 51.8007C25.8584 51.5833 24.4893 50.9618 23.3652 50.0067C21.7796 48.6677 20.7898 46.7544 20.6129 44.6867C20.4285 42.5539 21.1161 40.4372 22.5188 38.8198C23.9168 37.1891 25.8438 36.3036 27.9687 36.1363Z" fill="white" stroke="white"></path><path d="M59.4386 36.1341C60.7615 36.0646 62.2668 36.492 63.4106 37.1422C65.2341 38.1737 66.5731 39.8876 67.1323 41.9066C67.6863 43.9325 67.4137 46.0954 66.3749 47.9206C66.1936 48.2326 66.0369 48.3939 65.6877 48.4853C65.1215 48.5009 64.6963 48.1738 64.7643 47.5643C64.7879 47.3524 64.9095 47.1651 65.0104 46.9811C65.7895 45.5603 65.971 43.8779 65.5365 42.3196C64.9052 40.0696 63.0671 38.3626 60.7765 37.8993C60.3027 37.8069 59.4271 37.8248 59.108 37.6342C58.9213 37.5246 58.7875 37.3431 58.7381 37.1322C58.615 36.6129 58.9393 36.2322 59.4386 36.1341Z" fill="white" stroke="white"></path><path d="M59.4209 40.2648C60.326 40.1999 61.3041 40.5769 61.9855 41.1657C62.735 41.8096 63.1965 42.7259 63.2676 43.7115C63.3691 45.1987 62.6507 46.5339 61.3546 47.2743C60.7714 47.6074 60.2871 47.7058 59.6271 47.752C59.2314 47.7419 58.9 47.6022 58.7636 47.2027C58.6867 46.9804 58.7072 46.7359 58.8204 46.5295C59.0977 46.0212 59.702 46.1486 60.2177 45.978C60.741 45.8024 61.1728 45.4256 61.4184 44.9313C62.0322 43.6754 61.2961 42.174 59.8989 41.9398C59.647 41.9012 59.3996 41.9177 59.1658 41.8032C58.6391 41.5452 58.5735 40.8443 58.9965 40.4579C59.1349 40.3314 59.238 40.3013 59.4209 40.2648Z" fill="white" stroke="white"></path><path d="M28.1886 40.265C28.5913 40.2321 28.9671 40.3069 29.182 40.6916C29.2867 40.8788 29.3112 41.1004 29.2497 41.3059C29.1473 41.639 28.7837 41.9 28.4472 41.9055C27.5314 41.9204 26.6952 42.4901 26.4387 43.417C26.2819 43.9699 26.3563 44.563 26.6449 45.0601C27.1397 45.9094 27.8282 46.0406 28.6986 46.1566C29.1143 46.2118 29.3871 46.8049 29.2348 47.1817C29.1239 47.4562 29.0114 47.5629 28.7383 47.7045C28.6784 47.7179 28.6178 47.728 28.5568 47.7349C28.1386 47.783 27.4989 47.6591 27.1125 47.5008C23.4252 45.9884 24.1759 40.6343 28.1886 40.265Z" fill="white" stroke="white"></path><path d="M63.0747 49.2009C63.3421 49.1651 63.5606 49.1998 63.7747 49.3754C63.9524 49.5186 64.0612 49.7308 64.0735 49.9589C64.1036 50.5295 63.5283 50.8136 63.0963 51.0305C62.0517 51.565 60.8997 51.8557 59.727 51.8811C59.3094 51.8751 58.8998 51.7893 58.776 51.352C58.47 50.2714 59.4894 50.2238 60.2326 50.1812C60.9293 50.1413 61.6181 49.9077 62.2333 49.6091C62.5067 49.4763 62.787 49.2862 63.0747 49.2009Z" fill="white" stroke="white"></path><path d="M16 42.9196C16.1117 42.6337 16.1204 42.2245 16.1728 41.9128C16.2673 41.3694 16.3953 40.8323 16.556 40.3047C17.5683 37.0658 19.8514 34.3763 22.883 32.8517C24.3777 32.1078 26.0056 31.6689 27.6717 31.5608C28.0521 31.537 28.3554 31.5045 28.7397 31.6067C29.4265 31.7893 29.4384 32.8658 28.8155 33.0866C28.4018 33.2332 27.7677 33.218 27.3024 33.264C26.8808 33.3078 26.4618 33.3743 26.0473 33.4632C22.846 34.1375 20.0295 36.473 18.655 39.4292C17.4413 42.0375 17.3154 45.0215 18.305 47.7227C19.2989 50.4134 21.3158 52.6025 23.9163 53.8127C24.9954 54.3115 26.0676 54.6084 27.2517 54.7474C27.6059 54.7889 28.4522 54.79 28.7236 54.8748C28.9562 54.9472 29.1422 55.1231 29.2274 55.3514C29.3114 55.5811 29.2765 55.7654 29.1895 55.9852C28.9527 56.584 28.1786 56.476 27.6557 56.4438C25.8082 56.3199 24.0112 55.7872 22.3945 54.8843C19.5117 53.2711 17.383 50.5845 16.4718 47.4091C16.351 46.9798 16.2523 46.5448 16.1762 46.1054C16.1362 45.874 16.0764 45.2191 16 45.0554V42.9196Z" fill="white" stroke="white"></path><path d="M72 44.9678C71.9557 45.105 71.933 45.274 71.9158 45.4181C71.7914 46.4563 71.5655 47.4246 71.192 48.406C69.9952 51.539 67.5955 54.0637 64.5275 55.4185C63.1641 56.0204 61.7034 56.3717 60.2154 56.4562C59.872 56.4746 59.5359 56.5065 59.1998 56.3832C58.528 56.1363 58.5865 55.0612 59.263 54.8733C59.6781 54.7582 60.1949 54.8077 60.6338 54.7598C61.4196 54.674 62.1833 54.517 62.935 54.266C65.6743 53.3451 67.9378 51.378 69.2317 48.7937C70.5027 46.2261 70.702 43.2591 69.786 40.5446C68.5541 36.9063 65.4875 34.1924 61.7264 33.4119C61.1743 33.2989 60.663 33.2345 60.1011 33.2182C59.7645 33.2084 59.3311 33.2061 59.0467 33.0191C58.5064 32.6637 58.6699 31.7015 59.3281 31.5791C59.6994 31.5071 60.0683 31.5433 60.4407 31.57C62.3422 31.7098 64.1865 32.2848 65.8304 33.2506C68.6293 34.8922 70.6807 37.5577 71.5502 40.6838C71.6743 41.1213 71.7689 41.5665 71.8338 42.0166C71.8797 42.3333 71.9166 42.7778 72 43.0747V44.9678Z" fill="white" stroke="white"></path></svg>