<svg xmlns="http://www.w3.org/2000/svg" width="88" height="88" viewBox="0 0 88 88" fill="none"><rect width="88" height="88" rx="44" fill="#1476FF"></rect><path d="M31.0977 20.4176C29.6248 20.4176 28.2122 21.0027 27.1707 22.0442C26.1292 23.0857 25.5441 24.4983 25.5441 25.9713V34.9545C25.6863 34.947 25.8288 34.943 25.9713 34.9426H28.9617V25.9713C28.9617 24.7922 29.9187 23.8352 31.0977 23.8352H62.7109C63.89 23.8352 64.847 24.7922 64.847 25.9713V47.3315C64.847 48.5106 63.89 49.4676 62.7109 49.4676H41.7779V52.8852H51.1764V58.0117H41.7779V61.4293H58.0117C58.4649 61.4293 58.8995 61.2493 59.22 60.9288C59.5405 60.6084 59.7205 60.1737 59.7205 59.7205C59.7205 59.2673 59.5405 58.8326 59.22 58.5122C58.8995 58.1917 58.4649 58.0117 58.0117 58.0117H54.594V52.8852H62.7109C64.1839 52.8852 65.5965 52.3001 66.638 51.2586C67.6795 50.2171 68.2646 48.8045 68.2646 47.3315V25.9713C68.2646 24.4983 67.6795 23.0857 66.638 22.0442C65.5965 21.0027 64.1839 20.4176 62.7109 20.4176H31.0977ZM20.4176 43.0595C20.4176 41.5866 21.0027 40.174 22.0442 39.1325C23.0857 38.0909 24.4983 37.5058 25.9713 37.5058H33.661C35.1339 37.5058 36.5465 38.0909 37.588 39.1325C38.6295 40.174 39.2146 41.5866 39.2146 43.0595V62.7109C39.2146 64.1839 38.6295 65.5965 37.588 66.638C36.5465 67.6795 35.1339 68.2646 33.661 68.2646H25.9713C24.4983 68.2646 23.0857 67.6795 22.0442 66.638C21.0027 65.5965 20.4176 64.1839 20.4176 62.7109V43.0595ZM25.9713 40.9235C24.7922 40.9235 23.8352 41.8804 23.8352 43.0595V62.7109C23.8352 63.89 24.7922 64.847 25.9713 64.847H33.661C34.8401 64.847 35.797 63.89 35.797 62.7109V43.0595C35.797 41.8804 34.8401 40.9235 33.661 40.9235H25.9713ZM28.9617 59.7205C28.5085 59.7205 28.0739 59.9005 27.7534 60.221C27.4329 60.5415 27.2529 60.9761 27.2529 61.4293C27.2529 61.8825 27.4329 62.3172 27.7534 62.6376C28.0739 62.9581 28.5085 63.1381 28.9617 63.1381H30.6705C31.1237 63.1381 31.5584 62.9581 31.8789 62.6376C32.1993 62.3172 32.3794 61.8825 32.3794 61.4293C32.3794 60.9761 32.1993 60.5415 31.8789 60.221C31.5584 59.9005 31.1237 59.7205 30.6705 59.7205H28.9617Z" fill="white"></path></svg>