<svg xmlns="http://www.w3.org/2000/svg" width="88" height="88" viewBox="0 0 88 88" fill="none"><rect width="88" height="88" rx="44" fill="#1476FF"></rect><path d="M31.0976 20.4175C29.6247 20.4175 28.2121 21.0026 27.1706 22.0441C26.1291 23.0856 25.5439 24.4982 25.5439 25.9712V34.9544C25.6862 34.9469 25.8287 34.9429 25.9712 34.9425H28.9616V25.9712C28.9616 24.7921 29.9185 23.8351 31.0976 23.8351H62.7108C63.8899 23.8351 64.8468 24.7921 64.8468 25.9712V47.3314C64.8468 48.5105 63.8899 49.4674 62.7108 49.4674H41.7778V52.8851H51.1763V58.0116H41.7778V61.4292H58.0116C58.4648 61.4292 58.8994 61.2492 59.2199 60.9287C59.5403 60.6082 59.7204 60.1736 59.7204 59.7204C59.7204 59.2672 59.5403 58.8325 59.2199 58.5121C58.8994 58.1916 58.4648 58.0116 58.0116 58.0116H54.5939V52.8851H62.7108C64.1837 52.8851 65.5963 52.3 66.6379 51.2585C67.6794 50.2169 68.2645 48.8043 68.2645 47.3314V25.9712C68.2645 24.4982 67.6794 23.0856 66.6379 22.0441C65.5963 21.0026 64.1837 20.4175 62.7108 20.4175H31.0976ZM20.4175 43.0594C20.4175 41.5864 21.0026 40.1738 22.0441 39.1323C23.0856 38.0908 24.4982 37.5057 25.9712 37.5057H33.6608C35.1338 37.5057 36.5464 38.0908 37.5879 39.1323C38.6294 40.1738 39.2145 41.5864 39.2145 43.0594V62.7108C39.2145 64.1837 38.6294 65.5963 37.5879 66.6379C36.5464 67.6794 35.1338 68.2645 33.6608 68.2645H25.9712C24.4982 68.2645 23.0856 67.6794 22.0441 66.6379C21.0026 65.5963 20.4175 64.1837 20.4175 62.7108V43.0594ZM25.9712 40.9233C24.7921 40.9233 23.8351 41.8803 23.8351 43.0594V62.7108C23.8351 63.8899 24.7921 64.8468 25.9712 64.8468H33.6608C34.8399 64.8468 35.7969 63.8899 35.7969 62.7108V43.0594C35.7969 41.8803 34.8399 40.9233 33.6608 40.9233H25.9712ZM28.9616 59.7204C28.5084 59.7204 28.0737 59.9004 27.7533 60.2209C27.4328 60.5413 27.2528 60.976 27.2528 61.4292C27.2528 61.8824 27.4328 62.3171 27.7533 62.6375C28.0737 62.958 28.5084 63.138 28.9616 63.138H30.6704C31.1236 63.138 31.5583 62.958 31.8787 62.6375C32.1992 62.3171 32.3792 61.8824 32.3792 61.4292C32.3792 60.976 32.1992 60.5413 31.8787 60.2209C31.5583 59.9004 31.1236 59.7204 30.6704 59.7204H28.9616Z" fill="white"></path></svg>