<svg xmlns="http://www.w3.org/2000/svg" width="520" height="87" viewBox="0 0 520 87" fill="none"><path d="M196.37 42.0065C196.37 46.0614 194.911 49.3243 191.987 51.7911C189.193 54.0907 185.697 55.2404 181.504 55.2404H148.41V47.7766H181.504C183.582 47.7766 185.38 47.3169 186.905 46.3958C188.64 45.2701 189.511 43.7406 189.511 41.818C189.511 39.896 188.621 38.4114 186.843 37.3655C185.359 36.4866 183.582 36.0484 181.504 36.0484H161.052C157.282 36.0484 154.128 35.0208 151.586 32.9734C148.876 30.7591 147.521 27.8306 147.521 24.1927C147.521 20.5976 148.876 17.6901 151.586 15.4758C154.128 13.4255 157.282 12.4006 161.052 12.4006H193.764V19.8642H161.052C159.613 19.8642 158.385 20.2625 157.368 21.0545C156.352 21.8509 155.843 22.9185 155.843 24.2536C155.843 25.6346 156.352 26.7022 157.368 27.4556C158.385 28.207 159.613 28.582 161.052 28.582H181.504C185.697 28.582 189.193 29.7742 191.987 32.1581C194.911 34.6676 196.37 37.9522 196.37 42.0065Z" fill="#1476FF"></path><path d="M251.635 35.9852C251.635 42.8838 249.54 47.9236 245.342 51.0988C241.662 53.8606 236.199 55.2409 228.954 55.2409H226.352C219.107 55.2409 213.647 53.8606 209.961 51.0988C205.77 47.9236 203.675 42.8838 203.675 35.9852V12.3989H211.234V35.9852C211.234 41.1287 213.034 44.5381 216.633 46.2076C218.962 47.2543 223.069 47.775 228.954 47.775C233.868 47.775 237.469 47.0446 239.755 45.5788C242.632 43.7411 244.076 40.5441 244.076 35.9852V12.3989H251.635V35.9852Z" fill="#1476FF"></path><path d="M298.26 55.2409H260.783V12.3989H298.26V19.8647H268.342V47.7771H298.26V55.2409ZM296.291 37.2385H271.518V29.7719H296.291V37.2385Z" fill="#1476FF"></path><path d="M353.077 42.0065C353.077 46.0614 351.616 49.3243 348.694 51.7911C345.9 54.0907 342.406 55.2404 338.215 55.2404H305.119V47.7766H338.215C340.287 47.7766 342.089 47.3169 343.612 46.3958C345.349 45.2701 346.216 43.7406 346.216 41.818C346.216 39.896 345.327 38.4114 343.55 37.3655C342.064 36.4866 340.287 36.0484 338.215 36.0484H317.759C313.991 36.0484 310.837 35.0208 308.295 32.9734C305.586 30.7591 304.23 27.8306 304.23 24.1927C304.23 20.5976 305.586 17.6901 308.295 15.4758C310.837 13.4255 313.991 12.4006 317.759 12.4006H350.473V19.8642H317.759C316.321 19.8642 315.091 20.2625 314.074 21.0545C313.058 21.8509 312.552 22.9185 312.552 24.2536C312.552 25.6346 313.058 26.7022 314.074 27.4556C315.091 28.207 316.321 28.582 317.759 28.582H338.215C342.406 28.582 345.9 29.7742 348.694 32.1581C351.616 34.6676 353.077 37.9522 353.077 42.0065Z" fill="#1476FF"></path><path d="M406.056 42.0065C406.056 46.0614 404.595 49.3243 401.673 51.7911C398.879 54.0907 395.385 55.2404 391.192 55.2404H358.098V47.7766H391.192C393.266 47.7766 395.067 47.3169 396.59 46.3958C398.326 45.2701 399.194 43.7406 399.194 41.818C399.194 39.896 398.305 38.4114 396.528 37.3655C395.043 36.4866 393.266 36.0484 391.192 36.0484H370.737C366.969 36.0484 363.814 35.0208 361.274 32.9734C358.562 30.7591 357.208 27.8306 357.208 24.1927C357.208 20.5976 358.562 17.6901 361.274 15.4758C363.814 13.4255 366.969 12.4006 370.737 12.4006H403.452V19.8642H370.737C369.297 19.8642 368.069 20.2625 367.052 21.0545C366.037 21.8509 365.531 22.9185 365.531 24.2536C365.531 25.6346 366.037 26.7022 367.052 27.4556C368.069 28.207 369.297 28.582 370.737 28.582H391.192C395.385 28.582 398.879 29.7742 401.673 32.1581C404.595 34.6676 406.056 37.9522 406.056 42.0065Z" fill="#1476FF"></path><path d="M457.953 55.2409H433.435C427.123 55.2409 421.907 53.1731 417.78 49.0303C413.647 44.8913 411.584 39.6629 411.584 33.351C411.584 27.0768 413.628 22.0188 417.712 18.1713C421.8 14.3239 427.04 12.3989 433.435 12.3989H457.953V19.8655H433.435C429.285 19.8655 425.863 21.1826 423.176 23.8168C420.484 26.4479 419.143 29.8385 419.143 33.9776C419.143 38.0747 420.484 41.3993 423.176 43.9514C425.863 46.5029 429.285 47.775 433.435 47.775H457.953V55.2409Z" fill="#1476FF"></path><path d="M519.95 33.3517C519.95 39.6636 517.894 44.8892 513.79 49.031C509.683 53.173 504.45 55.2414 498.098 55.2414H485.964C479.656 55.2414 474.436 53.173 470.309 49.031C466.18 44.8892 464.113 39.6636 464.113 33.3517C464.113 27.0752 466.157 22.0195 470.245 18.1719C474.329 14.3246 479.571 12.3996 485.964 12.3996H498.098C504.537 12.3996 509.788 14.3246 513.854 18.1719C517.917 22.0195 519.95 27.0752 519.95 33.3517ZM512.455 33.9783C512.455 29.8363 511.11 26.4478 508.421 23.8168C505.732 21.1825 502.293 19.8661 498.098 19.8661H485.964C481.816 19.8661 478.396 21.1825 475.709 23.8168C473.016 26.4478 471.676 29.8363 471.676 33.9783C471.676 38.0752 473.016 41.3999 475.709 43.9514C478.396 46.5028 481.816 47.775 485.964 47.775H498.098C502.293 47.775 505.732 46.5028 508.421 43.9514C511.11 41.3999 512.455 38.0752 512.455 33.9783Z" fill="#1476FF"></path><path d="M165.094 75.4331C165.094 76.8089 164.6 77.9135 163.61 78.7468C162.663 79.5279 161.48 79.9152 160.06 79.9152H148.852V77.3848H160.06C160.762 77.3848 161.373 77.231 161.889 76.9199C162.478 76.5377 162.771 76.0227 162.771 75.3693C162.771 74.7187 162.47 74.2169 161.867 73.8615C161.365 73.5641 160.762 73.4126 160.06 73.4126H153.133C151.856 73.4126 150.789 73.0672 149.928 72.3769C149.011 71.6233 148.551 70.6326 148.551 69.4003C148.551 68.184 149.011 67.1992 149.928 66.4479C150.789 65.7524 151.856 65.407 153.133 65.407H164.212V67.9347H153.133C152.646 67.9347 152.23 68.0702 151.885 68.3387C151.541 68.607 151.369 68.9674 151.369 69.4193C151.369 69.8892 151.541 70.2503 151.885 70.5049C152.23 70.7574 152.646 70.8871 153.133 70.8871H160.06C161.48 70.8871 162.663 71.2912 163.61 72.0984C164.6 72.9454 165.094 74.0609 165.094 75.4331Z" fill="#1476FF"></path><path d="M184.304 79.9167H171.613V65.4057H184.304V67.9332H174.172V77.3855H184.304V79.9167ZM183.638 73.8172H175.248V71.2919H183.638V73.8172Z" fill="#1476FF"></path><path d="M206.118 78.661C206.118 79.5958 205.796 80.0636 205.149 80.0636C204.677 80.0636 204.147 79.7735 203.559 79.1926L194.136 69.8462V79.9171H191.598V66.6595C191.598 66.3199 191.692 66.0276 191.876 65.7781C192.062 65.5308 192.329 65.4062 192.673 65.4062C193.145 65.4062 193.632 65.6556 194.136 66.1494L203.559 75.4778V65.4062H206.118V78.661Z" fill="#1476FF"></path><path d="M229.611 75.4331C229.611 76.8089 229.112 77.9135 228.123 78.7468C227.179 79.5279 225.993 79.9152 224.575 79.9152H213.365V77.3848H224.575C225.278 77.3848 225.886 77.231 226.405 76.9199C226.991 76.5377 227.287 76.0227 227.287 75.3693C227.287 74.7187 226.982 74.2169 226.382 73.8615C225.88 73.5641 225.278 73.4126 224.575 73.4126H217.65C216.371 73.4126 215.303 73.0672 214.444 72.3769C213.524 71.6233 213.068 70.6326 213.068 69.4003C213.068 68.184 213.524 67.1992 214.444 66.4479C215.303 65.7524 216.371 65.407 217.65 65.407H228.729V67.9347H217.65C217.159 67.9347 216.745 68.0702 216.401 68.3387C216.054 68.607 215.884 68.9674 215.884 69.4193C215.884 69.8892 216.054 70.2503 216.401 70.5049C216.745 70.7574 217.159 70.8871 217.65 70.8871H224.575C225.993 70.8871 227.179 71.2912 228.123 72.0984C229.112 72.9454 229.611 74.0609 229.611 75.4331Z" fill="#1476FF"></path><path d="M254.693 72.5008C254.693 74.6411 253.999 76.4122 252.607 77.8112C251.216 79.2132 249.445 79.9167 247.293 79.9167H243.185C241.047 79.9167 239.279 79.2132 237.88 77.8112C236.483 76.4122 235.784 74.6411 235.784 72.5008C235.784 70.3795 236.478 68.6642 237.862 67.3602C239.244 66.0591 241.019 65.4057 243.185 65.4057H247.293C249.475 65.4057 251.252 66.0591 252.632 67.3602C254.004 68.6642 254.693 70.3795 254.693 72.5008ZM252.154 72.7134C252.154 71.3144 251.701 70.167 250.789 69.2748C249.877 68.3799 248.715 67.9339 247.293 67.9339H243.185C241.78 67.9339 240.622 68.3799 239.71 69.2748C238.798 70.167 238.343 71.3144 238.343 72.7134C238.343 74.1022 238.798 75.2279 239.71 76.0909C240.622 76.9562 241.78 77.3862 243.185 77.3862H247.293C248.715 77.3862 249.877 76.9562 250.789 76.0909C251.701 75.2279 252.154 74.1022 252.154 72.7134Z" fill="#1476FF"></path><path d="M278.336 79.9167H274.551L270.442 75.8356H264.912V73.3313H271.796C272.744 73.3313 273.539 73.1246 274.184 72.7126C274.919 72.2318 275.282 71.5472 275.282 70.6551C275.282 68.8413 274.12 67.9332 271.796 67.9332H263.406V79.9167H260.847V65.4057H271.388C273.282 65.4057 274.808 65.809 275.97 66.6191C277.304 67.5379 277.971 68.892 277.971 70.6761C277.971 71.8953 277.584 72.9412 276.809 73.8172C276.091 74.6404 275.119 75.2141 273.883 75.5404L278.336 79.9167Z" fill="#1476FF"></path><path d="M300.731 75.4331C300.731 76.8089 300.234 77.9135 299.245 78.7468C298.301 79.5279 297.115 79.9152 295.697 79.9152H284.49V77.3848H295.697C296.4 77.3848 297.008 77.231 297.527 76.9199C298.113 76.5377 298.408 76.0227 298.408 75.3693C298.408 74.7187 298.104 74.2169 297.504 73.8615C297.002 73.5641 296.4 73.4126 295.697 73.4126H288.77C287.493 73.4126 286.425 73.0672 285.562 72.3769C284.648 71.6233 284.188 70.6326 284.188 69.4003C284.188 68.184 284.648 67.1992 285.562 66.4479C286.425 65.7524 287.493 65.407 288.77 65.407H299.849V67.9347H288.77C288.281 67.9347 287.867 68.0702 287.523 68.3387C287.179 68.607 287.006 68.9674 287.006 69.4193C287.006 69.8892 287.179 70.2503 287.523 70.5049C287.867 70.7574 288.281 70.8871 288.77 70.8871H295.697C297.115 70.8871 298.301 71.2912 299.245 72.0984C300.234 72.9454 300.731 74.0609 300.731 75.4331Z" fill="#1476FF"></path><path d="M66.6723 13.0974C64.5107 11.3678 62.2219 9.89616 59.848 8.66983L25.3482 42.7294C24.3112 43.7586 23.7125 44.9212 23.5618 46.2229C23.4061 47.5233 23.8196 48.6563 24.8002 49.6216C25.8132 50.6217 26.9604 51.0328 28.2444 50.8501C29.5319 50.6674 30.6975 50.0618 31.7398 49.0356L46.5335 34.4231C49.5663 31.4285 52.9648 29.7914 56.7343 29.5261C60.6868 29.2526 64.147 30.5842 67.1189 33.5157C70.0906 36.4502 71.4252 39.8538 71.1197 43.7216C70.781 47.3826 69.094 50.7146 66.0634 53.7098L34.9783 84.4036C48.7879 86.3886 63.273 81.3916 72.696 69.9121C86.919 52.5805 84.2218 27.1392 66.6723 13.0974Z" fill="#1476FF"></path><path d="M26.2825 82.2121L60.5862 48.3424C62.0831 46.857 63.0504 45.2412 63.4801 43.4883C63.9097 41.4263 63.4206 39.7054 62.0104 38.3149C60.6024 36.9218 58.8697 36.4814 56.8167 36.9987C55.103 37.4178 53.4938 38.373 51.9938 39.8561L37.1988 54.4658C34.4685 57.1608 31.441 58.668 28.1012 59.0022C24.5167 59.3366 21.3899 58.1879 18.7273 55.5529C16.0913 52.9536 14.9439 49.8814 15.2803 46.3479C15.6182 43.0474 17.1444 40.055 19.8747 37.3621L52.0072 5.63406C36.755 1.3964 19.7286 6.15114 9.12076 19.0746C-5.10222 36.4033 -2.38674 61.8221 15.1445 75.8914C20.1522 79.9101 26.2825 82.2121 26.2825 82.2121Z" fill="#1476FF"></path><path d="M115.55 86.2458H114.122V3.34071e-07H115.55V86.2458Z" fill="#1476FF"></path></svg>