<svg xmlns="http://www.w3.org/2000/svg" width="101" height="88" viewBox="0 0 101 88" fill="none"><path d="M12.4183 51.8193C12.5435 52.312 12.5455 52.8064 12.4241 53.3025C12.3028 53.7986 12.0219 54.2512 11.5815 54.6602C11.1387 55.0599 10.5176 55.3615 9.71814 55.565L7.96119 56.0121L8.96057 59.9446L7.37095 60.3492L4.90795 50.6573L8.25451 49.8056C8.99819 49.6163 9.65875 49.5868 10.2362 49.717C10.8205 49.8355 11.2937 50.0813 11.6558 50.4544C12.0271 50.8251 12.2813 51.28 12.4183 51.8193ZM9.38856 54.268C9.9928 54.1143 10.4094 53.8647 10.6384 53.5194C10.8649 53.1648 10.9145 52.7365 10.7869 52.2345C10.5175 51.1746 9.78328 50.7973 8.5841 51.1025L6.82715 51.5496L7.63161 54.7152L9.38856 54.268ZM22.2581 54.4522L18.2004 55.4849L18.0064 57.6425L16.3471 58.0648L17.3526 47.4753L19.1932 47.0069L25.1318 55.8291L23.4585 56.255L22.2581 54.4522ZM21.4823 53.2688L18.7619 49.1655L18.317 54.0744L21.4823 53.2688ZM31.6943 43.8403L32.0239 45.1372L29.4442 45.7937L31.5776 54.1887L29.988 54.5933L27.8546 46.1982L25.261 46.8583L24.9314 45.5614L31.6943 43.8403ZM36.4748 43.9896L37.1977 46.8344L40.5443 45.9827L40.8739 47.2796L37.5273 48.1313L38.2821 51.1017L42.047 50.1435L42.3766 51.4404L37.0221 52.8031L34.5556 43.0972L39.9101 41.7345L40.2396 43.0314L36.4748 43.9896ZM53.5515 48.5964L51.9619 49.001L45.3398 42.9806L47.1791 50.2182L45.5895 50.6227L43.123 40.9169L44.7126 40.5123L51.3311 46.5187L49.4954 39.2951L51.085 38.8906L53.5515 48.5964ZM60.6918 36.4605L61.0214 37.7574L58.4417 38.4139L60.5752 46.809L58.9855 47.2135L56.8521 38.8185L54.2585 39.4785L53.929 38.1816L60.6918 36.4605ZM65.1463 35.3269L67.6092 45.0188L66.0196 45.4234L63.5566 35.7314L65.1463 35.3269ZM70.4039 35.3548L71.1268 38.1996L74.4734 37.3479L74.803 38.6448L71.4564 39.4965L72.2113 42.4668L75.9761 41.5087L76.3057 42.8056L70.9512 44.1683L68.4847 34.4624L73.8392 33.0997L74.1688 34.3966L70.4039 35.3548ZM84.5524 40.7069L81.3362 37.3979L80.123 37.7066L81.1082 41.5834L79.5186 41.9879L77.0556 32.296L80.4022 31.4443C81.1459 31.2551 81.8064 31.2255 82.3839 31.3557C82.9706 31.4835 83.445 31.734 83.807 32.1071C84.1783 32.4778 84.4325 32.9327 84.5695 33.472C84.7302 34.1041 84.6908 34.7279 84.4512 35.3431C84.2186 35.9467 83.7448 36.4385 83.0298 36.8184L86.4488 40.2242L84.5524 40.7069ZM79.8005 36.4376L81.5575 35.9905C82.1524 35.8391 82.5608 35.5767 82.7827 35.2035C83.0139 34.828 83.0657 34.3892 82.9381 33.8871C82.8105 33.3851 82.5625 33.0325 82.1942 32.8293C81.8235 32.6168 81.336 32.5875 80.7318 32.7412L78.9748 33.1884L79.8005 36.4376ZM93.3818 28.1411L93.7113 29.438L91.1317 30.0945L93.2651 38.4895L91.6755 38.8941L89.5421 30.499L86.9485 31.1591L86.6189 29.8622L93.3818 28.1411Z" fill="white"></path><mask id="mask0_403_3987" style="mask-type:luminance" maskUnits="userSpaceOnUse" x="0" y="0" width="101" height="88"><path d="M84.8092 21.0182L77.7111 22.8304C69.4963 12.1027 55.4008 6.71458 41.487 10.2653C27.5732 13.8142 17.7758 25.2977 15.6969 38.6511L8.597 40.4633C9.44762 39.7507 10.2155 39.0326 10.327 38.2696C10.5896 36.4429 7.25724 33.855 7.75178 32.0932C8.25172 30.3205 12.4491 29.8562 13.172 28.1718C13.8949 26.4837 11.3431 23.1202 12.28 21.5401C13.2152 19.9618 17.3891 20.5935 18.5239 19.1483C19.655 17.7086 18.0545 13.798 19.3709 12.5112C20.6783 11.2317 24.5448 12.9216 26.0212 11.8148C27.4797 10.7206 26.9474 6.52922 28.5605 5.6258C30.1466 4.73497 33.4394 7.37505 35.164 6.68759C36.8473 6.01632 37.4173 1.83034 39.2211 1.36964C41.023 0.908926 43.5281 4.31206 45.3265 4.0943C47.1698 3.87294 48.7973 -0.0232905 50.6154 0.000104934C52.4641 0.019901 54.0017 3.95393 55.8073 4.21668C57.6326 4.47942 60.2186 1.14468 61.9792 1.63958C63.7506 2.13988 64.2145 6.34026 65.8978 7.06372C67.5846 7.78717 70.9457 5.23347 72.5247 6.17109C74.1018 7.10691 73.4706 11.2839 74.9147 12.4195C76.3534 13.5514 80.2612 11.9498 81.547 13.2671C82.8256 14.5754 81.137 18.4447 82.243 19.9222C82.7051 20.5395 83.7212 20.8004 84.8092 21.0182ZM91.5656 47.5367L84.4663 49.348C82.3867 62.7017 72.5893 74.1849 58.6758 77.7347C44.7623 81.2845 30.6669 75.8969 22.4524 65.1696L15.353 66.9809C16.4409 67.1985 17.458 67.4609 17.9205 68.0776C19.0256 69.5546 17.3375 73.4242 18.6156 74.7318C19.9016 76.0499 23.8087 74.4471 25.2476 75.5798C26.6927 76.7161 26.0615 80.8918 27.6379 81.8284C29.2165 82.7662 32.5776 80.2125 34.2659 80.9363C35.9488 81.6598 36.4133 85.8598 38.1838 86.359C39.9446 86.8553 42.5297 83.5201 44.3561 83.7833C46.1607 84.045 47.699 87.9799 49.5474 87.9999C51.366 88.022 52.9939 84.1267 54.8361 83.9052C56.6347 83.6876 59.1394 87.09 60.9424 86.63C62.7453 86.17 63.3166 81.983 64.9997 81.3122C66.723 80.6241 70.016 83.2641 71.602 82.3733C73.2153 81.4703 72.6831 77.2785 74.1423 76.1842C75.6182 75.0783 79.485 76.7676 80.7919 75.4886C82.109 74.2017 80.5074 70.2917 81.6393 68.8519C82.7747 67.4057 86.9475 68.0373 87.8833 66.4598C88.8204 64.88 86.2686 61.5165 86.9919 59.827C87.7148 58.1429 91.9118 57.678 92.4107 55.9063C92.9066 54.1442 89.5738 51.5573 89.8369 49.7295C89.9473 48.9665 90.7146 48.2488 91.5656 47.5367ZM67.0588 25.5475L68.4076 25.2034C62.5809 17.8497 52.7713 14.1783 43.1118 16.6427C33.4523 19.1071 26.5965 27.0304 24.9994 36.2783L26.3481 35.9342C28.0379 27.4031 34.4567 20.1565 43.4242 17.8686C52.3916 15.5807 61.4938 18.8672 67.0588 25.5475ZM33.1038 62.452L31.7551 62.796C37.5817 70.1498 47.3913 73.8212 57.0508 71.3568C66.7103 68.8923 73.5661 60.969 75.1632 51.7212L73.8145 52.0653C72.1247 60.5963 65.7059 67.843 56.7384 70.1309C47.771 72.4188 38.6688 69.1322 33.1038 62.452ZM0 43.7286L0.342046 45.0713L94.2621 21.1096L93.92 19.7669L0 43.7286ZM6.24261 68.2326L100.163 44.2709L99.8206 42.9281L5.90056 66.8899L6.24261 68.2326ZM42.7602 12.4601L41.7434 11.2718L41.4194 12.8022L39.9758 13.4028L41.3302 14.1842L41.4548 15.7436L42.616 14.696L44.1365 15.0594L43.4997 13.6306L44.3149 12.2956L42.7602 12.4601ZM30.1725 18.4755L28.7504 17.826L29.1002 19.3506L28.0433 20.5035L29.6005 20.6417L30.3694 22.0037L30.9819 20.5643L32.514 20.2533L31.3353 19.2255L31.5132 17.6712L30.1725 18.4755ZM22.2486 31.5977L23.5192 32.5093L23.4693 30.9457L24.7282 30.0182L23.2267 29.5825L22.7342 28.0978L21.856 29.3921L20.2927 29.402L21.2514 30.6376L20.7778 32.1285L22.2486 31.5977ZM55.6206 14.2785L56.8471 15.2487L56.8706 13.6844L58.1715 12.817L56.6922 12.3113L56.27 10.805L55.3321 12.0567L53.7701 11.9931L54.6698 13.2725L54.1267 14.7396L55.6206 14.2785ZM67.8828 21.1908L68.5622 19.7818L70.1072 19.5432L68.978 18.4612L69.2285 16.917L67.8513 17.6572L66.4612 16.9414L66.7392 18.4809L65.6295 19.5828L67.1784 19.7941L67.8828 21.1908ZM57.4024 75.5392L58.4192 76.7275L58.7432 75.1971L60.1868 74.5965L58.8324 73.8151L58.7078 72.2557L57.5466 73.3033L56.0261 72.9399L56.6629 74.3687L55.8477 75.7036L57.4024 75.5392ZM44.5255 73.7253L43.299 72.7551L43.2755 74.3194L41.9745 75.1868L43.4539 75.6925L43.8761 77.1988L44.8139 75.9471L46.376 76.0107L45.4763 74.7313L46.0194 73.2642L44.5255 73.7253ZM32.2588 66.8141L31.5794 68.2231L30.0344 68.4617L31.1636 69.5436L30.9131 71.0879L32.2902 70.3477L33.6804 71.0634L33.4023 69.524L34.5121 68.4221L32.9632 68.2108L32.2588 66.8141ZM69.9736 69.5282L71.3957 70.1777L71.0459 68.653L72.1028 67.5001L70.5456 67.3619L69.7766 66L69.1641 67.4393L67.6321 67.7503L68.8107 68.7781L68.6329 70.3322L69.9736 69.5282ZM77.8929 56.4071L76.6224 55.4956L76.6722 57.0593L75.4134 57.9869L76.9148 58.4225L77.4074 59.9073L78.2855 58.613L79.8488 58.6031L78.8901 57.3674L79.3638 55.8766L77.8929 56.4071Z" fill="white"></path></mask><g mask="url(#mask0_403_3987)"><path d="M12.2879 85.5729C11.4876 84.9344 12.6104 86.477 12.2879 85.5729V85.5729Z" fill="white"></path><path d="M-0.114136 63.5302C0.164821 64.5297 0.447195 65.5411 0.713022 66.4938C0.986223 67.4426 1.22867 68.3379 1.51104 69.068C1.27975 68.1884 1.09342 67.2856 0.89054 66.3842C0.6159 65.3154 0.2409 64.4339 -0.114136 63.5302Z" fill="white"></path><path d="M5.33416 80.0127C5.29045 79.9028 5.24531 79.7898 5.20178 79.6803C5.2588 79.8341 5.31311 79.9803 5.36941 80.1319C5.35772 80.0925 5.34585 80.0524 5.33416 80.0127Z" fill="white"></path><path d="M-0.152887 64.1005C-0.367275 63.5322 -0.576627 62.9776 -0.791016 62.4091C-0.620872 63.1082 -0.466555 63.8176 -0.27339 64.5172C-0.00144798 65.4888 0.265458 66.4008 0.534523 67.2861C0.671034 67.7275 0.805925 68.1634 0.940278 68.598C1.08236 69.0289 1.23254 69.4543 1.38146 69.8826C1.02697 68.5887 0.740098 67.2569 0.442796 65.9184C0.271394 65.2579 0.0654584 64.6676 -0.152887 64.1005Z" fill="white"></path><path d="M1.61462 69.3422C1.58189 69.2552 1.54538 69.1584 1.51066 69.0667C1.81408 70.2469 2.12469 71.4163 2.43944 72.5788C2.59196 73.1625 2.76282 73.7362 2.93638 74.3081C3.10886 74.8802 3.28099 75.4516 3.45311 76.0226L2.64951 73.6521L1.87128 71.2676C1.70563 70.799 1.5434 70.3399 1.38135 69.8817C1.63872 70.8425 1.8952 71.8 2.15113 72.755L2.34663 73.4689L2.55815 74.1744L2.98279 75.5824L3.74537 77.8639C4.00311 78.6222 4.28314 79.3694 4.55257 80.1212L5.37577 82.3676C5.65221 83.1149 5.96192 83.8448 6.25994 84.5798C6.39447 84.9143 6.52361 85.2483 6.64879 85.5818C4.88116 79.8782 3.34717 74.0968 1.61462 69.3422Z" fill="white"></path><path d="M3.76964 61.5545C3.47737 60.6441 3.1664 59.7644 2.82629 59.0066C3.05651 60.0088 3.41065 60.787 3.76964 61.5545Z" fill="white"></path><path d="M0.577467 21.7949C0.567849 21.8105 0.556236 21.818 0.545166 21.8292C0.564039 21.8441 0.58273 21.8588 0.601965 21.878C0.593981 21.8508 0.585633 21.8227 0.577467 21.7949Z" fill="white"></path><path d="M0.56386 22.6325C0.48886 22.3782 0.41386 22.124 0.33868 21.8693C0.211162 21.8415 0.0751914 21.7853 -0.00610352 21.9139C0.186882 22.2713 0.345874 22.4692 0.56386 22.6325Z" fill="white"></path><path d="M16.4023 85.681C16.4307 85.6693 16.4485 85.6764 16.4363 85.8292C16.4242 85.777 16.4134 85.7295 16.4023 85.681C16.3755 85.6902 16.339 85.7152 16.3075 85.6549C16.473 86.1533 16.6548 86.7409 16.7978 87.3256C16.8636 87.3819 16.9293 87.4353 16.9937 87.4821C16.6471 86.032 16.3338 84.5665 15.8215 83.4783C16.0116 84.3216 16.2142 84.8708 16.4023 85.681Z" fill="white"></path><path d="M17.2965 87.479C17.3082 87.5295 17.3192 87.577 17.3309 87.627C17.3431 87.4756 17.3253 87.468 17.2965 87.479Z" fill="white"></path><path d="M17.973 86.6142C17.9829 86.6689 17.9923 86.7205 18.002 86.7749C18.0196 86.6137 18.0022 86.6045 17.973 86.6142Z" fill="white"></path><path d="M5.89072 4.70178C5.87615 4.70988 5.86284 4.72139 5.84863 4.73128C5.90493 4.83452 5.95547 4.92714 6.00313 5.01437C5.94522 4.85376 5.89072 4.70178 5.89072 4.70178Z" fill="white"></path><path d="M6.6133 4.92529C6.60521 4.94328 6.59406 4.95137 6.58398 4.96432C6.60521 4.98267 6.62643 5.00047 6.64873 5.02385C6.63704 4.9913 6.62517 4.95803 6.6133 4.92529Z" fill="white"></path><path d="M5.84804 4.73327C5.69318 4.84773 5.57682 5.06801 5.35631 4.99998C5.29444 4.82739 5.1707 4.48258 5.10829 4.30874C4.95721 4.18582 4.93005 4.40808 4.84066 4.45775C4.77879 4.28516 4.71692 4.11276 4.67232 4.13759C4.51423 4.0899 4.50451 4.32007 4.59642 4.66974C5.36261 5.13333 6.2225 6.93316 5.84804 4.73327Z" fill="white"></path><path d="M6.37409 5.00524C6.23776 4.96729 6.0892 4.89552 6.01978 5.04426C6.2642 5.47376 6.45377 5.71405 6.70125 5.91585L6.37409 5.00524Z" fill="white"></path><path d="M5.83573 18.6176C5.82206 18.6276 5.81037 18.6408 5.79724 18.6528C5.8735 18.7485 5.94185 18.8345 6.00623 18.9154C5.91864 18.7623 5.83573 18.6176 5.83573 18.6176Z" fill="white"></path><path d="M6.62171 18.7438C6.61649 18.7628 6.60642 18.7726 6.59814 18.7868C6.62332 18.8022 6.64832 18.8172 6.67548 18.8378C6.65786 18.8069 6.63969 18.7751 6.62171 18.7438Z" fill="white"></path><path d="M5.79599 18.6523C5.6557 18.7874 5.5735 19.0234 5.33376 18.9847C5.23987 18.8204 5.05192 18.4921 4.95732 18.3265C4.7798 18.2238 4.79041 18.4496 4.7066 18.5114C4.61271 18.3471 4.51865 18.1829 4.4771 18.2137C4.30516 18.1873 4.33556 18.4187 4.49095 18.7559C5.36343 19.1168 6.56523 20.8025 5.79599 18.6523Z" fill="white"></path><path d="M6.38797 18.8563C6.24031 18.8363 6.07431 18.7845 6.02844 18.9426C6.35578 19.3397 6.59373 19.5547 6.88456 19.7237L6.38797 18.8563Z" fill="white"></path><path d="M7.69327 33.1494C7.6787 33.1577 7.66539 33.1687 7.651 33.1786C7.70334 33.2665 7.75028 33.3453 7.79435 33.4196C7.74255 33.2809 7.69327 33.1494 7.69327 33.1494Z" fill="white"></path><path d="M7.64923 33.1771C7.49402 33.2897 7.37351 33.4938 7.15912 33.4486C7.10319 33.2993 6.99168 33.0011 6.93538 32.8506C6.7906 32.7515 6.75768 32.9512 6.66848 33.0016C6.61254 32.8522 6.55679 32.7031 6.51236 32.7281C6.35894 32.6964 6.34222 32.9019 6.42279 33.207C7.162 33.5678 7.95373 35.1083 7.64923 33.1771Z" fill="white"></path><path d="M8.15813 33.3839C8.0254 33.3596 7.88187 33.3064 7.80957 33.4436C8.03691 33.8085 8.21604 34.0089 8.45273 34.1708L8.15813 33.3839Z" fill="white"></path><path d="M11.7783 14.3346C11.7698 14.2977 11.7617 14.263 11.7533 14.2263C11.7324 14.3412 11.7495 14.3454 11.7783 14.3346Z" fill="white"></path><path d="M26.5815 84.4841C26.5791 84.4797 26.5759 84.4761 26.574 84.4714C26.5378 84.5081 26.5529 84.5008 26.5815 84.4841Z" fill="white"></path><path d="M19.8712 1.82703C19.8563 1.83386 19.8424 1.84447 19.8275 1.85328C19.8739 1.96965 19.9169 2.07307 19.9586 2.16983C19.9137 1.99375 19.8712 1.82703 19.8712 1.82703Z" fill="white"></path><path d="M20.5657 2.14331C20.5564 2.1613 20.5448 2.16867 20.5341 2.18108C20.5537 2.20284 20.5731 2.22389 20.5932 2.25122C20.5841 2.21579 20.5749 2.17928 20.5657 2.14331Z" fill="white"></path><path d="M20.5787 3.19553C20.494 2.86297 20.4095 2.5306 20.3246 2.19751C20.1931 2.14193 20.0521 2.04912 19.9728 2.19822C20.1816 2.6797 20.3503 2.9547 20.5787 3.19553Z" fill="white"></path><path d="M12.8937 9.21313C12.8791 9.22123 12.866 9.2331 12.8518 9.24317C12.9131 9.35918 12.9682 9.46331 13.02 9.56134C12.955 9.38256 12.8937 9.21313 12.8937 9.21313Z" fill="white"></path><path d="M13.6104 9.53569C13.6327 9.55674 13.655 9.57724 13.6785 9.60422C13.6654 9.56825 13.6521 9.5312 13.6388 9.49451C13.6312 9.51375 13.6202 9.52203 13.6104 9.53569Z" fill="white"></path><path d="M12.8503 9.24657C12.6964 9.36355 12.5858 9.59858 12.3581 9.51202C12.2883 9.31945 12.1491 8.93505 12.0789 8.74105C11.9199 8.5978 11.9005 8.83967 11.8111 8.88916C11.7413 8.6966 11.6717 8.50422 11.6271 8.52869C11.4644 8.4675 11.462 8.71873 11.5696 9.10764C12.3703 9.66049 13.3142 11.6754 12.8503 9.24657Z" fill="white"></path><path d="M13.3969 9.56956C13.2565 9.52082 13.1022 9.43467 13.0369 9.59366C13.3022 10.0768 13.5045 10.3494 13.7642 10.5827L13.3969 9.56956Z" fill="white"></path><path d="M12.3959 11.1593C12.2496 11.2903 12.1664 11.5647 11.9128 11.4488C11.8113 11.2154 11.6088 10.749 11.5066 10.5139C11.3178 10.3345 11.332 10.6221 11.2444 10.6763C11.143 10.4428 11.0415 10.2094 10.998 10.2364C10.8165 10.1547 10.8509 10.4544 11.0201 10.9239C11.9468 11.6256 13.236 14.0832 12.3959 11.1593Z" fill="white"></path><path d="M43.8672 58.8287C43.9116 59.0476 43.9541 59.2557 43.9978 59.4715C43.9893 59.4163 43.9807 59.36 43.9722 59.3041C43.9375 59.1471 43.9017 58.9852 43.8672 58.8287Z" fill="white"></path><path d="M25.6968 -1.52916C25.5522 -1.39671 25.4707 -1.12748 25.2177 -1.2306C25.1153 -1.45322 24.9109 -1.89809 24.8078 -2.12232C24.6188 -2.28933 24.6346 -2.01093 24.5479 -1.95496C24.4456 -2.17757 24.3432 -2.40001 24.3001 -2.37212C24.1186 -2.44446 24.1553 -2.15508 24.3261 -1.70643C25.252 -1.06125 26.5508 1.27595 25.6968 -1.52916Z" fill="white"></path><path d="M26.3224 -1.14398C26.1668 -1.20246 25.9911 -1.30432 25.9462 -1.12184C26.2987 -0.560531 26.5532 -0.242894 26.8625 0.0310125C26.6825 -0.36059 26.5026 -0.752013 26.3224 -1.14398Z" fill="white"></path><path d="M28.1381 17.2729C28.1233 17.2805 28.1098 17.292 28.0955 17.3015C28.1519 17.4211 28.2025 17.5285 28.2501 17.6294C28.1926 17.4463 28.1381 17.2729 28.1381 17.2729Z" fill="white"></path><path d="M28.6244 17.6504C28.4868 17.5955 28.3372 17.5022 28.2665 17.6603C28.5114 18.1588 28.7017 18.4423 28.9505 18.6885C28.8418 18.3426 28.7332 17.9968 28.6244 17.6504Z" fill="white"></path><path d="M48.0988 72.2737L48.3524 72.835C48.2983 72.6332 48.1902 72.2309 48.1357 72.0278C48.0751 71.9179 48.0152 71.8095 47.9546 71.6996C48.0023 71.8899 48.0506 72.0821 48.0988 72.2737Z" fill="white"></path><path d="M49.3589 73.33C49.3672 73.3629 49.3747 73.3938 49.383 73.4265C49.4046 73.3213 49.3877 73.3186 49.3589 73.33Z" fill="white"></path><path d="M36.6157 -1.54522C36.5885 -1.52938 36.5698 -1.53172 36.5646 -1.66472C36.5826 -1.62279 36.5989 -1.58445 36.6157 -1.54522C36.6416 -1.55854 36.6754 -1.58751 36.7139 -1.54234C36.491 -1.9343 36.2419 -2.39861 36.0318 -2.86868C35.9595 -2.90287 35.8876 -2.93473 35.818 -2.96118C36.3279 -1.79285 36.8162 -0.611924 37.4439 0.221312C37.168 -0.466872 36.8939 -0.890329 36.6157 -1.54522Z" fill="white"></path><path d="M36.067 6.53062C35.7258 5.82792 36.8729 6.93673 36.067 6.53062V6.53062Z" fill="white"></path><path d="M49.0478 84.9179C49.0451 84.9119 49.0417 84.9068 49.0397 84.9004C49.0029 84.9396 49.0185 84.9332 49.0478 84.9179Z" fill="white"></path><path d="M37.7298 1.27166C37.665 1.09289 37.6037 0.923462 37.6037 0.923462C37.5891 0.931555 37.576 0.943426 37.5618 0.953498C37.6229 1.06968 37.678 1.17382 37.7298 1.27166Z" fill="white"></path><path d="M38.3204 1.24907C38.3427 1.27012 38.365 1.2908 38.3886 1.3176C38.3755 1.28163 38.3622 1.24458 38.3488 1.20789C38.3413 1.22713 38.3301 1.2354 38.3204 1.24907Z" fill="white"></path><path d="M38.4746 2.29328L38.1075 1.27998C37.9669 1.23124 37.8127 1.14508 37.7474 1.30426C38.0125 1.78735 38.2149 2.06001 38.4746 2.29328Z" fill="white"></path><path d="M64.4602 79.5521C64.4737 79.6176 64.4865 79.6792 64.4999 79.7442C64.5075 79.5539 64.489 79.542 64.4602 79.5521Z" fill="white"></path><path d="M67.7483 82.3893C67.8299 82.6107 67.9075 82.8213 67.9879 83.0396C67.9702 82.9835 67.9521 82.926 67.9341 82.8693C67.8727 82.7107 67.8094 82.5474 67.7483 82.3893Z" fill="white"></path><path d="M65.1162 78.5096C65.1281 78.5806 65.1392 78.6473 65.1511 78.7178C65.1633 78.5142 65.1452 78.5006 65.1162 78.5096Z" fill="white"></path><path d="M69.7183 54.0879C69.6485 53.7533 69.5787 53.4195 69.5096 53.0884C69.5435 53.325 69.5767 53.5584 69.6102 53.7926C69.6659 54.0596 69.7206 54.322 69.7755 54.5844C69.7564 54.4183 69.7372 54.252 69.7183 54.0879Z" fill="white"></path><path d="M72.8087 63.9872L73.0623 64.5485C73.008 64.3467 72.9001 63.9444 72.8454 63.7413C72.7848 63.6314 72.7249 63.5228 72.6643 63.4131C72.7121 63.6032 72.7605 63.7955 72.8087 63.9872Z" fill="white"></path><path d="M80.4812 89.9042C80.4726 89.8317 80.4647 89.7655 80.4566 89.6976C80.4294 89.7037 80.3918 89.7282 80.3643 89.6398C80.4978 90.3473 80.642 91.1784 80.748 91.9967C80.8096 92.0881 80.8715 92.1757 80.9323 92.254C80.6748 90.2274 80.4618 88.1841 80.01 86.6085C80.1584 87.7804 80.3172 88.5676 80.4566 89.6976C80.4854 89.6888 80.5026 89.7025 80.4812 89.9042Z" fill="white"></path><path d="M74.069 65.0374C74.0772 65.0704 74.085 65.1013 74.0931 65.134C74.1145 65.0286 74.0977 65.0259 74.069 65.0374Z" fill="white"></path><path d="M78.1577 87.0012C78.1622 87.0478 78.1663 87.0917 78.1708 87.1379C78.203 87.0023 78.1869 86.994 78.1577 87.0012Z" fill="white"></path><path d="M72.8422 61.8981C73.3024 63.3212 73.7328 64.8023 74.1387 65.8704C74.0021 65.2164 73.8346 64.5729 73.6887 63.916C73.47 63.1463 73.1542 62.526 72.8422 61.8981Z" fill="white"></path><path d="M72.9248 62.6462C72.7019 62.1288 72.4453 61.6602 72.1904 61.171C72.346 61.6607 72.5028 62.1531 72.6446 62.6572C72.8617 63.3495 73.0773 63.999 73.2964 64.6299C73.4072 64.9449 73.5167 65.2559 73.6259 65.5661C73.732 65.8776 73.8379 66.1883 73.9442 66.5007C73.8352 66.0011 73.7179 65.5031 73.5994 65.0043C73.6581 65.0327 73.7167 65.0593 73.7746 65.0818C73.5295 64.1372 73.3158 63.178 72.8888 62.5051C72.9007 62.5541 72.9127 62.5999 72.9248 62.6462Z" fill="white"></path><path d="M86.912 86.173C86.9273 86.1721 86.9429 86.1669 86.9588 86.1639C86.9611 86.0293 86.9633 85.9085 86.9654 85.7948C86.9379 85.9892 86.912 86.173 86.912 86.173Z" fill="white"></path><path d="M86.4817 85.5615C86.4731 85.5325 86.4645 85.5041 86.4575 85.4694C86.4521 85.508 86.4463 85.548 86.4409 85.5872C86.4555 85.5728 86.4679 85.5699 86.4817 85.5615Z" fill="white"></path><path d="M86.9602 86.1658C87.1348 86.1263 87.3277 85.9558 87.471 86.1389C87.4411 86.3501 87.3812 86.7723 87.3512 86.9852C87.4142 87.1924 87.537 86.9764 87.6302 86.9716C87.6 87.1841 87.5697 87.3964 87.6161 87.3946C87.7167 87.5257 87.8327 87.2975 87.9196 86.8796C87.5296 85.9789 87.6656 83.7021 86.9602 86.1658Z" fill="white"></path><path d="M86.9653 85.7602C86.9646 85.1962 86.9315 84.8556 86.8149 84.5323C86.7752 84.8957 86.7155 85.2612 86.6664 85.6262C86.7574 85.7318 86.8426 85.8794 86.9653 85.7602Z" fill="white"></path><path d="M90.0192 87.2091C90.0343 87.203 90.0487 87.1942 90.064 87.1865C90.0306 87.0992 89.9991 87.0217 89.9685 86.9492C89.9946 87.0829 90.0192 87.2091 90.0192 87.2091Z" fill="white"></path><path d="M89.3789 87.0014C89.3898 86.9869 89.4018 86.9805 89.4136 86.9702C89.3967 86.9544 89.3797 86.939 89.3628 86.9188C89.3682 86.946 89.3737 86.9738 89.3789 87.0014Z" fill="white"></path><path d="M90.0651 87.1846C90.2307 87.0964 90.3789 86.92 90.5744 86.9837C90.6025 87.1274 90.6584 87.4144 90.6866 87.5591C90.8073 87.6655 90.8717 87.4844 90.9645 87.447C90.9926 87.5908 91.0206 87.7344 91.0669 87.7157C91.2066 87.7608 91.257 87.5728 91.2314 87.2825C90.5913 86.8729 90.0987 85.3702 90.0651 87.1846Z" fill="white"></path><path d="M89.4703 86.1873C89.5194 86.4392 89.5687 86.691 89.618 86.9434C89.7396 86.9792 89.8667 87.043 89.9579 86.9236C89.8034 86.5637 89.6673 86.3606 89.4703 86.1873Z" fill="white"></path><path d="M85.217 82.2604C85.2293 82.2521 85.2415 82.2472 85.2542 82.2407C85.2401 82.236 85.226 82.2317 85.2126 82.225C85.2141 82.2367 85.2155 82.2486 85.217 82.2604Z" fill="white"></path><path d="M77.2532 83.7034C77.2588 83.7199 77.2641 83.7357 77.2641 83.7357C77.2789 83.7279 77.2935 83.7197 77.3087 83.7115C77.2898 83.7079 77.2715 83.7052 77.2532 83.7034Z" fill="white"></path><path d="M77.247 83.7009C77.1551 83.6926 77.0583 83.709 76.9019 83.7579C76.9123 83.789 76.9227 83.8201 76.9332 83.8513C77.0393 83.8063 77.147 83.7649 77.247 83.7009Z" fill="white"></path><path d="M73.7582 76.6271C73.7556 76.621 73.7521 76.6158 73.7499 76.6094C73.7128 76.6489 73.7287 76.6425 73.7582 76.6271Z" fill="white"></path><path d="M73.1955 85.2733C73.2109 85.268 73.2262 85.2622 73.2419 85.2566C73.2238 85.2394 73.2058 85.2243 73.1879 85.2107C73.1917 85.2428 73.1955 85.2733 73.1955 85.2733Z" fill="white"></path><path d="M72.621 85.3551C72.6335 85.3486 72.6457 85.3441 72.6586 85.3385C72.645 85.3378 72.6315 85.3373 72.6187 85.3354C72.6194 85.3419 72.6201 85.3486 72.621 85.3551Z" fill="white"></path><path d="M73.2427 85.2519C73.4134 85.1899 73.5812 85.1066 73.7563 85.0807C73.7607 85.1151 73.7689 85.1834 73.7732 85.2181C73.8709 85.221 73.9601 85.1555 74.054 85.1241C74.0581 85.1584 74.0625 85.1926 74.109 85.1769C74.2346 85.1582 74.3114 85.0938 74.3324 85.0176C73.7898 85.0456 73.5565 84.7318 73.2427 85.2519Z" fill="white"></path><path d="M84.594 82.8819C84.6113 82.9499 84.6287 83.0136 84.6453 83.0814C84.642 82.8827 84.6228 82.8708 84.594 82.8819Z" fill="white"></path><path d="M89.1707 71.2609C89.1841 71.3264 89.1969 71.3881 89.2102 71.453C89.2181 71.2627 89.1996 71.2509 89.1707 71.2609Z" fill="white"></path><path d="M89.8263 70.2185C89.8382 70.2896 89.8493 70.3563 89.8612 70.4268C89.8732 70.2232 89.8553 70.2096 89.8263 70.2185Z" fill="white"></path><path d="M93.2874 42.2511C93.3318 42.47 93.3742 42.6781 93.4181 42.8939C93.4097 42.8387 93.401 42.7824 93.3926 42.7265C93.3579 42.5694 93.3219 42.4076 93.2874 42.2511Z" fill="white"></path><path d="M98.741 34.2106L98.9683 34.7349C98.923 34.5462 98.8327 34.1701 98.7872 33.9804C98.7318 33.8778 98.6772 33.7766 98.6219 33.6741C98.6615 33.8519 98.7013 34.0316 98.741 34.2106Z" fill="white"></path><path d="M77.5585 0.692261C77.5437 0.699815 77.5303 0.711326 77.5159 0.720858C77.5723 0.840462 77.6229 0.947836 77.6705 1.04873C77.6128 0.865642 77.5585 0.692261 77.5585 0.692261Z" fill="white"></path><path d="M77.5144 0.720775C77.3576 0.832713 77.2391 1.06559 77.0166 0.968946C76.9547 0.771885 76.8311 0.378122 76.7687 0.179621C76.6166 0.0288108 76.5883 0.272123 76.4977 0.318554C76.4358 0.121492 76.3739 -0.0755681 76.3288 -0.0525326C76.1696 -0.120739 76.1583 0.13283 76.25 0.529472C77.023 1.11886 77.8833 3.19133 77.5144 0.720775Z" fill="white"></path><path d="M78.0449 1.07274C77.9073 1.01789 77.7577 0.924541 77.687 1.08263C77.932 1.58119 78.1223 1.86465 78.371 2.11087C78.2624 1.76501 78.1537 1.41914 78.0449 1.07274Z" fill="white"></path><path d="M97.5189 55.696L97.7725 56.2574C97.7182 56.0556 97.6102 55.6532 97.5558 55.4502C97.4951 55.3403 97.4352 55.2318 97.3746 55.1219C97.4225 55.3121 97.4709 55.5043 97.5189 55.696Z" fill="white"></path><path d="M98.7791 56.7464C98.7873 56.7793 98.7949 56.8103 98.8032 56.843C98.8246 56.7376 98.8076 56.7349 98.7791 56.7464Z" fill="white"></path><path d="M97.5526 53.6085C98.0129 55.0317 98.4434 56.5128 98.8492 57.5809C98.7125 56.9269 98.5452 56.2833 98.3992 55.6265C98.1807 54.8568 97.8647 54.2364 97.5526 53.6085Z" fill="white"></path><path d="M100.169 33.726C100.178 33.7106 100.189 33.7026 100.2 33.691C100.18 33.679 100.16 33.6674 100.14 33.6512L100.169 33.726Z" fill="white"></path><path d="M95.1303 3.25537C94.5143 1.90168 93.9467 0.479775 93.3969 -0.50769C93.6285 0.105449 93.8481 0.727766 94.0666 1.35512C94.3654 2.0883 94.7528 2.66437 95.1303 3.25537Z" fill="white"></path><path d="M95.13 3.25525C95.473 4.02388 95.8332 4.76335 96.2163 5.39269C95.9298 4.53264 95.5316 3.88746 95.13 3.25525Z" fill="white"></path><path d="M93.5135 -1.14197C93.8664 -0.242505 94.1939 0.676755 94.5182 1.60645C94.8903 2.51167 95.388 3.18132 95.8423 3.93123C95.649 3.45433 95.4596 2.97256 95.2578 2.49278C94.6707 1.1713 94.1218 0.0141249 93.5135 -1.14197Z" fill="white"></path><path d="M48.1329 70.1891C48.5921 71.6126 49.023 73.0939 49.429 74.1627C49.2925 73.508 49.1254 72.8655 48.9786 72.2081C48.7599 71.4373 48.4448 70.817 48.1329 70.1891Z" fill="white"></path><path d="M49.065 73.371C48.8199 72.4273 48.6052 71.4681 48.1784 70.7948C48.1911 70.8431 48.2021 70.89 48.2147 70.935C47.9915 70.418 47.735 69.9497 47.48 69.4606C47.6361 69.9503 47.7922 70.4434 47.935 70.9465C48.1523 71.6389 48.3674 72.2893 48.587 72.9197C48.6978 73.2339 48.8066 73.545 48.9156 73.856C49.0212 74.1663 49.1284 74.4778 49.2339 74.7897C49.1255 74.2906 49.0084 73.792 48.8897 73.2936C48.9483 73.3228 49.0068 73.3485 49.065 73.371Z" fill="white"></path><path d="M9.02549 71.766L9.01956 71.7093C8.90481 71.2441 8.78988 70.7706 8.67316 70.2923C8.46003 69.6552 8.26344 68.9785 8.06165 68.2894C8.37154 69.5612 8.66272 70.8271 9.02549 71.766Z" fill="white"></path><path d="M34.9799 7.08826C34.9337 6.96919 34.8909 6.85624 34.8464 6.73682L34.8736 6.83124C34.9072 6.91739 34.9445 7.00426 34.9799 7.08826Z" fill="white"></path><path d="M72.844 75.4703C72.8314 75.4255 72.8187 75.3772 72.8061 75.3324C72.7615 75.2027 72.7149 75.0701 72.6703 74.9423C72.7293 75.1214 72.7849 75.2928 72.844 75.4703Z" fill="white"></path><path d="M90.886 -0.522968C90.6943 -1.00113 90.4889 -1.47264 90.2734 -1.92993C90.6742 -0.964061 91.0769 0.00828731 91.5067 0.764319C91.4621 0.641403 91.4632 0.492752 91.4186 0.369836C91.2416 0.170075 91.0198 -0.150981 90.886 -0.522968Z" fill="white"></path><path d="M103.253 43.9032C102.861 42.8532 102.444 41.8433 101.991 40.9048C101.81 40.5369 101.469 40.0215 101.331 39.6299C100.652 37.791 99.8496 36.1325 99.0676 34.4727C99.4182 35.2794 99.7739 36.0952 100.137 36.9283L100.167 36.9981C100.537 37.8261 100.874 38.6581 101.214 39.4775C101.553 40.2972 101.895 41.1026 102.206 41.9183C102.523 42.7296 102.837 43.5344 103.15 44.3345C103.446 45.1455 103.742 45.9528 104.036 46.7556L104.284 47.1884C103.963 46.0712 103.63 44.9615 103.253 43.9032Z" fill="white"></path><path d="M9.13031 84.0083C9.19434 84.1727 9.25819 84.3337 9.32222 84.4962C9.29668 84.3896 9.27114 84.2846 9.2456 84.1795C9.16557 83.9729 9.08895 83.7653 9.00891 83.5619C9.04884 83.7115 9.08877 83.861 9.13031 84.0083Z" fill="white"></path><path d="M98.4852 56.7935C98.2401 55.8498 98.0253 54.8906 97.5985 54.2173C97.6113 54.2655 97.6223 54.3125 97.6349 54.3591C97.4117 53.8405 97.1552 53.3722 96.9001 52.8831C97.0563 53.3727 97.2126 53.8658 97.3552 54.369C97.5725 55.0614 97.7876 55.7117 98.0072 56.3422C98.118 56.6564 98.2268 56.9675 98.3358 57.2785C98.4413 57.5904 98.5485 57.9003 98.6541 58.2122C98.5457 57.7131 98.4286 57.2161 98.3099 56.7161C98.3685 56.7453 98.4269 56.7712 98.4852 56.7935Z" fill="white"></path><path d="M25.5511 83.2607C25.6044 83.3969 25.656 83.5266 25.7076 83.6615C25.6968 83.6264 25.686 83.5897 25.6752 83.5546C25.6344 83.4581 25.592 83.357 25.5511 83.2607Z" fill="white"></path><path d="M27.4036 77.1943C27.3908 77.1427 27.3764 77.0896 27.3636 77.038C27.3153 76.8921 27.2651 76.7418 27.2185 76.5972C27.2813 76.7995 27.3406 76.9939 27.4036 77.1943Z" fill="white"></path><path d="M23.1774 67.1054C23.1169 66.848 23.0567 66.5908 22.998 66.3363C23.0248 66.5196 23.0515 66.7011 23.0783 66.8825C23.1275 67.0877 23.175 67.2885 23.2225 67.4906C23.207 67.3613 23.193 67.2331 23.1774 67.1054Z" fill="white"></path><path d="M94.4846 46.296C94.4667 46.1295 94.4471 45.9632 94.4274 45.7987C94.3591 45.4629 94.289 45.1291 94.219 44.7988C94.2533 45.0349 94.2861 45.2698 94.3204 45.5025C94.3756 45.7697 94.431 46.0336 94.4846 46.296Z" fill="white"></path><path d="M68.7088 51.1827C68.6994 51.1269 68.6917 51.0707 68.6823 51.0149C68.6474 50.8575 68.6125 50.6966 68.5776 50.5392C68.6221 50.7593 68.6645 50.9662 68.7088 51.1827Z" fill="white"></path><path d="M45.0645 62.8749C45.0465 62.7084 45.0269 62.5421 45.0073 62.3795C44.9371 62.044 44.8688 61.7098 44.7988 61.3794C44.8332 61.6155 44.8659 61.8487 44.9003 62.0831C44.9555 62.3503 45.0109 62.6123 45.0645 62.8749Z" fill="white"></path><path d="M47.9617 83.2315C48.0194 83.4123 48.0761 83.5822 48.1331 83.7604L48.0976 83.6209C48.0516 83.4931 48.0059 83.3598 47.9617 83.2315ZM7.1345 64.9897C7.16345 65.1369 7.14727 65.3041 7.17856 65.4533C7.3316 65.7123 7.51593 66.1204 7.60657 66.5696C7.74594 67.1511 7.89952 67.7282 8.06263 68.291C7.76878 67.1155 7.47601 65.9313 7.1345 64.9897ZM89.3273 -0.405086L89.1052 -0.724704C89.1498 -0.602328 89.2372 -0.356856 89.2803 -0.23394L89.4417 -0.0543357C89.4037 -0.170413 89.3652 -0.289009 89.3273 -0.405086ZM60.7774 -1.75896C60.4361 -2.4619 61.5835 -1.35278 60.7774 -1.75896V-1.75896ZM48.1331 83.7604L48.0976 83.6209C48.0518 83.4931 48.0061 83.3598 47.9617 83.2315C48.0194 83.4123 48.0761 83.5822 48.1331 83.7604ZM7.17856 65.4533C7.3316 65.7123 7.51593 66.1204 7.60657 66.5696C7.74594 67.1511 7.89952 67.7282 8.06263 68.291C7.76878 67.1155 7.47601 65.9313 7.1345 64.9897C7.16345 65.1369 7.14727 65.3041 7.17856 65.4533ZM6.27759 81.3809C6.32506 81.5479 6.37092 81.7155 6.41858 81.8825C6.49069 82.0673 6.56137 82.2527 6.63672 82.4306C6.60507 82.3128 6.57485 82.1942 6.5423 82.0793C6.45598 81.845 6.36643 81.6116 6.27759 81.3809Z" fill="white"></path><rect x="-0.000488281" y="-8.22083" width="100.193" height="104.438" fill="white"></rect><path d="M98.4685 68.339C98.4659 68.3329 98.4625 68.3278 98.4602 68.3213C98.4231 68.3608 98.4391 68.3544 98.4685 68.339Z" fill="white"></path><path d="M97.9052 76.9823C97.9206 76.977 97.9359 76.9712 97.9517 76.9656C97.9335 76.9483 97.9155 76.9333 97.8976 76.9197C97.9014 76.9518 97.9052 76.9823 97.9052 76.9823Z" fill="white"></path><path d="M97.3311 77.0672C97.3435 77.0607 97.3558 77.0562 97.3686 77.0506C97.3551 77.0498 97.3416 77.0493 97.3287 77.0475C97.3295 77.054 97.3302 77.0607 97.3311 77.0672Z" fill="white"></path><path d="M97.953 76.9639C98.1237 76.9016 98.2915 76.8185 98.4667 76.7926C98.4708 76.827 98.4793 76.8955 98.4836 76.93C98.5814 76.9329 98.6705 76.8675 98.7643 76.836C98.7685 76.8703 98.7728 76.9045 98.8196 76.8889C98.9451 76.8702 99.0219 76.8058 99.0428 76.7295C98.4999 76.7576 98.2667 76.4437 97.953 76.9639Z" fill="white"></path></g></svg>