<svg xmlns="http://www.w3.org/2000/svg" width="441" height="313" viewBox="0 0 441 313" fill="none"><path d="M106.002 49.3669C107.67 49.2342 111.411 50.0924 111.896 52.0375C111.449 54.1451 101.421 70.0752 99.5723 73.0981C104.487 74.7488 109.381 76.4614 114.253 78.2354C117.25 76.6419 120.784 74.3477 124.118 73.722C125.709 73.4235 127.904 75.0109 126.916 76.6142C124.817 80.0197 121.719 82.8374 120.599 86.8452C119.678 89.7664 120.889 95.5883 118.559 97.541C114.571 99.1931 111.963 90.3473 110.77 87.6098C106.012 86.2752 100.374 84.2174 95.6229 82.6168L93.9941 94.155C93.3155 97.8582 93.2319 101.915 92.1256 105.438C91.3387 107.944 85.7055 105.672 85.2175 103.698C84.5439 100.971 84.1354 98.2641 83.6582 95.4922C82.7197 89.8358 81.7304 84.1881 80.69 78.5499C76.2812 76.9367 57.1708 70.431 58.2826 65.0665C60.9953 60.1741 79.9634 66.2506 84.7484 67.6264C90.3463 62.8847 95.8149 57.9496 101.389 53.1773C102.927 51.8604 104.351 50.5516 106.002 49.3669Z" fill="#242424"></path><path d="M186.922 127.385C188.589 127.734 196.463 132.634 198.244 133.953C198.964 134.486 198.911 134.905 198.953 135.642C198.601 136.584 198.233 136.768 197.448 137.352C195.35 136.654 188.506 132.588 186.58 130.977C185.912 130.417 185.598 129.89 185.575 129.009C185.854 128.07 186.151 127.937 186.922 127.385Z" fill="#242424"></path><path d="M148.117 102.285C148.682 102.312 149.562 102.341 150.01 102.698C152.263 104.495 159.519 108.134 160.248 110.712C160.152 111.61 159.819 111.874 159.247 112.583C158.002 112.489 157.167 112.176 156.172 111.397C154.33 109.952 147.633 106.302 147.142 104.283C147.193 103.369 147.574 103.003 148.117 102.285Z" fill="#242424"></path><path d="M328.165 152.125C329.694 151.912 330.504 152.109 331.162 153.657C331.07 156.204 327.733 155.946 325.774 156.115C323.563 156.304 321.382 156.453 319.169 156.668C318.191 156.772 317.821 156.875 316.896 156.466C316.277 155.938 316.261 155.764 316.041 154.965C316.526 152.773 319.52 152.832 321.377 152.649C323.624 152.428 325.91 152.292 328.165 152.125Z" fill="#242424"></path><path d="M167.014 115.239C167.463 115.234 168.418 115.255 168.775 115.509C171.11 117.173 178.55 120.804 179.405 123.238C179.336 124.17 179.103 124.363 178.563 125.121C176.406 125.277 166.512 119.077 166.158 117.185C166.204 116.252 166.48 116.008 167.014 115.239Z" fill="#242424"></path><path d="M227.249 149.043C229.328 149.534 237.527 152.613 239.487 153.942C240.097 154.356 240.092 154.88 240.158 155.508C239.845 156.418 239.516 156.54 238.724 157.036C236.186 156.479 233.433 155.342 230.964 154.463C229.041 153.778 226.219 152.942 225.906 150.692C226.154 149.805 226.541 149.601 227.249 149.043Z" fill="#242424"></path><path d="M206.354 139.027C208.776 139.07 215.186 143.238 217.715 144.385C218.653 144.811 218.823 145.305 219.092 146.21C218.979 147.128 218.712 147.347 218.152 148.081C215.859 147.993 205.951 143.16 205.282 140.942C205.383 139.994 205.733 139.722 206.354 139.027Z" fill="#242424"></path><path d="M351.641 236.637C353.316 236.63 361.122 240.692 363.6 241.298C364.421 241.499 364.609 242.041 364.872 242.675C364.801 243.663 364.544 243.903 363.967 244.673C361.025 244.672 351.643 241.625 350.728 238.586C350.754 237.609 351.04 237.374 351.641 236.637Z" fill="#242424"></path><path d="M385.004 240.453C385.531 240.372 385.675 240.43 386.207 240.487C386.963 240.992 387.217 241.1 387.621 241.901C387.254 245.104 378.27 245.65 375.467 245.993C373.91 245.998 373.226 246.019 372.51 244.558C372.478 241.707 382.065 241.314 385.004 240.453Z" fill="#242424"></path><path d="M446.421 109.656C446.961 110.376 447.206 110.602 447.25 111.51C447.111 111.868 447.008 112.314 446.719 112.482C444.452 113.783 435.387 112.72 432.943 112.445C432.432 111.689 432.178 111.433 432.19 110.495C433.152 108.306 436.812 108.953 438.848 109.055C441.324 109.178 443.964 109.341 446.421 109.656Z" fill="#242424"></path><path d="M417.379 185.914C417.816 185.916 418.941 186.007 419.198 186.326C421.306 188.953 421.949 198.798 419.759 201.132C419.02 201.09 417.386 200.89 417.365 199.833C417.279 195.868 417.153 191.999 416.484 188.077C416.314 187.088 416.804 186.663 417.379 185.914Z" fill="#242424"></path><path d="M337.154 219.515C339.886 220 340.193 223.133 341.805 225.339C342.615 226.446 345.466 230.462 345.529 231.399C345.353 232.314 345.007 232.544 344.354 233.177C344.21 233.158 344.065 233.139 343.921 233.12L343.732 233.086C341.192 232.641 336.031 224.003 335.992 221.295C335.982 220.501 336.653 220.016 337.154 219.515Z" fill="#242424"></path><path d="M350.689 155.899C354.331 156.064 352.874 158.955 351.389 160.783C349.26 163.411 347.226 166.141 345.02 168.705C344.278 168.713 344.168 168.671 343.439 168.486C343.017 168.096 342.54 167.751 342.608 167.07C342.86 164.524 348.993 157.595 350.689 155.899Z" fill="#242424"></path><path d="M405.07 113.883C405.959 114.284 406.318 114.394 406.772 115.259C406.822 116.367 406.568 116.887 405.542 117.439C402.212 119.225 397.851 120.633 394.313 121.938C392.95 121.52 392.49 121.085 392.604 119.706C393.775 117.495 402.424 114.856 405.07 113.883Z" fill="#242424"></path><path d="M415.813 208.439C416.718 208.486 416.836 208.496 417.607 208.968C417.974 209.555 418.184 209.713 418.155 210.455C418.047 213.293 413.988 220.73 412.247 222.613C410.585 222.517 410.131 222.351 409.704 220.779C410.039 219.621 415.21 209.028 415.813 208.439Z" fill="#242424"></path><path d="M403.841 227.932C404.837 228 405.189 227.965 405.957 228.587C406.201 229.056 406.473 229.484 406.219 230.068C404.968 232.967 398.788 237.472 396.381 239.016C395.825 239.112 395.243 238.896 394.682 238.747C394.045 238.144 394.223 238.454 394.045 237.553C394.417 235.632 401.769 229.923 403.841 227.932Z" fill="#242424"></path><path d="M404.79 167.2C406.161 167.155 406.856 167.497 408.036 168.617C410.278 170.745 414.534 174.564 415.221 177.613C415.352 178.196 414.686 178.903 414.337 179.304L412.995 179.168C412.37 178.811 404.177 169.998 403.846 169.32C403.828 168.404 404.271 167.942 404.79 167.2Z" fill="#242424"></path><path d="M424.852 109.656C425.685 110.114 425.976 110.326 426.358 111.167C426.198 112.43 425.756 112.838 424.479 113.169C420.855 114.108 416.572 114.455 412.857 114.911C411.837 114.553 411.487 114.142 411.27 113.079C411.905 110.85 415.448 110.777 417.437 110.495C419.864 110.151 422.41 109.845 424.852 109.656Z" fill="#242424"></path><path d="M385.469 122.31C386.349 122.491 386.708 122.495 387.334 123.173C388.159 125.558 384.836 127.321 383.154 128.58C381.155 130.082 378.983 131.608 376.889 132.976C375.937 132.74 375.716 132.729 375.064 132.013C374.35 129.615 377.76 127.77 379.464 126.503C381.399 125.064 383.476 123.672 385.469 122.31Z" fill="#242424"></path><path d="M283.679 156.348C285.024 156.5 285.276 157.01 285.617 158.145C285.014 160.591 281.348 160.306 279.306 160.413C277.014 160.532 274.709 160.589 272.415 160.695C271.167 160.459 270.962 160.151 270.48 159.088C270.823 155.864 280.604 156.54 283.679 156.348Z" fill="#242424"></path><path d="M306.368 154.239C306.746 154.234 307.089 154.385 307.469 154.502C308.114 155.1 308.175 155.185 308.434 156.027C307.983 158.23 304.595 158.21 302.755 158.404C300.345 158.657 297.888 158.825 295.471 159.023C294.162 159.088 293.753 158.641 293.279 157.508C293.428 155 297.356 155.104 299.296 154.883C301.63 154.618 304.024 154.449 306.368 154.239Z" fill="#242424"></path><path d="M337.593 175.528C339.144 175.418 339.57 175.457 340.315 176.754C340.414 178.032 337.42 189.139 336.581 190.216C335.888 190.268 335.7 190.227 335.005 190.127C334.425 189.653 334.086 189.477 333.98 188.598C333.681 186.093 336.361 177.296 337.593 175.528Z" fill="#242424"></path><path d="M385.337 155.929C387.88 156.28 397.763 159.811 398.14 162.659C397.973 163.638 397.705 163.801 397 164.454C395.796 164.352 386.53 159.936 384.752 159.193C384.306 159.006 384.188 158.165 384.128 157.675C384.367 156.773 384.676 156.585 385.337 155.929Z" fill="#242424"></path><path d="M367.266 136.191C368.225 136.243 368.443 136.212 369.203 136.779C369.856 138.003 369.584 138.799 368.713 139.845C366.356 142.676 363.39 145.597 360.839 148.229C359.874 148.279 359.423 148.258 358.715 147.679C357.719 145.444 360.464 143.182 361.901 141.628C363.603 139.782 365.451 137.924 367.266 136.191Z" fill="#242424"></path><path d="M248.535 155.917C249.775 155.8 259.9 156.659 261.54 157.298C262.315 157.599 262.454 158.029 262.692 158.684C262.642 159.605 262.454 159.766 261.883 160.509C259.703 160.788 251.454 160.202 249.201 159.377C248.239 159.025 248.078 158.66 247.741 157.869C247.776 156.881 247.962 156.703 248.535 155.917Z" fill="#242424"></path><path d="M340.599 151.327C343.405 151.217 352.173 150.291 353.885 152.261C354.244 153.868 353.639 154.462 352.11 154.862C349.352 154.811 340.581 155.756 339.007 153.933C338.648 152.449 339.207 151.765 340.599 151.327Z" fill="#242424"></path><path d="M362.562 151.694C365.129 151.532 375.737 152.207 376.668 154.756C376.747 155.644 376.44 155.983 375.979 156.726C374.765 156.898 364.321 155.582 362.556 154.927C362.184 154.79 361.885 154.143 361.757 153.719C361.785 152.745 362.037 152.482 362.562 151.694Z" fill="#242424"></path><path d="M334.269 197.013C335.234 197.117 336.711 197.492 336.645 198.724C336.43 202.797 336.593 206.879 336.464 210.942C336.446 211.504 335.832 212.02 335.463 212.419C334.964 212.32 333.947 212.209 333.721 211.829C332.059 209.03 332.091 199.165 334.269 197.013Z" fill="#242424"></path><path d="M131.612 90.1082C133.46 90.3169 141.025 95.7147 141.501 97.4694C141.413 98.3839 140.94 98.7797 140.343 99.4625C138.168 99.2593 130.749 94.2325 130.483 91.8671C130.609 90.9783 130.985 90.7247 131.612 90.1082Z" fill="#242424"></path></svg>